<svg width="940" height="486" fill="none" xmlns="http://www.w3.org/2000/svg"><g opacity=".3" filter="url(#a)"><path d="M8.451 191.408c2.556.393 4.233.759 5.378 1.451-.6 1.138-1.624 2.467-3.048 4.203a.508.508 0 0 0 .026.678.5.5 0 0 0 .666.027c1.637-1.397 2.901-2.427 4.006-3.037.865 1.789 1.185 4.745 1.53 10.277a.485.485 0 0 0 .972 0c.346-5.559.679-8.528 1.558-10.318.851.474 1.863 1.22 3.38 2.454a.5.5 0 0 0 .666-.027.506.506 0 0 0 .026-.665c-1.091-1.396-1.943-2.548-2.475-3.579 1.158-.705 2.835-1.071 5.403-1.464a.482.482 0 0 0 .413-.488.482.482 0 0 0-.413-.488c-2.555-.394-4.219-.76-5.363-1.451.585-1.139 1.623-2.468 3.048-4.203a.51.51 0 0 0-.04-.678.482.482 0 0 0-.653-.027c-1.637 1.396-2.915 2.427-4.006 3.037-.878-1.79-1.198-4.745-1.544-10.277a.488.488 0 0 0-.972 0c-.345 5.559-.665 8.514-1.543 10.318-.852-.475-1.877-1.221-3.394-2.454a.48.48 0 0 0-.652.027c-.174.176-.2.474-.04.664 1.104 1.397 1.956 2.549 2.475 3.579-1.144.705-2.835 1.071-5.404 1.451a.507.507 0 0 0-.412.502c0 .244.173.461.412.488zm6.323-1.871a.51.51 0 0 0 .16-.61 11.781 11.781 0 0 0-.786-1.41c.453.298.892.542 1.304.745a.484.484 0 0 0 .626-.189c.705-1.18 1.118-2.78 1.424-5.261.293 2.454.706 4.054 1.398 5.233.133.217.399.299.639.19.452-.23.944-.529 1.463-.895a13.125 13.125 0 0 0-.918 1.6.51.51 0 0 0 .16.61c.852.638 1.943 1.044 3.407 1.37-1.477.339-2.569.745-3.434 1.383-.186.135-.24.393-.146.61.2.447.452.922.772 1.41a11.004 11.004 0 0 0-1.305-.746.5.5 0 0 0-.625.19c-.706 1.18-1.118 2.779-1.41 5.261-.307-2.454-.72-4.054-1.412-5.22a.472.472 0 0 0-.412-.244.545.545 0 0 0-.213.04 11.31 11.31 0 0 0-1.478.895c.386-.569.692-1.098.919-1.6a.51.51 0 0 0-.16-.61c-.852-.637-1.93-1.044-3.407-1.369 1.49-.326 2.582-.746 3.434-1.383zM235.595 432.649a.506.506 0 0 0-.413-.502c-2.555-.38-4.219-.746-5.377-1.451.599-1.125 1.624-2.454 3.048-4.189a.494.494 0 0 0-.027-.678.482.482 0 0 0-.652-.027c-1.65 1.396-2.915 2.413-4.006 3.037-.879-1.804-1.198-4.746-1.544-10.277a.487.487 0 0 0-.479-.475.49.49 0 0 0-.493.475c-.346 5.558-.665 8.514-1.544 10.304-.851-.461-1.876-1.207-3.394-2.454a.482.482 0 0 0-.652.04.507.507 0 0 0-.04.665c1.105 1.383 1.957 2.549 2.476 3.566-1.145.705-2.835 1.071-5.404 1.464a.496.496 0 0 0-.412.502c0 .244.173.447.412.488 2.556.393 4.233.745 5.377 1.45-.599 1.126-1.623 2.468-3.048 4.203a.507.507 0 0 0 .027.665c.186.19.466.203.666.027 1.637-1.397 2.901-2.413 4.006-3.037.865 1.803 1.184 4.745 1.53 10.277a.49.49 0 0 0 .493.474.486.486 0 0 0 .479-.474c.346-5.559.679-8.515 1.557-10.304.839.461 1.864 1.206 3.381 2.454.2.162.479.149.665-.041a.503.503 0 0 0 .027-.664c-1.091-1.383-1.943-2.536-2.462-3.566 1.144-.705 2.821-1.071 5.39-1.464a.492.492 0 0 0 .413-.488zm-6.735 1.382a.506.506 0 0 0-.146.611c.199.447.452.922.772 1.41a10.768 10.768 0 0 0-1.305-.746.483.483 0 0 0-.625.19c-.706 1.179-1.118 2.779-1.411 5.247-.306-2.441-.706-4.041-1.411-5.22a.489.489 0 0 0-.413-.231.55.55 0 0 0-.213.041c-.465.231-.958.529-1.477.881.386-.569.692-1.084.918-1.586a.509.509 0 0 0-.159-.61c-.852-.637-1.93-1.044-3.408-1.369 1.491-.339 2.583-.746 3.434-1.383a.494.494 0 0 0 .147-.611 10.27 10.27 0 0 0-.772-1.423c.452.298.892.556 1.304.746a.485.485 0 0 0 .626-.19c.705-1.166 1.118-2.78 1.424-5.247.293 2.454.705 4.054 1.397 5.22.133.217.4.311.626.189.466-.23.958-.515 1.477-.881-.386.57-.692 1.098-.918 1.6a.51.51 0 0 0 .16.61c.851.637 1.943 1.031 3.407 1.37-1.477.325-2.569.732-3.434 1.382zM.413 455.277c2.555.38 4.219.746 5.363 1.451-.585 1.125-1.61 2.454-3.048 4.189a.509.509 0 0 0 .04.678c.173.177.466.19.653.027 1.637-1.396 2.914-2.413 4.006-3.037.878 1.79 1.198 4.746 1.544 10.278a.497.497 0 0 0 .479.474.5.5 0 0 0 .492-.474c.346-5.559.666-8.515 1.544-10.305.852.461 1.877 1.207 3.394 2.454a.496.496 0 0 0 .692-.705c-1.104-1.383-1.956-2.549-2.475-3.565 1.144-.719 2.835-1.072 5.403-1.465a.495.495 0 0 0 .413-.501.492.492 0 0 0-.413-.488c-2.555-.394-4.232-.746-5.377-1.451.6-1.126 1.624-2.468 3.048-4.203a.491.491 0 0 0-.026-.665.473.473 0 0 0-.666-.027c-1.637 1.397-2.901 2.414-4.006 3.037-.865-1.803-1.185-4.745-1.53-10.277a.49.49 0 0 0-.493-.474.487.487 0 0 0-.48.474c-.345 5.559-.665 8.515-1.556 10.304-.839-.461-1.864-1.206-3.381-2.454a.487.487 0 0 0-.666.041.504.504 0 0 0-.026.664c1.091 1.383 1.943 2.536 2.475 3.566-1.158.705-2.835 1.071-5.403 1.465a.492.492 0 0 0-.413.488c0 .257.173.461.413.501zm6.308-1.884a.497.497 0 0 0 .16-.597c-.2-.461-.466-.935-.772-1.424.453.299.879.543 1.305.746a.484.484 0 0 0 .625-.19c.705-1.179 1.118-2.779 1.41-5.247.307 2.454.706 4.041 1.412 5.22.12.217.399.299.625.19.466-.23.959-.529 1.478-.881-.386.569-.693 1.084-.919 1.586a.493.493 0 0 0 .16.61c.852.637 1.93 1.044 3.407 1.37-1.49.339-2.582.745-3.434 1.383a.51.51 0 0 0-.16.61c.2.447.466.922.773 1.41-.44-.299-.879-.543-1.291-.746a.499.499 0 0 0-.626.19c-.705 1.179-1.118 2.779-1.424 5.26-.293-2.454-.706-4.054-1.398-5.22a.48.48 0 0 0-.426-.244.596.596 0 0 0-.212.041 12.26 12.26 0 0 0-1.478.895c.386-.569.692-1.098.918-1.6a.478.478 0 0 0-.16-.61c-.851-.637-1.93-1.044-3.406-1.369 1.49-.326 2.582-.733 3.433-1.383zM400.582 96.12c2.556.394 4.219.747 5.377 1.452-.599 1.125-1.624 2.454-3.048 4.189a.495.495 0 0 0 .027.678c.173.176.466.19.652.027 1.65-1.396 2.915-2.413 4.02-3.037.865 1.803 1.184 4.746 1.53 10.277a.498.498 0 0 0 .479.475.5.5 0 0 0 .493-.475c.346-5.559.665-8.514 1.557-10.304.839.461 1.863 1.207 3.381 2.454a.481.481 0 0 0 .652-.041.49.49 0 0 0 .04-.664c-1.092-1.383-1.943-2.549-2.476-3.566 1.145-.705 2.835-1.07 5.404-1.464a.496.496 0 0 0 .413-.502.492.492 0 0 0-.413-.488c-2.555-.393-4.219-.746-5.377-1.45.599-1.126 1.624-2.468 3.048-4.204a.477.477 0 0 0-.027-.664.471.471 0 0 0-.665-.027c-1.637 1.397-2.902 2.413-4.007 3.037-.865-1.803-1.184-4.745-1.53-10.277a.49.49 0 0 0-.493-.475.488.488 0 0 0-.479.475c-.346 5.559-.665 8.514-1.557 10.304-.839-.46-1.863-1.207-3.381-2.454a.469.469 0 0 0-.652.04.492.492 0 0 0-.04.665c1.092 1.383 1.943 2.535 2.476 3.566-1.145.705-2.835 1.071-5.404 1.464a.493.493 0 0 0-.413.488c0 .258.174.461.413.502zm6.322-1.884a.49.49 0 0 0 .147-.596 9.538 9.538 0 0 0-.772-1.424c.452.299.878.543 1.304.746a.485.485 0 0 0 .626-.19c.705-1.18 1.118-2.78 1.41-5.247.307 2.454.719 4.04 1.411 5.22.133.217.4.298.626.19.466-.23.958-.529 1.477-.882-.386.57-.692 1.085-.918 1.587a.51.51 0 0 0 .159.61c.852.637 1.944 1.044 3.408 1.37-1.491.338-2.582.745-3.434 1.382a.516.516 0 0 0-.16.61c.213.448.466.922.785 1.41a14.676 14.676 0 0 0-1.304-.745.504.504 0 0 0-.625.203c-.706 1.166-1.118 2.766-1.425 5.247-.292-2.454-.705-4.054-1.397-5.22a.478.478 0 0 0-.639-.19c-.453.217-.945.516-1.464.882.386-.57.679-1.099.918-1.6a.515.515 0 0 0-.159-.61c-.852-.638-1.944-1.03-3.408-1.37 1.478-.325 2.569-.732 3.434-1.383zM408.554 227.933a.504.504 0 0 0 .027-.664c-2.223-2.82-3.926-5.152-4.925-7.226 2.25-1.532 5.577-2.265 10.768-3.065a.492.492 0 0 0 .413-.488.495.495 0 0 0-.413-.501c-5.164-.787-8.465-1.519-10.714-3.037 1.118-2.265 3.154-4.922 6.029-8.42a.523.523 0 0 0-.027-.678.499.499 0 0 0-.665-.027c-3.328 2.847-5.883 4.867-8.079 6.033-1.85-3.443-2.476-9.111-3.168-20.106a.487.487 0 0 0-.971 0c-.693 11.05-1.331 16.73-3.195 20.161-1.717-.882-3.766-2.346-6.907-4.908a.482.482 0 0 0-.653.027.523.523 0 0 0-.04.664c2.236 2.82 3.94 5.152 4.925 7.227-2.249 1.532-5.563 2.277-10.768 3.064a.495.495 0 0 0-.412.501c0 .244.173.448.412.488 5.178.787 8.479 1.519 10.728 3.038-1.118 2.264-3.154 4.921-6.029 8.419-.16.204-.16.502.026.678.173.19.466.203.666.027 3.327-2.833 5.869-4.867 8.079-6.033 1.85 3.444 2.475 9.111 3.168 20.107a.486.486 0 0 0 .479.474.49.49 0 0 0 .492-.474c.692-11.037 1.331-16.731 3.195-20.161 1.716.881 3.766 2.345 6.907 4.921a.498.498 0 0 0 .652-.041zm-7.546-5.992a.484.484 0 0 0-.626.19c-1.677 2.793-2.462 6.928-3.074 14.141-.599-7.173-1.384-11.294-3.035-14.087a.495.495 0 0 0-.426-.231.6.6 0 0 0-.213.041c-1.504.732-3.128 1.857-5.017 3.349 1.53-2.02 2.661-3.729 3.367-5.288a.493.493 0 0 0-.16-.61c-1.956-1.451-4.605-2.264-8.491-2.969 3.913-.705 6.588-1.519 8.544-2.983.187-.136.24-.393.147-.61-.639-1.437-1.597-2.969-2.835-4.678 1.797 1.356 3.181 2.224 4.432 2.82a.484.484 0 0 0 .626-.189c1.663-2.793 2.462-6.929 3.061-14.142.612 7.173 1.384 11.294 3.048 14.087a.483.483 0 0 0 .625.19c1.504-.732 3.128-1.857 5.031-3.349-1.53 2.021-2.662 3.729-3.367 5.288a.488.488 0 0 0 .146.61c1.957 1.451 4.606 2.264 8.492 2.969-3.913.705-6.575 1.519-8.532 2.983a.51.51 0 0 0-.159.61c.639 1.437 1.597 2.956 2.835 4.664-1.611-1.206-3.048-2.155-4.419-2.806zM117.95 198.906c5.178.786 8.478 1.518 10.728 3.037-1.118 2.25-3.155 4.921-6.03 8.419a.495.495 0 0 0 .027.678.5.5 0 0 0 .666.027c3.327-2.847 5.869-4.867 8.079-6.033 1.836 3.444 2.475 9.111 3.167 20.107a.486.486 0 0 0 .972 0c.692-11.05 1.331-16.731 3.194-20.175 1.717.881 3.767 2.346 6.908 4.922a.483.483 0 0 0 .652-.027.524.524 0 0 0 .027-.678c-2.223-2.82-3.927-5.139-4.925-7.213 2.263-1.532 5.577-2.278 10.768-3.078a.494.494 0 0 0 0-.976c-5.164-.8-8.465-1.532-10.715-3.037 1.118-2.264 3.155-4.922 6.03-8.433a.507.507 0 0 0-.027-.665.485.485 0 0 0-.665-.04c-3.328 2.847-5.883 4.881-8.079 6.047-1.85-3.458-2.476-9.125-3.168-20.107a.49.49 0 0 0-.493-.475.489.489 0 0 0-.479.475c-.692 11.036-1.331 16.717-3.194 20.161-1.717-.882-3.767-2.346-6.908-4.922a.468.468 0 0 0-.652.041.52.52 0 0 0-.04.664c2.236 2.82 3.94 5.152 4.925 7.227-2.25 1.532-5.564 2.264-10.768 3.064a.482.482 0 0 0-.412.488c0 .244.173.461.412.502zm11.686-3.485c.186-.135.24-.393.146-.61-.638-1.437-1.597-2.969-2.821-4.664 1.597 1.193 3.048 2.142 4.419 2.807a.47.47 0 0 0 .612-.204c1.69-2.779 2.475-6.928 3.074-14.127.613 7.158 1.385 11.28 3.048 14.086.133.217.4.299.626.19 1.504-.745 3.128-1.857 5.031-3.349-1.531 2.007-2.662 3.729-3.367 5.288a.488.488 0 0 0 .146.61c1.957 1.451 4.605 2.251 8.505 2.956-3.926.718-6.588 1.532-8.545 2.996a.497.497 0 0 0-.16.597c.639 1.437 1.598 2.969 2.835 4.677-1.597-1.206-3.048-2.155-4.418-2.806a.484.484 0 0 0-.626.19c-1.677 2.793-2.462 6.928-3.075 14.141-.599-7.172-1.384-11.294-3.034-14.087a.507.507 0 0 0-.426-.244.41.41 0 0 0-.213.054c-1.491.732-3.128 1.858-5.018 3.349 1.531-2.02 2.662-3.729 3.368-5.288a.48.48 0 0 0-.16-.61c-1.957-1.464-4.605-2.264-8.492-2.969 3.913-.705 6.589-1.519 8.545-2.983zM347.556 428.568c5.178.8 8.479 1.532 10.728 3.037-1.118 2.264-3.155 4.935-6.029 8.433a.495.495 0 0 0 .692.705c3.327-2.847 5.869-4.881 8.079-6.047 1.836 3.457 2.475 9.125 3.167 20.12a.486.486 0 0 0 .972 0c.692-11.05 1.331-16.731 3.194-20.174 1.717.881 3.767 2.345 6.908 4.921a.47.47 0 0 0 .652-.04.505.505 0 0 0 .027-.665c-2.223-2.82-3.926-5.152-4.925-7.226 2.25-1.532 5.577-2.264 10.768-3.064a.483.483 0 0 0 .412-.489.483.483 0 0 0-.412-.488c-5.164-.8-8.465-1.532-10.714-3.037 1.104-2.264 3.141-4.921 6.029-8.433a.504.504 0 0 0-.027-.664.485.485 0 0 0-.665-.041c-3.328 2.847-5.883 4.881-8.079 6.047-1.85-3.457-2.489-9.125-3.168-20.107a.49.49 0 0 0-.492-.474.488.488 0 0 0-.48.474c-.692 11.037-1.331 16.718-3.207 20.161-1.717-.881-3.754-2.345-6.895-4.921a.47.47 0 0 0-.652.04.507.507 0 0 0-.04.665c2.236 2.82 3.94 5.152 4.925 7.226-2.25 1.532-5.564 2.264-10.768 3.064a.483.483 0 0 0-.412.488c0 .245.186.461.412.489zm11.686-3.471a.51.51 0 0 0 .147-.61c-.639-1.438-1.598-2.97-2.835-4.678 1.796 1.342 3.181 2.21 4.418 2.807a.481.481 0 0 0 .626-.19c1.677-2.78 2.462-6.928 3.075-14.141.612 7.172 1.384 11.294 3.047 14.087.134.23.4.311.626.189 1.504-.732 3.128-1.844 5.031-3.349-1.531 2.021-2.662 3.743-3.381 5.288a.536.536 0 0 0 .16.624c1.957 1.451 4.605 2.25 8.492 2.955-3.913.719-6.575 1.519-8.532 2.997a.49.49 0 0 0-.159.596c.638 1.438 1.597 2.97 2.834 4.678-1.61-1.207-3.047-2.156-4.418-2.807a.485.485 0 0 0-.626.19c-1.677 2.793-2.462 6.928-3.074 14.141-.599-7.172-1.385-11.294-3.035-14.087a.48.48 0 0 0-.639-.189c-1.504.732-3.128 1.844-5.018 3.349 1.531-2.021 2.662-3.743 3.368-5.288a.536.536 0 0 0-.16-.624c-1.957-1.451-4.605-2.25-8.492-2.956 3.913-.705 6.589-1.518 8.545-2.982z" fill="#EBDCAE"/><mask id="b" style="mask-type:luminance" maskUnits="userSpaceOnUse" x="427" y="2" width="11" height="5"><path d="M427.334 2h10.222v4.352h-10.222V2z" fill="#fff"/></mask><g mask="url(#b)"><path d="M434.442 3.776c.319-.515.599-1.085.852-1.708h-1.065c-.133.284-.253.555-.399.8a17.484 17.484 0 0 1-1.385-.8h-1.796c1.118.786 2.169 1.423 3.167 1.911.24.109.506.014.626-.203z" fill="#EBDCAE"/></g><mask id="c" style="mask-type:luminance" maskUnits="userSpaceOnUse" x="417" y="2" width="41" height="36"><path d="M417.113 2H458v35.59h-40.887V2z" fill="#fff"/></mask><g mask="url(#c)"><path d="M420.4 8.942a.492.492 0 0 0-.412.488c0 .257.173.46.412.501 5.178.787 8.478 1.519 10.728 3.037-1.118 2.251-3.155 4.922-6.03 8.42a.494.494 0 0 0 .027.678c.173.176.466.19.652.027 3.341-2.847 5.883-4.867 8.093-6.033 1.836 3.443 2.475 9.11 3.154 20.106.027.258.24.461.492.461.267 0 .48-.203.493-.46.692-11.05 1.331-16.731 3.194-20.175 1.717.895 3.767 2.345 6.895 4.921.199.163.479.15.665-.027a.506.506 0 0 0 .027-.664c-2.223-2.82-3.927-5.152-4.925-7.227 2.25-1.532 5.577-2.277 10.768-3.064a.496.496 0 0 0 .412-.501.492.492 0 0 0-.412-.488c-5.164-.787-8.465-1.519-10.715-3.037.559-1.153 1.371-2.414 2.409-3.837h-1.211c-.985 1.396-1.743 2.63-2.262 3.796a.489.489 0 0 0 .146.61c1.957 1.45 4.605 2.25 8.505 2.956-3.926.718-6.588 1.518-8.545 2.996a.497.497 0 0 0-.16.597c.639 1.437 1.598 2.969 2.835 4.677-1.597-1.206-3.048-2.156-4.418-2.806a.485.485 0 0 0-.626.19c-1.677 2.792-2.462 6.928-3.075 14.14-.599-7.172-1.384-11.293-3.034-14.086a.507.507 0 0 0-.426-.244.416.416 0 0 0-.213.054c-1.504.732-3.128 1.857-5.018 3.349 1.531-2.02 2.662-3.729 3.368-5.288a.48.48 0 0 0-.16-.61c-1.957-1.464-4.605-2.264-8.492-2.97 3.927-.704 6.589-1.518 8.545-2.982a.51.51 0 0 0 .146-.61c-.519-1.18-1.264-2.414-2.182-3.77h-1.211c.984 1.383 1.77 2.63 2.329 3.81-2.25 1.532-5.564 2.265-10.768 3.065z" fill="#EBDCAE"/></g><mask id="d" style="mask-type:luminance" maskUnits="userSpaceOnUse" x="437" y="2" width="8" height="5"><path d="M437.556 2h6.815v4.352h-6.815V2z" fill="#fff"/></mask><g mask="url(#d)"><path d="M441.19 3.925c.945-.475 1.943-1.085 3.035-1.857h-1.797c-.426.284-.852.528-1.251.745-.12-.23-.24-.488-.36-.745h-1.064c.239.61.505 1.152.811 1.667.134.217.4.298.626.19z" fill="#EBDCAE"/></g><path d="M87.95 106.927c.785.989 1.384 1.816 1.784 2.549-.839.474-2.063.745-3.9 1.016a.497.497 0 0 0-.413.502c0 .244.173.448.413.488 1.823.285 3.035.543 3.873 1.004-.44.827-1.184 1.789-2.21 3.023a.523.523 0 0 0 .027.678.5.5 0 0 0 .666.027c1.131-.976 2.076-1.722 2.861-2.196.613 1.342.839 3.525 1.092 7.524a.487.487 0 0 0 .479.475.49.49 0 0 0 .492-.475c.253-4.026.48-6.223 1.092-7.551.599.352 1.344.894 2.409 1.762a.47.47 0 0 0 .652-.041.504.504 0 0 0 .027-.664c-.772-.976-1.385-1.803-1.77-2.549.838-.474 2.05-.732 3.886-1.017a.493.493 0 0 0 .426-.488.519.519 0 0 0-.426-.502c-1.81-.271-3.035-.528-3.873-1.003.452-.813 1.198-1.776 2.21-3.01a.494.494 0 0 0-.027-.678.473.473 0 0 0-.666-.027c-1.131.963-2.063 1.722-2.862 2.197-.598-1.343-.825-3.525-1.078-7.539a.488.488 0 0 0-.492-.46.485.485 0 0 0-.48.46c-.252 4.027-.492 6.224-1.09 7.552-.613-.339-1.345-.881-2.41-1.762a.498.498 0 0 0-.692.705zm3.088 2.183a.485.485 0 0 0 .626-.19c.452-.746.745-1.709.958-3.105.213 1.369.506 2.332.945 3.078.133.23.413.311.639.189.2-.094.412-.216.625-.352a9.493 9.493 0 0 0-.372.719.51.51 0 0 0 .146.623c.56.407 1.238.692 2.103.922-.878.231-1.557.515-2.116.936a.495.495 0 0 0-.16.596c.093.217.2.421.32.637-.187-.108-.36-.203-.546-.298a.485.485 0 0 0-.626.19c-.452.746-.745 1.722-.958 3.105-.213-1.37-.506-2.332-.945-3.078a.502.502 0 0 0-.413-.244.39.39 0 0 0-.213.054 4.954 4.954 0 0 0-.639.353c.147-.244.28-.488.386-.719a.51.51 0 0 0-.16-.61c-.545-.42-1.224-.705-2.089-.922.879-.244 1.557-.529 2.103-.935a.515.515 0 0 0 .16-.61 9.442 9.442 0 0 0-.32-.638c.187.122.373.217.546.299zM92.529 483.926a.49.49 0 0 0 .492.474.508.508 0 0 0 .493-.474c.253-4.027.479-6.21 1.091-7.552.6.352 1.331.895 2.396 1.762.2.163.48.15.652-.027.186-.19.2-.474.04-.678-.772-.976-1.384-1.803-1.783-2.535.838-.488 2.063-.746 3.9-1.03a.483.483 0 0 0 .412-.489.483.483 0 0 0-.413-.488c-1.823-.284-3.034-.542-3.873-1.016.44-.814 1.185-1.777 2.21-3.01a.523.523 0 0 0-.027-.678.498.498 0 0 0-.665-.027c-1.172.989-2.077 1.735-2.862 2.196-.599-1.342-.839-3.525-1.078-7.538a.506.506 0 0 0-.493-.461.497.497 0 0 0-.492.461c-.253 4.04-.48 6.223-1.091 7.565-.6-.352-1.345-.895-2.41-1.762a.482.482 0 0 0-.652.027.505.505 0 0 0-.026.664c.891 1.139 1.437 1.912 1.783 2.549-.838.488-2.063.746-3.9 1.017a.506.506 0 0 0-.412.501c0 .245.173.461.412.489 1.824.284 3.035.542 3.873 1.016-.452.814-1.197 1.777-2.209 3.01a.523.523 0 0 0 .027.678c.173.177.466.19.665.027 1.132-.962 2.076-1.722 2.862-2.196.599 1.342.825 3.525 1.078 7.525zm-1.717-8.298c.146-.244.266-.488.373-.718a.49.49 0 0 0-.147-.611c-.559-.406-1.238-.691-2.103-.922.879-.23 1.558-.515 2.117-.935a.51.51 0 0 0 .16-.61 9.177 9.177 0 0 0-.32-.624c.186.109.36.204.546.298a.489.489 0 0 0 .625-.203c.453-.746.745-1.708.958-3.091.213 1.369.506 2.332.945 3.078.133.216.4.298.626.189.213-.108.426-.217.639-.352-.147.244-.28.488-.386.718a.512.512 0 0 0 .16.611c.545.406 1.224.691 2.09.921-.88.231-1.558.516-2.104.936a.51.51 0 0 0-.16.61c.094.203.2.407.32.624a6.767 6.767 0 0 0-.546-.285.48.48 0 0 0-.625.19c-.453.746-.746 1.708-.959 3.091-.213-1.369-.505-2.332-.945-3.078a.494.494 0 0 0-.425-.23.596.596 0 0 0-.213.041c-.2.108-.413.217-.626.352zM183.847 27.218c1.81.285 3.034.543 3.873 1.017-.453.814-1.198 1.776-2.21 3.01a.494.494 0 0 0 .692.705c1.132-.976 2.063-1.722 2.862-2.196.599 1.342.825 3.525 1.078 7.524a.499.499 0 0 0 .492.475.488.488 0 0 0 .48-.475c.252-4.026.492-6.223 1.091-7.551.612.352 1.344.894 2.409 1.762.2.163.479.15.652-.04a.49.49 0 0 0 .04-.665c-.905-1.139-1.437-1.912-1.783-2.549.838-.474 2.063-.732 3.899-1.017a.492.492 0 0 0 .413-.488.496.496 0 0 0-.413-.502c-1.823-.27-3.034-.528-3.873-1.003.439-.813 1.185-1.776 2.21-3.023a.506.506 0 0 0-.027-.665.472.472 0 0 0-.665-.027c-1.132.963-2.077 1.722-2.875 2.183-.599-1.329-.826-3.512-1.078-7.525a.486.486 0 0 0-.972 0c-.253 4.027-.479 6.224-1.091 7.552-.613-.339-1.345-.881-2.409-1.762a.498.498 0 0 0-.653.04.522.522 0 0 0-.04.665c.786.99 1.398 1.817 1.784 2.549-.839.474-2.063.732-3.9 1.017a.496.496 0 0 0-.412.501c0 .244.186.448.426.488zm4.818-1.423a.514.514 0 0 0 .159-.61 6.809 6.809 0 0 0-.319-.624c.186.108.359.203.546.285a.484.484 0 0 0 .625-.19c.439-.746.732-1.709.958-3.091.213 1.369.493 2.331.945 3.064.12.23.4.311.626.19.213-.095.413-.217.639-.353-.147.258-.28.488-.386.718a.534.534 0 0 0 .16.624c.545.407 1.224.692 2.089.922-.878.23-1.557.515-2.103.936a.495.495 0 0 0-.159.596c.093.217.199.42.319.637-.186-.108-.373-.203-.546-.298a.494.494 0 0 0-.625.19c-.453.746-.746 1.722-.959 3.105-.213-1.37-.505-2.332-.945-3.078a.505.505 0 0 0-.425-.244.612.612 0 0 0-.213.054c-.2.109-.413.217-.626.353.146-.244.266-.488.373-.719a.489.489 0 0 0-.147-.61c-.559-.407-1.237-.691-2.103-.922.879-.23 1.558-.529 2.117-.935zM155.497 340.168c-.838.488-2.063.746-3.9 1.031a.482.482 0 0 0-.412.488c0 .244.173.461.412.488 1.824.285 3.048.542 3.887 1.017-.453.813-1.198 1.776-2.223 3.01a.508.508 0 0 0 .04.677c.173.177.466.19.652.028 1.131-.963 2.076-1.722 2.875-2.197.599 1.342.825 3.525 1.078 7.525a.487.487 0 0 0 .479.475.492.492 0 0 0 .493-.475c.253-4.027.479-6.21 1.091-7.552.612.353 1.344.895 2.409 1.763a.483.483 0 0 0 .652-.027.522.522 0 0 0 .04-.665c-.785-.99-1.397-1.817-1.783-2.549.838-.488 2.063-.745 3.9-1.017a.505.505 0 0 0 .412-.501.482.482 0 0 0-.412-.488c-1.824-.285-3.048-.543-3.887-1.017.453-.814 1.198-1.776 2.223-3.01a.509.509 0 0 0-.04-.678.482.482 0 0 0-.652-.027c-1.172.99-2.09 1.735-2.875 2.196-.599-1.342-.825-3.525-1.078-7.525a.49.49 0 0 0-.493-.474.486.486 0 0 0-.479.474c-.253 4.027-.492 6.224-1.091 7.552-.612-.352-1.345-.894-2.409-1.762a.481.481 0 0 0-.652.027.524.524 0 0 0-.04.678c.905 1.125 1.45 1.898 1.783 2.535zm1.304-.366c.24.109.506.027.626-.19.453-.745.745-1.708.958-3.091.227 1.369.506 2.332.945 3.078a.502.502 0 0 0 .639.19c.2-.109.413-.231.639-.353-.16.244-.279.475-.386.705a.516.516 0 0 0 .16.624c.545.407 1.224.691 2.089.922-.878.23-1.557.515-2.116.935a.475.475 0 0 0-.146.597c.08.217.186.42.319.637-.186-.108-.373-.203-.559-.298a.497.497 0 0 0-.625.19c-.44.759-.732 1.721-.959 3.104-.213-1.369-.492-2.332-.945-3.077a.502.502 0 0 0-.412-.244.38.38 0 0 0-.213.054c-.213.095-.413.217-.639.352a7.99 7.99 0 0 0 .386-.718.51.51 0 0 0-.16-.61c-.546-.407-1.224-.692-2.089-.922.878-.244 1.557-.529 2.102-.936a.514.514 0 0 0 .16-.61 6.944 6.944 0 0 0-.319-.624c.186.109.372.204.545.285zM444.837 416.623c.253 0 .466-.217.492-.475.24-4.027.48-6.223 1.078-7.552.613.353 1.345.895 2.41 1.763a.468.468 0 0 0 .652-.041.491.491 0 0 0 .04-.664c-.786-.99-1.398-1.817-1.784-2.549.839-.475 2.063-.732 3.9-1.017a.492.492 0 0 0 .412-.488.496.496 0 0 0-.412-.502c-1.824-.271-3.035-.528-3.873-1.003.439-.813 1.184-1.776 2.209-3.023a.505.505 0 0 0-.026-.665.473.473 0 0 0-.666-.027c-1.131.963-2.076 1.722-2.875 2.183-.599-1.329-.825-3.512-1.078-7.525a.485.485 0 0 0-.479-.461.49.49 0 0 0-.493.461c-.252 4.027-.479 6.223-1.091 7.552-.599-.339-1.344-.881-2.409-1.763a.5.5 0 0 0-.652.041.503.503 0 0 0-.027.664c.772.99 1.384 1.817 1.77 2.549-.838.475-2.049.733-3.886 1.017a.507.507 0 0 0-.426.502c0 .244.186.447.426.488 1.81.285 3.035.529 3.873 1.003-.452.814-1.198 1.79-2.209 3.024a.495.495 0 0 0 .692.705c1.158-1.003 2.076-1.736 2.861-2.197.599 1.329.826 3.526 1.078 7.525a.5.5 0 0 0 .493.475zm-1.371-9.179a.412.412 0 0 0-.213.054 5.87 5.87 0 0 0-.626.353c.147-.244.267-.488.373-.719a.488.488 0 0 0-.146-.61c-.559-.42-1.238-.692-2.103-.922.878-.231 1.557-.529 2.116-.936a.516.516 0 0 0 .16-.61c-.093-.203-.2-.42-.32-.623.187.108.36.203.546.284a.485.485 0 0 0 .626-.189c.452-.746.745-1.709.958-3.092.213 1.37.506 2.332.945 3.064a.476.476 0 0 0 .625.204c.213-.109.426-.231.639-.366-.146.257-.279.488-.386.718a.536.536 0 0 0 .16.624c.546.407 1.225.691 2.09.922-.879.23-1.558.515-2.103.935a.496.496 0 0 0-.16.597c.093.217.2.42.319.637-.186-.108-.372-.203-.545-.298a.499.499 0 0 0-.626.19c-.452.745-.745 1.722-.958 3.105-.213-1.37-.506-2.332-.945-3.078a.507.507 0 0 0-.426-.244zM444.837 156.848c2.276 0 4.139-1.898 4.139-4.217 0-2.332-1.863-4.216-4.139-4.216-2.289 0-4.139 1.884-4.139 4.216 0 2.319 1.85 4.217 4.139 4.217zM17.502 76.15c2.276 0 4.126-1.885 4.126-4.217s-1.85-4.217-4.126-4.217c-2.29 0-4.14 1.885-4.14 4.217 0 2.318 1.85 4.217 4.14 4.217zM48.048 320.387c-2.29 0-4.14 1.884-4.14 4.216 0 2.319 1.85 4.217 4.14 4.217 2.276 0 4.139-1.898 4.139-4.217 0-2.332-1.863-4.216-4.14-4.216zM441.655 284.2c0-2.318-1.85-4.203-4.139-4.203-2.276 0-4.139 1.885-4.139 4.203 0 2.332 1.863 4.217 4.139 4.217 2.289 0 4.139-1.885 4.139-4.217zM351.775 349.971c2.276 0 4.14-1.885 4.14-4.217s-1.864-4.216-4.14-4.216c-2.289 0-4.139 1.884-4.139 4.216 0 2.332 1.85 4.217 4.139 4.217zM160.967 401.383c0 2.332 1.85 4.217 4.14 4.217 2.289 0 4.139-1.885 4.139-4.217s-1.85-4.216-4.139-4.216c-2.29 0-4.14 1.884-4.14 4.216zM118.722 277.99c2.276 0 4.139-1.884 4.139-4.216 0-2.319-1.863-4.203-4.139-4.203-2.289 0-4.139 1.884-4.139 4.203 0 2.332 1.85 4.216 4.139 4.216zM374.455 54.863a4.15 4.15 0 0 1-.32 1.614 4.244 4.244 0 0 1-.891 1.37 4.198 4.198 0 0 1-1.345.921 4.227 4.227 0 0 1-1.583.312 4.228 4.228 0 0 1-1.584-.312 4.198 4.198 0 0 1-1.345-.922 4.244 4.244 0 0 1-.891-1.37 4.15 4.15 0 0 1-.32-1.613c0-.556.107-1.084.32-1.613.213-.515.505-.963.891-1.356a4.196 4.196 0 0 1 1.345-.922 4.226 4.226 0 0 1 1.584-.312c.545 0 1.078.109 1.583.312.506.217.959.529 1.345.922s.678.84.891 1.356a4.25 4.25 0 0 1 .32 1.613zM57.71 261.91c0 .583-.2 1.085-.612 1.492-.4.407-.892.61-1.464.61a2 2 0 0 1-1.464-.61 2.057 2.057 0 0 1-.599-1.492c0-.583.2-1.084.599-1.491a2 2 0 0 1 1.464-.61 1.98 1.98 0 0 1 1.464.61c.413.407.612.908.612 1.491zM95.084 368.179c-1.145 0-2.063.95-2.063 2.116 0 1.166.918 2.101 2.063 2.101a2.086 2.086 0 0 0 2.076-2.101c0-1.166-.931-2.116-2.076-2.116zM185.99 481.797c0 .583-.213 1.084-.613 1.491a1.939 1.939 0 0 1-1.464.624 1.942 1.942 0 0 1-1.464-.624 2.056 2.056 0 0 1-.599-1.491c0-.57.2-1.071.599-1.478.4-.42.892-.624 1.464-.624.573 0 1.065.204 1.464.624.4.407.613.908.613 1.478zM88.243 160.631c0 .583-.2 1.084-.599 1.491-.412.42-.892.624-1.464.624a1.944 1.944 0 0 1-1.464-.624 2.015 2.015 0 0 1-.612-1.491c0-.583.2-1.071.612-1.492.4-.406.892-.61 1.464-.61s1.052.204 1.464.61c.4.421.6.909.6 1.492zM283.549 37.251c0 .583-.199 1.071-.598 1.492-.413.406-.892.61-1.465.61a1.982 1.982 0 0 1-1.464-.61 2.039 2.039 0 0 1-.612-1.492c0-.583.2-1.084.612-1.491.4-.42.892-.624 1.464-.624.573 0 1.052.203 1.465.624.399.407.598.908.598 1.491zM286.584 431.076c0 .569-.199 1.071-.599 1.478-.412.42-.891.623-1.464.623a1.943 1.943 0 0 1-1.464-.623 2.01 2.01 0 0 1-.612-1.478c0-.583.2-1.085.612-1.492.399-.42.892-.623 1.464-.623.573 0 1.052.203 1.464.623.4.407.599.909.599 1.492zM23.705 360.885c0 .583-.2 1.085-.613 1.491a1.94 1.94 0 0 1-1.464.624 1.932 1.932 0 0 1-1.45-.624 2.013 2.013 0 0 1-.613-1.491c0-.583.2-1.071.613-1.491.399-.407.891-.61 1.45-.61a1.98 1.98 0 0 1 1.464.61c.413.42.613.908.613 1.491zM418.417 483.898c0 1.166.919 2.102 2.063 2.102 1.145 0 2.063-.936 2.063-2.102s-.918-2.115-2.063-2.115a2.097 2.097 0 0 0-2.063 2.115zM85.914 24.615c1.131 0 2.063-.935 2.063-2.101s-.932-2.116-2.063-2.116c-1.145 0-2.077.95-2.077 2.116 0 1.166.932 2.101 2.077 2.101zM407.556 362.363c0 1.152.932 2.101 2.063 2.101 1.145 0 2.077-.949 2.077-2.101 0-1.166-.932-2.115-2.077-2.115-1.131 0-2.063.949-2.063 2.115zM317.489 123.617c1.132 0 2.063-.936 2.063-2.102s-.931-2.115-2.063-2.115c-1.144 0-2.076.949-2.076 2.115 0 1.153.932 2.102 2.076 2.102zM261.509 90.779c1.131 0 2.063-.936 2.063-2.102s-.932-2.101-2.063-2.101a2.086 2.086 0 0 0-2.076 2.101c0 1.166.931 2.102 2.076 2.102zM226.704 355.082c0 .583-.199 1.085-.612 1.492a1.995 1.995 0 0 1-1.464.623 1.987 1.987 0 0 1-1.451-.623 2.02 2.02 0 0 1-.612-1.492c0-.583.2-1.071.612-1.491a1.97 1.97 0 0 1 1.451-.61c.572 0 1.065.203 1.464.61.413.42.612.908.612 1.491zM169.352 66.198c1.145 0 2.077-.95 2.077-2.102 0-1.166-.932-2.115-2.077-2.115-1.131 0-2.063.95-2.063 2.115 0 1.153.932 2.102 2.063 2.102zM362.609 260.663c1.145 0 2.063-.936 2.063-2.102s-.918-2.115-2.063-2.115-2.063.949-2.063 2.115c0 1.166.918 2.102 2.063 2.102zM364.672 143.737c1.145 0 2.077-.949 2.077-2.115a2.087 2.087 0 0 0-2.077-2.101c-1.131 0-2.063.935-2.063 2.101s.932 2.115 2.063 2.115zM278.173 189.252c-3.474 2.332-8.585 3.471-16.571 4.691a.85.85 0 0 0-.705.827c0 .407.306.76.705.827 7.946 1.207 13.03 2.332 16.504 4.651-1.73 3.484-4.871 7.579-9.29 12.961a.846.846 0 0 0 .04 1.126.824.824 0 0 0 1.105.054c5.124-4.379 9.037-7.498 12.431-9.301 2.822 5.328 3.807 14.073 4.858 31.008a.82.82 0 0 0 .812.772.82.82 0 0 0 .812-.772c1.065-17.002 2.049-25.788 4.911-31.103 2.635 1.37 5.79 3.62 10.608 7.579a.802.802 0 0 0 1.078-.068.828.828 0 0 0 .067-1.111c-3.434-4.325-6.056-7.918-7.587-11.105 3.474-2.345 8.585-3.47 16.584-4.691a.838.838 0 0 0 .692-.827.828.828 0 0 0-.692-.827c-7.946-1.206-13.03-2.345-16.504-4.65 1.717-3.485 4.858-7.579 9.29-12.962.266-.339.253-.827-.053-1.125-.293-.312-.772-.326-1.105-.054-5.111 4.379-9.037 7.497-12.418 9.301-2.835-5.329-3.806-14.087-4.871-31.008a.824.824 0 0 0-.812-.786c-.426 0-.785.352-.812.786-1.051 17.002-2.05 25.788-4.898 31.102-2.649-1.369-5.79-3.633-10.608-7.579a.803.803 0 0 0-1.091.055.841.841 0 0 0-.053 1.111c3.42 4.339 6.042 7.918 7.573 11.118zm4.152-2.874a.787.787 0 0 0 1.039-.312c2.542-4.23 3.766-10.467 4.698-21.205.932 10.67 2.143 16.88 4.658 21.124a.798.798 0 0 0 1.052.311c2.222-1.084 4.632-2.725 7.413-4.894-2.222 2.956-3.886 5.505-4.938 7.809a.852.852 0 0 0 .253 1.031c2.982 2.21 6.988 3.444 12.844 4.528-5.896 1.085-9.929 2.332-12.91 4.569a.846.846 0 0 0-.253 1.017c.945 2.129 2.356 4.393 4.152 6.915-2.355-1.763-4.498-3.146-6.521-4.122a.817.817 0 0 0-1.052.326c-2.542 4.23-3.766 10.467-4.698 21.191-.932-10.67-2.143-16.866-4.658-21.11a.784.784 0 0 0-.693-.393.695.695 0 0 0-.359.081c-2.223 1.085-4.632 2.725-7.413 4.895 2.222-2.956 3.886-5.505 4.937-7.823a.817.817 0 0 0-.252-1.017c-2.982-2.21-6.988-3.458-12.831-4.529 5.883-1.084 9.916-2.332 12.897-4.569a.85.85 0 0 0 .253-1.017c-.945-2.128-2.356-4.406-4.153-6.914 2.369 1.749 4.499 3.145 6.535 4.108z" fill="#EBDCAE"/><path d="M270.52 300.226c7.68 0 15.492-1.031 23.265-3.186 17.21-4.773 32.409-14.562 43.962-28.323.293-.339.32-.841.067-1.221a.965.965 0 0 0-1.132-.379 90.015 90.015 0 0 1-6.122 1.979c-46.092 12.786-93.807-14.995-106.371-61.961-7.547-28.241-.892-58.395 17.835-80.657.279-.353.306-.854.066-1.221a.976.976 0 0 0-1.144-.379c-21.056 7.565-38.412 22.845-48.847 43.02-10.501 20.283-13.03 43.644-7.107 65.784 10.727 40.105 46.544 66.544 85.528 66.544zm-32.343-172.148c-17.342 22.452-23.292 51.914-15.892 79.586 12.844 48.023 61.651 76.455 108.794 63.371a73.284 73.284 0 0 0 2.715-.813c-10.967 11.971-24.902 20.54-40.528 24.879-46.091 12.799-93.807-14.996-106.371-61.947-11.54-43.17 10.887-88.563 51.282-105.076z" fill="#EBDCAE"/></g><g opacity=".3" filter="url(#e)"><path d="M490.451 190.191c2.556.394 4.233.762 5.378 1.456-.599 1.144-1.624 2.478-3.048 4.221a.51.51 0 0 0 .026.68.498.498 0 0 0 .666.028c1.637-1.403 2.901-2.437 4.006-3.05.865 1.797 1.185 4.765 1.531 10.32a.486.486 0 0 0 .971 0c.346-5.582.679-8.564 1.557-10.361.852.477 1.864 1.225 3.381 2.464.2.164.479.15.666-.027a.509.509 0 0 0 .026-.667c-1.091-1.402-1.943-2.559-2.475-3.594 1.158-.708 2.835-1.076 5.403-1.47a.484.484 0 0 0 .413-.491.484.484 0 0 0-.413-.49c-2.555-.394-4.219-.762-5.364-1.456.586-1.144 1.624-2.478 3.048-4.221a.51.51 0 0 0-.04-.68.481.481 0 0 0-.652-.028c-1.637 1.403-2.915 2.437-4.006 3.05-.878-1.797-1.198-4.765-1.544-10.32a.486.486 0 0 0-.971 0c-.346 5.582-.666 8.55-1.544 10.361-.852-.477-1.877-1.226-3.394-2.464a.48.48 0 0 0-.653.027.509.509 0 0 0-.039.667c1.104 1.402 1.956 2.559 2.475 3.594-1.144.708-2.835 1.076-5.404 1.457a.507.507 0 0 0-.412.503c0 .246.173.463.412.491zm6.323-1.879a.514.514 0 0 0 .159-.613 11.992 11.992 0 0 0-.785-1.416c.453.3.892.545 1.304.749a.483.483 0 0 0 .626-.191c.705-1.184 1.118-2.79 1.424-5.282.293 2.464.705 4.071 1.398 5.255.133.218.399.3.638.191a12.07 12.07 0 0 0 1.464-.899 13.232 13.232 0 0 0-.918 1.607.512.512 0 0 0 .16.612c.852.64 1.943 1.049 3.407 1.375-1.477.341-2.569.749-3.434 1.389-.186.136-.239.395-.146.613.199.449.452.926.772 1.416-.453-.3-.879-.545-1.305-.749a.497.497 0 0 0-.625.19c-.706 1.185-1.118 2.791-1.411 5.283-.306-2.464-.719-4.071-1.411-5.242a.473.473 0 0 0-.412-.245.543.543 0 0 0-.213.041 11.24 11.24 0 0 0-1.478.899c.386-.572.692-1.103.919-1.607a.515.515 0 0 0-.16-.613c-.852-.639-1.93-1.048-3.407-1.375 1.49-.326 2.582-.748 3.434-1.388zM717.595 432.428a.508.508 0 0 0-.413-.504c-2.555-.381-4.219-.748-5.377-1.456.599-1.13 1.624-2.465 3.048-4.207a.497.497 0 0 0-.027-.681.481.481 0 0 0-.652-.027c-1.65 1.402-2.915 2.423-4.006 3.049-.879-1.81-1.198-4.765-1.544-10.319a.488.488 0 0 0-.479-.477.493.493 0 0 0-.493.477c-.346 5.582-.665 8.55-1.544 10.347-.851-.463-1.876-1.212-3.394-2.464a.48.48 0 0 0-.652.04.51.51 0 0 0-.04.667c1.105 1.389 1.957 2.56 2.476 3.581-1.145.708-2.835 1.076-5.404 1.47a.498.498 0 0 0-.412.504c0 .245.173.449.412.49 2.556.395 4.233.749 5.377 1.457-.599 1.13-1.623 2.478-3.048 4.22a.51.51 0 0 0 .027.667.471.471 0 0 0 .666.028c1.637-1.403 2.901-2.424 4.006-3.05.865 1.811 1.184 4.765 1.53 10.32a.492.492 0 0 0 .493.476.488.488 0 0 0 .479-.476c.346-5.582.679-8.55 1.557-10.347.839.463 1.864 1.211 3.381 2.464.2.163.479.15.665-.041a.507.507 0 0 0 .027-.667c-1.091-1.389-1.943-2.546-2.462-3.58 1.144-.708 2.821-1.076 5.39-1.471a.494.494 0 0 0 .413-.49zm-6.735 1.389c-.186.136-.24.395-.146.612.199.45.452.926.772 1.416a11.083 11.083 0 0 0-1.305-.749.484.484 0 0 0-.625.191c-.706 1.184-1.118 2.791-1.411 5.269-.306-2.451-.706-4.057-1.411-5.242a.489.489 0 0 0-.413-.231.532.532 0 0 0-.213.041c-.465.231-.958.531-1.477.885.386-.572.692-1.09.918-1.593a.513.513 0 0 0-.159-.613c-.852-.64-1.93-1.048-3.408-1.375 1.491-.34 2.583-.749 3.434-1.389a.495.495 0 0 0 .147-.612c-.2-.463-.453-.926-.772-1.43.452.3.892.558 1.304.749a.484.484 0 0 0 .626-.191c.705-1.17 1.118-2.79 1.424-5.268.293 2.464.705 4.07 1.397 5.241.133.218.4.313.626.191.466-.232.958-.518 1.477-.885a10.883 10.883 0 0 0-.918 1.606.513.513 0 0 0 .16.613c.851.64 1.943 1.035 3.407 1.375-1.477.327-2.569.735-3.434 1.389zM482.413 455.15c2.555.381 4.219.749 5.363 1.457-.585 1.13-1.61 2.464-3.048 4.207a.514.514 0 0 0 .04.681c.173.176.466.19.653.027 1.637-1.403 2.914-2.424 4.006-3.05.878 1.797 1.198 4.765 1.544 10.32a.498.498 0 0 0 .479.476.5.5 0 0 0 .492-.476c.346-5.582.666-8.55 1.544-10.347.852.463 1.877 1.212 3.394 2.464.2.15.479.136.652-.041a.508.508 0 0 0 .04-.667c-1.104-1.388-1.956-2.559-2.475-3.58 1.144-.722 2.835-1.076 5.403-1.471a.497.497 0 0 0 .413-.503.495.495 0 0 0-.413-.491c-2.555-.394-4.232-.748-5.377-1.456.599-1.13 1.624-2.478 3.048-4.221.16-.19.16-.49-.026-.667a.472.472 0 0 0-.666-.027c-1.637 1.402-2.901 2.423-4.006 3.05-.865-1.811-1.185-4.765-1.531-10.32a.49.49 0 0 0-.492-.476.488.488 0 0 0-.479.476c-.346 5.582-.666 8.55-1.557 10.347-.839-.463-1.864-1.212-3.381-2.464a.485.485 0 0 0-.666.04.509.509 0 0 0-.026.668c1.091 1.388 1.943 2.545 2.475 3.58-1.158.708-2.835 1.076-5.403 1.47a.495.495 0 0 0-.413.491c0 .258.173.462.413.503zm6.308-1.892a.499.499 0 0 0 .16-.599 11.01 11.01 0 0 0-.772-1.43c.453.3.879.545 1.305.749a.483.483 0 0 0 .625-.19c.705-1.185 1.118-2.791 1.411-5.269.306 2.464.705 4.057 1.411 5.241.12.218.399.3.625.191a12.62 12.62 0 0 0 1.478-.885c-.386.572-.692 1.089-.919 1.593a.497.497 0 0 0 .16.613c.852.639 1.93 1.048 3.407 1.375-1.49.34-2.582.748-3.434 1.388a.513.513 0 0 0-.159.613c.199.449.466.926.772 1.416-.44-.3-.879-.545-1.291-.749a.497.497 0 0 0-.626.191c-.705 1.184-1.118 2.79-1.424 5.282-.293-2.464-.706-4.071-1.398-5.242a.478.478 0 0 0-.426-.245.591.591 0 0 0-.212.041c-.466.232-.945.531-1.478.899.386-.572.692-1.103.918-1.607a.48.48 0 0 0-.159-.612c-.852-.64-1.93-1.049-3.408-1.375 1.491-.327 2.583-.736 3.434-1.389zM882.582 94.51c2.555.395 4.219.749 5.377 1.457-.599 1.13-1.624 2.464-3.048 4.206a.498.498 0 0 0 .027.681.48.48 0 0 0 .652.027c1.65-1.402 2.915-2.423 4.02-3.05.865 1.811 1.184 4.766 1.53 10.32a.498.498 0 0 0 .479.477.501.501 0 0 0 .493-.477c.346-5.582.665-8.55 1.557-10.346.839.462 1.863 1.211 3.381 2.464a.481.481 0 0 0 .652-.041.494.494 0 0 0 .04-.667c-1.092-1.389-1.943-2.56-2.476-3.58 1.145-.709 2.835-1.076 5.404-1.471a.497.497 0 0 0 .413-.504.494.494 0 0 0-.413-.49c-2.556-.395-4.219-.749-5.377-1.457.599-1.13 1.624-2.477 3.048-4.22a.48.48 0 0 0-.027-.667.47.47 0 0 0-.665-.027c-1.637 1.402-2.902 2.423-4.007 3.05-.865-1.811-1.184-4.766-1.53-10.32a.491.491 0 0 0-.493-.477.488.488 0 0 0-.479.477c-.346 5.581-.665 8.55-1.557 10.346-.839-.463-1.863-1.211-3.381-2.464a.467.467 0 0 0-.652.041.494.494 0 0 0-.04.667c1.092 1.389 1.943 2.546 2.476 3.58-1.145.709-2.835 1.076-5.404 1.471a.494.494 0 0 0-.413.49c0 .259.173.463.413.504zm6.322-1.892a.496.496 0 0 0 .147-.6c-.2-.462-.453-.939-.772-1.429.452.3.878.544 1.304.749a.483.483 0 0 0 .625-.19c.706-1.185 1.119-2.792 1.411-5.27.306 2.465.719 4.058 1.411 5.242.133.218.399.3.626.19.466-.23.958-.53 1.477-.884-.386.571-.692 1.089-.918 1.592a.514.514 0 0 0 .159.613c.852.64 1.944 1.048 3.408 1.375-1.491.34-2.582.749-3.434 1.389a.518.518 0 0 0-.16.612c.213.45.466.926.785 1.416a14.645 14.645 0 0 0-1.304-.749.504.504 0 0 0-.626.205c-.705 1.17-1.118 2.777-1.424 5.268-.292-2.464-.705-4.07-1.397-5.241a.478.478 0 0 0-.639-.19c-.453.217-.945.517-1.464.884.386-.572.679-1.102.918-1.606a.519.519 0 0 0-.159-.613c-.852-.64-1.944-1.034-3.408-1.375 1.478-.327 2.569-.735 3.434-1.388zM890.554 226.867a.508.508 0 0 0 .027-.667c-2.223-2.832-3.926-5.173-4.925-7.256 2.25-1.539 5.577-2.274 10.768-3.077a.494.494 0 0 0 .413-.49.498.498 0 0 0-.413-.504c-5.164-.79-8.465-1.525-10.714-3.05 1.118-2.273 3.154-4.942 6.029-8.454a.527.527 0 0 0-.027-.681.498.498 0 0 0-.665-.027c-3.328 2.859-5.883 4.888-8.079 6.058-1.85-3.458-2.476-9.148-3.168-20.19a.485.485 0 0 0-.971 0c-.693 11.096-1.331 16.8-3.195 20.245-1.717-.885-3.766-2.355-6.908-4.929a.48.48 0 0 0-.652.028.527.527 0 0 0-.04.667c2.236 2.832 3.94 5.173 4.925 7.256-2.249 1.539-5.563 2.287-10.768 3.077a.498.498 0 0 0-.412.504c0 .245.173.449.412.49 5.178.789 8.479 1.525 10.728 3.049-1.118 2.274-3.154 4.942-6.029 8.455-.16.204-.16.504.026.681.173.19.466.204.666.027 3.327-2.846 5.869-4.888 8.079-6.059 1.85 3.458 2.475 9.149 3.168 20.19a.488.488 0 0 0 .479.477.49.49 0 0 0 .492-.477c.692-11.082 1.331-16.8 3.194-20.244 1.717.885 3.767 2.355 6.908 4.942.187.15.466.136.652-.041zm-7.546-6.017a.483.483 0 0 0-.626.19c-1.677 2.805-2.462 6.957-3.074 14.2-.599-7.202-1.385-11.341-3.035-14.145a.493.493 0 0 0-.426-.232.6.6 0 0 0-.213.041c-1.504.735-3.128 1.865-5.018 3.363 1.531-2.029 2.662-3.744 3.368-5.31a.495.495 0 0 0-.16-.612c-1.956-1.457-4.605-2.274-8.492-2.982 3.914-.708 6.589-1.525 8.545-2.995.187-.136.24-.395.147-.613-.639-1.443-1.597-2.981-2.835-4.697 1.797 1.362 3.181 2.233 4.432 2.832a.483.483 0 0 0 .625-.19c1.664-2.805 2.463-6.957 3.062-14.2.612 7.202 1.384 11.341 3.048 14.145.133.218.399.3.625.191 1.504-.735 3.128-1.865 5.031-3.363-1.53 2.029-2.662 3.744-3.367 5.31a.491.491 0 0 0 .146.612c1.957 1.457 4.605 2.274 8.492 2.982-3.913.708-6.575 1.524-8.532 2.995a.512.512 0 0 0-.159.612c.639 1.444 1.597 2.968 2.835 4.684-1.611-1.212-3.048-2.165-4.419-2.818zM599.95 197.719c5.178.79 8.478 1.525 10.728 3.05-1.118 2.26-3.155 4.942-6.029 8.454a.497.497 0 0 0 .692.708c3.327-2.859 5.869-4.887 8.079-6.058 1.836 3.458 2.475 9.149 3.167 20.19a.487.487 0 0 0 .972 0c.692-11.096 1.331-16.8 3.194-20.258 1.717.885 3.767 2.355 6.908 4.942.186.163.479.15.652-.027a.527.527 0 0 0 .027-.681c-2.223-2.832-3.927-5.16-4.925-7.243 2.263-1.538 5.577-2.287 10.768-3.09a.496.496 0 0 0 0-.981c-5.164-.803-8.465-1.538-10.715-3.049 1.118-2.274 3.155-4.942 6.03-8.468a.51.51 0 0 0-.027-.667.483.483 0 0 0-.665-.041c-3.328 2.859-5.883 4.901-8.079 6.072-1.85-3.472-2.476-9.163-3.168-20.19a.491.491 0 0 0-.493-.477.49.49 0 0 0-.479.477c-.692 11.082-1.331 16.786-3.194 20.244-1.717-.885-3.767-2.355-6.908-4.942a.468.468 0 0 0-.652.041.525.525 0 0 0-.04.667c2.236 2.832 3.94 5.174 4.925 7.257-2.25 1.538-5.564 2.273-10.768 3.076-.239.028-.412.245-.412.491 0 .245.173.462.412.503zm11.686-3.499c.186-.136.24-.394.147-.612-.639-1.443-1.598-2.982-2.822-4.684 1.597 1.199 3.048 2.151 4.419 2.819a.468.468 0 0 0 .612-.205c1.69-2.791 2.476-6.956 3.074-14.186.613 7.189 1.385 11.327 3.048 14.146.133.217.4.299.626.19 1.504-.749 3.128-1.865 5.031-3.363-1.531 2.015-2.662 3.744-3.367 5.31a.493.493 0 0 0 .146.613c1.957 1.456 4.605 2.26 8.505 2.968-3.926.721-6.588 1.538-8.545 3.008a.5.5 0 0 0-.16.599c.639 1.443 1.598 2.982 2.835 4.697-1.597-1.211-3.048-2.164-4.418-2.818a.483.483 0 0 0-.626.191c-1.677 2.804-2.462 6.956-3.075 14.199-.598-7.202-1.384-11.34-3.034-14.145a.506.506 0 0 0-.426-.245.422.422 0 0 0-.213.054c-1.491.736-3.128 1.866-5.018 3.363 1.531-2.028 2.662-3.744 3.368-5.309a.482.482 0 0 0-.16-.613c-1.957-1.47-4.605-2.274-8.492-2.981 3.913-.708 6.589-1.525 8.545-2.996zM829.556 428.33c5.178.803 8.479 1.539 10.728 3.05-1.118 2.273-3.155 4.955-6.029 8.468-.173.19-.16.49.026.681.173.177.466.19.666.027 3.327-2.859 5.869-4.901 8.079-6.072 1.836 3.471 2.475 9.162 3.167 20.203a.487.487 0 0 0 .972 0c.692-11.095 1.331-16.8 3.194-20.258 1.717.885 3.767 2.356 6.908 4.942.186.164.466.15.652-.04a.509.509 0 0 0 .027-.668c-2.223-2.831-3.926-5.173-4.925-7.256 2.25-1.538 5.577-2.274 10.768-3.077.239-.027.412-.245.412-.49s-.173-.463-.412-.49c-5.164-.803-8.465-1.538-10.714-3.05 1.104-2.273 3.141-4.942 6.029-8.468a.508.508 0 0 0-.027-.667.485.485 0 0 0-.665-.041c-3.328 2.859-5.883 4.902-8.079 6.072-1.85-3.471-2.489-9.162-3.168-20.189a.49.49 0 0 0-.492-.477.49.49 0 0 0-.48.477c-.692 11.081-1.331 16.786-3.207 20.244-1.717-.885-3.754-2.355-6.895-4.942a.467.467 0 0 0-.652.041.51.51 0 0 0-.04.667c2.236 2.832 3.94 5.173 4.925 7.256-2.25 1.539-5.564 2.274-10.768 3.077-.239.027-.412.245-.412.49s.186.463.412.49zm11.686-3.485a.514.514 0 0 0 .147-.613c-.639-1.443-1.598-2.981-2.835-4.697 1.796 1.348 3.181 2.22 4.418 2.819a.48.48 0 0 0 .626-.191c1.677-2.791 2.462-6.957 3.075-14.2.612 7.202 1.384 11.341 3.047 14.146.134.231.4.313.626.19 1.504-.735 3.128-1.851 5.031-3.363-1.531 2.029-2.662 3.758-3.381 5.31a.538.538 0 0 0 .16.626c1.957 1.457 4.605 2.26 8.492 2.968-3.913.722-6.575 1.525-8.532 3.009a.494.494 0 0 0-.159.599c.638 1.443 1.597 2.981 2.834 4.697-1.61-1.212-3.047-2.165-4.418-2.818a.483.483 0 0 0-.626.19c-1.677 2.805-2.462 6.957-3.074 14.2-.599-7.202-1.385-11.341-3.035-14.145a.476.476 0 0 0-.426-.245.412.412 0 0 0-.213.054c-1.504.735-3.128 1.852-5.018 3.363 1.531-2.029 2.662-3.758 3.368-5.31a.538.538 0 0 0-.16-.626c-1.957-1.457-4.605-2.26-8.492-2.968 3.913-.708 6.589-1.525 8.545-2.995z" fill="#EBDCAE"/><mask id="f" style="mask-type:luminance" maskUnits="userSpaceOnUse" x="909" y="0" width="11" height="5"><path d="M909.334 0h10.222v4.37h-10.222V0z" fill="#fff"/></mask><g mask="url(#f)"><path d="M916.442 1.783c.319-.517.599-1.089.852-1.715h-1.065c-.133.286-.253.558-.399.803-.426-.218-.892-.49-1.385-.803h-1.796c1.118.79 2.169 1.43 3.167 1.92a.48.48 0 0 0 .626-.205z" fill="#EBDCAE"/></g><mask id="g" style="mask-type:luminance" maskUnits="userSpaceOnUse" x="899" y="0" width="41" height="36"><path d="M899.113 0H940v35.737h-40.887V0z" fill="#fff"/></mask><g mask="url(#g)"><path d="M902.4 6.97a.494.494 0 0 0-.413.49c0 .26.173.463.413.504 5.178.79 8.478 1.525 10.728 3.05-1.118 2.26-3.155 4.942-6.03 8.454a.498.498 0 0 0 .027.68.48.48 0 0 0 .652.028c3.341-2.859 5.883-4.887 8.092-6.058 1.837 3.458 2.476 9.149 3.155 20.19a.507.507 0 0 0 .492.463.49.49 0 0 0 .493-.463c.692-11.096 1.331-16.8 3.194-20.258 1.717.898 3.767 2.355 6.895 4.942.199.163.479.15.665-.027a.51.51 0 0 0 .027-.668c-2.223-2.831-3.927-5.173-4.925-7.256 2.249-1.538 5.577-2.287 10.768-3.077a.498.498 0 0 0 .412-.504.494.494 0 0 0-.412-.49c-5.165-.79-8.465-1.524-10.715-3.05.559-1.156 1.371-2.423 2.409-3.852h-1.211c-.985 1.402-1.743 2.641-2.262 3.812a.492.492 0 0 0 .146.613c1.956 1.456 4.605 2.26 8.505 2.967-3.927.722-6.588 1.525-8.545 3.01a.5.5 0 0 0-.16.598c.639 1.443 1.597 2.982 2.835 4.697-1.597-1.212-3.048-2.165-4.419-2.818a.483.483 0 0 0-.625.19c-1.677 2.805-2.462 6.957-3.075 14.2-.599-7.202-1.384-11.34-3.034-14.145a.506.506 0 0 0-.426-.245.411.411 0 0 0-.213.055c-1.504.735-3.128 1.865-5.018 3.362 1.531-2.028 2.662-3.744 3.367-5.31a.481.481 0 0 0-.159-.612c-1.957-1.47-4.605-2.274-8.492-2.982 3.926-.707 6.588-1.524 8.545-2.995a.513.513 0 0 0 .146-.612c-.519-1.185-1.264-2.424-2.182-3.785h-1.212c.985 1.389 1.771 2.641 2.33 3.826-2.25 1.538-5.564 2.273-10.768 3.076z" fill="#EBDCAE"/></g><mask id="h" style="mask-type:luminance" maskUnits="userSpaceOnUse" x="919" y="0" width="8" height="5"><path d="M919.556 0h6.815v4.37h-6.815V0z" fill="#fff"/></mask><g mask="url(#h)"><path d="M923.19 1.933c.945-.476 1.943-1.089 3.035-1.865h-1.797c-.426.286-.852.53-1.251.749-.12-.232-.24-.49-.36-.749h-1.064c.239.613.505 1.157.811 1.675.134.217.4.299.626.19z" fill="#EBDCAE"/></g><path d="M569.95 105.36c.786.994 1.384 1.825 1.784 2.56-.839.476-2.063.749-3.9 1.021a.498.498 0 0 0-.413.504c0 .245.173.449.413.49 1.823.286 3.035.544 3.873 1.007-.439.831-1.184 1.797-2.209 3.036a.527.527 0 0 0 .026.681.5.5 0 0 0 .666.027c1.131-.98 2.076-1.729 2.861-2.205.613 1.347.839 3.539 1.092 7.555a.488.488 0 0 0 .479.477.49.49 0 0 0 .492-.477c.253-4.043.48-6.249 1.092-7.583.599.354 1.344.899 2.409 1.77.186.164.479.15.652-.041a.509.509 0 0 0 .027-.667c-.772-.98-1.385-1.81-1.771-2.559.839-.477 2.05-.735 3.887-1.021a.496.496 0 0 0 .426-.49.52.52 0 0 0-.426-.504c-1.81-.272-3.035-.531-3.873-1.008.452-.816 1.198-1.783 2.209-3.022a.498.498 0 0 0-.026-.681.472.472 0 0 0-.666-.027c-1.131.967-2.063 1.729-2.862 2.206-.598-1.348-.825-3.54-1.078-7.57a.485.485 0 0 0-.971 0c-.253 4.043-.493 6.249-1.092 7.583-.612-.34-1.344-.885-2.409-1.77a.496.496 0 0 0-.652.041.496.496 0 0 0-.04.667zm3.088 2.192a.484.484 0 0 0 .626-.19c.452-.749.745-1.716.958-3.118.213 1.375.506 2.342.945 3.09a.474.474 0 0 0 .639.191c.199-.095.412-.218.625-.354-.146.259-.266.49-.372.722a.515.515 0 0 0 .146.626c.559.408 1.238.694 2.103.926-.878.231-1.557.517-2.116.939a.499.499 0 0 0-.16.599c.093.218.2.422.319.64a11.33 11.33 0 0 0-.545-.3.484.484 0 0 0-.626.191c-.452.749-.745 1.729-.958 3.118-.213-1.375-.506-2.342-.945-3.091a.501.501 0 0 0-.413-.245.384.384 0 0 0-.213.055 4.774 4.774 0 0 0-.638.354c.146-.246.279-.491.386-.722a.515.515 0 0 0-.16-.613c-.546-.422-1.225-.708-2.09-.925.879-.246 1.557-.531 2.103-.94a.519.519 0 0 0 .16-.612 9.085 9.085 0 0 0-.32-.64c.187.122.373.217.546.299zM574.529 483.917a.491.491 0 0 0 .492.477c.253 0 .466-.205.493-.477.253-4.043.479-6.235 1.091-7.583.599.354 1.331.899 2.396 1.77.2.163.479.15.652-.027a.513.513 0 0 0 .04-.681c-.772-.98-1.384-1.811-1.783-2.546.838-.49 2.063-.749 3.899-1.035.24-.027.413-.245.413-.49s-.173-.463-.413-.49c-1.823-.286-3.034-.544-3.873-1.021.439-.817 1.185-1.783 2.21-3.022a.528.528 0 0 0-.027-.681.498.498 0 0 0-.666-.027c-1.171.994-2.076 1.742-2.861 2.205-.599-1.347-.839-3.539-1.078-7.569a.508.508 0 0 0-.493-.463.497.497 0 0 0-.492.463c-.253 4.057-.479 6.249-1.092 7.597-.598-.354-1.344-.899-2.409-1.77a.48.48 0 0 0-.652.027.509.509 0 0 0-.026.667c.891 1.144 1.437 1.92 1.783 2.56-.838.49-2.063.748-3.9 1.021a.507.507 0 0 0-.412.503c0 .245.173.463.412.49 1.824.286 3.035.545 3.874 1.021-.453.817-1.198 1.784-2.21 3.023a.527.527 0 0 0 .027.681c.173.177.466.19.665.027 1.132-.967 2.077-1.729 2.862-2.206.599 1.348.825 3.54 1.078 7.556zm-1.717-8.332c.146-.245.266-.49.373-.721a.493.493 0 0 0-.147-.613c-.559-.408-1.238-.694-2.103-.926.879-.231 1.558-.517 2.117-.939a.514.514 0 0 0 .159-.613 9.293 9.293 0 0 0-.319-.626c.186.109.359.204.545.3a.49.49 0 0 0 .626-.205c.453-.748.745-1.715.958-3.104.213 1.375.506 2.342.945 3.091.133.218.4.299.626.19.213-.109.426-.218.639-.354a7.44 7.44 0 0 0-.386.722.515.515 0 0 0 .159.613c.546.408 1.225.694 2.09.925-.878.232-1.557.518-2.103.94a.514.514 0 0 0-.16.612c.094.205.2.409.32.627a6.744 6.744 0 0 0-.546-.286.478.478 0 0 0-.625.19c-.453.749-.746 1.716-.959 3.104-.213-1.375-.505-2.341-.945-3.09a.493.493 0 0 0-.426-.232.6.6 0 0 0-.213.041c-.199.109-.412.218-.625.354zM665.846 25.322c1.811.286 3.035.545 3.874 1.021-.453.817-1.198 1.784-2.21 3.023a.497.497 0 0 0 .692.708c1.132-.98 2.063-1.73 2.862-2.206.599 1.348.825 3.54 1.078 7.556a.5.5 0 0 0 .492.477.49.49 0 0 0 .48-.477c.252-4.043.492-6.249 1.091-7.583.612.354 1.344.899 2.409 1.77.2.163.479.15.652-.04a.493.493 0 0 0 .04-.668c-.905-1.144-1.437-1.92-1.783-2.56.838-.476 2.063-.735 3.899-1.02a.494.494 0 0 0 .413-.49.498.498 0 0 0-.413-.504c-1.823-.273-3.034-.531-3.873-1.008.439-.817 1.185-1.783 2.21-3.036a.51.51 0 0 0-.027-.667.47.47 0 0 0-.665-.027c-1.132.966-2.077 1.729-2.875 2.192-.599-1.334-.826-3.526-1.078-7.556a.487.487 0 0 0-.972 0c-.253 4.043-.479 6.249-1.091 7.583-.613-.34-1.345-.885-2.41-1.77a.496.496 0 0 0-.652.041.526.526 0 0 0-.04.667c.786.994 1.398 1.824 1.784 2.56-.839.476-2.063.735-3.9 1.02a.505.505 0 0 0 .013.994zm4.819-1.429a.519.519 0 0 0 .159-.613 6.846 6.846 0 0 0-.319-.626c.186.109.359.204.546.286a.483.483 0 0 0 .625-.19c.439-.75.732-1.716.958-3.105.213 1.375.493 2.342.945 3.077.12.232.4.313.626.19.213-.095.413-.217.639-.353-.147.258-.28.49-.386.721a.537.537 0 0 0 .16.627c.545.408 1.224.694 2.089.925-.878.232-1.557.518-2.103.94a.498.498 0 0 0-.159.599c.093.218.199.422.319.64-.186-.11-.373-.205-.546-.3a.492.492 0 0 0-.625.19c-.453.75-.746 1.73-.959 3.118-.213-1.375-.505-2.341-.945-3.09a.505.505 0 0 0-.426-.245.61.61 0 0 0-.212.054c-.2.11-.413.218-.626.354.146-.245.266-.49.373-.721a.492.492 0 0 0-.147-.613c-.559-.408-1.238-.694-2.103-.926.879-.231 1.558-.53 2.117-.939zM637.497 339.566c-.838.49-2.063.748-3.9 1.034a.484.484 0 0 0-.412.49c0 .245.173.463.412.49 1.824.286 3.048.545 3.887 1.022-.453.816-1.198 1.783-2.223 3.022a.513.513 0 0 0 .04.681c.173.177.466.19.652.027 1.132-.967 2.077-1.729 2.875-2.206.599 1.348.825 3.54 1.078 7.556a.488.488 0 0 0 .479.477.49.49 0 0 0 .493-.477c.253-4.043.479-6.235 1.091-7.583.612.354 1.344.899 2.409 1.77a.48.48 0 0 0 .652-.027.525.525 0 0 0 .04-.667c-.785-.994-1.397-1.825-1.783-2.56.838-.49 2.063-.749 3.9-1.021a.509.509 0 0 0 .412-.504.484.484 0 0 0-.412-.49c-1.824-.286-3.048-.544-3.887-1.021.453-.817 1.198-1.783 2.223-3.022a.513.513 0 0 0-.04-.681.481.481 0 0 0-.652-.027c-1.171.994-2.09 1.743-2.875 2.205-.599-1.347-.825-3.539-1.078-7.555a.49.49 0 0 0-.493-.477.488.488 0 0 0-.479.477c-.253 4.043-.492 6.248-1.091 7.583-.612-.354-1.344-.899-2.409-1.77a.48.48 0 0 0-.652.027.528.528 0 0 0-.04.681c.905 1.13 1.45 1.906 1.783 2.546zm1.305-.368a.475.475 0 0 0 .625-.191c.453-.748.745-1.715.958-3.104.227 1.375.506 2.342.945 3.091a.5.5 0 0 0 .639.19c.2-.109.413-.231.639-.354-.16.245-.279.477-.386.708a.52.52 0 0 0 .16.627c.546.408 1.224.694 2.089.925-.878.232-1.557.518-2.116.94a.478.478 0 0 0-.146.599 3.6 3.6 0 0 0 .319.64 10.476 10.476 0 0 0-.559-.3.497.497 0 0 0-.625.191c-.44.762-.732 1.729-.959 3.117-.213-1.375-.492-2.341-.945-3.09a.501.501 0 0 0-.412-.245.39.39 0 0 0-.213.054c-.213.096-.413.218-.639.354.146-.245.279-.49.386-.721a.513.513 0 0 0-.16-.613c-.545-.408-1.224-.694-2.089-.926.878-.245 1.557-.531 2.103-.939a.52.52 0 0 0 .159-.613 6.843 6.843 0 0 0-.319-.626 6.9 6.9 0 0 0 .546.286zM926.837 416.336c.253 0 .466-.218.492-.476.24-4.044.48-6.249 1.078-7.584.613.354 1.345.899 2.41 1.77.199.164.479.15.652-.04a.496.496 0 0 0 .04-.668c-.786-.993-1.398-1.824-1.784-2.559.839-.477 2.063-.735 3.9-1.021a.494.494 0 0 0 .412-.49.498.498 0 0 0-.412-.504c-1.824-.272-3.035-.531-3.873-1.007.439-.817 1.184-1.784 2.209-3.036a.508.508 0 0 0-.026-.667.472.472 0 0 0-.666-.028c-1.131.967-2.076 1.729-2.875 2.192-.599-1.334-.825-3.526-1.078-7.556a.486.486 0 0 0-.972 0c-.252 4.044-.479 6.249-1.091 7.583-.599-.34-1.344-.885-2.409-1.769a.497.497 0 0 0-.652.04.507.507 0 0 0-.027.667c.772.994 1.384 1.825 1.77 2.56-.838.476-2.049.735-3.886 1.021a.509.509 0 0 0-.426.504c0 .245.186.449.426.49 1.81.286 3.035.531 3.873 1.007-.452.817-1.198 1.797-2.209 3.036a.497.497 0 0 0 .692.708c1.158-1.007 2.076-1.742 2.861-2.205.599 1.334.826 3.539 1.078 7.556a.502.502 0 0 0 .493.476zm-1.371-9.217a.413.413 0 0 0-.213.055c-.2.095-.413.218-.626.354.147-.245.267-.49.373-.722a.491.491 0 0 0-.146-.612c-.559-.423-1.238-.695-2.103-.926.878-.232 1.557-.531 2.116-.94a.518.518 0 0 0 .16-.612 7.004 7.004 0 0 0-.32-.627c.187.109.36.205.546.286a.483.483 0 0 0 .626-.19c.452-.749.745-1.716.958-3.104.213 1.375.506 2.341.945 3.077a.475.475 0 0 0 .625.204 7.75 7.75 0 0 0 .639-.368c-.146.259-.279.49-.386.722a.538.538 0 0 0 .16.626c.546.408 1.225.694 2.09.926-.879.231-1.558.517-2.103.939a.499.499 0 0 0-.16.599c.093.218.2.422.319.64-.186-.109-.372-.204-.545-.299a.498.498 0 0 0-.626.19c-.452.749-.745 1.729-.958 3.118-.213-1.375-.506-2.342-.945-3.091a.508.508 0 0 0-.426-.245zM926.837 155.488c2.276 0 4.139-1.906 4.139-4.234 0-2.342-1.863-4.234-4.139-4.234-2.289 0-4.139 1.892-4.139 4.234 0 2.328 1.85 4.234 4.139 4.234zM499.502 74.456c2.276 0 4.126-1.892 4.126-4.234s-1.85-4.234-4.126-4.234c-2.289 0-4.139 1.892-4.139 4.234 0 2.328 1.85 4.234 4.139 4.234zM530.048 319.702c-2.29 0-4.14 1.893-4.14 4.234 0 2.328 1.85 4.234 4.14 4.234 2.275 0 4.139-1.906 4.139-4.234 0-2.341-1.864-4.234-4.139-4.234zM923.655 283.366c0-2.328-1.85-4.22-4.139-4.22-2.276 0-4.139 1.892-4.139 4.22 0 2.342 1.863 4.234 4.139 4.234 2.289 0 4.139-1.892 4.139-4.234zM833.775 349.409c2.276 0 4.14-1.893 4.14-4.234 0-2.342-1.864-4.234-4.14-4.234-2.289 0-4.139 1.892-4.139 4.234 0 2.341 1.85 4.234 4.139 4.234zM642.967 401.034c0 2.341 1.85 4.234 4.14 4.234 2.289 0 4.139-1.893 4.139-4.234 0-2.342-1.85-4.234-4.139-4.234-2.29 0-4.14 1.892-4.14 4.234zM600.722 277.131c2.276 0 4.139-1.893 4.139-4.234 0-2.328-1.863-4.221-4.139-4.221-2.289 0-4.139 1.893-4.139 4.221 0 2.341 1.85 4.234 4.139 4.234zM856.455 53.082c0 .572-.107 1.102-.32 1.62-.212.517-.505.98-.891 1.375a4.196 4.196 0 0 1-1.345.926 4.209 4.209 0 0 1-1.583.313 4.214 4.214 0 0 1-1.584-.313 4.196 4.196 0 0 1-1.345-.926 4.264 4.264 0 0 1-.891-1.375 4.182 4.182 0 0 1-.32-1.62 4.283 4.283 0 0 1 1.211-2.982 4.196 4.196 0 0 1 1.345-.925 4.216 4.216 0 0 1 1.584-.314 4.21 4.21 0 0 1 1.583.314c.506.217.959.53 1.345.925s.679.844.891 1.362c.213.53.32 1.062.32 1.62zM539.71 260.984c0 .586-.199 1.089-.612 1.498a1.978 1.978 0 0 1-1.464.613c-.572 0-1.051-.205-1.464-.613a2.07 2.07 0 0 1-.599-1.498c0-.585.2-1.089.599-1.497.413-.409.892-.613 1.464-.613s1.065.204 1.464.613c.413.408.612.912.612 1.497zM577.084 367.693c-1.145 0-2.063.953-2.063 2.123 0 1.171.918 2.111 2.063 2.111s2.076-.94 2.076-2.111c0-1.17-.931-2.123-2.076-2.123zM667.99 481.78c0 .585-.213 1.089-.613 1.497a1.937 1.937 0 0 1-1.464.626 1.94 1.94 0 0 1-1.464-.626 2.068 2.068 0 0 1-.599-1.497c0-.572.2-1.076.599-1.484.4-.422.892-.627 1.464-.627.573 0 1.065.205 1.464.627.4.408.613.912.613 1.484zM570.243 159.286c0 .586-.199 1.089-.599 1.498-.412.422-.891.626-1.464.626a1.939 1.939 0 0 1-1.464-.626 2.03 2.03 0 0 1-.612-1.498c0-.585.2-1.075.612-1.497a1.974 1.974 0 0 1 1.464-.613c.573 0 1.052.204 1.464.613.4.422.599.912.599 1.497zM765.549 35.397c0 .585-.199 1.075-.598 1.497-.413.409-.892.613-1.465.613a1.978 1.978 0 0 1-1.464-.613 2.051 2.051 0 0 1-.612-1.497c0-.586.2-1.09.612-1.498a1.94 1.94 0 0 1 1.464-.626c.573 0 1.052.204 1.465.626.399.409.598.912.598 1.498zM768.584 430.849c0 .572-.2 1.075-.599 1.484-.412.422-.892.626-1.464.626a1.939 1.939 0 0 1-1.464-.626 2.018 2.018 0 0 1-.612-1.484c0-.585.199-1.089.612-1.498a1.939 1.939 0 0 1 1.464-.626c.572 0 1.052.204 1.464.626.399.409.599.913.599 1.498zM505.705 360.368c0 .585-.2 1.089-.613 1.498a1.937 1.937 0 0 1-1.464.626 1.929 1.929 0 0 1-1.45-.626 2.03 2.03 0 0 1-.613-1.498c0-.585.2-1.075.613-1.497a1.964 1.964 0 0 1 1.45-.613c.573 0 1.065.204 1.464.613.413.422.613.912.613 1.497zM900.417 483.89c0 1.171.919 2.11 2.063 2.11 1.145 0 2.063-.939 2.063-2.11 0-1.171-.918-2.124-2.063-2.124-1.144.013-2.063.953-2.063 2.124zM567.914 22.709c1.131 0 2.063-.94 2.063-2.11 0-1.172-.932-2.125-2.063-2.125-1.145 0-2.077.953-2.077 2.124 0 1.171.932 2.11 2.077 2.11zM889.556 361.852c0 1.157.932 2.11 2.063 2.11 1.145 0 2.077-.953 2.077-2.11 0-1.171-.932-2.124-2.077-2.124-1.131 0-2.063.953-2.063 2.124zM799.489 122.119c1.132 0 2.063-.939 2.063-2.11 0-1.171-.931-2.124-2.063-2.124-1.144 0-2.076.953-2.076 2.124 0 1.157.932 2.11 2.076 2.11zM743.509 89.146c1.131 0 2.063-.94 2.063-2.11 0-1.171-.932-2.11-2.063-2.11-1.145 0-2.076.939-2.076 2.11 0 1.17.931 2.11 2.076 2.11zM708.704 354.541c0 .586-.2 1.089-.612 1.498a1.99 1.99 0 0 1-1.464.626 1.983 1.983 0 0 1-1.451-.626c-.413-.409-.612-.912-.612-1.498 0-.585.199-1.075.612-1.497a1.966 1.966 0 0 1 1.451-.613c.572 0 1.065.204 1.464.613.412.422.612.912.612 1.497zM651.352 64.463c1.145 0 2.077-.953 2.077-2.11 0-1.17-.932-2.124-2.077-2.124-1.131 0-2.063.953-2.063 2.124 0 1.157.932 2.11 2.063 2.11zM844.609 259.732c1.145 0 2.063-.94 2.063-2.11 0-1.171-.918-2.124-2.063-2.124s-2.063.953-2.063 2.124c0 1.17.918 2.11 2.063 2.11zM846.672 142.323c1.145 0 2.077-.953 2.077-2.124 0-1.171-.932-2.11-2.077-2.11-1.131 0-2.063.939-2.063 2.11 0 1.171.932 2.124 2.063 2.124zM760.173 188.026c-3.474 2.342-8.585 3.485-16.571 4.71a.853.853 0 0 0-.705.831c0 .408.306.762.705.83 7.946 1.212 13.03 2.342 16.504 4.67-1.73 3.499-4.871 7.61-9.29 13.015a.85.85 0 0 0 .04 1.13.82.82 0 0 0 1.105.055c5.124-4.398 9.037-7.529 12.431-9.34 2.822 5.351 3.806 14.132 4.858 31.136a.822.822 0 0 0 .812.776c.426 0 .785-.34.812-.776 1.065-17.072 2.049-25.894 4.911-31.231 2.635 1.375 5.79 3.635 10.608 7.61a.8.8 0 0 0 1.078-.068.833.833 0 0 0 .066-1.116c-3.433-4.343-6.055-7.951-7.586-11.15 3.474-2.355 8.585-3.485 16.584-4.711a.84.84 0 0 0 .692-.83.831.831 0 0 0-.692-.831c-7.946-1.211-13.03-2.355-16.504-4.669 1.717-3.499 4.858-7.611 9.29-13.015.266-.341.253-.831-.053-1.13-.293-.314-.772-.327-1.105-.055-5.111 4.397-9.037 7.529-12.418 9.339-2.835-5.35-3.806-14.145-4.871-31.135-.027-.436-.373-.79-.812-.79-.426 0-.785.354-.812.79-1.052 17.072-2.05 25.894-4.898 31.231-2.649-1.375-5.79-3.649-10.608-7.611a.801.801 0 0 0-1.091.055.848.848 0 0 0-.053 1.116c3.42 4.357 6.042 7.951 7.573 11.164zm4.152-2.886a.786.786 0 0 0 1.039-.313c2.542-4.248 3.766-10.511 4.698-21.293.932 10.714 2.143 16.95 4.658 21.211a.797.797 0 0 0 1.052.313c2.222-1.089 4.631-2.736 7.413-4.915-2.223 2.968-3.886 5.528-4.938 7.842a.858.858 0 0 0 .253 1.035c2.982 2.219 6.988 3.458 12.844 4.547-5.896 1.089-9.929 2.342-12.91 4.588a.85.85 0 0 0-.253 1.021c.945 2.137 2.356 4.411 4.152 6.943-2.355-1.77-4.498-3.158-6.521-4.139a.816.816 0 0 0-1.052.327c-2.542 4.248-3.766 10.51-4.698 21.279-.932-10.714-2.143-16.936-4.659-21.197a.78.78 0 0 0-.692-.395.696.696 0 0 0-.359.082c-2.223 1.089-4.632 2.736-7.414 4.914 2.223-2.967 3.887-5.527 4.938-7.855a.821.821 0 0 0-.253-1.021c-2.981-2.219-6.987-3.472-12.83-4.547 5.883-1.089 9.916-2.342 12.897-4.588a.856.856 0 0 0 .253-1.021c-.945-2.138-2.356-4.425-4.153-6.943 2.369 1.756 4.499 3.158 6.535 4.125z" fill="#EBDCAE"/><path d="M752.52 299.458c7.68 0 15.492-1.034 23.265-3.199 17.21-4.792 32.409-14.622 43.962-28.44a1.02 1.02 0 0 0 .067-1.226.963.963 0 0 0-1.132-.381 89.366 89.366 0 0 1-6.122 1.988c-46.092 12.838-93.807-15.057-106.371-62.217-7.547-28.358-.892-58.636 17.835-80.991.279-.354.306-.858.066-1.225-.253-.381-.718-.531-1.144-.381-21.056 7.596-38.412 22.94-48.847 43.197-10.501 20.367-13.03 43.825-7.107 66.057 10.727 40.27 46.544 66.818 85.528 66.818zm-32.343-172.859c-17.342 22.545-23.292 52.128-15.892 79.915 12.844 48.222 61.651 76.771 108.794 63.633a73.524 73.524 0 0 0 2.715-.817c-10.967 12.021-24.902 20.625-40.528 24.982-46.091 12.852-93.807-15.057-106.371-62.203-11.54-43.348 10.887-88.928 51.282-105.51z" fill="#EBDCAE"/></g><defs><filter id="a" x="0" y="2.068" width="455.045" height="487.932" filterUnits="userSpaceOnUse" color-interpolation-filters="sRGB"><feFlood flood-opacity="0" result="BackgroundImageFix"/><feBlend in="SourceGraphic" in2="BackgroundImageFix" result="shape"/><feColorMatrix in="SourceAlpha" values="0 0 0 0 0 0 0 0 0 0 0 0 0 0 0 0 0 0 127 0" result="hardAlpha"/><feOffset dy="4"/><feGaussianBlur stdDeviation="2"/><feComposite in2="hardAlpha" operator="arithmetic" k2="-1" k3="1"/><feColorMatrix values="0 0 0 0 0 0 0 0 0 0 0 0 0 0 0 0 0 0 0.25 0"/><feBlend in2="shape" result="effect1_innerShadow_120_2"/></filter><filter id="e" x="482" y=".068" width="455.045" height="489.932" filterUnits="userSpaceOnUse" color-interpolation-filters="sRGB"><feFlood flood-opacity="0" result="BackgroundImageFix"/><feBlend in="SourceGraphic" in2="BackgroundImageFix" result="shape"/><feColorMatrix in="SourceAlpha" values="0 0 0 0 0 0 0 0 0 0 0 0 0 0 0 0 0 0 127 0" result="hardAlpha"/><feOffset dy="4"/><feGaussianBlur stdDeviation="2"/><feComposite in2="hardAlpha" operator="arithmetic" k2="-1" k3="1"/><feColorMatrix values="0 0 0 0 0 0 0 0 0 0 0 0 0 0 0 0 0 0 0.25 0"/><feBlend in2="shape" result="effect1_innerShadow_120_2"/></filter></defs></svg>