<svg width="940" height="486" viewBox="0 0 940 486" fill="none" xmlns="http://www.w3.org/2000/svg">
<g opacity="0.3" filter="url(#filter0_i_120_2)">
<path d="M8.45148 191.408C11.0069 191.801 12.684 192.167 13.8286 192.859C13.2297 193.997 12.2048 195.326 10.7807 197.062C10.621 197.265 10.621 197.55 10.8073 197.74C10.9803 197.916 11.2731 197.929 11.4728 197.767C13.1099 196.37 14.3743 195.34 15.479 194.73C16.3441 196.519 16.6636 199.475 17.0096 205.007C17.0229 205.264 17.2359 205.468 17.5021 205.468C17.755 205.468 17.9679 205.264 17.9812 205.007C18.3273 199.448 18.66 196.479 19.5385 194.689C20.3903 195.163 21.4018 195.909 22.9191 197.143C23.1188 197.306 23.3983 197.292 23.5846 197.116C23.7576 196.926 23.771 196.641 23.6112 196.451C22.5198 195.055 21.668 193.903 21.1356 192.872C22.2936 192.167 23.9706 191.801 26.5394 191.408C26.7789 191.381 26.952 191.164 26.952 190.92C26.952 190.676 26.7789 190.459 26.5394 190.432C23.9839 190.038 22.3202 189.672 21.1756 188.981C21.7612 187.842 22.7993 186.513 24.2235 184.778C24.3832 184.575 24.3699 184.29 24.1836 184.1C24.0105 183.924 23.7177 183.91 23.5314 184.073C21.8943 185.469 20.6165 186.5 19.5252 187.11C18.6467 185.32 18.3273 182.365 17.9812 176.833C17.9679 176.575 17.755 176.372 17.5021 176.372C17.2359 176.372 17.0229 176.575 17.0096 176.833C16.6636 182.392 16.3441 185.347 15.4657 187.151C14.6139 186.676 13.589 185.93 12.0717 184.697C11.8721 184.534 11.5926 184.547 11.4195 184.724C11.2465 184.9 11.2199 185.198 11.3796 185.388C12.4843 186.785 13.3361 187.937 13.8552 188.967C12.7106 189.672 11.0203 190.038 8.45148 190.418C8.21191 190.459 8.03888 190.676 8.03888 190.92C8.03888 191.164 8.21191 191.381 8.45148 191.408ZM14.7736 189.537C14.9599 189.401 15.0265 189.144 14.9333 188.927C14.7204 188.479 14.4675 188.005 14.148 187.517C14.6006 187.815 15.0398 188.059 15.4524 188.262C15.6786 188.371 15.9448 188.289 16.0779 188.073C16.7834 186.893 17.196 185.293 17.5021 182.812C17.7949 185.266 18.2075 186.866 18.8996 188.045C19.0327 188.262 19.2989 188.344 19.5385 188.235C19.991 188.005 20.4835 187.706 21.0025 187.34C20.6165 187.923 20.3237 188.439 20.0842 188.94C19.991 189.157 20.0575 189.415 20.2439 189.55C21.0957 190.188 22.1871 190.594 23.6512 190.92C22.1738 191.259 21.0824 191.665 20.2173 192.303C20.0309 192.438 19.9777 192.696 20.0709 192.913C20.2705 193.36 20.5234 193.835 20.8428 194.323C20.3903 194.025 19.9644 193.781 19.5385 193.577C19.3122 193.469 19.046 193.564 18.9129 193.767C18.2075 194.947 17.7949 196.546 17.5021 199.028C17.196 196.574 16.7834 194.974 16.0913 193.808C15.9981 193.645 15.8384 193.564 15.6787 193.564C15.5988 193.564 15.5322 193.577 15.4657 193.604C14.9999 193.835 14.5074 194.133 13.9883 194.499C14.3743 193.93 14.6804 193.401 14.9067 192.899C14.9999 192.682 14.9333 192.425 14.747 192.289C13.8952 191.652 12.8171 191.245 11.3397 190.92C12.8304 190.594 13.9218 190.174 14.7736 189.537Z" fill="#EBDCAE"/>
<path d="M235.595 432.649C235.595 432.404 235.422 432.188 235.182 432.147C232.627 431.767 230.963 431.401 229.805 430.696C230.404 429.571 231.429 428.242 232.853 426.507C233.026 426.303 233.013 426.019 232.826 425.829C232.653 425.653 232.36 425.639 232.174 425.802C230.524 427.198 229.259 428.215 228.168 428.839C227.289 427.035 226.97 424.093 226.624 418.562C226.611 418.29 226.398 418.087 226.145 418.087C225.879 418.087 225.666 418.29 225.652 418.562C225.306 424.12 224.987 427.076 224.108 428.866C223.257 428.405 222.232 427.659 220.714 426.412C220.515 426.249 220.235 426.276 220.062 426.452C219.889 426.629 219.863 426.913 220.022 427.117C221.127 428.5 221.979 429.666 222.498 430.683C221.353 431.388 219.663 431.754 217.094 432.147C216.855 432.188 216.682 432.391 216.682 432.649C216.682 432.893 216.855 433.096 217.094 433.137C219.65 433.53 221.327 433.882 222.471 434.587C221.872 435.713 220.848 437.055 219.423 438.79C219.264 438.98 219.277 439.278 219.45 439.455C219.636 439.645 219.916 439.658 220.116 439.482C221.753 438.085 223.017 437.069 224.122 436.445C224.987 438.248 225.306 441.19 225.652 446.722C225.666 446.993 225.879 447.196 226.145 447.196C226.398 447.196 226.611 446.993 226.624 446.722C226.97 441.163 227.303 438.207 228.181 436.418C229.02 436.879 230.045 437.624 231.562 438.872C231.762 439.034 232.041 439.021 232.227 438.831C232.4 438.655 232.414 438.37 232.254 438.167C231.163 436.784 230.311 435.631 229.792 434.601C230.936 433.896 232.613 433.53 235.182 433.137C235.422 433.096 235.595 432.893 235.595 432.649ZM228.86 434.031C228.674 434.167 228.62 434.425 228.714 434.642C228.913 435.089 229.166 435.564 229.486 436.052C229.033 435.753 228.607 435.509 228.181 435.306C227.955 435.197 227.689 435.279 227.556 435.496C226.85 436.675 226.438 438.275 226.145 440.743C225.839 438.302 225.439 436.702 224.734 435.523C224.641 435.374 224.481 435.292 224.321 435.292C224.242 435.292 224.175 435.306 224.108 435.333C223.643 435.564 223.15 435.862 222.631 436.214C223.017 435.645 223.323 435.13 223.549 434.628C223.643 434.411 223.576 434.153 223.39 434.018C222.538 433.381 221.46 432.974 219.982 432.649C221.473 432.31 222.565 431.903 223.416 431.266C223.603 431.116 223.669 430.872 223.563 430.655C223.363 430.194 223.11 429.734 222.791 429.232C223.243 429.53 223.683 429.788 224.095 429.978C224.321 430.086 224.588 430.005 224.721 429.788C225.426 428.622 225.839 427.008 226.145 424.541C226.438 426.995 226.85 428.595 227.542 429.761C227.675 429.978 227.942 430.072 228.168 429.95C228.634 429.72 229.126 429.435 229.645 429.069C229.259 429.639 228.953 430.167 228.727 430.669C228.634 430.886 228.7 431.144 228.887 431.279C229.738 431.916 230.83 432.31 232.294 432.649C230.817 432.974 229.725 433.381 228.86 434.031Z" fill="#EBDCAE"/>
<path d="M0.412601 455.277C2.96806 455.657 4.63178 456.023 5.77641 456.728C5.19079 457.853 4.16594 459.182 2.72849 460.917C2.56878 461.121 2.58208 461.406 2.76842 461.595C2.94144 461.772 3.23426 461.785 3.42059 461.622C5.05769 460.226 6.33542 459.209 7.42682 458.585C8.30525 460.375 8.62469 463.331 8.97074 468.863C8.98405 469.12 9.19701 469.337 9.44989 469.337C9.71609 469.337 9.92904 469.12 9.94235 468.863C10.2884 463.304 10.6078 460.348 11.4863 458.558C12.3381 459.019 13.3629 459.765 14.8803 461.012C15.0799 461.162 15.3594 461.148 15.5324 460.972C15.7055 460.795 15.7321 460.511 15.5724 460.307C14.4676 458.924 13.6158 457.758 13.0968 456.742C14.2414 456.023 15.9317 455.67 18.5005 455.277C18.7401 455.237 18.9131 455.033 18.9131 454.776C18.9131 454.532 18.7401 454.328 18.5005 454.288C15.945 453.894 14.268 453.542 13.1234 452.837C13.7223 451.711 14.7472 450.369 16.1713 448.634C16.331 448.444 16.331 448.146 16.1447 447.969C15.9716 447.78 15.6788 447.766 15.4792 447.942C13.8421 449.339 12.5777 450.356 11.473 450.979C10.6078 449.176 10.2884 446.234 9.94235 440.702C9.92904 440.431 9.71609 440.228 9.44989 440.228C9.19701 440.228 8.98405 440.431 8.97074 440.702C8.62469 446.261 8.30526 449.217 7.41351 451.006C6.575 450.545 5.55015 449.8 4.03284 448.552C3.83319 448.39 3.55369 448.403 3.36736 448.593C3.19433 448.769 3.18102 449.054 3.34074 449.257C4.43213 450.64 5.28395 451.793 5.81634 452.823C4.6584 453.528 2.98137 453.894 0.412601 454.288C0.173024 454.328 0 454.532 0 454.776C0 455.033 0.173024 455.237 0.412601 455.277ZM6.7214 453.393C6.90774 453.257 6.97429 452.999 6.88112 452.796C6.68148 452.335 6.41528 451.861 6.10916 451.372C6.56168 451.671 6.9876 451.915 7.41351 452.118C7.63977 452.227 7.90597 452.145 8.03906 451.928C8.74448 450.749 9.15708 449.149 9.44989 446.681C9.75601 449.135 10.1553 450.722 10.8607 451.901C10.9805 452.118 11.26 452.2 11.4863 452.091C11.9521 451.861 12.4446 451.562 12.9637 451.21C12.5777 451.779 12.2715 452.294 12.0453 452.796C11.9521 453.013 12.0054 453.271 12.205 453.406C13.0568 454.043 14.1349 454.45 15.6123 454.776C14.1216 455.115 13.0302 455.521 12.1784 456.159C11.992 456.294 11.9255 456.552 12.0187 456.769C12.2183 457.216 12.4845 457.691 12.7906 458.179C12.3514 457.88 11.9122 457.636 11.4996 457.433C11.2733 457.325 11.0071 457.419 10.874 457.623C10.1686 458.802 9.75601 460.402 9.44989 462.883C9.15708 460.429 8.74448 458.829 8.05237 457.663C7.95921 457.501 7.79949 457.419 7.62646 457.419C7.55991 457.419 7.48006 457.433 7.41351 457.46C6.94767 457.691 6.46852 457.989 5.93613 458.355C6.32211 457.786 6.62823 457.257 6.8545 456.755C6.96098 456.538 6.89443 456.281 6.69478 456.145C5.84296 455.508 4.76488 455.101 3.2875 454.776C4.77818 454.45 5.86958 454.043 6.7214 453.393Z" fill="#EBDCAE"/>
<path d="M400.582 96.1209C403.138 96.5141 404.801 96.8666 405.959 97.5717C405.36 98.697 404.335 100.026 402.911 101.761C402.738 101.965 402.752 102.249 402.938 102.439C403.111 102.615 403.404 102.629 403.59 102.466C405.24 101.07 406.505 100.053 407.61 99.4291C408.475 101.232 408.794 104.175 409.14 109.706C409.154 109.964 409.367 110.181 409.619 110.181C409.886 110.181 410.099 109.964 410.112 109.706C410.458 104.147 410.777 101.192 411.669 99.402C412.508 99.863 413.532 100.609 415.05 101.856C415.249 102.019 415.529 101.992 415.702 101.815C415.888 101.639 415.902 101.354 415.742 101.151C414.65 99.7681 413.799 98.6021 413.266 97.5852C414.411 96.8802 416.101 96.5141 418.67 96.1209C418.91 96.0803 419.083 95.8769 419.083 95.6193C419.083 95.3752 418.91 95.1719 418.67 95.1312C416.115 94.738 414.451 94.3855 413.293 93.6805C413.892 92.5551 414.917 91.2129 416.341 89.4774C416.514 89.2876 416.501 88.9893 416.314 88.8131C416.141 88.6233 415.848 88.6097 415.649 88.786C414.012 90.1825 412.747 91.1993 411.642 91.823C410.777 90.0198 410.458 87.0776 410.112 81.5459C410.099 81.2747 409.886 81.0714 409.619 81.0714C409.367 81.0714 409.154 81.2747 409.14 81.5459C408.794 87.1047 408.475 90.0604 407.583 91.8501C406.744 91.3891 405.72 90.6434 404.202 89.3961C404.003 89.2334 403.723 89.2469 403.55 89.4368C403.364 89.613 403.351 89.8977 403.51 90.1011C404.602 91.484 405.453 92.6365 405.986 93.6669C404.841 94.3719 403.151 94.738 400.582 95.1312C400.343 95.1719 400.169 95.3752 400.169 95.6193C400.169 95.8769 400.343 96.0803 400.582 96.1209ZM406.904 94.2364C407.091 94.1008 407.144 93.8432 407.051 93.6398C406.851 93.1788 406.598 92.7043 406.279 92.2162C406.731 92.5145 407.157 92.7585 407.583 92.9619C407.809 93.0703 408.075 92.989 408.209 92.7721C408.914 91.5925 409.327 89.9926 409.619 87.525C409.926 89.9791 410.338 91.5654 411.03 92.7449C411.163 92.9619 411.43 93.0432 411.656 92.9348C412.122 92.7043 412.614 92.406 413.133 92.0535C412.747 92.6229 412.441 93.1381 412.215 93.6398C412.122 93.8567 412.188 94.1143 412.374 94.2499C413.226 94.8871 414.318 95.2939 415.782 95.6193C414.291 95.9582 413.2 96.365 412.348 97.0022C412.162 97.1514 412.095 97.3954 412.188 97.6123C412.401 98.0598 412.654 98.5343 412.973 99.0224C412.521 98.7377 412.082 98.4801 411.669 98.2767C411.443 98.1818 411.177 98.2631 411.044 98.4801C410.338 99.6461 409.926 101.246 409.619 103.727C409.327 101.273 408.914 99.6732 408.222 98.5072C408.129 98.3445 407.969 98.2631 407.796 98.2631C407.729 98.2631 407.663 98.2767 407.583 98.3174C407.13 98.5343 406.638 98.8326 406.119 99.1986C406.505 98.6292 406.798 98.1004 407.037 97.5988C407.13 97.3954 407.064 97.1242 406.878 96.9887C406.026 96.3514 404.934 95.9582 403.47 95.6193C404.948 95.2939 406.039 94.8871 406.904 94.2364Z" fill="#EBDCAE"/>
<path d="M408.554 227.933C408.727 227.757 408.741 227.459 408.581 227.269C406.358 224.449 404.655 222.117 403.656 220.043C405.906 218.511 409.233 217.778 414.424 216.978C414.664 216.938 414.837 216.734 414.837 216.49C414.837 216.233 414.664 216.029 414.424 215.989C409.26 215.202 405.959 214.47 403.71 212.952C404.828 210.687 406.864 208.03 409.739 204.532C409.899 204.329 409.885 204.044 409.712 203.854C409.526 203.678 409.247 203.664 409.047 203.827C405.719 206.674 403.164 208.694 400.968 209.86C399.118 206.417 398.492 200.749 397.8 189.754C397.787 189.496 397.574 189.293 397.308 189.293C397.055 189.293 396.842 189.496 396.829 189.754C396.136 200.804 395.498 206.484 393.634 209.915C391.917 209.033 389.868 207.569 386.727 205.007C386.527 204.844 386.247 204.857 386.074 205.034C385.901 205.224 385.888 205.508 386.034 205.698C388.27 208.518 389.974 210.85 390.959 212.925C388.71 214.457 385.396 215.202 380.191 215.989C379.952 216.029 379.779 216.233 379.779 216.49C379.779 216.734 379.952 216.938 380.191 216.978C385.369 217.765 388.67 218.497 390.919 220.016C389.801 222.28 387.765 224.937 384.89 228.435C384.73 228.639 384.73 228.937 384.916 229.113C385.089 229.303 385.382 229.316 385.582 229.14C388.909 226.307 391.451 224.273 393.661 223.107C395.511 226.551 396.136 232.218 396.829 243.214C396.842 243.485 397.055 243.688 397.308 243.688C397.574 243.688 397.787 243.485 397.8 243.214C398.492 232.177 399.131 226.483 400.995 223.053C402.711 223.934 404.761 225.398 407.902 227.974C408.089 228.123 408.368 228.11 408.554 227.933ZM401.008 221.941C400.782 221.832 400.515 221.914 400.382 222.131C398.705 224.924 397.92 229.059 397.308 236.272C396.709 229.099 395.924 224.978 394.273 222.185C394.18 222.036 394.02 221.954 393.847 221.954C393.781 221.954 393.701 221.968 393.634 221.995C392.13 222.727 390.506 223.852 388.617 225.344C390.147 223.324 391.278 221.615 391.984 220.056C392.077 219.839 392.024 219.582 391.824 219.446C389.868 217.995 387.219 217.182 383.333 216.477C387.246 215.772 389.921 214.958 391.877 213.494C392.064 213.358 392.117 213.101 392.024 212.884C391.385 211.447 390.427 209.915 389.189 208.206C390.986 209.562 392.37 210.43 393.621 211.026C393.847 211.135 394.113 211.054 394.247 210.837C395.91 208.044 396.709 203.908 397.308 196.695C397.92 203.868 398.692 207.989 400.356 210.782C400.489 210.999 400.755 211.081 400.981 210.972C402.485 210.24 404.109 209.115 406.012 207.623C404.482 209.644 403.35 211.352 402.645 212.911C402.538 213.128 402.605 213.386 402.791 213.521C404.748 214.972 407.397 215.785 411.283 216.49C407.37 217.195 404.708 218.009 402.751 219.473C402.565 219.609 402.499 219.866 402.592 220.083C403.231 221.52 404.189 223.039 405.427 224.747C403.816 223.541 402.379 222.592 401.008 221.941Z" fill="#EBDCAE"/>
<path d="M117.95 198.906C123.128 199.692 126.428 200.424 128.678 201.943C127.56 204.193 125.523 206.864 122.648 210.362C122.475 210.566 122.489 210.85 122.675 211.04C122.848 211.216 123.141 211.23 123.341 211.067C126.668 208.22 129.21 206.2 131.42 205.034C133.256 208.478 133.895 214.145 134.587 225.141C134.601 225.398 134.814 225.602 135.066 225.602C135.333 225.602 135.546 225.398 135.559 225.141C136.251 214.091 136.89 208.41 138.753 204.966C140.47 205.847 142.52 207.312 145.661 209.888C145.847 210.05 146.14 210.037 146.313 209.861C146.486 209.671 146.499 209.386 146.34 209.183C144.117 206.363 142.413 204.044 141.415 201.97C143.678 200.438 146.992 199.692 152.183 198.892C152.422 198.865 152.609 198.648 152.609 198.404C152.609 198.16 152.422 197.943 152.183 197.916C147.019 197.116 143.718 196.384 141.468 194.879C142.586 192.615 144.623 189.957 147.498 186.446C147.657 186.256 147.644 185.957 147.471 185.781C147.285 185.591 147.005 185.578 146.806 185.741C143.478 188.588 140.923 190.622 138.727 191.788C136.877 188.33 136.251 182.663 135.559 171.681C135.546 171.41 135.333 171.206 135.066 171.206C134.814 171.206 134.601 171.41 134.587 171.681C133.895 182.717 133.256 188.398 131.393 191.842C129.676 190.96 127.626 189.496 124.485 186.92C124.286 186.757 124.006 186.771 123.833 186.961C123.66 187.137 123.647 187.422 123.793 187.625C126.029 190.445 127.733 192.777 128.718 194.852C126.468 196.384 123.154 197.116 117.95 197.916C117.711 197.943 117.538 198.16 117.538 198.404C117.538 198.648 117.711 198.865 117.95 198.906ZM129.636 195.421C129.822 195.286 129.876 195.028 129.782 194.811C129.144 193.374 128.185 191.842 126.961 190.147C128.558 191.34 130.009 192.289 131.38 192.954C131.606 193.062 131.872 192.967 131.992 192.75C133.682 189.971 134.467 185.822 135.066 178.623C135.679 185.781 136.451 189.903 138.114 192.709C138.247 192.926 138.514 193.008 138.74 192.899C140.244 192.154 141.868 191.042 143.771 189.55C142.24 191.557 141.109 193.279 140.404 194.838C140.297 195.055 140.364 195.313 140.55 195.448C142.507 196.899 145.155 197.699 149.055 198.404C145.129 199.122 142.467 199.936 140.51 201.4C140.324 201.536 140.257 201.793 140.35 201.997C140.989 203.434 141.948 204.966 143.185 206.674C141.588 205.468 140.137 204.519 138.767 203.868C138.54 203.759 138.274 203.841 138.141 204.058C136.464 206.851 135.679 210.986 135.066 218.199C134.467 211.027 133.682 206.905 132.032 204.112C131.939 203.963 131.779 203.868 131.606 203.868C131.539 203.868 131.459 203.881 131.393 203.922C129.902 204.654 128.265 205.78 126.375 207.271C127.906 205.251 129.037 203.542 129.743 201.983C129.849 201.766 129.782 201.509 129.583 201.373C127.626 199.909 124.978 199.109 121.091 198.404C125.004 197.699 127.68 196.885 129.636 195.421Z" fill="#EBDCAE"/>
<path d="M347.556 428.568C352.734 429.368 356.035 430.1 358.284 431.605C357.166 433.869 355.129 436.54 352.255 440.038C352.082 440.228 352.095 440.526 352.281 440.716C352.454 440.892 352.747 440.906 352.947 440.743C356.274 437.896 358.816 435.862 361.026 434.696C362.862 438.153 363.501 443.821 364.193 454.816C364.207 455.074 364.42 455.277 364.673 455.277C364.939 455.277 365.152 455.074 365.165 454.816C365.857 443.766 366.496 438.085 368.359 434.642C370.076 435.523 372.126 436.987 375.267 439.563C375.453 439.726 375.733 439.712 375.919 439.523C376.092 439.346 376.106 439.062 375.946 438.858C373.723 436.038 372.02 433.706 371.021 431.632C373.271 430.1 376.598 429.368 381.789 428.568C382.028 428.54 382.201 428.324 382.201 428.079C382.201 427.835 382.028 427.619 381.789 427.591C376.625 426.791 373.324 426.059 371.075 424.554C372.179 422.29 374.216 419.633 377.104 416.121C377.264 415.931 377.25 415.633 377.077 415.457C376.891 415.267 376.611 415.253 376.412 415.416C373.084 418.263 370.529 420.297 368.333 421.463C366.483 418.006 365.844 412.338 365.165 401.356C365.152 401.085 364.939 400.882 364.673 400.882C364.42 400.882 364.207 401.085 364.193 401.356C363.501 412.393 362.862 418.074 360.986 421.517C359.269 420.636 357.232 419.172 354.091 416.596C353.892 416.433 353.612 416.447 353.439 416.636C353.266 416.813 353.24 417.097 353.399 417.301C355.635 420.121 357.339 422.453 358.324 424.527C356.074 426.059 352.76 426.791 347.556 427.591C347.317 427.619 347.144 427.835 347.144 428.079C347.144 428.324 347.33 428.54 347.556 428.568ZM359.242 425.097C359.429 424.948 359.482 424.704 359.389 424.487C358.75 423.049 357.791 421.517 356.554 419.809C358.35 421.151 359.735 422.019 360.972 422.616C361.199 422.724 361.478 422.643 361.598 422.426C363.275 419.646 364.06 415.498 364.673 408.285C365.285 415.457 366.057 419.579 367.72 422.372C367.854 422.602 368.12 422.683 368.346 422.561C369.85 421.829 371.474 420.717 373.377 419.212C371.846 421.233 370.715 422.955 369.996 424.5C369.903 424.717 369.97 424.975 370.156 425.124C372.113 426.575 374.761 427.374 378.648 428.079C374.735 428.798 372.073 429.598 370.116 431.076C369.93 431.211 369.863 431.455 369.957 431.672C370.595 433.11 371.554 434.642 372.791 436.35C371.181 435.143 369.744 434.194 368.373 433.543C368.146 433.435 367.88 433.516 367.747 433.733C366.07 436.526 365.285 440.661 364.673 447.874C364.074 440.702 363.288 436.58 361.638 433.787C361.545 433.625 361.385 433.543 361.212 433.543C361.145 433.543 361.066 433.557 360.999 433.598C359.495 434.33 357.871 435.442 355.981 436.947C357.512 434.926 358.643 433.204 359.349 431.659C359.442 431.442 359.375 431.184 359.189 431.035C357.232 429.584 354.584 428.785 350.697 428.079C354.61 427.374 357.286 426.561 359.242 425.097Z" fill="#EBDCAE"/>
<mask id="mask0_120_2" style="mask-type:luminance" maskUnits="userSpaceOnUse" x="427" y="2" width="11" height="5">
<path d="M427.334 2H437.556V6.35218H427.334V2Z" fill="white"/>
</mask>
<g mask="url(#mask0_120_2)">
<path d="M434.442 3.77588C434.761 3.26067 435.041 2.69123 435.294 2.06755H434.229C434.096 2.35227 433.976 2.62343 433.83 2.86748C433.404 2.65055 432.938 2.37939 432.445 2.06755H430.649C431.767 2.85393 432.818 3.49116 433.816 3.97925C434.056 4.08772 434.322 3.99281 434.442 3.77588Z" fill="#EBDCAE"/>
</g>
<mask id="mask1_120_2" style="mask-type:luminance" maskUnits="userSpaceOnUse" x="417" y="2" width="41" height="36">
<path d="M417.113 2H458V37.5902H417.113V2Z" fill="white"/>
</mask>
<g mask="url(#mask1_120_2)">
<path d="M420.4 8.94155C420.161 8.98222 419.988 9.1856 419.988 9.42965C419.988 9.68725 420.161 9.89062 420.4 9.9313C425.578 10.7177 428.878 11.4498 431.128 12.9683C430.01 15.219 427.973 17.89 425.098 21.388C424.925 21.5913 424.939 21.8761 425.125 22.0659C425.298 22.2421 425.591 22.2557 425.777 22.093C429.118 19.2458 431.66 17.2256 433.87 16.0596C435.706 19.5034 436.345 25.1707 437.024 36.1664C437.051 36.424 437.264 36.6274 437.516 36.6274C437.783 36.6274 437.996 36.424 438.009 36.1664C438.701 25.1165 439.34 19.4356 441.203 15.9918C442.92 16.8866 444.97 18.3374 448.098 20.9134C448.297 21.0761 448.577 21.0626 448.763 20.8863C448.936 20.6965 448.949 20.4118 448.79 20.222C446.567 17.4019 444.863 15.0699 443.865 12.9954C446.115 11.4634 449.442 10.7177 454.633 9.9313C454.872 9.89062 455.045 9.68725 455.045 9.42965C455.045 9.1856 454.872 8.98222 454.633 8.94155C449.469 8.15517 446.168 7.42303 443.918 5.90452C444.477 4.75207 445.289 3.49116 446.327 2.06755H445.116C444.131 3.46404 443.373 4.69784 442.854 5.86384C442.747 6.08077 442.814 6.33838 443 6.47396C444.957 7.92469 447.605 8.72462 451.505 9.42965C447.579 10.1482 444.917 10.9482 442.96 12.426C442.774 12.5616 442.707 12.8192 442.8 13.0226C443.439 14.4597 444.398 15.9918 445.635 17.7001C444.038 16.4935 442.587 15.5444 441.217 14.8936C440.99 14.7851 440.724 14.8665 440.591 15.0834C438.914 17.8764 438.129 22.0116 437.516 29.2246C436.917 22.0523 436.132 17.9306 434.482 15.1376C434.389 14.9885 434.229 14.8936 434.056 14.8936C433.989 14.8936 433.91 14.9072 433.843 14.9478C432.339 15.68 430.715 16.8053 428.825 18.2967C430.356 16.2765 431.487 14.5682 432.193 13.009C432.299 12.7921 432.232 12.5345 432.033 12.3989C430.076 10.9346 427.428 10.1347 423.541 9.42965C427.468 8.72462 430.13 7.91113 432.086 6.44685C432.272 6.2977 432.326 6.05366 432.232 5.83673C431.713 4.65717 430.968 3.42337 430.05 2.06755H428.839C429.823 3.45048 430.609 4.69784 431.168 5.8774C428.918 7.40948 425.604 8.14162 420.4 8.94155Z" fill="#EBDCAE"/>
</g>
<mask id="mask2_120_2" style="mask-type:luminance" maskUnits="userSpaceOnUse" x="437" y="2" width="8" height="5">
<path d="M437.556 2H444.371V6.35218H437.556V2Z" fill="white"/>
</mask>
<g mask="url(#mask2_120_2)">
<path d="M441.19 3.92502C442.135 3.45048 443.133 2.84037 444.225 2.06755H442.428C442.002 2.35227 441.576 2.59632 441.177 2.81325C441.057 2.58276 440.937 2.32516 440.817 2.06755H439.753C439.992 2.67767 440.258 3.21999 440.564 3.73521C440.698 3.95214 440.964 4.03349 441.19 3.92502Z" fill="#EBDCAE"/>
</g>
<path d="M87.9502 106.927C88.7355 107.916 89.3344 108.743 89.7337 109.476C88.8952 109.95 87.6707 110.221 85.834 110.492C85.5944 110.533 85.4214 110.737 85.4214 110.994C85.4214 111.238 85.5944 111.442 85.834 111.482C87.6574 111.767 88.8686 112.025 89.7071 112.486C89.2679 113.313 88.5225 114.275 87.4977 115.509C87.338 115.712 87.3513 115.997 87.5243 116.187C87.7107 116.363 87.9902 116.377 88.1898 116.214C89.3211 115.238 90.2661 114.492 91.0514 114.018C91.6636 115.36 91.8899 117.543 92.1428 121.542C92.1561 121.814 92.3691 122.017 92.6219 122.017C92.8881 122.017 93.1011 121.814 93.1144 121.542C93.3673 117.516 93.5935 115.319 94.2058 113.991C94.8047 114.343 95.5501 114.885 96.6148 115.753C96.8012 115.916 97.094 115.902 97.267 115.712C97.4401 115.536 97.4534 115.251 97.2936 115.048C96.5217 114.072 95.9094 113.245 95.5235 112.499C96.362 112.025 97.5731 111.767 99.4099 111.482C99.6495 111.455 99.8358 111.238 99.8358 110.994C99.8358 110.75 99.6495 110.533 99.4099 110.492C97.5998 110.221 96.3753 109.964 95.5368 109.489C95.9893 108.676 96.7346 107.713 97.7462 106.479C97.9192 106.276 97.9059 105.978 97.7196 105.801C97.5465 105.612 97.2537 105.598 97.0541 105.774C95.9227 106.737 94.9911 107.496 94.1925 107.971C93.5935 106.628 93.3673 104.446 93.1144 100.432C93.1011 100.175 92.8881 99.9713 92.6219 99.9713C92.3691 99.9713 92.1561 100.175 92.1428 100.432C91.8899 104.459 91.6503 106.656 91.0514 107.984C90.4391 107.645 89.7071 107.103 88.6423 106.222C88.4427 106.073 88.1632 106.086 87.9902 106.262C87.8038 106.439 87.7905 106.737 87.9502 106.927ZM91.0381 109.11C91.2643 109.218 91.5305 109.137 91.6636 108.92C92.1162 108.174 92.409 107.211 92.6219 105.815C92.8349 107.184 93.1277 108.147 93.5669 108.893C93.7 109.123 93.9795 109.204 94.2058 109.082C94.4054 108.988 94.6184 108.866 94.8313 108.73C94.6849 108.988 94.5652 109.218 94.4587 109.449C94.3522 109.665 94.4187 109.923 94.6051 110.072C95.1641 110.479 95.8429 110.764 96.708 110.994C95.8296 111.225 95.1508 111.509 94.5918 111.93C94.4054 112.065 94.3389 112.323 94.4321 112.526C94.5252 112.743 94.6317 112.947 94.7515 113.163C94.5652 113.055 94.3921 112.96 94.2058 112.865C93.9795 112.757 93.7133 112.838 93.5802 113.055C93.1277 113.801 92.8349 114.777 92.6219 116.16C92.409 114.79 92.1162 113.828 91.6769 113.082C91.5838 112.933 91.4241 112.838 91.2643 112.838C91.1845 112.838 91.1179 112.852 91.0514 112.892C90.8384 112.987 90.6255 113.109 90.4125 113.245C90.5589 113.001 90.692 112.757 90.7985 112.526C90.8917 112.309 90.8251 112.052 90.6388 111.916C90.0931 111.496 89.4143 111.211 88.5492 110.994C89.4276 110.75 90.1064 110.465 90.6521 110.059C90.8384 109.909 90.905 109.665 90.8118 109.449C90.7186 109.245 90.6122 109.028 90.4924 108.811C90.6787 108.933 90.8651 109.028 91.0381 109.11Z" fill="#EBDCAE"/>
<path d="M92.5289 483.926C92.5422 484.197 92.7552 484.4 93.0214 484.4C93.2742 484.4 93.4872 484.197 93.5138 483.926C93.7667 479.899 93.993 477.716 94.6052 476.374C95.2041 476.726 95.9362 477.269 97.001 478.136C97.2006 478.299 97.4801 478.286 97.6531 478.109C97.8395 477.919 97.8528 477.635 97.6931 477.431C96.9211 476.455 96.3088 475.628 95.9096 474.896C96.7481 474.408 97.9726 474.15 99.8093 473.866C100.049 473.838 100.222 473.622 100.222 473.377C100.222 473.133 100.049 472.917 99.8093 472.889C97.9859 472.605 96.7747 472.347 95.9362 471.873C96.3754 471.059 97.1207 470.096 98.1456 468.863C98.3053 468.659 98.292 468.375 98.119 468.185C97.9326 468.008 97.6531 467.995 97.4535 468.158C96.2822 469.147 95.3772 469.893 94.5919 470.354C93.993 469.012 93.7534 466.829 93.5138 462.816C93.4872 462.558 93.2742 462.355 93.0214 462.355C92.7685 462.355 92.5422 462.558 92.5289 462.816C92.276 466.856 92.0497 469.039 91.4375 470.381C90.8386 470.029 90.0932 469.486 89.0284 468.619C88.8421 468.456 88.5626 468.469 88.3763 468.646C88.2032 468.835 88.1899 469.12 88.3496 469.31C89.2414 470.449 89.7871 471.222 90.1331 471.859C89.2946 472.347 88.0701 472.605 86.2334 472.876C85.9938 472.917 85.8208 473.133 85.8208 473.377C85.8208 473.622 85.9938 473.838 86.2334 473.866C88.0568 474.15 89.268 474.408 90.1065 474.882C89.654 475.696 88.9087 476.659 87.8971 477.892C87.7374 478.096 87.7507 478.38 87.9237 478.57C88.0968 478.747 88.3896 478.76 88.5892 478.597C89.7205 477.635 90.6655 476.875 91.4508 476.401C92.0497 477.743 92.276 479.926 92.5289 483.926ZM90.8119 475.628C90.9583 475.384 91.0781 475.14 91.1846 474.91C91.2911 474.693 91.2245 474.435 91.0382 474.299C90.4792 473.893 89.8004 473.608 88.9353 473.377C89.8137 473.147 90.4925 472.862 91.0515 472.442C91.2378 472.306 91.3044 472.049 91.2112 471.832C91.1181 471.628 91.0116 471.425 90.8918 471.208C91.0781 471.317 91.2512 471.412 91.4375 471.506C91.6638 471.615 91.93 471.52 92.0631 471.303C92.5156 470.557 92.8084 469.595 93.0214 468.212C93.2343 469.581 93.5271 470.544 93.9663 471.29C94.0994 471.506 94.3656 471.588 94.5919 471.479C94.8049 471.371 95.0178 471.262 95.2308 471.127C95.0844 471.371 94.9513 471.615 94.8448 471.845C94.7516 472.062 94.8182 472.32 95.0045 472.456C95.5502 472.862 96.229 473.147 97.0941 473.377C96.2157 473.608 95.5369 473.893 94.9912 474.313C94.8048 474.449 94.7383 474.706 94.8315 474.923C94.9246 475.126 95.0311 475.33 95.1509 475.547C94.9646 475.438 94.7782 475.343 94.6052 475.262C94.3789 475.154 94.0994 475.235 93.9796 475.452C93.5271 476.198 93.2343 477.16 93.0214 478.543C92.8084 477.174 92.5156 476.211 92.0764 475.465C91.9832 475.316 91.8235 475.235 91.6505 475.235C91.5839 475.235 91.504 475.249 91.4375 475.276C91.2378 475.384 91.0249 475.493 90.8119 475.628Z" fill="#EBDCAE"/>
<path d="M183.847 27.2182C185.657 27.503 186.881 27.7606 187.72 28.2351C187.267 29.0486 186.522 30.0112 185.51 31.245C185.337 31.4484 185.351 31.7331 185.537 31.9229C185.71 32.0992 186.003 32.1127 186.202 31.95C187.334 30.9739 188.265 30.2282 189.064 29.7536C189.663 31.0959 189.889 33.2787 190.142 37.2784C190.155 37.536 190.368 37.7529 190.634 37.7529C190.887 37.7529 191.1 37.5496 191.114 37.2784C191.366 33.2516 191.606 31.0552 192.205 29.7265C192.817 30.079 193.549 30.6213 194.614 31.4891C194.814 31.6518 195.093 31.6382 195.266 31.4484C195.453 31.2721 195.466 30.9874 195.306 30.784C194.401 29.6452 193.869 28.8723 193.523 28.2351C194.361 27.7606 195.586 27.503 197.422 27.2182C197.662 27.1776 197.835 26.9742 197.835 26.7301C197.835 26.4725 197.662 26.2692 197.422 26.2285C195.599 25.9573 194.388 25.6997 193.549 25.2252C193.988 24.4117 194.734 23.4491 195.759 22.2017C195.918 22.0119 195.905 21.7136 195.732 21.5374C195.546 21.3475 195.253 21.334 195.067 21.5102C193.935 22.4729 192.99 23.2321 192.192 23.6931C191.593 22.3644 191.366 20.1815 191.114 16.1683C191.1 15.9107 190.887 15.7073 190.634 15.7073C190.368 15.7073 190.155 15.9107 190.142 16.1683C189.889 20.1951 189.663 22.3915 189.051 23.7202C188.438 23.3813 187.706 22.8389 186.642 21.9577C186.442 21.8085 186.162 21.8221 185.989 21.9983C185.816 22.1746 185.803 22.4729 185.949 22.6627C186.735 23.6524 187.347 24.4795 187.733 25.2116C186.894 25.6862 185.67 25.9438 183.833 26.2285C183.594 26.2692 183.421 26.4725 183.421 26.7301C183.421 26.9742 183.607 27.1776 183.847 27.2182ZM188.665 25.7946C188.851 25.6455 188.918 25.4014 188.824 25.1845C188.731 24.9811 188.625 24.7642 188.505 24.5608C188.691 24.6693 188.864 24.7642 189.051 24.8456C189.277 24.954 189.543 24.8727 189.676 24.6557C190.115 23.91 190.408 22.9474 190.634 21.5645C190.847 22.9339 191.127 23.8965 191.579 24.6286C191.699 24.8591 191.979 24.9405 192.205 24.8184C192.418 24.7235 192.618 24.6015 192.844 24.4659C192.697 24.7235 192.564 24.954 192.458 25.1845C192.365 25.4014 192.431 25.659 192.618 25.8082C193.163 26.2149 193.842 26.4997 194.707 26.7301C193.829 26.9606 193.15 27.2454 192.604 27.6657C192.418 27.8012 192.351 28.0588 192.445 28.2622C192.538 28.4791 192.644 28.6825 192.764 28.8995C192.578 28.791 192.391 28.6961 192.218 28.6012C191.992 28.4927 191.713 28.5876 191.593 28.791C191.14 29.5367 190.847 30.5129 190.634 31.8958C190.421 30.5264 190.129 29.5638 189.689 28.8181C189.596 28.669 189.437 28.5741 189.264 28.5741C189.197 28.5741 189.117 28.6012 189.051 28.6283C188.851 28.7368 188.638 28.8452 188.425 28.9808C188.571 28.7368 188.691 28.4927 188.798 28.2622C188.904 28.0453 188.838 27.7877 188.651 27.6521C188.092 27.2454 187.414 26.9606 186.548 26.7301C187.427 26.4997 188.106 26.2014 188.665 25.7946Z" fill="#EBDCAE"/>
<path d="M155.497 340.168C154.659 340.656 153.434 340.914 151.597 341.199C151.358 341.226 151.185 341.443 151.185 341.687C151.185 341.931 151.358 342.148 151.597 342.175C153.421 342.46 154.645 342.717 155.484 343.192C155.031 344.005 154.286 344.968 153.261 346.202C153.101 346.405 153.115 346.69 153.301 346.879C153.474 347.056 153.767 347.069 153.953 346.907C155.084 345.944 156.029 345.185 156.828 344.71C157.427 346.052 157.653 348.235 157.906 352.235C157.919 352.506 158.132 352.71 158.385 352.71C158.651 352.71 158.864 352.506 158.878 352.235C159.131 348.208 159.357 346.025 159.969 344.683C160.581 345.036 161.313 345.578 162.378 346.446C162.565 346.608 162.857 346.595 163.03 346.419C163.203 346.242 163.217 345.944 163.07 345.754C162.285 344.764 161.673 343.937 161.287 343.205C162.125 342.717 163.35 342.46 165.187 342.188C165.426 342.148 165.599 341.931 165.599 341.687C165.599 341.443 165.426 341.226 165.187 341.199C163.363 340.914 162.139 340.656 161.3 340.182C161.753 339.368 162.498 338.406 163.523 337.172C163.683 336.968 163.669 336.684 163.483 336.494C163.31 336.318 163.017 336.304 162.831 336.467C161.659 337.457 160.741 338.202 159.956 338.663C159.357 337.321 159.131 335.138 158.878 331.138C158.864 330.867 158.651 330.664 158.385 330.664C158.132 330.664 157.919 330.867 157.906 331.138C157.653 335.165 157.414 337.362 156.815 338.69C156.203 338.338 155.47 337.796 154.406 336.928C154.206 336.765 153.927 336.779 153.754 336.955C153.581 337.145 153.554 337.429 153.714 337.633C154.619 338.758 155.164 339.531 155.497 340.168ZM156.801 339.802C157.041 339.911 157.307 339.829 157.427 339.612C157.88 338.867 158.172 337.904 158.385 336.521C158.612 337.89 158.891 338.853 159.33 339.599C159.463 339.816 159.743 339.897 159.969 339.789C160.169 339.68 160.382 339.558 160.608 339.436C160.448 339.68 160.329 339.911 160.222 340.141C160.129 340.358 160.182 340.616 160.382 340.765C160.927 341.172 161.606 341.456 162.471 341.687C161.593 341.917 160.914 342.202 160.355 342.622C160.169 342.758 160.102 343.015 160.209 343.219C160.289 343.436 160.395 343.639 160.528 343.856C160.342 343.748 160.155 343.653 159.969 343.558C159.743 343.449 159.477 343.544 159.344 343.748C158.904 344.507 158.612 345.469 158.385 346.852C158.172 345.483 157.893 344.52 157.44 343.775C157.347 343.626 157.187 343.531 157.028 343.531C156.948 343.531 156.881 343.544 156.815 343.585C156.602 343.68 156.402 343.802 156.176 343.937C156.322 343.693 156.455 343.449 156.562 343.219C156.655 343.002 156.588 342.744 156.402 342.609C155.856 342.202 155.178 341.917 154.313 341.687C155.191 341.443 155.87 341.158 156.415 340.751C156.602 340.602 156.668 340.358 156.575 340.141C156.482 339.938 156.376 339.721 156.256 339.517C156.442 339.626 156.628 339.721 156.801 339.802Z" fill="#EBDCAE"/>
<path d="M444.837 416.623C445.09 416.623 445.303 416.406 445.329 416.148C445.569 412.121 445.809 409.925 446.407 408.596C447.02 408.949 447.752 409.491 448.817 410.359C449.016 410.522 449.296 410.508 449.469 410.318C449.655 410.142 449.668 409.857 449.509 409.654C448.723 408.664 448.111 407.837 447.725 407.105C448.564 406.63 449.788 406.373 451.625 406.088C451.864 406.047 452.037 405.844 452.037 405.6C452.037 405.342 451.864 405.139 451.625 405.098C449.801 404.827 448.59 404.57 447.752 404.095C448.191 403.282 448.936 402.319 449.961 401.072C450.121 400.882 450.108 400.583 449.935 400.407C449.748 400.217 449.455 400.204 449.269 400.38C448.138 401.343 447.193 402.102 446.394 402.563C445.795 401.234 445.569 399.051 445.316 395.038C445.303 394.781 445.09 394.577 444.837 394.577C444.571 394.577 444.358 394.781 444.344 395.038C444.092 399.065 443.865 401.261 443.253 402.59C442.654 402.251 441.909 401.709 440.844 400.827C440.658 400.678 440.378 400.692 440.192 400.868C440.019 401.044 440.005 401.329 440.165 401.532C440.937 402.522 441.549 403.349 441.935 404.081C441.097 404.556 439.886 404.814 438.049 405.098C437.809 405.139 437.623 405.342 437.623 405.6C437.623 405.844 437.809 406.047 438.049 406.088C439.859 406.373 441.084 406.617 441.922 407.091C441.47 407.905 440.724 408.881 439.713 410.115C439.54 410.305 439.553 410.603 439.739 410.793C439.912 410.969 440.205 410.983 440.405 410.82C441.563 409.817 442.481 409.084 443.266 408.623C443.865 409.952 444.092 412.149 444.344 416.148C444.358 416.406 444.571 416.623 444.837 416.623ZM443.466 407.444C443.399 407.444 443.32 407.457 443.253 407.498C443.053 407.593 442.84 407.715 442.627 407.851C442.774 407.607 442.894 407.363 443 407.132C443.107 406.915 443.04 406.657 442.854 406.522C442.295 406.102 441.616 405.83 440.751 405.6C441.629 405.369 442.308 405.071 442.867 404.664C443.053 404.515 443.12 404.271 443.027 404.054C442.934 403.851 442.827 403.634 442.707 403.431C442.894 403.539 443.067 403.634 443.253 403.715C443.479 403.824 443.746 403.742 443.879 403.526C444.331 402.78 444.624 401.817 444.837 400.434C445.05 401.804 445.343 402.766 445.782 403.498C445.915 403.729 446.181 403.81 446.407 403.702C446.62 403.593 446.833 403.471 447.046 403.336C446.9 403.593 446.767 403.824 446.66 404.054C446.567 404.271 446.634 404.529 446.82 404.678C447.366 405.085 448.045 405.369 448.91 405.6C448.031 405.83 447.352 406.115 446.807 406.535C446.62 406.671 446.554 406.929 446.647 407.132C446.74 407.349 446.847 407.552 446.966 407.769C446.78 407.661 446.594 407.566 446.421 407.471C446.194 407.363 445.928 407.457 445.795 407.661C445.343 408.406 445.05 409.383 444.837 410.766C444.624 409.396 444.331 408.434 443.892 407.688C443.799 407.539 443.639 407.444 443.466 407.444Z" fill="#EBDCAE"/>
<path d="M444.837 156.848C447.113 156.848 448.976 154.95 448.976 152.631C448.976 150.299 447.113 148.415 444.837 148.415C442.548 148.415 440.698 150.299 440.698 152.631C440.698 154.95 442.548 156.848 444.837 156.848Z" fill="#EBDCAE"/>
<path d="M17.5019 76.1496C19.7778 76.1496 21.6279 74.265 21.6279 71.933C21.6279 69.601 19.7778 67.7164 17.5019 67.7164C15.2126 67.7164 13.3625 69.601 13.3625 71.933C13.3625 74.2515 15.2126 76.1496 17.5019 76.1496Z" fill="#EBDCAE"/>
<path d="M48.0476 320.387C45.7583 320.387 43.9083 322.271 43.9083 324.603C43.9083 326.922 45.7583 328.82 48.0476 328.82C50.3235 328.82 52.1869 326.922 52.1869 324.603C52.1869 322.271 50.3235 320.387 48.0476 320.387Z" fill="#EBDCAE"/>
<path d="M441.655 284.2C441.655 281.882 439.805 279.997 437.516 279.997C435.24 279.997 433.377 281.882 433.377 284.2C433.377 286.532 435.24 288.417 437.516 288.417C439.805 288.417 441.655 286.532 441.655 284.2Z" fill="#EBDCAE"/>
<path d="M351.775 349.971C354.051 349.971 355.915 348.086 355.915 345.754C355.915 343.422 354.051 341.538 351.775 341.538C349.486 341.538 347.636 343.422 347.636 345.754C347.636 348.086 349.486 349.971 351.775 349.971Z" fill="#EBDCAE"/>
<path d="M160.967 401.383C160.967 403.715 162.817 405.6 165.107 405.6C167.396 405.6 169.246 403.715 169.246 401.383C169.246 399.051 167.396 397.167 165.107 397.167C162.817 397.167 160.967 399.051 160.967 401.383Z" fill="#EBDCAE"/>
<path d="M118.722 277.99C120.998 277.99 122.861 276.106 122.861 273.774C122.861 271.455 120.998 269.571 118.722 269.571C116.433 269.571 114.583 271.455 114.583 273.774C114.583 276.106 116.433 277.99 118.722 277.99Z" fill="#EBDCAE"/>
<path d="M374.455 54.8633C374.455 55.4328 374.348 55.9615 374.135 56.4767C373.922 56.992 373.63 57.4529 373.244 57.8461C372.858 58.2393 372.405 58.5511 371.899 58.7681C371.394 58.9714 370.861 59.0799 370.316 59.0799C369.77 59.0799 369.237 58.9714 368.732 58.7681C368.226 58.5511 367.773 58.2393 367.387 57.8461C367.001 57.4529 366.709 56.992 366.496 56.4767C366.283 55.9615 366.176 55.4328 366.176 54.8633C366.176 54.3074 366.283 53.7787 366.496 53.2499C366.709 52.7347 367.001 52.2873 367.387 51.8941C367.773 51.5009 368.226 51.189 368.732 50.9721C369.237 50.7687 369.77 50.6603 370.316 50.6603C370.861 50.6603 371.394 50.7687 371.899 50.9721C372.405 51.189 372.858 51.5009 373.244 51.8941C373.63 52.2873 373.922 52.7347 374.135 53.2499C374.348 53.7787 374.455 54.3074 374.455 54.8633Z" fill="#EBDCAE"/>
<path d="M57.7104 261.91C57.7104 262.493 57.5108 262.995 57.0982 263.402C56.6989 263.809 56.2064 264.012 55.6341 264.012C55.0618 264.012 54.5826 263.809 54.17 263.402C53.7707 262.995 53.5711 262.493 53.5711 261.91C53.5711 261.327 53.7707 260.826 54.17 260.419C54.5826 260.012 55.0618 259.809 55.6341 259.809C56.2064 259.809 56.6989 260.012 57.0982 260.419C57.5108 260.826 57.7104 261.327 57.7104 261.91Z" fill="#EBDCAE"/>
<path d="M95.0841 368.179C93.9395 368.179 93.0211 369.129 93.0211 370.295C93.0211 371.461 93.9395 372.396 95.0841 372.396C96.2288 372.396 97.1604 371.461 97.1604 370.295C97.1604 369.129 96.2288 368.179 95.0841 368.179Z" fill="#EBDCAE"/>
<path d="M185.99 481.797C185.99 482.38 185.777 482.881 185.377 483.288C184.978 483.709 184.486 483.912 183.913 483.912C183.341 483.912 182.849 483.709 182.449 483.288C182.05 482.881 181.85 482.38 181.85 481.797C181.85 481.227 182.05 480.726 182.449 480.319C182.849 479.899 183.341 479.695 183.913 479.695C184.486 479.695 184.978 479.899 185.377 480.319C185.777 480.726 185.99 481.227 185.99 481.797Z" fill="#EBDCAE"/>
<path d="M88.2432 160.631C88.2432 161.214 88.0436 161.715 87.6443 162.122C87.2317 162.542 86.7525 162.746 86.1802 162.746C85.6079 162.746 85.1154 162.542 84.7161 162.122C84.3035 161.715 84.1039 161.214 84.1039 160.631C84.1039 160.048 84.3035 159.56 84.7161 159.139C85.1154 158.733 85.6079 158.529 86.1802 158.529C86.7525 158.529 87.2317 158.733 87.6443 159.139C88.0436 159.56 88.2432 160.048 88.2432 160.631Z" fill="#EBDCAE"/>
<path d="M283.549 37.2512C283.549 37.8342 283.35 38.3223 282.951 38.7426C282.538 39.1493 282.059 39.3527 281.486 39.3527C280.914 39.3527 280.422 39.1493 280.022 38.7426C279.61 38.3223 279.41 37.8342 279.41 37.2512C279.41 36.6682 279.61 36.1665 280.022 35.7598C280.422 35.3395 280.914 35.1361 281.486 35.1361C282.059 35.1361 282.538 35.3395 282.951 35.7598C283.35 36.1665 283.549 36.6682 283.549 37.2512Z" fill="#EBDCAE"/>
<path d="M286.584 431.076C286.584 431.645 286.385 432.147 285.985 432.554C285.573 432.974 285.094 433.177 284.521 433.177C283.949 433.177 283.456 432.974 283.057 432.554C282.645 432.147 282.445 431.645 282.445 431.076C282.445 430.493 282.645 429.991 283.057 429.584C283.456 429.164 283.949 428.961 284.521 428.961C285.094 428.961 285.573 429.164 285.985 429.584C286.385 429.991 286.584 430.493 286.584 431.076Z" fill="#EBDCAE"/>
<path d="M23.7046 360.885C23.7046 361.468 23.505 361.97 23.0924 362.376C22.6931 362.797 22.2006 363 21.6283 363C21.0693 363 20.5768 362.797 20.1776 362.376C19.765 361.97 19.5653 361.468 19.5653 360.885C19.5653 360.302 19.765 359.814 20.1776 359.394C20.5768 358.987 21.0693 358.784 21.6283 358.784C22.2006 358.784 22.6931 358.987 23.0924 359.394C23.505 359.814 23.7046 360.302 23.7046 360.885Z" fill="#EBDCAE"/>
<path d="M418.417 483.898C418.417 485.064 419.336 486 420.48 486C421.625 486 422.543 485.064 422.543 483.898C422.543 482.732 421.625 481.783 420.48 481.783C419.336 481.797 418.417 482.732 418.417 483.898Z" fill="#EBDCAE"/>
<path d="M85.9137 24.615C87.045 24.615 87.9767 23.6795 87.9767 22.5135C87.9767 21.3475 87.045 20.3984 85.9137 20.3984C84.7691 20.3984 83.8374 21.3475 83.8374 22.5135C83.8374 23.6795 84.7691 24.615 85.9137 24.615Z" fill="#EBDCAE"/>
<path d="M407.556 362.363C407.556 363.515 408.488 364.464 409.619 364.464C410.764 364.464 411.696 363.515 411.696 362.363C411.696 361.197 410.764 360.248 409.619 360.248C408.488 360.248 407.556 361.197 407.556 362.363Z" fill="#EBDCAE"/>
<path d="M317.489 123.617C318.621 123.617 319.552 122.681 319.552 121.515C319.552 120.349 318.621 119.4 317.489 119.4C316.345 119.4 315.413 120.349 315.413 121.515C315.413 122.668 316.345 123.617 317.489 123.617Z" fill="#EBDCAE"/>
<path d="M261.509 90.7789C262.64 90.7789 263.572 89.8434 263.572 88.6774C263.572 87.5114 262.64 86.5759 261.509 86.5759C260.364 86.5759 259.433 87.5114 259.433 88.6774C259.433 89.8434 260.364 90.7789 261.509 90.7789Z" fill="#EBDCAE"/>
<path d="M226.704 355.082C226.704 355.665 226.505 356.167 226.092 356.574C225.693 356.98 225.2 357.197 224.628 357.197C224.069 357.197 223.576 356.98 223.177 356.574C222.765 356.167 222.565 355.665 222.565 355.082C222.565 354.499 222.765 354.011 223.177 353.591C223.576 353.184 224.069 352.981 224.628 352.981C225.2 352.981 225.693 353.184 226.092 353.591C226.505 354.011 226.704 354.499 226.704 355.082Z" fill="#EBDCAE"/>
<path d="M169.352 66.1979C170.497 66.1979 171.429 65.2488 171.429 64.0964C171.429 62.9304 170.497 61.9813 169.352 61.9813C168.221 61.9813 167.289 62.9304 167.289 64.0964C167.289 65.2488 168.221 66.1979 169.352 66.1979Z" fill="#EBDCAE"/>
<path d="M362.609 260.663C363.754 260.663 364.672 259.727 364.672 258.561C364.672 257.395 363.754 256.446 362.609 256.446C361.464 256.446 360.546 257.395 360.546 258.561C360.546 259.727 361.464 260.663 362.609 260.663Z" fill="#EBDCAE"/>
<path d="M364.672 143.737C365.817 143.737 366.749 142.788 366.749 141.622C366.749 140.456 365.817 139.521 364.672 139.521C363.541 139.521 362.609 140.456 362.609 141.622C362.609 142.788 363.541 143.737 364.672 143.737Z" fill="#EBDCAE"/>
<path d="M278.173 189.252C274.699 191.584 269.588 192.723 261.602 193.943C261.203 194.011 260.897 194.364 260.897 194.77C260.897 195.177 261.203 195.53 261.602 195.597C269.548 196.804 274.632 197.929 278.106 200.248C276.376 203.732 273.235 207.827 268.816 213.209C268.537 213.548 268.563 214.023 268.856 214.335C269.162 214.633 269.641 214.66 269.961 214.389C275.085 210.01 278.998 206.891 282.392 205.088C285.214 210.416 286.199 219.161 287.25 236.096C287.277 236.53 287.636 236.868 288.062 236.868C288.488 236.868 288.847 236.53 288.874 236.096C289.939 219.094 290.923 210.308 293.785 204.993C296.42 206.363 299.575 208.613 304.393 212.572C304.712 212.83 305.178 212.803 305.471 212.504C305.777 212.206 305.804 211.732 305.538 211.393C302.104 207.068 299.482 203.475 297.951 200.288C301.425 197.943 306.536 196.818 314.535 195.597C314.934 195.53 315.227 195.177 315.227 194.77C315.227 194.35 314.934 194.011 314.535 193.943C306.589 192.737 301.505 191.598 298.031 189.293C299.748 185.808 302.889 181.714 307.321 176.331C307.587 175.992 307.574 175.504 307.268 175.206C306.975 174.894 306.496 174.88 306.163 175.152C301.052 179.531 297.126 182.649 293.745 184.453C290.91 179.124 289.939 170.366 288.874 153.445C288.847 153.011 288.501 152.659 288.062 152.659C287.636 152.659 287.277 153.011 287.25 153.445C286.199 170.447 285.2 179.233 282.352 184.547C279.703 183.178 276.562 180.914 271.744 176.968C271.411 176.697 270.946 176.724 270.653 177.023C270.36 177.334 270.333 177.809 270.6 178.134C274.02 182.473 276.642 186.052 278.173 189.252ZM282.325 186.378C282.698 186.568 283.151 186.432 283.364 186.066C285.906 181.836 287.13 175.599 288.062 164.861C288.994 175.531 290.205 181.741 292.72 185.985C292.933 186.351 293.386 186.486 293.772 186.296C295.994 185.212 298.404 183.571 301.185 181.402C298.963 184.358 297.299 186.907 296.247 189.211C296.074 189.578 296.194 189.998 296.5 190.242C299.482 192.452 303.488 193.686 309.344 194.77C303.448 195.855 299.415 197.102 296.434 199.339C296.128 199.57 296.021 199.99 296.181 200.356C297.126 202.485 298.537 204.749 300.333 207.271C297.978 205.508 295.835 204.125 293.812 203.149C293.426 202.973 292.973 203.109 292.76 203.475C290.218 207.705 288.994 213.942 288.062 224.666C287.13 213.996 285.919 207.8 283.404 203.556C283.257 203.298 282.991 203.163 282.711 203.163C282.592 203.163 282.472 203.176 282.352 203.244C280.129 204.329 277.72 205.969 274.939 208.139C277.161 205.183 278.825 202.634 279.876 200.316C280.049 199.963 279.943 199.529 279.624 199.299C276.642 197.089 272.636 195.841 266.793 194.77C272.676 193.686 276.709 192.438 279.69 190.201C279.996 189.971 280.103 189.537 279.943 189.184C278.998 187.056 277.587 184.778 275.79 182.27C278.159 184.019 280.289 185.415 282.325 186.378Z" fill="#EBDCAE"/>
<path d="M270.52 300.226C278.2 300.226 286.012 299.195 293.785 297.04C310.995 292.267 326.194 282.478 337.747 268.717C338.04 268.378 338.067 267.876 337.814 267.496C337.561 267.117 337.095 266.968 336.682 267.117C334.38 267.944 332.437 268.567 330.56 269.096C284.468 281.882 236.753 254.101 224.189 207.135C216.642 178.894 223.297 148.74 242.024 126.478C242.303 126.125 242.33 125.624 242.09 125.257C241.837 124.878 241.372 124.729 240.946 124.878C219.89 132.443 202.534 147.723 192.099 167.898C181.598 188.181 179.069 211.542 184.992 233.682C195.719 273.787 231.536 300.226 270.52 300.226ZM238.177 128.078C220.835 150.53 214.885 179.992 222.285 207.664C235.129 255.687 283.936 284.119 331.079 271.035C331.957 270.791 332.863 270.52 333.794 270.222C322.827 282.193 308.892 290.762 293.266 295.101C247.175 307.9 199.459 280.105 186.895 233.154C175.355 189.984 197.782 144.591 238.177 128.078Z" fill="#EBDCAE"/>
</g>
<g opacity="0.3" filter="url(#filter1_i_120_2)">
<path d="M490.451 190.191C493.007 190.585 494.684 190.953 495.829 191.647C495.23 192.791 494.205 194.125 492.781 195.868C492.621 196.072 492.621 196.358 492.807 196.548C492.98 196.725 493.273 196.739 493.473 196.576C495.11 195.173 496.374 194.139 497.479 193.526C498.344 195.323 498.664 198.291 499.01 203.846C499.023 204.104 499.236 204.309 499.502 204.309C499.755 204.309 499.968 204.104 499.981 203.846C500.327 198.264 500.66 195.282 501.538 193.485C502.39 193.962 503.402 194.71 504.919 195.949C505.119 196.113 505.398 196.099 505.585 195.922C505.758 195.732 505.771 195.446 505.611 195.255C504.52 193.853 503.668 192.696 503.136 191.661C504.294 190.953 505.971 190.585 508.539 190.191C508.779 190.163 508.952 189.946 508.952 189.7C508.952 189.455 508.779 189.238 508.539 189.21C505.984 188.816 504.32 188.448 503.175 187.754C503.761 186.61 504.799 185.276 506.223 183.533C506.383 183.329 506.37 183.043 506.183 182.853C506.01 182.676 505.718 182.662 505.531 182.825C503.894 184.228 502.616 185.262 501.525 185.875C500.647 184.078 500.327 181.11 499.981 175.555C499.968 175.297 499.755 175.092 499.502 175.092C499.236 175.092 499.023 175.297 499.01 175.555C498.664 181.137 498.344 184.105 497.466 185.916C496.614 185.439 495.589 184.69 494.072 183.452C493.872 183.288 493.593 183.302 493.419 183.479C493.246 183.656 493.22 183.955 493.38 184.146C494.484 185.548 495.336 186.705 495.855 187.74C494.711 188.448 493.02 188.816 490.451 189.197C490.212 189.238 490.039 189.455 490.039 189.7C490.039 189.946 490.212 190.163 490.451 190.191ZM496.774 188.312C496.96 188.176 497.026 187.917 496.933 187.699C496.72 187.25 496.467 186.773 496.148 186.283C496.601 186.583 497.04 186.828 497.452 187.032C497.679 187.141 497.945 187.059 498.078 186.841C498.783 185.657 499.196 184.051 499.502 181.559C499.795 184.023 500.207 185.63 500.9 186.814C501.033 187.032 501.299 187.114 501.538 187.005C501.991 186.773 502.483 186.474 503.002 186.106C502.616 186.692 502.324 187.209 502.084 187.713C501.991 187.931 502.057 188.189 502.244 188.325C503.096 188.965 504.187 189.374 505.651 189.7C504.174 190.041 503.082 190.449 502.217 191.089C502.031 191.225 501.978 191.484 502.071 191.702C502.27 192.151 502.523 192.628 502.843 193.118C502.39 192.818 501.964 192.573 501.538 192.369C501.312 192.26 501.046 192.355 500.913 192.559C500.207 193.744 499.795 195.35 499.502 197.842C499.196 195.378 498.783 193.771 498.091 192.6C497.998 192.437 497.838 192.355 497.679 192.355C497.599 192.355 497.532 192.369 497.466 192.396C497 192.628 496.507 192.927 495.988 193.295C496.374 192.723 496.68 192.192 496.907 191.688C497 191.47 496.933 191.212 496.747 191.075C495.895 190.436 494.817 190.027 493.34 189.7C494.83 189.374 495.922 188.952 496.774 188.312Z" fill="#EBDCAE"/>
<path d="M717.595 432.428C717.595 432.183 717.422 431.965 717.182 431.924C714.627 431.543 712.963 431.176 711.805 430.468C712.404 429.338 713.429 428.003 714.853 426.261C715.026 426.057 715.013 425.771 714.826 425.58C714.653 425.403 714.36 425.39 714.174 425.553C712.524 426.955 711.259 427.976 710.168 428.602C709.289 426.792 708.97 423.837 708.624 418.283C708.611 418.011 708.398 417.806 708.145 417.806C707.879 417.806 707.666 418.011 707.652 418.283C707.306 423.865 706.987 426.833 706.108 428.63C705.257 428.167 704.232 427.418 702.714 426.166C702.515 426.002 702.235 426.029 702.062 426.206C701.889 426.383 701.863 426.669 702.022 426.873C703.127 428.262 703.979 429.433 704.498 430.454C703.353 431.162 701.663 431.53 699.094 431.924C698.855 431.965 698.682 432.169 698.682 432.428C698.682 432.673 698.855 432.877 699.094 432.918C701.65 433.313 703.327 433.667 704.471 434.375C703.872 435.505 702.848 436.853 701.423 438.595C701.264 438.786 701.277 439.085 701.45 439.262C701.636 439.453 701.916 439.467 702.116 439.29C703.753 437.887 705.017 436.866 706.122 436.24C706.987 438.051 707.306 441.005 707.652 446.56C707.666 446.832 707.879 447.036 708.145 447.036C708.398 447.036 708.611 446.832 708.624 446.56C708.97 440.978 709.303 438.01 710.181 436.213C711.02 436.676 712.045 437.424 713.562 438.677C713.762 438.84 714.041 438.827 714.227 438.636C714.4 438.459 714.414 438.173 714.254 437.969C713.163 436.58 712.311 435.423 711.792 434.389C712.936 433.681 714.613 433.313 717.182 432.918C717.422 432.877 717.595 432.673 717.595 432.428ZM710.86 433.817C710.674 433.953 710.62 434.212 710.714 434.429C710.913 434.879 711.166 435.355 711.486 435.845C711.033 435.546 710.607 435.301 710.181 435.096C709.955 434.988 709.689 435.069 709.556 435.287C708.85 436.471 708.438 438.078 708.145 440.556C707.839 438.105 707.439 436.499 706.734 435.314C706.641 435.165 706.481 435.083 706.321 435.083C706.242 435.083 706.175 435.096 706.108 435.124C705.643 435.355 705.15 435.655 704.631 436.009C705.017 435.437 705.323 434.919 705.549 434.416C705.643 434.198 705.576 433.939 705.39 433.803C704.538 433.163 703.46 432.755 701.982 432.428C703.473 432.088 704.565 431.679 705.416 431.039C705.603 430.89 705.669 430.645 705.563 430.427C705.363 429.964 705.11 429.501 704.791 428.997C705.243 429.297 705.683 429.555 706.095 429.746C706.321 429.855 706.588 429.773 706.721 429.555C707.426 428.385 707.839 426.765 708.145 424.287C708.438 426.751 708.85 428.357 709.542 429.528C709.675 429.746 709.942 429.841 710.168 429.719C710.634 429.487 711.126 429.201 711.645 428.834C711.259 429.406 710.953 429.937 710.727 430.44C710.634 430.658 710.7 430.917 710.887 431.053C711.738 431.693 712.83 432.088 714.294 432.428C712.817 432.755 711.725 433.163 710.86 433.817Z" fill="#EBDCAE"/>
<path d="M482.413 455.15C484.968 455.531 486.632 455.899 487.776 456.607C487.191 457.737 486.166 459.071 484.728 460.814C484.569 461.018 484.582 461.304 484.768 461.495C484.941 461.671 485.234 461.685 485.421 461.522C487.058 460.119 488.335 459.098 489.427 458.472C490.305 460.269 490.625 463.237 490.971 468.792C490.984 469.05 491.197 469.268 491.45 469.268C491.716 469.268 491.929 469.05 491.942 468.792C492.288 463.21 492.608 460.242 493.486 458.445C494.338 458.908 495.363 459.657 496.88 460.909C497.08 461.059 497.359 461.045 497.532 460.868C497.705 460.691 497.732 460.405 497.572 460.201C496.468 458.813 495.616 457.642 495.097 456.621C496.241 455.899 497.932 455.545 500.5 455.15C500.74 455.109 500.913 454.905 500.913 454.647C500.913 454.402 500.74 454.197 500.5 454.156C497.945 453.762 496.268 453.408 495.123 452.7C495.722 451.57 496.747 450.222 498.171 448.479C498.331 448.289 498.331 447.989 498.145 447.812C497.972 447.622 497.679 447.608 497.479 447.785C495.842 449.187 494.578 450.208 493.473 450.835C492.608 449.024 492.288 446.07 491.942 440.515C491.929 440.243 491.716 440.039 491.45 440.039C491.197 440.039 490.984 440.243 490.971 440.515C490.625 446.097 490.305 449.065 489.414 450.862C488.575 450.399 487.55 449.65 486.033 448.398C485.833 448.234 485.554 448.248 485.367 448.438C485.194 448.615 485.181 448.901 485.341 449.106C486.432 450.494 487.284 451.651 487.816 452.686C486.658 453.394 484.981 453.762 482.413 454.156C482.173 454.197 482 454.402 482 454.647C482 454.905 482.173 455.109 482.413 455.15ZM488.721 453.258C488.908 453.122 488.974 452.863 488.881 452.659C488.681 452.196 488.415 451.72 488.109 451.229C488.562 451.529 488.988 451.774 489.414 451.978C489.64 452.087 489.906 452.005 490.039 451.788C490.744 450.603 491.157 448.997 491.45 446.519C491.756 448.983 492.155 450.576 492.861 451.76C492.981 451.978 493.26 452.06 493.486 451.951C493.952 451.72 494.445 451.42 494.964 451.066C494.578 451.638 494.272 452.155 494.045 452.659C493.952 452.877 494.005 453.135 494.205 453.272C495.057 453.911 496.135 454.32 497.612 454.647C496.122 454.987 495.03 455.395 494.178 456.035C493.992 456.171 493.925 456.43 494.019 456.648C494.218 457.097 494.485 457.574 494.791 458.064C494.351 457.764 493.912 457.519 493.5 457.315C493.273 457.206 493.007 457.301 492.874 457.506C492.169 458.69 491.756 460.296 491.45 462.788C491.157 460.324 490.744 458.717 490.052 457.546C489.959 457.383 489.799 457.301 489.626 457.301C489.56 457.301 489.48 457.315 489.414 457.342C488.948 457.574 488.469 457.873 487.936 458.241C488.322 457.669 488.628 457.138 488.854 456.634C488.961 456.416 488.894 456.158 488.695 456.022C487.843 455.382 486.765 454.973 485.287 454.647C486.778 454.32 487.87 453.911 488.721 453.258Z" fill="#EBDCAE"/>
<path d="M882.582 94.5098C885.137 94.9047 886.801 95.2586 887.959 95.9666C887.36 97.0965 886.335 98.4307 884.911 100.173C884.738 100.378 884.752 100.663 884.938 100.854C885.111 101.031 885.404 101.045 885.59 100.881C887.24 99.479 888.505 98.458 889.61 97.8317C890.475 99.6424 890.794 102.597 891.14 108.151C891.153 108.41 891.366 108.628 891.619 108.628C891.886 108.628 892.098 108.41 892.112 108.151C892.458 102.569 892.777 99.6016 893.669 97.8045C894.508 98.2674 895.532 99.0162 897.05 100.269C897.249 100.432 897.529 100.405 897.702 100.228C897.888 100.051 897.902 99.7649 897.742 99.5607C896.65 98.1721 895.799 97.0012 895.266 95.9802C896.411 95.2722 898.101 94.9047 900.67 94.5098C900.91 94.469 901.083 94.2648 901.083 94.0061C901.083 93.7611 900.91 93.5569 900.67 93.516C898.114 93.1212 896.451 92.7672 895.293 92.0593C895.892 90.9293 896.917 89.5815 898.341 87.8389C898.514 87.6483 898.5 87.3488 898.314 87.1718C898.141 86.9812 897.848 86.9676 897.649 87.1446C896.012 88.5468 894.747 89.5679 893.642 90.1941C892.777 88.3835 892.458 85.4292 892.112 79.8746C892.098 79.6023 891.886 79.3981 891.619 79.3981C891.366 79.3981 891.153 79.6023 891.14 79.8746C890.794 85.4564 890.475 88.4243 889.583 90.2214C888.744 89.7585 887.72 89.0097 886.202 87.7572C886.003 87.5938 885.723 87.6074 885.55 87.798C885.364 87.975 885.35 88.2609 885.51 88.4651C886.602 89.8538 887.453 91.011 887.986 92.0457C886.841 92.7536 885.151 93.1212 882.582 93.516C882.342 93.5569 882.169 93.7611 882.169 94.0061C882.169 94.2648 882.342 94.469 882.582 94.5098ZM888.904 92.6175C889.09 92.4813 889.144 92.2227 889.051 92.0184C888.851 91.5556 888.598 91.0791 888.279 90.589C888.731 90.8885 889.157 91.1335 889.583 91.3377C889.809 91.4466 890.075 91.365 890.208 91.1471C890.914 89.9627 891.327 88.3562 891.619 85.8784C891.925 88.3426 892.338 89.9355 893.03 91.1199C893.163 91.3377 893.429 91.4194 893.656 91.3105C894.122 91.0791 894.614 90.7796 895.133 90.4256C894.747 90.9974 894.441 91.5147 894.215 92.0184C894.122 92.2363 894.188 92.4949 894.374 92.6311C895.226 93.271 896.318 93.6794 897.782 94.0061C896.291 94.3465 895.2 94.7549 894.348 95.3948C894.161 95.5445 894.095 95.7896 894.188 96.0074C894.401 96.4567 894.654 96.9332 894.973 97.4233C894.521 97.1374 894.082 96.8787 893.669 96.6745C893.443 96.5792 893.177 96.6609 893.043 96.8787C892.338 98.0495 891.925 99.656 891.619 102.147C891.327 99.6832 890.914 98.0768 890.222 96.9059C890.129 96.7426 889.969 96.6609 889.796 96.6609C889.729 96.6609 889.663 96.6745 889.583 96.7153C889.13 96.9332 888.638 97.2327 888.119 97.6003C888.505 97.0285 888.798 96.4975 889.037 95.9938C889.13 95.7896 889.064 95.5173 888.878 95.3812C888.026 94.7413 886.934 94.3465 885.47 94.0061C886.948 93.6794 888.039 93.271 888.904 92.6175Z" fill="#EBDCAE"/>
<path d="M890.554 226.867C890.727 226.69 890.741 226.391 890.581 226.2C888.358 223.368 886.655 221.027 885.656 218.944C887.906 217.405 891.233 216.67 896.424 215.867C896.664 215.826 896.837 215.622 896.837 215.377C896.837 215.118 896.664 214.914 896.424 214.873C891.26 214.083 887.959 213.348 885.71 211.823C886.828 209.55 888.864 206.881 891.739 203.369C891.899 203.165 891.885 202.879 891.712 202.688C891.526 202.511 891.246 202.498 891.047 202.661C887.719 205.52 885.164 207.549 882.968 208.719C881.118 205.261 880.492 199.571 879.8 188.529C879.787 188.271 879.574 188.067 879.308 188.067C879.055 188.067 878.842 188.271 878.829 188.529C878.136 199.625 877.498 205.329 875.634 208.774C873.917 207.889 871.868 206.419 868.726 203.845C868.527 203.682 868.247 203.696 868.074 203.873C867.901 204.063 867.888 204.349 868.034 204.54C870.27 207.372 871.974 209.713 872.959 211.796C870.71 213.335 867.396 214.083 862.191 214.873C861.952 214.914 861.779 215.118 861.779 215.377C861.779 215.622 861.952 215.826 862.191 215.867C867.369 216.656 870.67 217.392 872.919 218.916C871.801 221.19 869.765 223.858 866.89 227.371C866.73 227.575 866.73 227.875 866.916 228.052C867.089 228.242 867.382 228.256 867.582 228.079C870.909 225.233 873.451 223.191 875.661 222.02C877.511 225.478 878.136 231.169 878.829 242.21C878.842 242.483 879.055 242.687 879.308 242.687C879.574 242.687 879.787 242.483 879.8 242.21C880.492 231.128 881.131 225.41 882.994 221.966C884.711 222.851 886.761 224.321 889.902 226.908C890.089 227.058 890.368 227.044 890.554 226.867ZM883.008 220.85C882.782 220.741 882.515 220.822 882.382 221.04C880.705 223.845 879.92 227.997 879.308 235.24C878.709 228.038 877.923 223.899 876.273 221.095C876.18 220.945 876.02 220.863 875.847 220.863C875.781 220.863 875.701 220.877 875.634 220.904C874.13 221.639 872.506 222.769 870.616 224.267C872.147 222.238 873.278 220.523 873.984 218.957C874.077 218.739 874.024 218.481 873.824 218.345C871.868 216.888 869.219 216.071 865.332 215.363C869.246 214.655 871.921 213.838 873.877 212.368C874.064 212.232 874.117 211.973 874.024 211.755C873.385 210.312 872.427 208.774 871.189 207.058C872.986 208.42 874.37 209.291 875.621 209.89C875.847 209.999 876.113 209.917 876.246 209.7C877.91 206.895 878.709 202.743 879.308 195.5C879.92 202.702 880.692 206.841 882.356 209.645C882.489 209.863 882.755 209.945 882.981 209.836C884.485 209.101 886.109 207.971 888.012 206.473C886.482 208.502 885.35 210.217 884.645 211.783C884.538 212 884.605 212.259 884.791 212.395C886.748 213.852 889.396 214.669 893.283 215.377C889.37 216.085 886.708 216.901 884.751 218.372C884.565 218.508 884.498 218.767 884.592 218.984C885.231 220.428 886.189 221.952 887.427 223.668C885.816 222.456 884.379 221.503 883.008 220.85Z" fill="#EBDCAE"/>
<path d="M599.95 197.719C605.128 198.509 608.428 199.244 610.678 200.769C609.56 203.029 607.523 205.711 604.649 209.223C604.475 209.427 604.489 209.713 604.675 209.904C604.848 210.081 605.141 210.095 605.341 209.931C608.668 207.072 611.21 205.044 613.42 203.873C615.256 207.331 615.895 213.022 616.587 224.063C616.601 224.321 616.814 224.526 617.066 224.526C617.333 224.526 617.546 224.321 617.559 224.063C618.251 212.967 618.89 207.263 620.753 203.805C622.47 204.69 624.52 206.16 627.661 208.747C627.847 208.91 628.14 208.897 628.313 208.72C628.486 208.529 628.5 208.243 628.34 208.039C626.117 205.207 624.413 202.879 623.415 200.796C625.678 199.258 628.992 198.509 634.183 197.706C634.422 197.678 634.609 197.461 634.609 197.216C634.609 196.97 634.422 196.753 634.183 196.725C629.019 195.922 625.718 195.187 623.468 193.676C624.586 191.402 626.623 188.734 629.498 185.208C629.657 185.017 629.644 184.718 629.471 184.541C629.285 184.35 629.005 184.336 628.806 184.5C625.478 187.359 622.923 189.401 620.727 190.572C618.877 187.1 618.251 181.409 617.559 170.382C617.546 170.11 617.333 169.905 617.066 169.905C616.814 169.905 616.601 170.11 616.587 170.382C615.895 181.464 615.256 187.168 613.393 190.626C611.676 189.741 609.626 188.271 606.485 185.684C606.286 185.521 606.006 185.535 605.833 185.725C605.66 185.902 605.647 186.188 605.793 186.392C608.029 189.224 609.733 191.566 610.718 193.649C608.468 195.187 605.154 195.922 599.95 196.725C599.711 196.753 599.538 196.97 599.538 197.216C599.538 197.461 599.711 197.678 599.95 197.719ZM611.636 194.22C611.822 194.084 611.876 193.826 611.783 193.608C611.144 192.165 610.185 190.626 608.961 188.924C610.558 190.123 612.009 191.075 613.38 191.743C613.606 191.852 613.872 191.756 613.992 191.538C615.682 188.747 616.468 184.582 617.066 177.352C617.679 184.541 618.451 188.679 620.114 191.498C620.247 191.715 620.514 191.797 620.74 191.688C622.244 190.939 623.868 189.823 625.771 188.325C624.24 190.34 623.109 192.069 622.404 193.635C622.297 193.853 622.364 194.111 622.55 194.248C624.507 195.704 627.155 196.508 631.055 197.216C627.129 197.937 624.467 198.754 622.51 200.224C622.324 200.36 622.257 200.619 622.35 200.823C622.989 202.266 623.948 203.805 625.185 205.52C623.588 204.309 622.137 203.356 620.767 202.702C620.54 202.593 620.274 202.675 620.141 202.893C618.464 205.697 617.679 209.849 617.066 217.092C616.468 209.89 615.682 205.752 614.032 202.947C613.939 202.797 613.779 202.702 613.606 202.702C613.539 202.702 613.46 202.716 613.393 202.756C611.902 203.492 610.265 204.622 608.375 206.119C609.906 204.091 611.037 202.375 611.743 200.81C611.849 200.592 611.783 200.333 611.583 200.197C609.626 198.727 606.978 197.923 603.091 197.216C607.004 196.508 609.68 195.691 611.636 194.22Z" fill="#EBDCAE"/>
<path d="M829.556 428.33C834.734 429.133 838.035 429.869 840.284 431.38C839.166 433.653 837.129 436.335 834.255 439.848C834.082 440.038 834.095 440.338 834.281 440.529C834.454 440.706 834.747 440.719 834.947 440.556C838.274 437.697 840.816 435.655 843.026 434.484C844.862 437.955 845.501 443.646 846.193 454.687C846.207 454.946 846.42 455.15 846.673 455.15C846.939 455.15 847.152 454.946 847.165 454.687C847.857 443.592 848.496 437.887 850.359 434.429C852.076 435.314 854.126 436.785 857.267 439.371C857.453 439.535 857.733 439.521 857.919 439.331C858.092 439.154 858.106 438.868 857.946 438.663C855.723 435.832 854.02 433.49 853.021 431.407C855.271 429.869 858.598 429.133 863.789 428.33C864.028 428.303 864.201 428.085 864.201 427.84C864.201 427.595 864.028 427.377 863.789 427.35C858.625 426.547 855.324 425.812 853.075 424.3C854.179 422.027 856.216 419.358 859.104 415.832C859.264 415.642 859.25 415.342 859.077 415.165C858.891 414.975 858.611 414.961 858.412 415.124C855.084 417.983 852.529 420.026 850.333 421.196C848.483 417.725 847.844 412.034 847.165 401.007C847.152 400.734 846.939 400.53 846.673 400.53C846.42 400.53 846.207 400.734 846.193 401.007C845.501 412.088 844.862 417.793 842.986 421.251C841.269 420.366 839.232 418.896 836.091 416.309C835.892 416.146 835.612 416.159 835.439 416.35C835.266 416.527 835.24 416.813 835.399 417.017C837.635 419.849 839.339 422.19 840.324 424.273C838.074 425.812 834.76 426.547 829.556 427.35C829.317 427.377 829.144 427.595 829.144 427.84C829.144 428.085 829.33 428.303 829.556 428.33ZM841.242 424.845C841.429 424.695 841.482 424.45 841.389 424.232C840.75 422.789 839.791 421.251 838.554 419.535C840.35 420.883 841.735 421.755 842.972 422.354C843.199 422.463 843.478 422.381 843.598 422.163C845.275 419.372 846.06 415.206 846.673 407.963C847.285 415.165 848.057 419.304 849.72 422.109C849.854 422.34 850.12 422.422 850.346 422.299C851.85 421.564 853.474 420.448 855.377 418.936C853.846 420.965 852.715 422.694 851.996 424.246C851.903 424.464 851.97 424.722 852.156 424.872C854.113 426.329 856.761 427.132 860.648 427.84C856.735 428.562 854.073 429.365 852.116 430.849C851.93 430.985 851.863 431.23 851.957 431.448C852.595 432.891 853.554 434.429 854.791 436.145C853.181 434.933 851.744 433.98 850.373 433.327C850.146 433.218 849.88 433.299 849.747 433.517C848.07 436.322 847.285 440.474 846.673 447.717C846.074 440.515 845.288 436.376 843.638 433.572C843.545 433.408 843.385 433.327 843.212 433.327C843.145 433.327 843.066 433.34 842.999 433.381C841.495 434.116 839.871 435.233 837.981 436.744C839.512 434.715 840.643 432.986 841.349 431.434C841.442 431.216 841.375 430.958 841.189 430.808C839.232 429.351 836.584 428.548 832.697 427.84C836.61 427.132 839.286 426.315 841.242 424.845Z" fill="#EBDCAE"/>
<mask id="mask3_120_2" style="mask-type:luminance" maskUnits="userSpaceOnUse" x="909" y="0" width="11" height="5">
<path d="M909.334 0H919.556V4.37016H909.334V0Z" fill="white"/>
</mask>
<g mask="url(#mask3_120_2)">
<path d="M916.442 1.78335C916.761 1.26602 917.041 0.694215 917.294 0.0679626H916.229C916.096 0.35386 915.976 0.626144 915.83 0.871201C915.404 0.653374 914.938 0.38109 914.445 0.0679626H912.649C913.767 0.857589 914.818 1.49745 915.816 1.98757C916.056 2.09648 916.322 2.00118 916.442 1.78335Z" fill="#EBDCAE"/>
</g>
<mask id="mask4_120_2" style="mask-type:luminance" maskUnits="userSpaceOnUse" x="899" y="0" width="41" height="36">
<path d="M899.113 0H940V35.7373H899.113V0Z" fill="white"/>
</mask>
<g mask="url(#mask4_120_2)">
<path d="M902.4 6.97037C902.16 7.01121 901.987 7.21542 901.987 7.46048C901.987 7.71915 902.16 7.92336 902.4 7.96421C907.578 8.75383 910.878 9.489 913.128 11.0138C912.01 13.2737 909.973 15.9557 907.098 19.4682C906.925 19.6724 906.939 19.9583 907.125 20.1489C907.298 20.3259 907.591 20.3395 907.777 20.1762C911.118 17.3172 913.66 15.2886 915.869 14.1178C917.706 17.5758 918.345 23.2666 919.024 34.3077C919.05 34.5664 919.263 34.7706 919.516 34.7706C919.783 34.7706 919.995 34.5664 920.009 34.3077C920.701 23.2121 921.34 17.5078 923.203 14.0498C924.92 14.9483 926.97 16.405 930.098 18.9917C930.297 19.1551 930.577 19.1415 930.763 18.9645C930.936 18.7739 930.949 18.488 930.79 18.2974C928.567 15.4656 926.863 13.124 925.865 11.041C928.114 9.50261 931.442 8.75383 936.633 7.96421C936.872 7.92336 937.045 7.71915 937.045 7.46048C937.045 7.21542 936.872 7.01121 936.633 6.97037C931.468 6.18074 928.168 5.44558 925.918 3.92078C926.477 2.76357 927.289 1.49745 928.327 0.0679626H927.116C926.131 1.47023 925.373 2.70912 924.854 3.87994C924.747 4.09777 924.814 4.35644 925 4.49258C926.956 5.9493 929.605 6.75254 933.505 7.46048C929.578 8.18203 926.917 8.98527 924.96 10.4692C924.774 10.6054 924.707 10.864 924.8 11.0682C925.439 12.5114 926.397 14.0498 927.635 15.7651C926.038 14.5535 924.587 13.6005 923.216 12.947C922.99 12.8381 922.724 12.9198 922.591 13.1376C920.914 15.9421 920.129 20.0945 919.516 27.3372C918.917 20.1353 918.132 15.9966 916.482 13.1921C916.389 13.0423 916.229 12.947 916.056 12.947C915.989 12.947 915.909 12.9606 915.843 13.0015C914.339 13.7366 912.715 14.8666 910.825 16.3642C912.356 14.3357 913.487 12.6203 914.192 11.0546C914.299 10.8368 914.232 10.5781 914.033 10.442C912.076 8.97165 909.428 8.16842 905.541 7.46048C909.467 6.75254 912.129 5.93569 914.086 4.46535C914.272 4.3156 914.326 4.07054 914.232 3.85271C913.713 2.66828 912.968 1.42938 912.05 0.0679626H910.838C911.823 1.45661 912.609 2.70912 913.168 3.89356C910.918 5.43196 907.604 6.16713 902.4 6.97037Z" fill="#EBDCAE"/>
</g>
<mask id="mask5_120_2" style="mask-type:luminance" maskUnits="userSpaceOnUse" x="919" y="0" width="8" height="5">
<path d="M919.556 0H926.371V4.37016H919.556V0Z" fill="white"/>
</mask>
<g mask="url(#mask5_120_2)">
<path d="M923.19 1.93311C924.135 1.45661 925.133 0.843972 926.225 0.0679626H924.428C924.002 0.35386 923.576 0.598917 923.177 0.816744C923.057 0.5853 922.937 0.326634 922.817 0.0679626H921.753C921.992 0.680601 922.258 1.22517 922.564 1.74251C922.698 1.96034 922.964 2.04202 923.19 1.93311Z" fill="#EBDCAE"/>
</g>
<path d="M569.95 105.36C570.736 106.354 571.334 107.185 571.734 107.92C570.895 108.396 569.671 108.669 567.834 108.941C567.594 108.982 567.421 109.186 567.421 109.445C567.421 109.69 567.594 109.894 567.834 109.935C569.657 110.221 570.869 110.479 571.707 110.942C571.268 111.773 570.523 112.739 569.498 113.978C569.338 114.182 569.351 114.468 569.524 114.659C569.711 114.836 569.99 114.849 570.19 114.686C571.321 113.706 572.266 112.957 573.051 112.481C573.664 113.828 573.89 116.02 574.143 120.036C574.156 120.309 574.369 120.513 574.622 120.513C574.888 120.513 575.101 120.309 575.114 120.036C575.367 115.993 575.594 113.787 576.206 112.453C576.805 112.807 577.55 113.352 578.615 114.223C578.801 114.387 579.094 114.373 579.267 114.182C579.44 114.005 579.453 113.719 579.294 113.515C578.522 112.535 577.909 111.705 577.523 110.956C578.362 110.479 579.573 110.221 581.41 109.935C581.649 109.907 581.836 109.69 581.836 109.445C581.836 109.199 581.649 108.982 581.41 108.941C579.6 108.669 578.375 108.41 577.537 107.933C577.989 107.117 578.735 106.15 579.746 104.911C579.919 104.707 579.906 104.407 579.72 104.23C579.547 104.04 579.254 104.026 579.054 104.203C577.923 105.17 576.991 105.932 576.192 106.409C575.594 105.061 575.367 102.869 575.114 98.8391C575.101 98.5804 574.888 98.3762 574.622 98.3762C574.369 98.3762 574.156 98.5804 574.143 98.8391C573.89 102.882 573.65 105.088 573.051 106.422C572.439 106.082 571.707 105.537 570.642 104.652C570.443 104.503 570.163 104.516 569.99 104.693C569.804 104.87 569.791 105.17 569.95 105.36ZM573.038 107.552C573.264 107.661 573.531 107.579 573.664 107.362C574.116 106.613 574.409 105.646 574.622 104.244C574.835 105.619 575.128 106.586 575.567 107.334C575.7 107.566 575.98 107.647 576.206 107.525C576.405 107.43 576.618 107.307 576.831 107.171C576.685 107.43 576.565 107.661 576.459 107.893C576.352 108.11 576.419 108.369 576.605 108.519C577.164 108.927 577.843 109.213 578.708 109.445C577.83 109.676 577.151 109.962 576.592 110.384C576.405 110.52 576.339 110.779 576.432 110.983C576.525 111.201 576.632 111.405 576.751 111.623C576.565 111.514 576.392 111.419 576.206 111.323C575.98 111.214 575.713 111.296 575.58 111.514C575.128 112.263 574.835 113.243 574.622 114.632C574.409 113.257 574.116 112.29 573.677 111.541C573.584 111.391 573.424 111.296 573.264 111.296C573.184 111.296 573.118 111.31 573.051 111.351C572.838 111.446 572.625 111.568 572.413 111.705C572.559 111.459 572.692 111.214 572.799 110.983C572.892 110.765 572.825 110.506 572.639 110.37C572.093 109.948 571.414 109.662 570.549 109.445C571.428 109.199 572.106 108.914 572.652 108.505C572.838 108.355 572.905 108.11 572.812 107.893C572.719 107.688 572.612 107.47 572.492 107.253C572.679 107.375 572.865 107.47 573.038 107.552Z" fill="#EBDCAE"/>
<path d="M574.529 483.917C574.542 484.189 574.755 484.394 575.021 484.394C575.274 484.394 575.487 484.189 575.514 483.917C575.767 479.874 575.993 477.682 576.605 476.334C577.204 476.688 577.936 477.233 579.001 478.104C579.201 478.267 579.48 478.254 579.653 478.077C579.839 477.886 579.853 477.6 579.693 477.396C578.921 476.416 578.309 475.585 577.91 474.85C578.748 474.36 579.973 474.101 581.809 473.815C582.049 473.788 582.222 473.57 582.222 473.325C582.222 473.08 582.049 472.862 581.809 472.835C579.986 472.549 578.775 472.291 577.936 471.814C578.375 470.997 579.121 470.031 580.146 468.792C580.305 468.588 580.292 468.302 580.119 468.111C579.933 467.934 579.653 467.92 579.453 468.084C578.282 469.078 577.377 469.826 576.592 470.289C575.993 468.942 575.753 466.75 575.514 462.72C575.487 462.461 575.274 462.257 575.021 462.257C574.768 462.257 574.542 462.461 574.529 462.72C574.276 466.777 574.05 468.969 573.437 470.317C572.839 469.963 572.093 469.418 571.028 468.547C570.842 468.383 570.563 468.397 570.376 468.574C570.203 468.765 570.19 469.05 570.35 469.241C571.241 470.385 571.787 471.161 572.133 471.801C571.295 472.291 570.07 472.549 568.233 472.822C567.994 472.862 567.821 473.08 567.821 473.325C567.821 473.57 567.994 473.788 568.233 473.815C570.057 474.101 571.268 474.36 572.107 474.836C571.654 475.653 570.909 476.62 569.897 477.859C569.737 478.063 569.751 478.349 569.924 478.54C570.097 478.717 570.39 478.73 570.589 478.567C571.721 477.6 572.666 476.838 573.451 476.361C574.05 477.709 574.276 479.901 574.529 483.917ZM572.812 475.585C572.958 475.34 573.078 475.095 573.185 474.864C573.291 474.646 573.225 474.387 573.038 474.251C572.479 473.843 571.8 473.557 570.935 473.325C571.814 473.094 572.493 472.808 573.052 472.386C573.238 472.25 573.304 471.991 573.211 471.773C573.118 471.569 573.012 471.365 572.892 471.147C573.078 471.256 573.251 471.351 573.437 471.447C573.664 471.555 573.93 471.46 574.063 471.242C574.516 470.494 574.808 469.527 575.021 468.138C575.234 469.513 575.527 470.48 575.966 471.229C576.099 471.447 576.366 471.528 576.592 471.419C576.805 471.31 577.018 471.201 577.231 471.065C577.084 471.31 576.951 471.555 576.845 471.787C576.752 472.005 576.818 472.263 577.004 472.4C577.55 472.808 578.229 473.094 579.094 473.325C578.216 473.557 577.537 473.843 576.991 474.265C576.805 474.401 576.738 474.66 576.831 474.877C576.925 475.082 577.031 475.286 577.151 475.504C576.965 475.395 576.778 475.299 576.605 475.218C576.379 475.109 576.099 475.19 575.98 475.408C575.527 476.157 575.234 477.124 575.021 478.512C574.808 477.137 574.516 476.171 574.076 475.422C573.983 475.272 573.823 475.19 573.65 475.19C573.584 475.19 573.504 475.204 573.437 475.231C573.238 475.34 573.025 475.449 572.812 475.585Z" fill="#EBDCAE"/>
<path d="M665.846 25.3224C667.657 25.6083 668.881 25.867 669.72 26.3435C669.267 27.1604 668.522 28.127 667.51 29.3659C667.337 29.5701 667.35 29.856 667.537 30.0466C667.71 30.2236 668.003 30.2372 668.202 30.0738C669.334 29.0936 670.265 28.3448 671.064 27.8683C671.663 29.2161 671.889 31.408 672.142 35.4242C672.155 35.6829 672.368 35.9007 672.634 35.9007C672.887 35.9007 673.1 35.6965 673.114 35.4242C673.366 31.3808 673.606 29.1753 674.205 27.8411C674.817 28.195 675.549 28.7396 676.614 29.6109C676.814 29.7743 677.093 29.7607 677.266 29.5701C677.453 29.3931 677.466 29.1072 677.306 28.903C676.401 27.7594 675.869 26.9834 675.523 26.3435C676.361 25.867 677.586 25.6083 679.422 25.3224C679.662 25.2816 679.835 25.0774 679.835 24.8323C679.835 24.5737 679.662 24.3694 679.422 24.3286C677.599 24.0563 676.388 23.7977 675.549 23.3212C675.988 22.5043 676.734 21.5377 677.759 20.2852C677.918 20.0946 677.905 19.7951 677.732 19.6181C677.546 19.4275 677.253 19.4139 677.067 19.5909C675.935 20.5575 674.99 21.3199 674.192 21.7827C673.593 20.4486 673.366 18.2567 673.114 14.2269C673.1 13.9682 672.887 13.764 672.634 13.764C672.368 13.764 672.155 13.9682 672.142 14.2269C671.889 18.2703 671.663 20.4758 671.051 21.81C670.438 21.4696 669.706 20.9251 668.641 20.0401C668.442 19.8904 668.162 19.904 667.989 20.081C667.816 20.258 667.803 20.5575 667.949 20.7481C668.735 21.7419 669.347 22.5724 669.733 23.3075C668.894 23.784 667.67 24.0427 665.833 24.3286C665.594 24.3694 665.421 24.5737 665.421 24.8323C665.421 25.0774 665.607 25.2816 665.846 25.3224ZM670.665 23.893C670.851 23.7432 670.917 23.4981 670.824 23.2803C670.731 23.0761 670.625 22.8583 670.505 22.6541C670.691 22.763 670.864 22.8583 671.051 22.94C671.277 23.0489 671.543 22.9672 671.676 22.7494C672.115 22.0006 672.408 21.034 672.634 19.6453C672.847 21.0204 673.127 21.987 673.579 22.7221C673.699 22.9536 673.979 23.0353 674.205 22.9127C674.418 22.8174 674.618 22.6949 674.844 22.5588C674.697 22.8174 674.564 23.0489 674.458 23.2803C674.365 23.4981 674.431 23.7568 674.618 23.9066C675.163 24.315 675.842 24.6009 676.707 24.8323C675.829 25.0638 675.15 25.3497 674.604 25.7717C674.418 25.9079 674.351 26.1665 674.445 26.3707C674.538 26.5886 674.644 26.7928 674.764 27.0106C674.578 26.9017 674.391 26.8064 674.218 26.7111C673.992 26.6022 673.712 26.6975 673.593 26.9017C673.14 27.6505 672.847 28.6307 672.634 30.0193C672.421 28.6443 672.129 27.6777 671.689 26.9289C671.596 26.7792 671.437 26.6839 671.263 26.6839C671.197 26.6839 671.117 26.7111 671.051 26.7383C670.851 26.8472 670.638 26.9561 670.425 27.0923C670.571 26.8472 670.691 26.6022 670.798 26.3707C670.904 26.1529 670.838 25.8942 670.651 25.7581C670.092 25.3497 669.413 25.0638 668.548 24.8323C669.427 24.6009 670.106 24.3014 670.665 23.893Z" fill="#EBDCAE"/>
<path d="M637.497 339.566C636.659 340.056 635.434 340.314 633.597 340.6C633.358 340.628 633.185 340.845 633.185 341.09C633.185 341.335 633.358 341.553 633.597 341.58C635.421 341.866 636.645 342.125 637.484 342.602C637.031 343.418 636.286 344.385 635.261 345.624C635.101 345.828 635.115 346.114 635.301 346.305C635.474 346.482 635.767 346.495 635.953 346.332C637.085 345.365 638.03 344.603 638.828 344.126C639.427 345.474 639.653 347.666 639.906 351.682C639.92 351.955 640.132 352.159 640.385 352.159C640.652 352.159 640.865 351.955 640.878 351.682C641.131 347.639 641.357 345.447 641.969 344.099C642.581 344.453 643.313 344.998 644.378 345.869C644.565 346.032 644.857 346.019 645.03 345.842C645.203 345.665 645.217 345.365 645.07 345.175C644.285 344.181 643.673 343.35 643.287 342.615C644.125 342.125 645.35 341.866 647.187 341.594C647.426 341.553 647.599 341.335 647.599 341.09C647.599 340.845 647.426 340.628 647.187 340.6C645.363 340.314 644.139 340.056 643.3 339.579C643.753 338.762 644.498 337.796 645.523 336.557C645.683 336.353 645.669 336.067 645.483 335.876C645.31 335.699 645.017 335.686 644.831 335.849C643.66 336.843 642.741 337.592 641.956 338.054C641.357 336.707 641.131 334.515 640.878 330.499C640.865 330.226 640.652 330.022 640.385 330.022C640.132 330.022 639.92 330.226 639.906 330.499C639.653 334.542 639.414 336.747 638.815 338.082C638.203 337.728 637.471 337.183 636.406 336.312C636.206 336.148 635.927 336.162 635.754 336.339C635.581 336.53 635.554 336.816 635.714 337.02C636.619 338.15 637.164 338.926 637.497 339.566ZM638.802 339.198C639.041 339.307 639.307 339.225 639.427 339.007C639.88 338.259 640.172 337.292 640.385 335.903C640.612 337.278 640.891 338.245 641.33 338.994C641.463 339.212 641.743 339.293 641.969 339.184C642.169 339.075 642.382 338.953 642.608 338.83C642.448 339.075 642.329 339.307 642.222 339.538C642.129 339.756 642.182 340.015 642.382 340.165C642.928 340.573 643.606 340.859 644.471 341.09C643.593 341.322 642.914 341.608 642.355 342.03C642.169 342.166 642.102 342.425 642.209 342.629C642.289 342.847 642.395 343.051 642.528 343.269C642.342 343.16 642.156 343.064 641.969 342.969C641.743 342.86 641.477 342.956 641.344 343.16C640.904 343.922 640.612 344.889 640.385 346.277C640.172 344.902 639.893 343.936 639.44 343.187C639.347 343.037 639.187 342.942 639.028 342.942C638.948 342.942 638.881 342.956 638.815 342.996C638.602 343.092 638.402 343.214 638.176 343.35C638.322 343.105 638.455 342.86 638.562 342.629C638.655 342.411 638.589 342.152 638.402 342.016C637.857 341.608 637.178 341.322 636.313 341.09C637.191 340.845 637.87 340.559 638.416 340.151C638.602 340.001 638.668 339.756 638.575 339.538C638.482 339.334 638.376 339.116 638.256 338.912C638.442 339.021 638.628 339.116 638.802 339.198Z" fill="#EBDCAE"/>
<path d="M926.837 416.336C927.09 416.336 927.303 416.118 927.329 415.86C927.569 411.816 927.809 409.611 928.407 408.276C929.02 408.63 929.752 409.175 930.817 410.046C931.016 410.21 931.296 410.196 931.469 410.006C931.655 409.829 931.668 409.543 931.509 409.338C930.723 408.345 930.111 407.514 929.725 406.779C930.564 406.302 931.788 406.044 933.625 405.758C933.864 405.717 934.037 405.513 934.037 405.268C934.037 405.009 933.864 404.805 933.625 404.764C931.801 404.492 930.59 404.233 929.752 403.757C930.191 402.94 930.936 401.973 931.961 400.721C932.121 400.53 932.108 400.23 931.935 400.054C931.748 399.863 931.455 399.849 931.269 400.026C930.138 400.993 929.193 401.755 928.394 402.218C927.795 400.884 927.569 398.692 927.316 394.662C927.303 394.404 927.09 394.199 926.837 394.199C926.571 394.199 926.358 394.404 926.344 394.662C926.092 398.706 925.865 400.911 925.253 402.245C924.654 401.905 923.909 401.36 922.844 400.476C922.658 400.326 922.378 400.339 922.192 400.516C922.019 400.693 922.005 400.979 922.165 401.183C922.937 402.177 923.549 403.008 923.935 403.743C923.097 404.219 921.886 404.478 920.049 404.764C919.809 404.805 919.623 405.009 919.623 405.268C919.623 405.513 919.809 405.717 920.049 405.758C921.859 406.044 923.084 406.289 923.922 406.765C923.47 407.582 922.724 408.562 921.713 409.801C921.54 409.992 921.553 410.291 921.739 410.482C921.912 410.659 922.205 410.673 922.405 410.509C923.563 409.502 924.481 408.767 925.266 408.304C925.865 409.638 926.092 411.843 926.344 415.86C926.358 416.118 926.571 416.336 926.837 416.336ZM925.466 407.119C925.399 407.119 925.32 407.133 925.253 407.174C925.053 407.269 924.84 407.392 924.627 407.528C924.774 407.283 924.894 407.038 925 406.806C925.107 406.588 925.04 406.33 924.854 406.194C924.295 405.771 923.616 405.499 922.751 405.268C923.629 405.036 924.308 404.737 924.867 404.328C925.053 404.179 925.12 403.934 925.027 403.716C924.934 403.512 924.827 403.294 924.707 403.089C924.894 403.198 925.067 403.294 925.253 403.375C925.479 403.484 925.746 403.403 925.879 403.185C926.331 402.436 926.624 401.469 926.837 400.081C927.05 401.456 927.343 402.422 927.782 403.158C927.915 403.389 928.181 403.471 928.407 403.362C928.62 403.253 928.833 403.13 929.046 402.994C928.9 403.253 928.767 403.484 928.66 403.716C928.567 403.934 928.634 404.192 928.82 404.342C929.366 404.75 930.045 405.036 930.91 405.268C930.031 405.499 929.352 405.785 928.807 406.207C928.62 406.343 928.554 406.602 928.647 406.806C928.74 407.024 928.847 407.228 928.966 407.446C928.78 407.337 928.594 407.242 928.421 407.147C928.194 407.038 927.928 407.133 927.795 407.337C927.343 408.086 927.05 409.066 926.837 410.455C926.624 409.08 926.331 408.113 925.892 407.364C925.799 407.215 925.639 407.119 925.466 407.119Z" fill="#EBDCAE"/>
<path d="M926.837 155.488C929.113 155.488 930.976 153.582 930.976 151.254C930.976 148.912 929.113 147.02 926.837 147.02C924.548 147.02 922.698 148.912 922.698 151.254C922.698 153.582 924.548 155.488 926.837 155.488Z" fill="#EBDCAE"/>
<path d="M499.502 74.456C501.778 74.456 503.628 72.5637 503.628 70.222C503.628 67.8804 501.778 65.988 499.502 65.988C497.213 65.988 495.363 67.8804 495.363 70.222C495.363 72.55 497.213 74.456 499.502 74.456Z" fill="#EBDCAE"/>
<path d="M530.048 319.702C527.758 319.702 525.908 321.595 525.908 323.936C525.908 326.264 527.758 328.17 530.048 328.17C532.323 328.17 534.187 326.264 534.187 323.936C534.187 321.595 532.323 319.702 530.048 319.702Z" fill="#EBDCAE"/>
<path d="M923.655 283.366C923.655 281.038 921.805 279.146 919.516 279.146C917.24 279.146 915.377 281.038 915.377 283.366C915.377 285.708 917.24 287.6 919.516 287.6C921.805 287.6 923.655 285.708 923.655 283.366Z" fill="#EBDCAE"/>
<path d="M833.775 349.409C836.051 349.409 837.915 347.516 837.915 345.175C837.915 342.833 836.051 340.941 833.775 340.941C831.486 340.941 829.636 342.833 829.636 345.175C829.636 347.516 831.486 349.409 833.775 349.409Z" fill="#EBDCAE"/>
<path d="M642.967 401.034C642.967 403.375 644.817 405.268 647.107 405.268C649.396 405.268 651.246 403.375 651.246 401.034C651.246 398.692 649.396 396.8 647.107 396.8C644.817 396.8 642.967 398.692 642.967 401.034Z" fill="#EBDCAE"/>
<path d="M600.722 277.131C602.998 277.131 604.861 275.238 604.861 272.897C604.861 270.569 602.998 268.676 600.722 268.676C598.433 268.676 596.583 270.569 596.583 272.897C596.583 275.238 598.433 277.131 600.722 277.131Z" fill="#EBDCAE"/>
<path d="M856.455 53.0817C856.455 53.6535 856.348 54.1845 856.135 54.7018C855.923 55.2192 855.63 55.6821 855.244 56.0769C854.858 56.4717 854.405 56.7848 853.899 57.0026C853.394 57.2069 852.861 57.3158 852.316 57.3158C851.77 57.3158 851.238 57.2069 850.732 57.0026C850.226 56.7848 849.773 56.4717 849.387 56.0769C849.001 55.6821 848.709 55.2192 848.496 54.7018C848.283 54.1845 848.176 53.6535 848.176 53.0817C848.176 52.5236 848.283 51.9926 848.496 51.4617C848.709 50.9443 849.001 50.495 849.387 50.1002C849.773 49.7054 850.226 49.3923 850.732 49.1745C851.238 48.9703 851.77 48.8613 852.316 48.8613C852.861 48.8613 853.394 48.9703 853.899 49.1745C854.405 49.3923 854.858 49.7054 855.244 50.1002C855.63 50.495 855.923 50.9443 856.135 51.4617C856.348 51.9926 856.455 52.5236 856.455 53.0817Z" fill="#EBDCAE"/>
<path d="M539.71 260.984C539.71 261.57 539.511 262.073 539.098 262.482C538.699 262.89 538.206 263.095 537.634 263.095C537.062 263.095 536.583 262.89 536.17 262.482C535.771 262.073 535.571 261.57 535.571 260.984C535.571 260.399 535.771 259.895 536.17 259.487C536.583 259.078 537.062 258.874 537.634 258.874C538.206 258.874 538.699 259.078 539.098 259.487C539.511 259.895 539.71 260.399 539.71 260.984Z" fill="#EBDCAE"/>
<path d="M577.084 367.693C575.939 367.693 575.021 368.646 575.021 369.816C575.021 370.987 575.939 371.927 577.084 371.927C578.229 371.927 579.16 370.987 579.16 369.816C579.16 368.646 578.229 367.693 577.084 367.693Z" fill="#EBDCAE"/>
<path d="M667.99 481.78C667.99 482.365 667.777 482.869 667.377 483.277C666.978 483.699 666.486 483.903 665.913 483.903C665.341 483.903 664.849 483.699 664.449 483.277C664.05 482.869 663.85 482.365 663.85 481.78C663.85 481.208 664.05 480.704 664.449 480.296C664.849 479.874 665.341 479.669 665.913 479.669C666.486 479.669 666.978 479.874 667.377 480.296C667.777 480.704 667.99 481.208 667.99 481.78Z" fill="#EBDCAE"/>
<path d="M570.243 159.286C570.243 159.872 570.044 160.375 569.644 160.784C569.232 161.206 568.753 161.41 568.18 161.41C567.608 161.41 567.115 161.206 566.716 160.784C566.304 160.375 566.104 159.872 566.104 159.286C566.104 158.701 566.304 158.211 566.716 157.789C567.115 157.38 567.608 157.176 568.18 157.176C568.753 157.176 569.232 157.38 569.644 157.789C570.044 158.211 570.243 158.701 570.243 159.286Z" fill="#EBDCAE"/>
<path d="M765.549 35.3969C765.549 35.9823 765.35 36.4724 764.951 36.8944C764.538 37.3028 764.059 37.5071 763.486 37.5071C762.914 37.5071 762.422 37.3028 762.022 36.8944C761.61 36.4724 761.41 35.9823 761.41 35.3969C761.41 34.8114 761.61 34.3077 762.022 33.8993C762.422 33.4773 762.914 33.273 763.486 33.273C764.059 33.273 764.538 33.4773 764.951 33.8993C765.35 34.3077 765.549 34.8114 765.549 35.3969Z" fill="#EBDCAE"/>
<path d="M768.584 430.849C768.584 431.421 768.384 431.924 767.985 432.333C767.573 432.755 767.093 432.959 766.521 432.959C765.949 432.959 765.456 432.755 765.057 432.333C764.644 431.924 764.445 431.421 764.445 430.849C764.445 430.264 764.644 429.76 765.057 429.351C765.456 428.929 765.949 428.725 766.521 428.725C767.093 428.725 767.573 428.929 767.985 429.351C768.384 429.76 768.584 430.264 768.584 430.849Z" fill="#EBDCAE"/>
<path d="M505.705 360.368C505.705 360.953 505.505 361.457 505.092 361.866C504.693 362.288 504.201 362.492 503.628 362.492C503.069 362.492 502.577 362.288 502.178 361.866C501.765 361.457 501.565 360.953 501.565 360.368C501.565 359.783 501.765 359.293 502.178 358.871C502.577 358.462 503.069 358.258 503.628 358.258C504.201 358.258 504.693 358.462 505.092 358.871C505.505 359.293 505.705 359.783 505.705 360.368Z" fill="#EBDCAE"/>
<path d="M900.417 483.89C900.417 485.061 901.336 486 902.48 486C903.625 486 904.543 485.061 904.543 483.89C904.543 482.719 903.625 481.766 902.48 481.766C901.336 481.779 900.417 482.719 900.417 483.89Z" fill="#EBDCAE"/>
<path d="M567.914 22.7085C569.045 22.7085 569.977 21.7691 569.977 20.5983C569.977 19.4274 569.045 18.4744 567.914 18.4744C566.769 18.4744 565.837 19.4274 565.837 20.5983C565.837 21.7691 566.769 22.7085 567.914 22.7085Z" fill="#EBDCAE"/>
<path d="M889.556 361.852C889.556 363.009 890.488 363.962 891.619 363.962C892.764 363.962 893.696 363.009 893.696 361.852C893.696 360.681 892.764 359.728 891.619 359.728C890.488 359.728 889.556 360.681 889.556 361.852Z" fill="#EBDCAE"/>
<path d="M799.489 122.119C800.621 122.119 801.552 121.18 801.552 120.009C801.552 118.838 800.621 117.885 799.489 117.885C798.345 117.885 797.413 118.838 797.413 120.009C797.413 121.166 798.345 122.119 799.489 122.119Z" fill="#EBDCAE"/>
<path d="M743.509 89.1458C744.64 89.1458 745.572 88.2064 745.572 87.0356C745.572 85.8648 744.64 84.9254 743.509 84.9254C742.364 84.9254 741.433 85.8648 741.433 87.0356C741.433 88.2064 742.364 89.1458 743.509 89.1458Z" fill="#EBDCAE"/>
<path d="M708.704 354.541C708.704 355.127 708.504 355.63 708.092 356.039C707.693 356.447 707.2 356.665 706.628 356.665C706.069 356.665 705.576 356.447 705.177 356.039C704.764 355.63 704.565 355.127 704.565 354.541C704.565 353.956 704.764 353.466 705.177 353.044C705.576 352.635 706.069 352.431 706.628 352.431C707.2 352.431 707.693 352.635 708.092 353.044C708.504 353.466 708.704 353.956 708.704 354.541Z" fill="#EBDCAE"/>
<path d="M651.352 64.4632C652.497 64.4632 653.429 63.5102 653.429 62.353C653.429 61.1822 652.497 60.2292 651.352 60.2292C650.221 60.2292 649.289 61.1822 649.289 62.353C649.289 63.5102 650.221 64.4632 651.352 64.4632Z" fill="#EBDCAE"/>
<path d="M844.609 259.732C845.754 259.732 846.672 258.792 846.672 257.622C846.672 256.451 845.754 255.498 844.609 255.498C843.464 255.498 842.546 256.451 842.546 257.622C842.546 258.792 843.464 259.732 844.609 259.732Z" fill="#EBDCAE"/>
<path d="M846.672 142.323C847.817 142.323 848.749 141.37 848.749 140.199C848.749 139.028 847.817 138.089 846.672 138.089C845.541 138.089 844.609 139.028 844.609 140.199C844.609 141.37 845.541 142.323 846.672 142.323Z" fill="#EBDCAE"/>
<path d="M760.173 188.026C756.699 190.368 751.588 191.511 743.602 192.736C743.203 192.804 742.897 193.158 742.897 193.567C742.897 193.975 743.203 194.329 743.602 194.397C751.548 195.609 756.632 196.739 760.106 199.067C758.376 202.566 755.235 206.677 750.816 212.082C750.536 212.423 750.563 212.899 750.856 213.212C751.162 213.512 751.641 213.539 751.961 213.267C757.085 208.869 760.998 205.738 764.392 203.927C767.214 209.278 768.198 218.059 769.25 235.063C769.277 235.499 769.636 235.839 770.062 235.839C770.488 235.839 770.847 235.499 770.874 235.063C771.939 217.991 772.923 209.169 775.785 203.832C778.42 205.207 781.575 207.467 786.393 211.442C786.712 211.701 787.178 211.674 787.471 211.374C787.777 211.075 787.804 210.598 787.537 210.258C784.104 205.915 781.482 202.307 779.951 199.108C783.425 196.753 788.536 195.623 796.535 194.397C796.934 194.329 797.227 193.975 797.227 193.567C797.227 193.145 796.934 192.804 796.535 192.736C788.589 191.525 783.505 190.381 780.031 188.067C781.748 184.568 784.889 180.456 789.321 175.052C789.587 174.711 789.574 174.221 789.268 173.922C788.975 173.608 788.496 173.595 788.163 173.867C783.052 178.264 779.126 181.396 775.745 183.206C772.91 177.856 771.939 169.061 770.874 152.071C770.847 151.635 770.501 151.281 770.062 151.281C769.636 151.281 769.277 151.635 769.25 152.071C768.198 169.143 767.2 177.965 764.352 183.302C761.703 181.927 758.562 179.653 753.744 175.691C753.411 175.419 752.946 175.446 752.653 175.746C752.36 176.059 752.333 176.535 752.6 176.862C756.02 181.219 758.642 184.813 760.173 188.026ZM764.325 185.14C764.698 185.33 765.151 185.194 765.364 184.827C767.906 180.579 769.13 174.316 770.062 163.534C770.994 174.248 772.205 180.484 774.72 184.745C774.933 185.112 775.386 185.249 775.772 185.058C777.994 183.969 780.403 182.322 783.185 180.143C780.962 183.111 779.299 185.671 778.247 187.985C778.074 188.353 778.194 188.775 778.5 189.02C781.482 191.239 785.488 192.478 791.344 193.567C785.448 194.656 781.415 195.909 778.434 198.155C778.128 198.386 778.021 198.808 778.181 199.176C779.126 201.313 780.537 203.587 782.333 206.119C779.978 204.349 777.835 202.961 775.812 201.98C775.426 201.803 774.973 201.94 774.76 202.307C772.218 206.555 770.994 212.817 770.062 223.586C769.13 212.872 767.919 206.65 765.403 202.389C765.257 202.13 764.991 201.994 764.711 201.994C764.592 201.994 764.472 202.008 764.352 202.076C762.129 203.165 759.72 204.812 756.938 206.99C759.161 204.023 760.825 201.463 761.876 199.135C762.049 198.781 761.943 198.345 761.623 198.114C758.642 195.895 754.636 194.642 748.793 193.567C754.676 192.478 758.709 191.225 761.69 188.979C761.996 188.747 762.103 188.312 761.943 187.958C760.998 185.82 759.587 183.533 757.79 181.015C760.159 182.771 762.289 184.173 764.325 185.14Z" fill="#EBDCAE"/>
<path d="M752.52 299.458C760.2 299.458 768.012 298.424 775.785 296.259C792.995 291.467 808.194 281.637 819.747 267.819C820.04 267.478 820.067 266.975 819.814 266.593C819.561 266.212 819.095 266.063 818.682 266.212C816.38 267.043 814.437 267.669 812.56 268.2C766.468 281.038 718.753 253.143 706.189 205.983C698.642 177.625 705.297 147.347 724.024 124.992C724.303 124.638 724.33 124.134 724.09 123.767C723.837 123.386 723.372 123.236 722.946 123.386C701.89 130.982 684.534 146.326 674.099 166.583C663.598 186.95 661.069 210.408 666.992 232.64C677.719 272.91 713.536 299.458 752.52 299.458ZM720.177 126.599C702.835 149.144 696.885 178.727 704.285 206.514C717.129 254.736 765.936 283.285 813.079 270.147C813.957 269.902 814.863 269.629 815.794 269.33C804.827 281.351 790.892 289.955 775.266 294.312C729.175 307.164 681.459 279.255 668.895 232.109C657.355 188.761 679.782 143.181 720.177 126.599Z" fill="#EBDCAE"/>
</g>
<defs>
<filter id="filter0_i_120_2" x="0" y="2.06755" width="455.045" height="487.932" filterUnits="userSpaceOnUse" color-interpolation-filters="sRGB">
<feFlood flood-opacity="0" result="BackgroundImageFix"/>
<feBlend mode="normal" in="SourceGraphic" in2="BackgroundImageFix" result="shape"/>
<feColorMatrix in="SourceAlpha" type="matrix" values="0 0 0 0 0 0 0 0 0 0 0 0 0 0 0 0 0 0 127 0" result="hardAlpha"/>
<feOffset dy="4"/>
<feGaussianBlur stdDeviation="2"/>
<feComposite in2="hardAlpha" operator="arithmetic" k2="-1" k3="1"/>
<feColorMatrix type="matrix" values="0 0 0 0 0 0 0 0 0 0 0 0 0 0 0 0 0 0 0.25 0"/>
<feBlend mode="normal" in2="shape" result="effect1_innerShadow_120_2"/>
</filter>
<filter id="filter1_i_120_2" x="482" y="0.0679626" width="455.045" height="489.932" filterUnits="userSpaceOnUse" color-interpolation-filters="sRGB">
<feFlood flood-opacity="0" result="BackgroundImageFix"/>
<feBlend mode="normal" in="SourceGraphic" in2="BackgroundImageFix" result="shape"/>
<feColorMatrix in="SourceAlpha" type="matrix" values="0 0 0 0 0 0 0 0 0 0 0 0 0 0 0 0 0 0 127 0" result="hardAlpha"/>
<feOffset dy="4"/>
<feGaussianBlur stdDeviation="2"/>
<feComposite in2="hardAlpha" operator="arithmetic" k2="-1" k3="1"/>
<feColorMatrix type="matrix" values="0 0 0 0 0 0 0 0 0 0 0 0 0 0 0 0 0 0 0.25 0"/>
<feBlend mode="normal" in2="shape" result="effect1_innerShadow_120_2"/>
</filter>
</defs>
</svg>
