<svg width="120" height="101" fill="none" xmlns="http://www.w3.org/2000/svg"><g filter="url(#a)"><mask id="b" style="mask-type:luminance" maskUnits="userSpaceOnUse" x="48" y="31" width="63" height="45"><path d="M110.931 31.528H48.943v44.36h61.988v-44.36z" fill="#fff"/></mask><g mask="url(#b)"><path d="M49.081 43.13c2.398-1.874 4.899-3.671 7.513-5.29 1.5-.927 3.028-1.76 4.752-2.292 1.863-.575 3.77-1.043 5.672-1.504l.876-.209c.152-.037.242-.055.38.034.593.375 1.16.792 1.737 1.187l-.275.192-.466-1.612c-.023-.083.031-.191.13-.208l3.887-.633 6.194-1.007 1.418-.23c.062-.01.14-.005.183.043.74.841 1.48 1.686 2.215 2.53a834.272 834.272 0 0 1 4.997 5.773 389.27 389.27 0 0 1 5.369 6.38c.847 1.037 1.664 2.094 2.519 3.128a63.257 63.257 0 0 0 4.157 4.525c2.809 2.787 5.864 5.371 9.097 7.751.386.282.773.563 1.164.84.11.08.045.26-.082.284-1.622.314-3.229.69-4.834 1.071-1.189.283-2.39.517-3.577.797-1.629.383-3.213.937-4.806 1.423-1.63.5-3.253 1.014-4.861 1.564a93.7 93.7 0 0 0-4.74 1.752c-1.564.63-3.111 1.29-4.575 2.098-.872.482-1.726.97-2.637 1.39-.886.409-1.785.792-2.687 1.172-1.408.59-2.822 1.166-4.245 1.722-.101.041-.188.02-.255-.06-1.37-1.634-2.749-3.265-4.063-4.937-2.692-3.418-5.1-7.008-7.522-10.585a164.083 164.083 0 0 0-4.787-6.69 484.957 484.957 0 0 0-5.014-6.538 666.385 666.385 0 0 0-1.889-2.416c-.307-.392-.656-.776-.932-1.186l-.042-.053c-.142-.178.183-.347.323-.17.776.982 1.549 1.969 2.319 2.955a539.63 539.63 0 0 1 4.906 6.373c1.544 2.04 3.08 4.085 4.514 6.191 2.432 3.571 4.81 7.177 7.433 10.637 1.579 2.08 3.269 4.087 4.952 6.099l.124.148-.255-.06c1.192-.468 2.377-.948 3.558-1.437 1.738-.72 3.498-1.436 5.125-2.35a42.21 42.21 0 0 1 4.391-2.157 89.047 89.047 0 0 1 4.692-1.806c1.577-.559 3.17-1.082 4.772-1.582 1.623-.508 3.248-1.025 4.883-1.5 1.415-.413 2.884-.666 4.321-1.008 1.762-.419 3.525-.839 5.308-1.184l-.083.283a82.907 82.907 0 0 1-9.199-7.56 67.33 67.33 0 0 1-4.201-4.364c-1.022-1.164-1.965-2.38-2.937-3.58a306.523 306.523 0 0 0-5.263-6.294 793.053 793.053 0 0 0-5.194-6.017c-.6-.69-1.201-1.376-1.802-2.064a213.2 213.2 0 0 1-.579-.658c-.095-.107-.233-.223-.301-.344-.011-.016-.03-.031-.042-.047.06.016.121.03.183.044l-3.886.633a48156.085 48156.085 0 0 0-7.614 1.238l.132-.209.464 1.612c.039.13-.136.286-.275.191-.521-.358-1.044-.714-1.566-1.072-.032-.022-.226-.123-.233-.158.01.06.202-.036.066.02-.182.077-.42.1-.613.147-1.812.434-3.622.883-5.407 1.403-.776.226-1.552.461-2.283.792-.838.378-1.637.83-2.418 1.297-1.776 1.063-3.472 2.233-5.136 3.436a96.191 96.191 0 0 0-2.886 2.157c-.181.14-.447-.097-.264-.241z" fill="#CEBD9B"/></g><path d="M48.982 43.392c-3.204-1.517-6.659-2.553-10.18-3.265-3.467-.7-7.004-1.09-10.55-1.269a98.324 98.324 0 0 0-9.519 0c-2.348.11-4.692.293-7.025.56a73.433 73.433 0 0 0-2.781.364c-.095.015-.233.062-.331.052-.012-.002-.03.005-.043.007l.113-.25 2.56 4.509c1.367 2.405 2.734 4.808 4.1 7.215l.938 1.65c-.055-.029-.107-.057-.162-.084l2.242.07c.16.005.248.184.132.29-.496.456-.99.913-1.484 1.37.009-.07.02-.138.03-.206 1.728 3.274 3.294 6.613 4.97 9.91 2.13 4.185 4.432 8.313 7.256 12.152a48.217 48.217 0 0 0 3.925 4.697c-.06-.014-.121-.028-.183-.044 2.105-.575 4.118-1.364 6.21-1.973a76.8 76.8 0 0 1 1.071-.306c-.045.055-.091.108-.138.163l-.084-2.068c-.006-.13.163-.211.281-.147.55.296 1.1.594 1.652.89.296.16.596.322.892.484a.91.91 0 0 1 .15.08c.016-.09-.237.021-.066-.028.464-.134 1.004-.161 1.484-.239.923-.147 1.845-.296 2.769-.445 2.294-.37 4.587-.739 6.88-1.11 2.838-.462 5.677-.947 8.548-1.206a42.22 42.22 0 0 1 10.602.366c.237.038.136.365-.1.327a41.31 41.31 0 0 0-9.621-.425c-2.985.217-5.933.713-8.877 1.192-3.828.62-7.656 1.237-11.483 1.851-.121.019-.218.045-.335.003-.266-.096-.525-.282-.77-.414l-1.914-1.032.282-.147c.028.69.056 1.379.086 2.068.001.076-.06.143-.139.164-.898.25-1.79.513-2.68.79-1.063.33-2.085.756-3.153 1.075-.48.144-.962.282-1.446.416-.06.015-.141 0-.183-.044-2.872-3.02-5.264-6.376-7.372-9.873-2.463-4.082-4.535-8.345-6.615-12.597a158.158 158.158 0 0 0-2.223-4.36c-.037-.068-.032-.149.03-.205L18.212 53l.132.291-2.242-.072c-.063-.001-.132-.03-.161-.084l-2.561-4.507-4.1-7.215-.937-1.651c-.051-.09-.014-.227.112-.248a52.495 52.495 0 0 1 2.576-.357c2.223-.27 4.458-.461 6.696-.586 3.125-.175 6.259-.219 9.386-.102 3.543.133 7.081.468 10.56 1.097 3.543.638 7.037 1.587 10.308 2.994.4.173.796.353 1.189.54.212.1.025.393-.188.292z" fill="#CEBD9B"/><path d="M76.37 76.503a10.888 10.888 0 0 0-1.74-.564c-.352-.078-.705-.145-1.07-.098-.596.076-1.084.417-1.463.824-.44.477-.753 1.052-1.003 1.626-.257.59-.46 1.198-.63 1.812-.076.269-.146.54-.211.812-.067.266-.19.578-.09.848.157.432.802.423 1.207.419.601-.006 1.202-.031 1.802-.078 1.191-.09 2.375-.266 3.529-.548a17.614 17.614 0 0 0 1.684-.496c.464-.162.939-.333 1.358-.581.358-.212.678-.5.778-.89.105-.41-.274-.748-.584-.998-.832-.668-1.796-1.24-2.77-1.724-.26-.128-.527-.25-.797-.364-.219-.091-.028-.385.188-.293 1.165.49 2.241 1.134 3.252 1.85.367.262.768.545.98.933.221.403.11.852-.172 1.208-.28.353-.69.6-1.114.791-.536.241-1.1.434-1.664.608-1.21.369-2.462.61-3.727.755-.635.072-1.273.121-1.912.145-.325.015-.647.025-.97.023-.294 0-.592-.022-.863-.128-.433-.168-.65-.536-.607-.955.028-.289.12-.578.19-.86.33-1.297.733-2.665 1.568-3.78.382-.507.874-.963 1.518-1.186.86-.296 1.815-.01 2.634.262.302.1.595.213.887.334.219.09.03.384-.188.293z" fill="#CEBD9B"/><path d="M105.962 63.62a51.08 51.08 0 0 1 3.28 5.78c.275.566.538 1.137.795 1.711.059.132-.108.23-.23.21a52.4 52.4 0 0 0-6.611-.65 51.407 51.407 0 0 0-6.558.195 49.879 49.879 0 0 0-12.633 2.878 48.322 48.322 0 0 0-6.657 3.072c-.205.113-.394-.18-.188-.293a48.5 48.5 0 0 1 5.943-2.8 49.525 49.525 0 0 1 6.235-1.972c2.13-.522 4.298-.9 6.487-1.142 2.19-.241 4.399-.34 6.603-.297 2.229.043 4.453.23 6.652.554.277.04.551.083.826.127-.077.07-.153.14-.23.208a51.867 51.867 0 0 0-3.028-5.812 53.91 53.91 0 0 0-1.009-1.596c-.124-.19.199-.36.323-.172zM71.11 77.915c-5.726-.662-11.444.445-16.938 1.844a381.887 381.887 0 0 0-16.53 4.588 166.69 166.69 0 0 0-9.12 3.029c-.099.035-.198-.041-.229-.119-.782-1.98-1.827-3.829-3.044-5.615-.811-1.193-1.595-2.4-2.371-3.613a494.771 494.771 0 0 1-4.78-7.655c-.352-.574-.703-1.146-1.052-1.722a.163.163 0 0 1 .03-.205l1.327-1.265c.043.097.088.193.132.29l-2.037.019c-.06.001-.135-.031-.161-.085a313.229 313.229 0 0 1-2.259-4.67c-1.476-3.105-2.918-6.226-4.26-9.38-.693-1.624-1.366-3.26-1.945-4.921a.154.154 0 0 1 .048-.165c1.262-.933 2.878-1.562 4.45-1.915.234-.053.334.274.1.328-1.508.338-3.076.931-4.286 1.827l.048-.165c1.083 3.105 2.443 6.135 3.809 9.146a340.594 340.594 0 0 0 4.618 9.745l-.162-.085 2.037-.018c.166-.002.242.184.131.289l-1.325 1.264.028-.206a570.004 570.004 0 0 0 2.944 4.788c1.64 2.64 3.282 5.281 5.03 7.862 1.306 1.932 2.466 3.897 3.31 6.037l-.23-.118c5.365-1.969 10.869-3.595 16.4-5.126a584.103 584.103 0 0 1 8.31-2.25c2.775-.724 5.576-1.388 8.428-1.816 3.155-.474 6.368-.649 9.549-.282.234.027.237.366 0 .34zM89.436 41.38c.981-.158 1.973-.265 2.962-.379.12-.013.2.007.276.102.048.057.092.12.133.183.16.237.31.48.455.722 1.213 1.994 2.324 4.044 3.395 6.104a83.91 83.91 0 0 1 2.036 4.16c.092.202-.27.29-.36.09-.861-1.907-1.824-3.778-2.819-5.629a103.232 103.232 0 0 0-2.519-4.462c-.138-.23-.28-.46-.427-.686a6.373 6.373 0 0 0-.142-.213c-.017-.024-.038-.05-.055-.075-.035-.05.022.021-.015-.017l.133.05c-.985.114-1.976.22-2.954.377-.235.038-.336-.289-.099-.327z" fill="#CEBD9B"/><path d="M94.304 43.782a62.96 62.96 0 0 1 2.514-.621c.076-.017.174.011.211.077a216.61 216.61 0 0 1 1.681 3.16 213.3 213.3 0 0 1 3.465 6.9 100.184 100.184 0 0 1 1.862 4.104c.087.205-.274.292-.36.09-1.051-2.48-2.233-4.914-3.447-7.33a253.458 253.458 0 0 0-2.945-5.678l-.578-1.074.21.078c-.84.194-1.682.393-2.514.623-.231.062-.329-.265-.1-.329zM107.219 63.498a64.443 64.443 0 0 1 4.191 7.342c.342.708.669 1.421.978 2.14.044.102-.068.219-.18.215-2.195-.085-4.377.187-6.564.276-2.251.091-4.506.083-6.757.096-2.213.012-4.44-.013-6.641.23-2.136.234-4.191.81-6.183 1.535-1.979.72-3.911 1.556-5.827 2.405-.246.108-.49.218-.735.328-.215.099-.404-.194-.19-.291A107.804 107.804 0 0 1 85.17 75.3c1.978-.757 4.019-1.413 6.145-1.726 2.178-.321 4.39-.326 6.59-.341 2.279-.017 4.561-.015 6.84-.075 2.218-.056 4.426-.325 6.646-.321.273.001.545.007.818.018-.061.07-.119.143-.18.214-1.099-2.546-2.409-5.014-3.868-7.406a68.476 68.476 0 0 0-1.262-1.995c-.124-.188.199-.36.321-.17z" fill="#CEBD9B"/><mask id="c" style="mask-type:luminance" maskUnits="userSpaceOnUse" x="80" y="62" width="36" height="18"><path d="M116 62.896H80.334v16.24H116v-16.24z" fill="#fff"/></mask><g mask="url(#c)"><path d="M107.246 63.28c1.144 1.44 2.185 2.948 3.239 4.441 1.209 1.715 2.411 3.435 3.673 5.116a33.666 33.666 0 0 0 1.732 2.17c.102.116.037.278-.134.29-2.457.163-4.923.146-7.383.07-2.416-.072-4.828-.196-7.243-.222-2.438-.025-4.867.07-7.287.336-2.142.235-4.273.568-6.358 1.074a40.59 40.59 0 0 0-6.075 2.005c-.262.11-.522.221-.78.334-.217.094-.406-.198-.19-.293a42.746 42.746 0 0 1 6.117-2.163c2.064-.548 4.178-.92 6.308-1.183a59.785 59.785 0 0 1 7.261-.454c2.429-.004 4.855.112 7.281.195 2.471.086 4.947.136 7.418.015.31-.015.621-.033.931-.055-.043.098-.088.195-.132.29-1.215-1.372-2.27-2.867-3.327-4.341-1.231-1.719-2.434-3.453-3.668-5.169a58.254 58.254 0 0 0-1.706-2.283c-.14-.178.185-.349.323-.172z" fill="#CEBD9B"/></g><path d="M114.075 75.185c.413 1.088.885 2.159 1.299 3.248.039.103-.065.217-.18.214-2.711-.055-5.423-.11-8.135-.149a556.75 556.75 0 0 0-4.066-.045c-.685-.004-1.369-.008-2.054-.008-.236-.002-.472 0-.708-.002a.316.316 0 0 1-.232-.079c-.4-.344-.784-.706-1.177-1.057.1-.013.197-.024.293-.035l-.72 1.175a.189.189 0 0 1-.161.084c-1.68-.016-3.364-.016-5.04.064-1.498.07-2.988.29-4.46.546-1.7.296-3.385.664-5.069 1.035-1.513.332-3.033.643-4.546.975-.234.052-.334-.275-.1-.327 1.314-.289 2.633-.557 3.946-.844 1.703-.371 3.403-.755 5.12-1.069 1.56-.285 3.145-.537 4.736-.636 1.07-.067 2.145-.077 3.216-.084.732-.005 1.464-.006 2.197.001-.054.027-.107.057-.162.083l.722-1.174c.06-.097.21-.11.294-.035l1.209 1.087a3.29 3.29 0 0 1-.132-.05c3.871.002 7.74.06 11.61.136l3.419.069-.18.215c-.414-1.09-.886-2.16-1.299-3.248-.079-.207.283-.296.36-.09zM70.442 79.655c-5.842.292-11.635 1.158-17.32 2.4-5.784 1.263-11.459 2.91-17.032 4.786a239.441 239.441 0 0 0-9.464 3.42c-.087.034-.206.03-.256-.06a1869.04 1869.04 0 0 1-7.97-15.06 1499.444 1499.444 0 0 1-8.713-16.917C8.44 55.761 7.25 53.28 5.824 50.897c-.062-.107 0-.208.113-.25.854-.32 1.706-.653 2.52-1.047.213-.101.403.192.19.294-.844.407-1.727.75-2.61 1.08.035-.082.074-.165.111-.249 1.216 2.036 2.25 4.14 3.316 6.246a1383.53 1383.53 0 0 0 4.513 8.853c2.75 5.344 5.534 10.675 8.346 15.991 1.45 2.742 2.908 5.478 4.371 8.213l-.256-.06c5.548-2.132 11.174-4.1 16.913-5.769 5.688-1.652 11.492-3.015 17.389-3.9 3.213-.483 6.45-.821 9.702-.983.24-.012.24.327 0 .34z" fill="#CEBD9B"/><mask id="d" style="mask-type:luminance" maskUnits="userSpaceOnUse" x="4" y="52" width="68" height="42"><path d="M71.195 52.43H4v40.782h67.195V52.43z" fill="#fff"/></mask><g mask="url(#d)"><path d="M70.937 82.523a137.414 137.414 0 0 0-18.278 2.215 138.073 138.073 0 0 0-17.567 4.548 135.115 135.115 0 0 0-9.646 3.607c-.09.038-.205.027-.256-.059-3.013-5.088-6.025-10.176-8.943-15.307-2.91-5.112-5.726-10.268-8.354-15.504a241.468 241.468 0 0 1-2.164-4.422c-.588-1.238-1.13-2.498-1.754-3.722-.042-.081-.028-.186.067-.232.919-.457 1.901-.764 2.862-1.137.219-.084.41.208.19.294-.963.373-1.944.68-2.863 1.136l.065-.233c.536 1.05 1 2.126 1.503 3.188a240.666 240.666 0 0 0 1.912 3.948c1.312 2.64 2.671 5.26 4.067 7.863 2.775 5.175 5.698 10.283 8.67 15.366 1.678 2.87 3.372 5.728 5.065 8.59-.085-.021-.17-.04-.256-.062a136.35 136.35 0 0 1 17.24-5.887 138.372 138.372 0 0 1 28.44-4.53c.24-.012.24.327 0 .34z" fill="#CEBD9B"/></g><mask id="e" style="mask-type:luminance" maskUnits="userSpaceOnUse" x="55" y="74" width="23" height="23"><path d="M77.95 74.806H55.698V97H77.95V74.806z" fill="#fff"/></mask><g mask="url(#e)"><path d="M55.894 76.299c1.36 1.343 1.633 2.484 1.633 2.484s.217 1.397.203 2.272c-.043 2.723.435 5.427.911 8.114.064.353.109.946.109.946s1.13 3.083 13.496 6.844c-.821-1.002-1.442-1.778-2.237-2.702-.341-.397-.467-.577-1.029-1.26l8.725 1.255c-2.372-1.555-4.993-2.763-7.589-3.988a300.633 300.633 0 0 1-3.51-1.706s-.06-2.62.004-3.606c.106-1.652.084-3.293.19-4.944.072-1.122-.081-2.478-.081-2.478s-1.36-1.727-2.104-2.403L55.894 76.3z" fill="#CEBD9B"/></g><path d="M25.763 55.981c.35 1.045 1.05 1.97 2 2.64a6.162 6.162 0 0 0 3.212 1.09 6.301 6.301 0 0 0 3.47-.831 5.464 5.464 0 0 0 2.205-2.393c.458-.988.57-2.105.315-3.152a5.214 5.214 0 0 0-1.79-2.79c-.869-.709-1.968-1.164-3.124-1.304a6.301 6.301 0 0 0-3.49.587c-1.038.507-1.887 1.3-2.42 2.254a4.872 4.872 0 0 0-.57 3.114c.041.265.107.527.192.785.048.145-.2.215-.248.068a5.03 5.03 0 0 1 .055-3.343 5.628 5.628 0 0 1 2.104-2.644c1.013-.694 2.274-1.082 3.542-1.1a6.538 6.538 0 0 1 3.442.922c1.036.626 1.838 1.534 2.29 2.587a5.038 5.038 0 0 1 .22 3.354 5.48 5.48 0 0 1-1.87 2.766c-.96.762-2.173 1.235-3.443 1.343a6.578 6.578 0 0 1-3.523-.69c-1.071-.547-1.951-1.395-2.48-2.406a5.348 5.348 0 0 1-.337-.79c-.05-.144.198-.213.248-.067z" fill="#CEBD9B"/><path d="M26.589 55.754a4.53 4.53 0 0 0 1.7 2.245c.777.548 1.744.88 2.726.93a5.368 5.368 0 0 0 2.953-.703 4.63 4.63 0 0 0 1.886-2.043c.39-.839.484-1.79.267-2.677a4.435 4.435 0 0 0-1.518-2.374 5.21 5.21 0 0 0-2.653-1.111 5.365 5.365 0 0 0-2.982.499 4.716 4.716 0 0 0-2.056 1.917 4.123 4.123 0 0 0-.323 3.317c.05.147-.2.215-.249.07a4.314 4.314 0 0 1 .049-2.864 4.802 4.802 0 0 1 1.806-2.272 5.557 5.557 0 0 1 3.02-.94 5.603 5.603 0 0 1 2.967.789c.886.54 1.574 1.314 1.96 2.216.39.91.458 1.926.191 2.872a4.687 4.687 0 0 1-1.61 2.38 5.518 5.518 0 0 1-2.94 1.147 5.631 5.631 0 0 1-3.026-.59c-.917-.469-1.672-1.195-2.125-2.059a4.66 4.66 0 0 1-.292-.68c-.048-.146.2-.214.249-.069z" fill="#CEBD9B"/><path d="m30.179 50.678.48.61 1.153 1.465a5396.266 5396.266 0 0 0 2.6 3.307l.4.509c.062.079.13.156.188.24.002.003.006.005.008.01.082.104-.066.208-.174.164l-1.082-.43c-.576-.228-1.153-.458-1.732-.686-.13-.054-.263-.106-.396-.158l.177-.047-.638.903-1.023 1.443-.233.33c-.063.092-.248.074-.245-.052l.028-.75c.022-.6.043-1.2.067-1.799l.079-2.178.068-1.885c.011-.304.017-.612.034-.919v-.013c.005-.15.266-.159.261-.007l-.028.749-.065 1.8-.08 2.177-.07 1.885-.022.624c-.003.098.001.2-.01.295l-.001.013-.244-.054.638-.9c.341-.483.681-.965 1.023-1.446l.234-.33c.04-.056.107-.073.176-.046l1.083.43 1.73.688c.133.052.265.104.398.158l-.175.165c-.16-.203-.318-.408-.48-.61-.383-.49-.768-.978-1.152-1.467-.464-.59-.93-1.181-1.393-1.772a603.04 603.04 0 0 0-1.208-1.534c-.134-.17-.265-.34-.399-.509-.062-.079-.13-.158-.19-.24l-.005-.01c-.098-.125.124-.246.22-.123z" fill="#CEBD9B"/><path d="m31.658 55.722-1.586-.4-2.507-.63-.573-.145c-.122-.03-.135-.193-.008-.228.261-.07.522-.144.784-.214l1.864-.513 2.271-.623 1.95-.535c.316-.087.633-.184.953-.262.005 0 .01-.003.014-.003.129-.035.214.107.13.195l-1.077 1.129c-.566.596-1.135 1.191-1.703 1.786l-.388.409c-.11.116-.298-.05-.188-.163a986.959 986.959 0 0 1 2.78-2.916l.389-.409.131.195-.782.215-1.866.512-2.27.623-1.95.536c-.216.06-.431.117-.647.176-.101.029-.204.065-.306.085l-.012.004c-.003-.076-.007-.152-.008-.228.53.132 1.057.266 1.586.399l2.505.63.575.144c.16.04.1.27-.06.23zM81.747 58.582c1.962-.97 4.425-.31 5.493 1.472 1.068 1.782.341 4.02-1.62 4.99-1.963.97-4.428.31-5.495-1.473-1.068-1.78-.342-4.02 1.622-4.99zm4.043 6.75c2.136-1.056 2.929-3.495 1.766-5.433-1.162-1.94-3.846-2.66-5.982-1.605-2.135 1.056-2.927 3.495-1.764 5.435 1.162 1.938 3.846 2.659 5.98 1.603z" fill="#CEBD9B"/><path d="M89.838 58.482c-.82-1.367-2.42-2.1-4.023-1.995.227-.179.476-.338.75-.474 2.052-1.015 4.62-.325 5.738 1.538 1.118 1.864.359 4.197-1.694 5.212-.546.27-1.13.42-1.713.457 1.47-1.157 1.91-3.122.942-4.738zM77.26 64.7c-.819-1.367-.628-2.986.34-4.153a4.52 4.52 0 0 0-.845.316c-2.052 1.015-2.81 3.348-1.692 5.212 1.116 1.864 3.685 2.553 5.737 1.538a4.12 4.12 0 0 0 1.353-1.059c-1.865.492-3.924-.24-4.892-1.854zM80.727 35.55c-.056-.354-.609-.285-.857-.15-.206.111-.358.31-.509.476-.17.185-.341.368-.568.5-.44.258-.972.203-1.462.135-.464-.067-1.018-.174-1.39.16-.192.172-.318.394-.498.573a1.617 1.617 0 0 1-.64.383c-.491.167-1.04.13-1.554.105-.274-.014-.547-.031-.82-.019-.141.007-.296.023-.419.096-.12.07-.19.188-.245.303-.215.434-.377.893-.784 1.217-.397.316-.89.367-1.382.223-.448-.131-.96-.46-1.45-.339-.403.1-.595.49-.764.801-.188.348-.38.713-.74.943-.81.519-1.817.013-2.702.099-.198.018-.399.08-.554.199-.19.146-.307.353-.42.55-.24.414-.508.797-1.036.923-.529.128-1.08.001-1.617.023a1.489 1.489 0 0 0-1.084.503c-.488.519-.763 1.31-1.472 1.63a1.39 1.39 0 0 1-.54.122c-.241.009-.241-.331 0-.338.366-.011.636-.227.852-.48.25-.289.44-.617.676-.916.235-.3.514-.585.893-.733.515-.202 1.077-.11 1.617-.096.255.007.523.002.754-.101.232-.1.378-.284.502-.483.24-.387.433-.821.906-1.022.436-.183.922-.134 1.383-.074.441.056.922.156 1.36.035.431-.12.646-.488.833-.833.187-.343.365-.712.722-.94.429-.271.94-.175 1.391-.01.447.162.972.424 1.442.18.46-.24.653-.736.844-1.155.106-.235.25-.456.516-.566.26-.11.561-.109.844-.102.54.01 1.102.095 1.64.004.235-.038.466-.114.653-.255.217-.165.353-.399.534-.596.347-.378.844-.458 1.36-.406.477.05 1.025.211 1.492.045.503-.178.731-.702 1.143-.991.321-.226.822-.303 1.187-.124a.56.56 0 0 1 .323.412c.014.093-.025.181-.13.21-.087.022-.216-.029-.23-.12zM70.559 49.434c1.043 2.397 4.028 3.573 6.666 2.625 2.639-.947 3.932-3.658 2.889-6.055-1.043-2.396-4.026-3.572-6.667-2.623-2.638.947-3.931 3.657-2.888 6.053z" fill="#CEBD9B"/><path d="M75.338 43.212c.669 0 1.338.124 1.971.373 1.215.48 2.153 1.36 2.64 2.478a4.102 4.102 0 0 1-.06 3.449c-.528 1.105-1.497 1.955-2.729 2.398a5.384 5.384 0 0 1-3.797-.057c-1.216-.479-2.154-1.359-2.641-2.478-1.005-2.31.246-4.933 2.79-5.846a5.417 5.417 0 0 1 1.826-.318zm-.003 9.338c.66 0 1.32-.114 1.954-.341 1.32-.475 2.358-1.388 2.923-2.57a4.39 4.39 0 0 0 .066-3.694c-.521-1.198-1.526-2.141-2.83-2.653a5.771 5.771 0 0 0-4.066-.06c-2.724.976-4.065 3.786-2.99 6.261.524 1.2 1.528 2.142 2.83 2.655a5.782 5.782 0 0 0 2.113.402z" fill="#CEBD9B"/><path d="M77.8 46.961c-.916-2.103-3.325-3.265-5.684-2.878a5.234 5.234 0 0 1 1.331-.703c2.64-.948 5.624.227 6.667 2.624 1.043 2.397-.25 5.108-2.889 6.055-.324.116-.652.2-.982.254 1.709-1.248 2.404-3.403 1.557-5.352z" fill="#B39168"/><path d="M75.338 43.212c.669 0 1.338.124 1.971.373 1.215.48 2.153 1.36 2.64 2.478a4.102 4.102 0 0 1-.06 3.449c-.528 1.105-1.497 1.955-2.729 2.398a4.667 4.667 0 0 1-.284.093c1.419-1.35 1.861-3.324 1.088-5.1-.84-1.93-2.95-3.143-5.178-3.049.231-.125.475-.234.726-.325a5.417 5.417 0 0 1 1.826-.318zm.905 9.262.03-.003a5.76 5.76 0 0 0 1.016-.262c1.32-.475 2.358-1.388 2.923-2.57a4.39 4.39 0 0 0 .066-3.694c-.521-1.198-1.526-2.141-2.83-2.653a5.771 5.771 0 0 0-4.066-.06 5.493 5.493 0 0 0-1.378.727.148.148 0 0 0-.05.19.182.182 0 0 0 .193.093c2.312-.38 4.623.788 5.49 2.779.802 1.846.198 3.923-1.505 5.167a.154.154 0 0 0-.05.191.18.18 0 0 0 .16.095zM82.009 38.01c-.771-.156-1.833-.349-2.474.204-.337.29-.49.703-.953.867-.463.165-.966.035-1.444.082-.489.049-.957.256-1.305.572-.345.312-.607.664-1.07.845-.814.318-1.749.118-2.562.427-.427.16-.69.5-.992.8-.317.319-.681.542-1.158.601-.484.062-.98-.021-1.462.053-.39.061-.69.253-.955.508-.48.462-.846 1.091-1.525 1.34-.454.169-.894.035-1.359-.006-.46-.04-.776.153-1.038.482-.25.313-.444.667-.745.944a2.507 2.507 0 0 1-1.198.602 2.582 2.582 0 0 1-.691.048c-.275-.018-.542-.098-.817-.097-.27.003-.471.138-.667.292-.22.172-.44.347-.658.52l-.664.527c-.182.143-.447-.097-.266-.24.449-.355.893-.711 1.343-1.062.18-.143.376-.28.608-.339.278-.072.567-.02.845.024.484.078.965.034 1.404-.179.412-.2.676-.507.922-.857.22-.309.443-.64.794-.842.447-.259.93-.14 1.417-.081.399.049.735-.043 1.035-.282.273-.222.492-.494.723-.75.229-.253.475-.5.786-.673.413-.23.89-.25 1.363-.245.471.006.973.028 1.372-.244.361-.245.594-.617.94-.88.73-.55 1.683-.425 2.555-.57.214-.036.428-.09.621-.184.213-.104.377-.26.537-.423.341-.352.692-.644 1.181-.82.486-.176.963-.151 1.475-.147.234.003.482-.011.681-.14.188-.12.304-.312.438-.476a1.834 1.834 0 0 1 1.06-.634c.442-.092.899-.067 1.344-.007.22.03.44.069.658.114.235.048.135.375-.099.327zM85.958 39.83c-.152-.147-.4-.151-.593-.061-.22.103-.36.316-.457.516-.09.192-.145.402-.28.574a.789.789 0 0 1-.594.296c-.442.035-.92-.026-1.313.212-.21.129-.265.328-.383.518a.895.895 0 0 1-.55.383c-.26.07-.538.064-.799.137-.28.078-.521.245-.686.462-.135.18-.46.01-.323-.17a1.69 1.69 0 0 1 .62-.512c.242-.113.495-.152.762-.186.25-.032.518-.066.655-.285.129-.21.2-.414.414-.572.39-.284.924-.32 1.405-.323.13 0 .28.01.393-.065.094-.062.15-.169.194-.263.104-.218.173-.442.32-.64.162-.216.392-.404.68-.46.288-.055.594 0 .8.199.166.16-.1.4-.265.24zM69.013 48.58c-.353-.128-.767-.282-1.154-.206-.37.072-.538.376-.72.646-.184.276-.399.507-.739.627-.32.113-.678.11-1.016.123-.317.01-.677.028-.92.235-.226.19-.322.475-.46.718-.152.27-.374.509-.71.592-.384.097-.78-.026-1.16-.085-.421-.065-.783.021-1.1.282-.302.248-.521.565-.726.881-.123.19-.445.017-.323-.17.357-.552.826-1.207 1.573-1.334.419-.07.81.06 1.221.109.185.022.379.025.546-.058a.796.796 0 0 0 .319-.325c.166-.269.268-.568.5-.799.232-.234.561-.327.895-.364.354-.038.717-.007 1.067-.078.375-.078.566-.306.755-.593.218-.33.461-.647.9-.736.459-.093.929.053 1.351.208.22.079.126.409-.1.327zM89.17 43.27c-.335.084-.67.167-1.004.252-.26.066-.485.148-.636.359-.24.338-.315.774-.658 1.05-.464.373-1.037.162-1.585.188-.537.024-.836.472-1.142.815a2.35 2.35 0 0 1-1.618.803c-.239.019-.239-.323 0-.34.593-.042 1.036-.342 1.394-.75.303-.345.615-.742 1.121-.84.282-.055.565-.014.849.009.253.02.53.028.73-.136.322-.265.38-.713.628-1.026.175-.221.412-.347.694-.427.373-.106.751-.19 1.127-.285.233-.058.332.27.1.327zM69.992 52.099c-.306.038-.632.077-.902.218-.276.144-.368.383-.486.636-.125.265-.318.483-.636.565-.296.076-.61.027-.911.023-.312-.005-.556.065-.767.279-.19.193-.32.433-.492.64-.41.492-1.017.667-1.66.78-.637.11-1.441.201-1.789.772-.116.192-.44.021-.323-.172.314-.513.949-.733 1.55-.849.627-.12 1.364-.159 1.822-.62.39-.392.579-.974 1.2-1.128.325-.08.662-.02.994-.022.14-.003.286-.013.409-.08.136-.078.21-.208.271-.34.143-.303.27-.574.592-.756.307-.174.675-.23 1.029-.275.1-.011.198.023.23.118.024.08-.032.198-.13.21zM91.333 47.82a2.851 2.851 0 0 0-1.565.289 2.492 2.492 0 0 0-.631.46c-.18.18-.326.386-.508.565a1.476 1.476 0 0 1-.677.393c-.278.07-.57.062-.856.076-.497.026-.921.213-1.304.495-.767.561-1.379 1.287-2.367 1.534-.531.134-1.085.154-1.622.258-.505.097-.935.286-1.27.646-.58.621-.896 1.535-1.846 1.779-.541.138-1.103.024-1.654.072-.258.022-.508.097-.702.26-.181.148-.31.339-.442.523-.278.385-.59.715-1.1.832-.511.119-1.042.037-1.56.107-.249.036-.488.113-.676.271-.184.155-.318.35-.467.532-.314.389-.686.645-1.214.738-.493.088-1.006.055-1.498.154a1.455 1.455 0 0 0-.645.276c-.199.164-.337.375-.497.568-.295.356-.647.563-1.116.686-.385.101-.813.136-1.172.31-.152.075-.287.18-.355.328-.04.085-.123.145-.23.119-.089-.022-.17-.124-.132-.209.365-.794 1.42-.675 2.148-.992.478-.21.668-.662 1.022-.99.369-.344.875-.447 1.384-.49.48-.039 1.014-.015 1.453-.222.473-.224.664-.71 1.037-1.034.394-.34.917-.403 1.437-.413.498-.01 1.08.032 1.475-.3.367-.307.535-.763.915-1.06.429-.338.981-.354 1.52-.34.52.013 1.052.026 1.47-.303.35-.275.573-.655.824-1.002.264-.364.565-.71.993-.92.482-.236 1.028-.298 1.562-.364.535-.07 1.07-.151 1.535-.413.42-.236.765-.56 1.125-.863.347-.29.713-.578 1.15-.748a2.48 2.48 0 0 1 .74-.16c.302-.021.62.005.91-.089.256-.083.44-.276.604-.464.172-.199.335-.402.545-.57a3.093 3.093 0 0 1 1.445-.637c.269-.043.54-.053.812-.028.236.024.239.364 0 .34zM93.42 50.799c-.43-.145-.942-.014-1.227.317-.157.185-.177.422-.31.616a.86.86 0 0 1-.516.344c-.45.111-.919-.021-1.374.025-.46.048-.745.37-1 .687-.27.337-.54.698-.963.89-.477.217-1.017.208-1.534.19-.521-.019-1.09-.06-1.561.184-.427.222-.708.618-1.025.947-.333.343-.72.603-1.215.714-.495.113-1.01.105-1.515.161-.484.055-.928.197-1.234.561-.301.355-.493.788-.919 1.046-.434.265-.978.238-1.476.202-.472-.033-1.024-.098-1.422.191-.361.261-.521.697-.735 1.055a2.036 2.036 0 0 1-1.02.89c-.452.18-.94.25-1.41.383a2.5 2.5 0 0 0-.637.266c-.212.13-.373.315-.522.5-.323.397-.636.775-1.181.923-.53.142-1.105.062-1.622.252-.216.08-.394.203-.497.395-.105.197-.427.025-.323-.17.222-.418.734-.601 1.211-.666.57-.076 1.2-.023 1.647-.412.372-.325.591-.768 1.009-1.056.405-.28.908-.389 1.392-.502.463-.105.958-.218 1.3-.54.333-.314.48-.75.724-1.116.258-.386.627-.665 1.13-.734.525-.072 1.046.043 1.572.023.244-.008.488-.056.69-.188.201-.13.34-.325.47-.51.275-.391.546-.76 1.034-.95.914-.358 2.072-.033 2.893-.61.397-.28.663-.682 1.013-1.004.38-.346.83-.531 1.366-.575.548-.045 1.1.044 1.646-.005.515-.049.878-.287 1.184-.652.28-.328.522-.706.917-.932.42-.235.905-.183 1.372-.163.202.008.432.02.62-.062.236-.103.267-.349.36-.547.188-.396.62-.681 1.085-.749.236-.035.476-.022.703.054.223.074.127.403-.1.327zM97.037 53.269c-.14-.076-.341-.06-.445.065-.12.143-.095.373-.132.54-.086.382-.424.547-.826.541-.359-.006-.758-.118-.99.197-.114.155-.208.32-.382.429-.186.114-.416.125-.635.137-.256.014-.464.063-.655.23-.175.155-.304.35-.427.54-.12.19-.444.02-.321-.17.23-.36.503-.74.956-.88.23-.07.472-.038.705-.081.248-.048.327-.237.46-.409.272-.351.654-.37 1.089-.343.166.01.388.044.532-.052.17-.11.15-.368.18-.537a.672.672 0 0 1 .388-.523.786.786 0 0 1 .692.023c.205.112.018.406-.189.293zM72.795 64.354c-.36-.09-.735.124-.813.453-.076.325-.051.738-.487.852-.204.054-.43-.012-.627.062-.163.064-.288.196-.402.313-.123.127-.244.254-.393.357a1.359 1.359 0 0 1-.62.214c-.397.05-1.036-.042-1.25.358-.106.196-.429.024-.325-.17.197-.367.666-.471 1.076-.494.248-.014.52-.002.75-.1.189-.077.324-.225.457-.363.127-.132.26-.264.424-.36.19-.111.393-.128.613-.128.1 0 .22.004.29-.073.058-.065.072-.165.084-.244.031-.182.039-.361.132-.529.216-.386.733-.59 1.19-.475.232.058.133.386-.099.327zM100.674 56.634c-.236-.003-.463.11-.573.303-.053.09-.063.192-.102.286a.607.607 0 0 1-.213.268c-.175.123-.41.17-.629.16-.287-.012-.558-.122-.847-.123-.464 0-.821.373-.966.744-.082.215-.15.427-.41.51-.238.077-.48-.015-.723.01-.625.07-.936.765-1.32 1.134-.167.16-.43-.082-.264-.24.39-.373.635-.885 1.164-1.123.259-.116.5-.114.779-.093.107.008.247.026.32-.062.068-.08.084-.206.125-.3.177-.4.525-.772.998-.885.281-.066.56-.014.837.041.217.044.498.099.696-.032.114-.076.119-.2.16-.313a.869.869 0 0 1 .203-.32c.192-.197.476-.307.765-.303.24.001.242.34 0 .338zM75 67.822c-.213.004-.46.007-.645.114-.206.12-.19.362-.282.547-.21.417-.699.341-1.107.43-.237.05-.318.207-.408.398-.1.207-.222.39-.447.499-.24.114-.505.13-.762.186-.207.044-.537.166-.457.414.067.21-.294.3-.361.09-.137-.425.285-.735.694-.827.223-.05.465-.056.675-.147.206-.09.274-.263.361-.44a.864.864 0 0 1 .351-.41c.162-.089.354-.111.539-.13.158-.014.363-.008.493-.1.15-.102.146-.322.213-.469.185-.42.702-.486 1.142-.493.241-.005.241.335 0 .338zM102.732 60.302a1.879 1.879 0 0 0-1.484.475c-.205.19-.313.443-.507.642-.207.213-.503.293-.803.335-.908.126-2.176.08-2.57 1.005-.103.239-.199.48-.413.654a1.418 1.418 0 0 1-.588.274c-.462.104-.941.065-1.408.123-.22.026-.444.079-.634.189-.225.132-.372.346-.565.51-.223.192-.48.29-.793.296-.309.006-.607-.031-.914.024-.562.1-1.076.364-1.454.754-.19.193-.302.446-.506.626-.22.192-.516.233-.808.258-.533.05-1.075.07-1.597.19-.248.06-.489.143-.706.273-.227.135-.379.322-.53.522-.162.218-.344.402-.622.494-.273.089-.57.062-.853.109-.522.085-.935.422-1.36.685a3.154 3.154 0 0 1-.69.332c-.282.09-.57.09-.862.09-.3 0-.585.017-.803.225-.18.17-.3.386-.487.548-.228.199-.51.262-.813.293a5.828 5.828 0 0 0-.814.123c-.487.121-.962.348-1.201.773-.129.23-.236.458-.53.542-.268.078-.566.002-.844.002-.48.001-.995.101-1.383.37-.19.133-.329.304-.422.502-.095.2-.416.029-.323-.172.2-.427.615-.713 1.084-.875.246-.085.507-.13.77-.152.268-.023.527.007.794.017.141.005.275-.006.365-.116.085-.104.129-.231.197-.343.127-.205.309-.376.519-.514.439-.29.987-.412 1.516-.471.306-.034.62-.031.85-.245.182-.17.302-.385.486-.55.215-.19.485-.27.78-.29.3-.02.603.02.898-.051.514-.123.92-.478 1.36-.733a2.61 2.61 0 0 1 .73-.302c.284-.062.586-.032.867-.104.29-.075.424-.308.587-.515.154-.199.338-.367.563-.499.464-.272 1.025-.36 1.565-.417.272-.03.546-.048.82-.072.304-.026.57-.055.75-.3.164-.219.311-.433.52-.618a3.1 3.1 0 0 1 1.51-.72c.316-.054.617-.036.935-.033.334.003.528-.128.742-.344.176-.176.346-.355.582-.466.432-.205.935-.205 1.41-.227.436-.021.96-.052 1.207-.435.15-.232.202-.503.376-.724.14-.176.321-.32.53-.425.45-.227.974-.291 1.477-.348.26-.03.525-.046.781-.097a.93.93 0 0 0 .391-.157c.127-.1.205-.242.292-.369a2.152 2.152 0 0 1 1.308-.867c.273-.06.548-.066.824-.032.238.03.137.358-.099.328zM47.554 75.038c2.892-2.329 5.482-5.14 6.777-8.49a12.043 12.043 0 0 0 .268-7.911c-.782-2.552-2.337-4.88-4.309-6.82a22.27 22.27 0 0 0-7.24-4.74c-3.414-1.382-7.176-1.652-10.863-1.678-.464-.003-.93-.003-1.395 0-.18 0-.19-.26-.008-.26 3.741-.018 7.569.085 11.132 1.25 2.937.96 5.643 2.584 7.862 4.579 2.106 1.892 3.819 4.18 4.792 6.728.973 2.55 1.136 5.317.364 7.93-.991 3.371-3.36 6.284-6.093 8.68-.353.308-.711.608-1.076.903-.133.105-.346-.06-.211-.17z" fill="#CEBD9B"/><path d="M34.395 44.5c.454.654 1.344.87 1.344.87s.147-.839-.308-1.492c-.456-.652-1.342-.87-1.344-.87.002 0-.149.84.308 1.492zM37.401 44.737c.542.772 1.554 1.054 1.554 1.054-.002 0 .133-.968-.408-1.74-.54-.773-1.55-1.058-1.55-1.058s-.138.971.404 1.744zM40.856 45.491c.468.81 1.45 1.169 1.45 1.169s.222-.952-.247-1.76c-.467-.809-1.448-1.171-1.448-1.171s-.225.953.245 1.762zM44.047 46.285c.156.905.955 1.54.955 1.54s.548-.831.394-1.735c-.153-.903-.951-1.54-.951-1.54s-.551.83-.398 1.735zM47.563 48.192c-.022.912.644 1.665.644 1.665s.699-.726.72-1.637c.024-.912-.639-1.665-.639-1.666 0 0-.701.724-.725 1.638zM39.11 46.428c-.914.364-1.384 1.24-1.384 1.24s1.01.282 1.924-.082c.915-.365 1.385-1.238 1.385-1.238s-1.01-.283-1.925.08zM41.941 47.645c-.847.482-1.175 1.41-1.173 1.41 0 0 1.044.142 1.89-.34.846-.483 1.175-1.408 1.175-1.407 0 0-1.046-.143-1.892.337zM45.125 48.872c-.96.245-1.552 1.048-1.552 1.048s.96.405 1.918.16c.96-.247 1.554-1.048 1.554-1.048s-.96-.404-1.92-.16zM47.543 50.424c-.987.121-1.696.84-1.696.84s.889.523 1.876.4c.986-.12 1.697-.838 1.697-.838s-.891-.52-1.877-.402zM49.77 52.324c-.993-.05-1.837.535-1.837.535s.77.665 1.763.713c.995.048 1.836-.536 1.836-.536s-.768-.661-1.762-.712zM52.002 54.597c-.914-.36-1.926-.078-1.926-.078s.472.864 1.388 1.223c.916.358 1.925.074 1.925.076 0 0-.472-.863-1.387-1.221zM53.438 57.273c-.882-.42-1.912-.209-1.914-.209 0 0 .4.894 1.284 1.313.885.42 1.914.205 1.914.205s-.4-.89-1.284-1.31zM54.368 59.905c-.708-.64-1.762-.715-1.762-.715s.093.961.803 1.599c.71.638 1.761.711 1.761.711s-.094-.958-.802-1.595zM54.725 62.983c-.497-.786-1.49-1.115-1.49-1.115s-.19.948.307 1.734c.497.789 1.49 1.114 1.49 1.114s.188-.947-.307-1.732zM53.873 66.275c-.266-.875-1.136-1.42-1.136-1.42s-.444.875-.179 1.751c.266.876 1.14 1.419 1.14 1.419s.44-.876.175-1.75zM50.487 50.026c-.336.859.036 1.764.036 1.764 0-.001.913-.486 1.248-1.342.335-.856-.032-1.76-.032-1.76s-.916.481-1.252 1.338zM52.654 52.7c-.333.856.04 1.759.04 1.759s.913-.487 1.247-1.342c.332-.855-.04-1.755-.04-1.755s-.915.483-1.247 1.339zM54.64 55.254c-.596.726-.531 1.689-.531 1.689s1.027-.219 1.623-.945c.596-.726.534-1.686.534-1.684 0 0-1.029.214-1.627.94zM55.732 58.248c-.669.671-.701 1.635-.701 1.634 0 0 1.046-.13 1.713-.8.666-.672.703-1.632.703-1.632s-1.047.127-1.715.798zM56.207 61.176c-.742.603-.886 1.556-.886 1.556s1.056-.028 1.797-.631c.74-.605.887-1.555.888-1.555 0 0-1.057.025-1.799.63zM55.822 64.768c-.802.349-1.158 1.195-1.158 1.195s.946.276 1.748-.075c.803-.35 1.16-1.192 1.16-1.192s-.947-.277-1.75.072zM54.089 68.734c-.839.272-1.29 1.078-1.29 1.078s.908.367 1.746.095 1.29-1.077 1.29-1.077-.908-.367-1.746-.096zM51.875 71.823c-.785.063-1.36.739-1.36.739s.699.568 1.486.502c.784-.067 1.36-.74 1.36-.74s-.7-.567-1.486-.501zM48.122 72.8c-.073.72.548 1.362.548 1.362 0-.002.737-.528.81-1.247.073-.719-.546-1.36-.546-1.36s-.739.526-.812 1.245zM52.175 69.571c-.112-.806-.879-1.381-.879-1.381s-.587.731-.473 1.54c.112.807.88 1.38.882 1.38 0 0 .583-.732.47-1.539zM35.748 45.85c-.563.391-.652 1.166-.652 1.166s.828.142 1.393-.25c.563-.39.651-1.163.651-1.163s-.827-.143-1.392.248zM31.283 45.945c1.029.028 1.885-.651 1.885-.651s-.808-.727-1.837-.758c-1.028-.032-1.886.65-1.886.65s.81.73 1.838.76zM31.376 42.88c-.586-.204-1.199-.403-1.832-.433a2.354 2.354 0 0 0-.875.112c-.305.105-.513.327-.79.47-.514.263-1.078.077-1.587-.091-.253-.082-.515-.172-.787-.185-.313-.014-.572.107-.832.254-.276.155-.546.313-.863.388-.316.076-.65.081-.976.049-.674-.07-1.305-.296-1.97-.409-.597-.099-1.274-.104-1.765.27-.243.184-.445.414-.726.556-.273.137-.584.19-.894.182-.737-.02-1.419-.33-2.15-.389a3.739 3.739 0 0 0-2.167.482c-.205.117-.392-.176-.189-.293a4.12 4.12 0 0 1 1.936-.54c.681-.018 1.31.185 1.965.32.304.063.63.114.943.062.339-.058.575-.24.815-.451.233-.205.477-.377.784-.48.286-.095.6-.123.9-.114.663.02 1.283.22 1.919.36.346.075.698.134 1.055.121.351-.011.662-.11.961-.275.265-.146.525-.317.83-.392a1.85 1.85 0 0 1 .839.019c.276.063.54.167.81.246.248.075.523.144.782.082.337-.082.571-.37.883-.503.308-.131.643-.19.981-.193.725-.005 1.431.214 2.099.448.222.078.126.406-.1.327zM27.442 46.944c-.23-.337-.655-.537-1.088-.555a1.447 1.447 0 0 0-.628.104c-.238.103-.412.284-.62.425-.796.54-1.715-.023-2.517-.236-.42-.11-.823-.108-1.16.174-.36.303-.622.713-1.128.833-.467.111-.93-.06-1.35-.231-.42-.174-.882-.41-1.36-.356-.975.112-1.627 1.186-2.693.915-.232-.059-.134-.387.1-.328.426.108.817-.109 1.163-.313.387-.226.77-.49 1.228-.584.494-.101.966.05 1.413.231.401.162.864.42 1.323.353.499-.072.747-.541 1.106-.812.37-.28.808-.341 1.272-.251.446.086.857.283 1.292.406.195.055.397.099.605.089.24-.011.433-.114.613-.255.222-.175.433-.335.713-.423.237-.075.498-.098.746-.072.526.055 1.01.303 1.293.715.128.186-.195.358-.323.171zM47.017 59.108c-.896-.189-2.007-.374-2.664.364-.3.335-.509.717-.91.967-.29.182-.633.27-.98.299-.767.067-1.54-.137-2.288-.26-.69-.114-1.48-.208-2.106.145-.396.223-.638.601-.902.937-.256.327-.545.628-.942.819-.727.346-1.574.279-2.358.175-.818-.11-1.662-.3-2.494-.2-.44.054-.822.215-1.177.456-.407.274-.784.59-1.287.708-1.043.246-2.052-.305-3.045-.496-.928-.18-1.93.043-2.657.596-.18.137-.34.289-.483.458-.062.072-.199.058-.264 0-.08-.072-.062-.17 0-.241.59-.692 1.5-1.122 2.456-1.204 1.081-.093 2.016.42 3.054.577a2.046 2.046 0 0 0 1.442-.282c.405-.253.755-.566 1.216-.739.791-.299 1.674-.199 2.497-.082.798.113 1.66.306 2.465.129.4-.088.74-.28 1.012-.562.318-.33.54-.727.875-1.044 1.197-1.127 3.015-.313 4.453-.226.351.021.713.007 1.04-.114.402-.15.645-.454.885-.768.283-.373.605-.68 1.091-.822.47-.138.977-.112 1.458-.045.239.032.476.079.712.128.233.05.134.378-.1.327zM48.464 63.728a2.632 2.632 0 0 0-2.403.002c-.398.208-.666.55-1.03.793-.313.21-.693.306-1.08.308-.79.002-1.529-.312-2.3-.42-.362-.049-.748-.046-1.09.091-.346.14-.616.39-.863.646-.498.511-.964 1.076-1.732 1.25-.718.162-1.471.005-2.178-.138-.653-.132-1.389-.323-2.048-.121-.376.113-.623.37-.851.654-.264.328-.54.617-.96.78-.813.311-1.707.128-2.552.107-.63-.016-1.502.118-1.87.644a.789.789 0 0 0-.147.39c-.017.216-.39.218-.372 0 .059-.704.723-1.113 1.423-1.277.832-.194 1.664-.004 2.505-.026.425-.013.872-.087 1.214-.336.36-.262.546-.671.896-.945.568-.445 1.303-.458 2.008-.356.747.108 1.48.342 2.24.352.36.004.719-.05 1.034-.214.337-.176.599-.447.85-.714.253-.267.502-.544.812-.762.32-.226.686-.357 1.09-.386.813-.06 1.59.265 2.374.396.358.059.74.076 1.085-.048.435-.157.707-.532 1.067-.785.689-.487 1.642-.638 2.476-.412.206.055.405.135.59.234.207.111.02.404-.188.293zM47.49 69.426c-1.176-.4-2.823-.898-3.87.016-.254.223-.466.483-.75.675a1.792 1.792 0 0 1-.786.288c-.56.07-1.122-.075-1.655-.219-.532-.144-1.083-.323-1.648-.302-.597.023-1.004.361-1.352.773-.365.434-.712.907-1.3 1.103-.682.226-1.415-.017-2.08-.172-.38-.09-.773-.161-1.168-.11-.36.046-.694.181-.995.36-.65.384-1.154.953-1.619 1.51-.142.17-.467.003-.32-.172.795-.951 1.828-2.088 3.279-2.054.746.017 1.43.347 2.173.385.344.018.675-.05.954-.241.24-.162.424-.383.601-.596.365-.44.737-.89 1.343-1.055.552-.15 1.144-.04 1.684.098.552.139 1.11.34 1.689.369.257.013.521-.013.757-.116.318-.138.537-.39.773-.62.269-.26.568-.467.934-.596a3.078 3.078 0 0 1 1.1-.157c.811.017 1.601.25 2.356.506.222.076.125.403-.1.327zM63.547 66.549a1.851 1.851 0 0 0-1.237.221c-.364.213-.558.567-.856.842-.334.306-.772.412-1.237.383-.432-.026-.853-.15-1.286-.134-.354.013-.793.119-.905.464-.068.21-.428.121-.36-.09.112-.345.43-.558.801-.651.425-.106.846-.05 1.273.015.5.075 1.04.138 1.433-.213.333-.299.544-.674.95-.909.45-.264 1-.347 1.524-.257.236.043.135.37-.1.329zM65.744 70.925c-.641.235-1.324.038-1.985.077-.351.02-.623.148-.89.347-.268.197-.527.38-.861.478-.677.196-1.413.047-2.088-.073-.35-.062-.714-.145-1.073-.12-.288.021-.533.152-.76.309-.456.317-.911.785-1.545.719-.235-.026-.239-.366 0-.34.522.055.913-.358 1.287-.623.22-.155.453-.298.725-.362.354-.085.722-.034 1.074.022.67.107 1.382.31 2.065.189.35-.062.619-.221.89-.424.27-.2.542-.371.888-.429.718-.123 1.48.157 2.172-.097.223-.082.32.245.1.327zM44.56 73.925c-.765-.08-1.556-.15-2.322-.047a3.569 3.569 0 0 0-1.06.293c-.33.154-.578.374-.84.604-.28.244-.6.45-1.003.447-.455-.003-.861-.227-1.276-.365-.408-.136-.864-.243-1.294-.13-.36.094-.632.335-.873.585-.55.575-1.148 1.359-2.114 1.198-.236-.04-.136-.366.1-.327.804.134 1.347-.703 1.797-1.16.248-.252.534-.475.886-.592.41-.138.863-.099 1.276.004.42.106.798.309 1.217.409.191.047.391.058.58-.014.182-.07.331-.2.473-.326.26-.23.518-.448.84-.606.327-.16.685-.266 1.052-.326.846-.14 1.712-.074 2.56.013.237.024.24.364 0 .34zM45.94 54.979c-.213-.124-.502-.292-.77-.239-.135.029-.213.129-.292.226-.08.096-.16.185-.267.26-.422.297-1.001.296-1.507.24-.545-.056-1.178-.166-1.633.19-.335.266-.6.683-1.063.776-.326.065-.598-.083-.911-.13a1.569 1.569 0 0 0-.974.181c-.206.113-.395-.18-.189-.293a1.968 1.968 0 0 1 1.313-.206c.154.028.298.092.452.117.492.084.804-.448 1.124-.695.48-.372 1.081-.365 1.676-.302.5.055 1.173.155 1.566-.211.11-.105.183-.236.303-.331a.776.776 0 0 1 .417-.165c.339-.03.668.13.944.288.202.117.014.41-.19.294zM43.397 51.72c-.413-.116-.934-.24-1.187.173-.185.297-.317.695-.767.71-.458.014-.731-.41-1.169-.466-.399-.051-.818.125-1.015.445-.118.19-.44.019-.323-.172.35-.564 1.2-.79 1.826-.476.242.121.627.514.877.214.206-.247.253-.558.554-.744.383-.236.897-.126 1.303-.01.229.065.13.393-.099.327zM23.238 55.173c-.16-.293-.592-.038-.748.117-.288.28-.506.571-.924.698-.37.112-.784.076-1.124-.094-.08-.041-.174-.119-.27-.095-.1.024-.205.12-.287.174l-.633.416c-.194.128-.382-.167-.188-.294.234-.155.47-.308.706-.463.205-.136.398-.233.65-.136.207.08.364.193.596.213.213.018.43-.021.615-.116.384-.2.55-.628.955-.802.329-.14.796-.117.976.21.107.196-.216.367-.324.172zM25.006 59.36c-.28-.145-.607.057-.822.216-.236.175-.471.37-.774.444-.28.068-.567.01-.838-.05-.228-.051-.542-.156-.74.012-.176.148-.442-.091-.265-.24.241-.204.54-.21.846-.155.302.055.634.188.943.095.33-.1.558-.38.853-.54.301-.164.666-.24.984-.075.21.109.022.402-.187.293z" fill="#CEBD9B"/></g><mask id="f" style="mask-type:luminance" maskUnits="userSpaceOnUse" x="48" y="31" width="63" height="45"><path d="M110.931 31.35H48.943v44.36h61.988V31.35z" fill="#fff"/></mask><g mask="url(#f)"><path d="M49.081 42.951c2.398-1.874 4.899-3.671 7.513-5.29 1.5-.927 3.028-1.76 4.752-2.292 1.863-.575 3.77-1.043 5.672-1.504l.876-.209c.152-.036.242-.055.38.034.593.375 1.16.793 1.737 1.187l-.275.192-.466-1.611c-.023-.084.031-.192.13-.21 1.297-.21 2.591-.42 3.887-.632l6.194-1.007 1.418-.23c.062-.01.14-.005.183.043.74.841 1.48 1.686 2.215 2.53a836.606 836.606 0 0 1 4.997 5.773 389.698 389.698 0 0 1 5.369 6.38c.847 1.037 1.664 2.095 2.519 3.128a63.256 63.256 0 0 0 4.157 4.525c2.809 2.787 5.864 5.372 9.097 7.751.386.282.773.563 1.164.84.11.08.045.26-.082.284-1.622.314-3.229.69-4.834 1.071-1.189.284-2.39.518-3.577.797-1.629.383-3.213.937-4.806 1.424-1.63.499-3.253 1.013-4.861 1.563a93.604 93.604 0 0 0-4.74 1.752c-1.564.63-3.111 1.29-4.575 2.098-.872.482-1.726.97-2.637 1.39-.886.41-1.785.793-2.687 1.172-1.408.59-2.822 1.166-4.245 1.723-.101.04-.188.02-.255-.061-1.37-1.634-2.749-3.265-4.063-4.937-2.692-3.417-5.1-7.008-7.522-10.585a164.156 164.156 0 0 0-4.787-6.69 484.948 484.948 0 0 0-5.014-6.538 675.252 675.252 0 0 0-1.889-2.416c-.307-.392-.656-.775-.932-1.186l-.042-.053c-.142-.178.183-.347.323-.17.776.982 1.549 1.969 2.319 2.956a539.619 539.619 0 0 1 4.906 6.372c1.544 2.04 3.08 4.085 4.514 6.192 2.432 3.57 4.81 7.177 7.433 10.636 1.579 2.08 3.269 4.087 4.952 6.099l.124.148-.255-.06a195.98 195.98 0 0 0 3.558-1.437c1.738-.72 3.498-1.435 5.125-2.35a42.19 42.19 0 0 1 4.391-2.157 88.96 88.96 0 0 1 4.692-1.806c1.577-.558 3.17-1.081 4.772-1.582 1.623-.508 3.248-1.025 4.883-1.5 1.415-.413 2.884-.665 4.321-1.008 1.762-.419 3.525-.839 5.308-1.184l-.083.283a82.93 82.93 0 0 1-9.199-7.559 67.33 67.33 0 0 1-4.201-4.365c-1.022-1.164-1.965-2.38-2.937-3.58a306.529 306.529 0 0 0-5.263-6.294 794.994 794.994 0 0 0-5.194-6.017c-.6-.69-1.201-1.376-1.802-2.064-.194-.22-.387-.438-.579-.658-.095-.107-.233-.223-.301-.344-.011-.015-.03-.031-.042-.046.06.015.121.03.183.043l-3.886.633-6.195 1.007c-.472.077-.945.155-1.419.231l.132-.209.464 1.612c.039.13-.136.286-.275.191-.521-.358-1.044-.714-1.566-1.072-.032-.021-.226-.123-.233-.158.01.06.202-.035.066.02-.182.077-.42.101-.613.148-1.812.434-3.622.882-5.407 1.402-.776.226-1.552.461-2.283.793-.838.377-1.637.829-2.418 1.297-1.776 1.063-3.472 2.233-5.136 3.435a96.366 96.366 0 0 0-2.886 2.157c-.181.141-.447-.097-.264-.241z" fill="#CEBD9B"/></g><path d="M48.982 43.213c-3.204-1.517-6.659-2.553-10.18-3.265-3.467-.7-7.004-1.09-10.55-1.269a98.292 98.292 0 0 0-9.519 0c-2.348.11-4.692.294-7.025.56a73.433 73.433 0 0 0-2.781.364c-.095.015-.233.062-.331.052-.012-.002-.03.006-.043.007l.113-.25 2.56 4.509c1.367 2.405 2.734 4.809 4.1 7.215l.938 1.65c-.055-.029-.107-.057-.162-.084l2.242.07c.16.005.248.184.132.29l-1.484 1.37c.009-.069.02-.138.03-.206 1.728 3.274 3.294 6.614 4.97 9.91 2.13 4.185 4.432 8.313 7.256 12.152a48.217 48.217 0 0 0 3.925 4.697l-.183-.043c2.105-.576 4.118-1.365 6.21-1.974a76.8 76.8 0 0 1 1.071-.306c-.045.055-.091.108-.138.163l-.084-2.068c-.006-.13.163-.211.281-.146l1.652.89c.296.16.596.32.892.483.008.003.152.07.15.08.016-.09-.237.021-.066-.028.464-.134 1.004-.16 1.484-.238a11715.201 11715.201 0 0 0 9.65-1.555c2.837-.463 5.676-.948 8.547-1.207a42.225 42.225 0 0 1 10.602.367c.237.038.136.365-.1.327a41.31 41.31 0 0 0-9.621-.426c-2.985.217-5.933.713-8.877 1.193-3.828.62-7.656 1.236-11.483 1.85-.121.019-.218.046-.335.003-.266-.095-.525-.281-.77-.414l-1.914-1.032.282-.147c.028.69.056 1.38.086 2.069.001.076-.06.142-.139.163-.898.25-1.79.513-2.68.79-1.063.33-2.085.757-3.153 1.075-.48.144-.962.282-1.446.416-.06.016-.141 0-.183-.044-2.872-3.02-5.264-6.376-7.372-9.872-2.463-4.083-4.535-8.346-6.615-12.598a158.016 158.016 0 0 0-2.223-4.36c-.037-.068-.032-.148.03-.205l1.484-1.369.132.29-2.242-.071c-.063-.002-.132-.03-.161-.085L13.38 48.45l-4.1-7.215-.937-1.651c-.051-.089-.014-.227.112-.248a52.495 52.495 0 0 1 2.576-.357c2.223-.269 4.458-.46 6.696-.586 3.125-.175 6.259-.219 9.386-.102 3.543.133 7.081.468 10.56 1.097 3.543.639 7.037 1.587 10.308 2.994.4.174.796.353 1.189.54.212.1.025.394-.188.292z" fill="#CEBD9B"/><path d="M76.37 76.325a10.888 10.888 0 0 0-1.74-.564c-.352-.08-.705-.145-1.07-.099-.596.076-1.084.417-1.463.825-.44.476-.753 1.052-1.003 1.625-.257.59-.46 1.199-.63 1.812-.076.27-.146.54-.211.812-.067.266-.19.578-.09.849.157.431.802.422 1.207.418.601-.005 1.202-.03 1.802-.077 1.191-.09 2.375-.267 3.529-.549a17.585 17.585 0 0 0 1.684-.496c.464-.162.939-.333 1.358-.58.358-.212.678-.501.778-.89.105-.41-.274-.749-.584-.998-.832-.669-1.796-1.241-2.77-1.725-.26-.128-.527-.25-.797-.363-.219-.092-.028-.385.188-.294 1.165.49 2.241 1.134 3.252 1.85.367.262.768.546.98.933.221.404.11.852-.172 1.209-.28.352-.69.599-1.114.79-.536.242-1.1.435-1.664.608-1.21.37-2.462.61-3.727.756-.635.072-1.273.12-1.912.145-.325.014-.647.024-.97.022-.294 0-.592-.022-.863-.128-.433-.168-.65-.535-.607-.954.028-.29.12-.578.19-.86.33-1.297.733-2.666 1.568-3.78.382-.507.874-.964 1.518-1.187.86-.296 1.815-.01 2.634.262.302.1.595.213.887.334.219.09.03.384-.188.294z" fill="#CEBD9B"/><path d="M105.962 63.442a51.08 51.08 0 0 1 3.28 5.779c.275.566.538 1.137.795 1.711.059.133-.108.23-.23.21a52.382 52.382 0 0 0-6.611-.65 51.425 51.425 0 0 0-6.558.195 49.862 49.862 0 0 0-12.633 2.879 48.322 48.322 0 0 0-6.657 3.072c-.205.112-.394-.181-.188-.294a48.514 48.514 0 0 1 5.943-2.8 49.541 49.541 0 0 1 6.235-1.972c2.13-.522 4.298-.9 6.487-1.142 2.19-.24 4.399-.34 6.603-.297 2.229.044 4.453.231 6.652.554.277.04.551.083.826.127-.077.07-.153.14-.23.208a51.884 51.884 0 0 0-3.028-5.812 53.774 53.774 0 0 0-1.009-1.596c-.124-.189.199-.36.323-.172zM71.11 77.736c-5.726-.661-11.444.445-16.938 1.844a381.744 381.744 0 0 0-16.53 4.589c-3.07.93-6.117 1.925-9.12 3.028-.099.035-.198-.041-.229-.119-.782-1.979-1.827-3.829-3.044-5.615-.811-1.192-1.595-2.4-2.371-3.613a494.771 494.771 0 0 1-4.78-7.655 412.43 412.43 0 0 1-1.052-1.721.163.163 0 0 1 .03-.206l1.327-1.265c.043.097.088.193.132.29l-2.037.019c-.06.001-.135-.031-.161-.085a312.28 312.28 0 0 1-2.259-4.67c-1.476-3.105-2.918-6.226-4.26-9.38-.693-1.624-1.366-3.259-1.945-4.921a.154.154 0 0 1 .048-.165c1.262-.933 2.878-1.562 4.45-1.914.234-.054.334.273.1.327-1.508.338-3.076.931-4.286 1.827l.048-.165c1.083 3.106 2.443 6.135 3.809 9.146a340.404 340.404 0 0 0 4.618 9.745l-.162-.085c.68-.005 1.358-.011 2.037-.018.166-.002.242.184.131.289l-1.325 1.264.028-.205a571.625 571.625 0 0 0 2.944 4.787c1.64 2.64 3.282 5.281 5.03 7.862 1.306 1.932 2.466 3.897 3.31 6.037l-.23-.118c5.365-1.968 10.869-3.595 16.4-5.126a584.103 584.103 0 0 1 8.31-2.25c2.775-.723 5.576-1.387 8.428-1.816 3.155-.474 6.368-.648 9.549-.282.234.027.237.367 0 .34zM89.436 41.201c.981-.157 1.973-.265 2.962-.379.12-.013.2.007.276.102.048.057.092.12.133.183.16.237.31.48.455.722 1.213 1.995 2.324 4.044 3.395 6.104a83.864 83.864 0 0 1 2.036 4.16c.092.202-.27.29-.36.09-.861-1.907-1.824-3.778-2.819-5.629a103.228 103.228 0 0 0-2.519-4.462c-.138-.23-.28-.46-.427-.686a6.268 6.268 0 0 0-.142-.213c-.017-.024-.038-.05-.055-.075-.035-.05.022.021-.015-.017l.133.05c-.985.114-1.976.221-2.954.377-.235.038-.336-.288-.099-.327z" fill="#CEBD9B"/><path d="M94.304 43.604a62.96 62.96 0 0 1 2.514-.622c.076-.017.174.011.211.077a216.61 216.61 0 0 1 1.681 3.16 213.198 213.198 0 0 1 3.465 6.9 100.123 100.123 0 0 1 1.862 4.104c.087.205-.274.292-.36.09-1.051-2.48-2.233-4.914-3.447-7.33a253.682 253.682 0 0 0-2.945-5.677l-.578-1.075.21.078a61.62 61.62 0 0 0-2.514.623c-.231.062-.329-.265-.1-.328zM107.219 63.32a64.443 64.443 0 0 1 4.191 7.342c.342.707.669 1.42.978 2.14.044.101-.068.218-.18.214-2.195-.085-4.377.187-6.564.276-2.251.092-4.506.083-6.757.096-2.213.013-4.44-.013-6.641.23-2.136.234-4.191.81-6.183 1.535-1.979.72-3.911 1.556-5.827 2.405-.246.109-.49.219-.735.329-.215.098-.404-.195-.19-.292a107.882 107.882 0 0 1 5.858-2.473c1.978-.757 4.019-1.413 6.145-1.726 2.178-.321 4.39-.325 6.59-.34 2.279-.018 4.561-.016 6.84-.075 2.218-.057 4.426-.326 6.646-.322.273.001.545.007.818.018-.061.07-.119.143-.18.215-1.099-2.546-2.409-5.015-3.868-7.407a68.616 68.616 0 0 0-1.262-1.995c-.124-.188.199-.36.321-.17z" fill="#CEBD9B"/><mask id="g" style="mask-type:luminance" maskUnits="userSpaceOnUse" x="80" y="62" width="36" height="17"><path d="M116 62.717H80.334v16.24H116v-16.24z" fill="#fff"/></mask><g mask="url(#g)"><path d="M107.246 63.102c1.144 1.44 2.185 2.948 3.239 4.44 1.209 1.715 2.411 3.435 3.673 5.117a33.637 33.637 0 0 0 1.732 2.17c.102.115.037.277-.134.289-2.457.163-4.923.146-7.383.07-2.416-.072-4.828-.196-7.243-.221-2.438-.026-4.867.069-7.287.335-2.142.236-4.273.568-6.358 1.074a40.601 40.601 0 0 0-6.075 2.005c-.262.11-.522.222-.78.334-.217.095-.406-.197-.19-.293a42.746 42.746 0 0 1 6.117-2.162c2.064-.549 4.178-.921 6.308-1.183a59.785 59.785 0 0 1 7.261-.454c2.429-.005 4.855.111 7.281.194 2.471.086 4.947.137 7.418.016.31-.016.621-.034.931-.055-.043.097-.088.194-.132.29-1.215-1.373-2.27-2.867-3.327-4.342-1.231-1.718-2.434-3.452-3.668-5.168a58.404 58.404 0 0 0-1.706-2.284c-.14-.178.185-.348.323-.172z" fill="#CEBD9B"/></g><path d="M114.075 75.006c.413 1.088.885 2.159 1.299 3.248.039.103-.065.217-.18.215-2.711-.055-5.423-.11-8.135-.15a562.43 562.43 0 0 0-4.066-.045c-.685-.004-1.369-.008-2.054-.008-.236-.002-.472 0-.708-.002a.317.317 0 0 1-.232-.079c-.4-.344-.784-.706-1.177-1.057.1-.013.197-.024.293-.035l-.72 1.175a.189.189 0 0 1-.161.084c-1.68-.016-3.364-.016-5.04.064-1.498.07-2.988.29-4.46.546-1.7.296-3.385.664-5.069 1.035-1.513.332-3.033.643-4.546.975-.234.053-.334-.275-.1-.327 1.314-.289 2.633-.557 3.946-.844 1.703-.371 3.403-.755 5.12-1.069 1.56-.285 3.145-.537 4.736-.636 1.07-.067 2.145-.077 3.216-.084.732-.005 1.464-.006 2.197.001-.054.027-.107.057-.162.083l.722-1.174c.06-.097.21-.11.294-.035l1.209 1.087a3.29 3.29 0 0 1-.132-.05c3.871.002 7.74.061 11.61.136l3.419.069-.18.215c-.414-1.09-.886-2.16-1.299-3.248-.079-.207.283-.296.36-.09zM70.442 79.477c-5.842.292-11.635 1.157-17.32 2.4-5.784 1.263-11.459 2.91-17.032 4.785a239.443 239.443 0 0 0-9.464 3.42c-.087.035-.206.03-.256-.06a1869.04 1869.04 0 0 1-7.97-15.06 1499.444 1499.444 0 0 1-8.713-16.917C8.44 55.583 7.25 53.101 5.824 50.72c-.062-.107 0-.209.113-.25.854-.32 1.706-.654 2.52-1.047.213-.102.403.192.19.293-.844.408-1.727.75-2.61 1.081.035-.083.074-.166.111-.25 1.216 2.037 2.25 4.141 3.316 6.246a1383.53 1383.53 0 0 0 4.513 8.854c2.75 5.344 5.534 10.674 8.346 15.99 1.45 2.743 2.908 5.48 4.371 8.214l-.256-.06c5.548-2.132 11.174-4.1 16.913-5.77 5.688-1.652 11.492-3.015 17.389-3.9 3.213-.482 6.45-.82 9.702-.983.24-.011.24.327 0 .34z" fill="#CEBD9B"/><mask id="h" style="mask-type:luminance" maskUnits="userSpaceOnUse" x="4" y="52" width="68" height="42"><path d="M71.195 52.251H4v40.782h67.195V52.251z" fill="#fff"/></mask><g mask="url(#h)"><path d="M70.937 82.344A137.414 137.414 0 0 0 52.66 84.56a138.056 138.056 0 0 0-17.567 4.548 135.115 135.115 0 0 0-9.646 3.608c-.09.038-.205.026-.256-.06-3.013-5.088-6.025-10.175-8.943-15.307-2.91-5.112-5.726-10.267-8.354-15.503a241.468 241.468 0 0 1-2.164-4.423c-.588-1.237-1.13-2.498-1.754-3.721-.042-.082-.028-.187.067-.233.919-.457 1.901-.764 2.862-1.136.219-.085.41.207.19.293-.963.373-1.944.68-2.863 1.136l.065-.233c.536 1.05 1 2.127 1.503 3.188a240.666 240.666 0 0 0 1.912 3.949c1.312 2.639 2.671 5.26 4.067 7.862 2.775 5.175 5.698 10.283 8.67 15.367 1.678 2.869 3.372 5.728 5.065 8.59-.085-.022-.17-.041-.256-.063a136.334 136.334 0 0 1 17.24-5.887 138.372 138.372 0 0 1 28.44-4.53c.24-.012.24.328 0 .34z" fill="#CEBD9B"/></g><mask id="i" style="mask-type:luminance" maskUnits="userSpaceOnUse" x="55" y="74" width="23" height="23"><path d="M77.95 74.627H55.698v22.194H77.95V74.627z" fill="#fff"/></mask><g mask="url(#i)"><path d="M55.894 76.12c1.36 1.343 1.633 2.484 1.633 2.484s.217 1.397.203 2.272c-.043 2.723.435 5.427.911 8.114.064.354.109.946.109.946s1.13 3.083 13.496 6.844c-.821-1.002-1.442-1.778-2.237-2.702-.341-.397-.467-.577-1.029-1.26l8.725 1.255c-2.372-1.555-4.993-2.763-7.589-3.988-1.24-.585-3.51-1.706-3.51-1.706s-.06-2.62.004-3.606c.106-1.652.084-3.293.19-4.944.072-1.122-.081-2.478-.081-2.478s-1.36-1.727-2.104-2.403l-8.721 1.172z" fill="#CEBD9B"/></g><path d="M25.763 55.803c.35 1.044 1.05 1.97 2 2.639a6.162 6.162 0 0 0 3.212 1.09 6.301 6.301 0 0 0 3.47-.83 5.463 5.463 0 0 0 2.205-2.393c.458-.988.57-2.105.315-3.152a5.214 5.214 0 0 0-1.79-2.79c-.869-.71-1.968-1.165-3.124-1.304a6.301 6.301 0 0 0-3.49.586c-1.038.508-1.887 1.3-2.42 2.254a4.872 4.872 0 0 0-.57 3.114c.041.265.107.528.192.786.048.145-.2.214-.248.067a5.03 5.03 0 0 1 .055-3.342 5.628 5.628 0 0 1 2.104-2.645c1.013-.694 2.274-1.081 3.542-1.1a6.539 6.539 0 0 1 3.442.922c1.036.626 1.838 1.534 2.29 2.587a5.038 5.038 0 0 1 .22 3.354 5.481 5.481 0 0 1-1.87 2.766c-.96.763-2.173 1.235-3.443 1.344a6.577 6.577 0 0 1-3.523-.69c-1.071-.548-1.951-1.395-2.48-2.406a5.348 5.348 0 0 1-.337-.79c-.05-.145.198-.214.248-.067z" fill="#CEBD9B"/><path d="M26.589 55.575a4.53 4.53 0 0 0 1.7 2.245c.777.548 1.744.88 2.726.93a5.366 5.366 0 0 0 2.953-.703 4.63 4.63 0 0 0 1.886-2.043c.39-.839.484-1.789.267-2.677a4.435 4.435 0 0 0-1.518-2.374 5.212 5.212 0 0 0-2.653-1.111 5.366 5.366 0 0 0-2.982.499 4.717 4.717 0 0 0-2.056 1.917 4.123 4.123 0 0 0-.323 3.317c.05.147-.2.215-.249.07a4.315 4.315 0 0 1 .049-2.864 4.803 4.803 0 0 1 1.806-2.272 5.557 5.557 0 0 1 3.02-.94 5.603 5.603 0 0 1 2.967.789c.886.54 1.574 1.314 1.96 2.216.39.91.458 1.926.191 2.872a4.687 4.687 0 0 1-1.61 2.38 5.52 5.52 0 0 1-2.94 1.147 5.632 5.632 0 0 1-3.026-.59c-.917-.469-1.672-1.195-2.125-2.059a4.658 4.658 0 0 1-.292-.68c-.048-.146.2-.214.249-.069z" fill="#CEBD9B"/><path d="m30.179 50.499.48.61 1.153 1.465 1.394 1.773 1.206 1.534.4.51c.062.078.13.156.188.239.002.003.006.005.008.01.082.104-.066.208-.174.165l-1.082-.43c-.576-.229-1.153-.459-1.732-.687-.13-.053-.263-.106-.396-.158.06-.015.12-.03.177-.046l-.638.902-1.023 1.444-.233.33c-.063.091-.248.073-.245-.053l.028-.75c.022-.6.043-1.2.067-1.799l.079-2.178.068-1.885c.011-.304.017-.611.034-.919v-.012c.005-.151.266-.16.261-.008l-.028.75-.065 1.8-.08 2.176-.07 1.885-.022.624c-.003.098.001.2-.01.295l-.001.013-.244-.054.638-.9c.341-.483.681-.965 1.023-1.446l.234-.33c.04-.056.107-.073.176-.046l1.083.43 1.73.688c.133.052.265.104.398.158l-.175.165c-.16-.203-.318-.408-.48-.61-.383-.49-.768-.978-1.152-1.467-.464-.59-.93-1.181-1.393-1.772l-1.208-1.534c-.134-.17-.265-.34-.399-.509-.062-.079-.13-.158-.19-.24l-.005-.01c-.098-.125.124-.246.22-.123z" fill="#CEBD9B"/><path d="m31.658 55.543-1.586-.4-2.507-.63-.573-.144c-.122-.031-.135-.194-.008-.229.261-.07.522-.144.784-.214l1.864-.513 2.271-.623 1.95-.535c.316-.087.633-.184.953-.262.005 0 .01-.003.014-.003.129-.035.214.107.13.195l-1.077 1.13A957.23 957.23 0 0 1 32.17 55.1c-.129.137-.259.272-.388.41-.11.115-.298-.05-.188-.164.359-.378.718-.755 1.078-1.131.566-.595 1.134-1.191 1.702-1.785l.389-.409.131.195-.782.216-1.866.511-2.27.623-1.95.536c-.216.06-.431.117-.647.176-.101.029-.204.065-.306.085a.11.11 0 0 0-.012.004c-.003-.076-.007-.152-.008-.228.53.132 1.057.266 1.586.399l2.505.63.575.144c.16.04.1.27-.06.231zM81.747 58.403c1.962-.97 4.425-.31 5.493 1.472 1.068 1.782.341 4.02-1.62 4.99-1.963.97-4.428.31-5.495-1.472-1.068-1.781-.342-4.02 1.622-4.99zm4.043 6.75c2.136-1.056 2.929-3.494 1.766-5.433-1.162-1.94-3.846-2.66-5.982-1.604-2.135 1.056-2.927 3.495-1.764 5.434 1.162 1.939 3.846 2.66 5.98 1.603z" fill="#CEBD9B"/><path d="M89.838 58.303c-.82-1.367-2.42-2.1-4.023-1.994.227-.18.476-.339.75-.474 2.052-1.015 4.62-.326 5.738 1.538 1.118 1.864.359 4.197-1.694 5.212-.546.27-1.13.419-1.713.457 1.47-1.158 1.91-3.123.942-4.739zM77.26 64.522c-.819-1.367-.628-2.986.34-4.153-.288.076-.57.18-.845.316-2.052 1.015-2.81 3.348-1.692 5.212 1.116 1.863 3.685 2.553 5.737 1.538a4.12 4.12 0 0 0 1.353-1.06c-1.865.493-3.924-.239-4.892-1.853zM80.727 35.372c-.056-.355-.609-.286-.857-.15-.206.11-.358.31-.509.476-.17.184-.341.368-.568.5-.44.257-.972.202-1.462.134-.464-.066-1.018-.173-1.39.16-.192.173-.318.394-.498.573a1.617 1.617 0 0 1-.64.384c-.491.166-1.04.13-1.554.104-.274-.014-.547-.031-.82-.018-.141.007-.296.022-.419.096-.12.069-.19.187-.245.303-.215.434-.377.892-.784 1.216-.397.316-.89.367-1.382.223-.448-.131-.96-.46-1.45-.338-.403.1-.595.489-.764.8-.188.349-.38.714-.74.944-.81.518-1.817.012-2.702.098-.198.018-.399.08-.554.199-.19.147-.307.354-.42.551-.24.413-.508.797-1.036.922-.529.129-1.08.002-1.617.023a1.49 1.49 0 0 0-1.084.503c-.488.519-.763 1.31-1.472 1.631a1.39 1.39 0 0 1-.54.121c-.241.009-.241-.33 0-.338.366-.011.636-.227.852-.48.25-.288.44-.617.676-.916.235-.3.514-.585.893-.733.515-.201 1.077-.11 1.617-.096.255.008.523.002.754-.101.232-.1.378-.283.502-.482.24-.388.433-.822.906-1.022.436-.184.922-.134 1.383-.075.441.056.922.156 1.36.035.431-.12.646-.488.833-.833.187-.343.365-.712.722-.939.429-.272.94-.176 1.391-.011.447.162.972.424 1.442.18.46-.24.653-.736.844-1.154.106-.236.25-.457.516-.567.26-.11.561-.109.844-.102.54.01 1.102.095 1.64.005.235-.038.466-.114.653-.255.217-.165.353-.4.534-.597.347-.378.844-.458 1.36-.406.477.05 1.025.212 1.492.045.503-.177.731-.702 1.143-.99.321-.226.822-.304 1.187-.125a.56.56 0 0 1 .323.412c.014.093-.025.182-.13.21-.087.022-.216-.028-.23-.12zM70.559 49.255c1.043 2.397 4.028 3.573 6.666 2.625 2.639-.947 3.932-3.658 2.889-6.055-1.043-2.396-4.026-3.572-6.667-2.623-2.638.947-3.931 3.657-2.888 6.053z" fill="#CEBD9B"/><path d="M75.338 43.033c.669 0 1.338.124 1.971.373 1.215.48 2.153 1.36 2.64 2.479a4.102 4.102 0 0 1-.06 3.448c-.528 1.105-1.497 1.955-2.729 2.398a5.385 5.385 0 0 1-3.797-.056c-1.216-.48-2.154-1.36-2.641-2.479-1.005-2.31.246-4.933 2.79-5.846a5.414 5.414 0 0 1 1.826-.317zm-.003 9.338c.66 0 1.32-.114 1.954-.341 1.32-.475 2.358-1.388 2.923-2.57a4.39 4.39 0 0 0 .066-3.694c-.521-1.198-1.526-2.141-2.83-2.653a5.772 5.772 0 0 0-4.066-.06c-2.724.976-4.065 3.786-2.99 6.262.524 1.2 1.528 2.141 2.83 2.654a5.78 5.78 0 0 0 2.113.402z" fill="#CEBD9B"/><path d="M77.8 46.783c-.916-2.104-3.325-3.265-5.684-2.879a5.234 5.234 0 0 1 1.331-.702c2.64-.949 5.624.227 6.667 2.623 1.043 2.397-.25 5.108-2.889 6.055-.324.116-.652.2-.982.254 1.709-1.247 2.404-3.403 1.557-5.351z" fill="#B39168"/><path d="M75.338 43.033c.669 0 1.338.124 1.971.373 1.215.48 2.153 1.36 2.64 2.479a4.102 4.102 0 0 1-.06 3.448c-.528 1.105-1.497 1.955-2.729 2.398a4.736 4.736 0 0 1-.284.093c1.419-1.35 1.861-3.324 1.088-5.1-.84-1.93-2.95-3.143-5.178-3.049.231-.125.475-.234.726-.325a5.414 5.414 0 0 1 1.826-.317zm.905 9.262.03-.003a5.76 5.76 0 0 0 1.016-.262c1.32-.475 2.358-1.388 2.923-2.57a4.39 4.39 0 0 0 .066-3.694c-.521-1.198-1.526-2.141-2.83-2.653a5.772 5.772 0 0 0-4.066-.06 5.493 5.493 0 0 0-1.378.727.148.148 0 0 0-.05.19.182.182 0 0 0 .193.093c2.312-.38 4.623.788 5.49 2.779.802 1.847.198 3.923-1.505 5.167a.154.154 0 0 0-.05.191c.029.058.092.095.16.095zM82.009 37.832c-.771-.157-1.833-.35-2.474.203-.337.29-.49.703-.953.867-.463.165-.966.035-1.444.082-.489.049-.957.256-1.305.572-.345.312-.607.664-1.07.845-.814.318-1.749.118-2.562.427-.427.16-.69.5-.992.8-.317.319-.681.542-1.158.601-.484.062-.98-.021-1.462.054-.39.06-.69.252-.955.507-.48.462-.846 1.091-1.525 1.34-.454.169-.894.035-1.359-.006-.46-.04-.776.153-1.038.482-.25.313-.444.667-.745.944a2.506 2.506 0 0 1-1.198.602 2.578 2.578 0 0 1-.691.048c-.275-.018-.542-.098-.817-.097-.27.003-.471.138-.667.292-.22.172-.44.347-.658.52l-.664.527c-.182.143-.447-.097-.266-.24.449-.355.893-.711 1.343-1.062.18-.143.376-.28.608-.339.278-.072.567-.02.845.024.484.078.965.034 1.404-.179.412-.2.676-.507.922-.857.22-.309.443-.64.794-.842.447-.259.93-.14 1.417-.081.399.05.735-.042 1.035-.282.273-.222.492-.494.723-.75.229-.253.475-.5.786-.673.413-.23.89-.25 1.363-.245.471.006.973.028 1.372-.244.361-.245.594-.617.94-.88.73-.55 1.683-.425 2.555-.57.214-.036.428-.09.621-.184.213-.104.377-.26.537-.423.341-.352.692-.644 1.181-.82.486-.176.963-.151 1.475-.147.234.003.482-.011.681-.14.188-.12.304-.312.438-.476a1.834 1.834 0 0 1 1.06-.634c.442-.092.899-.067 1.344-.007.22.03.44.069.658.114.235.048.135.375-.099.327zM85.958 39.652c-.152-.148-.4-.152-.593-.062-.22.103-.36.316-.457.516-.09.192-.145.402-.28.574a.789.789 0 0 1-.594.296c-.442.035-.92-.026-1.313.213-.21.128-.265.327-.383.517a.895.895 0 0 1-.55.383c-.26.071-.538.064-.799.137-.28.078-.521.245-.686.463-.135.179-.46.01-.323-.17a1.69 1.69 0 0 1 .62-.513c.242-.112.495-.152.762-.186.25-.032.518-.066.655-.285.129-.21.2-.414.414-.572.39-.283.924-.32 1.405-.323.13 0 .28.01.393-.065.094-.062.15-.169.194-.263.104-.217.173-.441.32-.64.162-.216.392-.403.68-.46.288-.055.594 0 .8.199.166.16-.1.4-.265.241zM69.013 48.401c-.353-.128-.767-.282-1.154-.206-.37.072-.538.377-.72.646-.184.276-.399.507-.739.627-.32.113-.678.11-1.016.123-.317.011-.677.028-.92.235-.226.19-.322.475-.46.718-.152.27-.374.509-.71.592-.384.097-.78-.025-1.16-.085-.421-.064-.783.022-1.1.282-.302.248-.521.566-.726.882-.123.188-.445.016-.323-.171.357-.551.826-1.207 1.573-1.334.419-.07.81.06 1.221.109.185.022.379.025.546-.058a.796.796 0 0 0 .319-.324c.166-.27.268-.568.5-.8.232-.234.561-.327.895-.363.354-.038.717-.007 1.067-.08.375-.077.566-.305.755-.591.218-.33.461-.647.9-.736.459-.093.929.052 1.351.207.22.079.126.409-.1.327zM89.17 43.09l-1.004.253c-.26.066-.485.148-.636.36-.24.337-.315.773-.658 1.05-.464.372-1.037.162-1.585.187-.537.024-.836.472-1.142.815a2.35 2.35 0 0 1-1.618.803c-.239.019-.239-.322 0-.34.593-.042 1.036-.342 1.394-.75.303-.345.615-.742 1.121-.84.282-.055.565-.014.849.009.253.02.53.028.73-.136.322-.264.38-.713.628-1.026.175-.221.412-.347.694-.427.373-.106.751-.19 1.127-.285.233-.057.332.27.1.327zM69.992 51.92c-.306.038-.632.078-.902.219-.276.143-.368.383-.486.635-.125.265-.318.484-.636.566-.296.076-.61.026-.911.022-.312-.004-.556.065-.767.28-.19.192-.32.432-.492.64-.41.491-1.017.666-1.66.779-.637.11-1.441.202-1.789.773-.116.191-.44.02-.323-.172.314-.514.949-.733 1.55-.85.627-.119 1.364-.158 1.822-.62.39-.391.579-.974 1.2-1.127.325-.08.662-.021.994-.023.14-.003.286-.013.409-.08.136-.078.21-.207.271-.34.143-.303.27-.574.592-.755.307-.174.675-.23 1.029-.275.1-.012.198.022.23.118.024.08-.032.197-.13.21zM91.333 47.641a2.851 2.851 0 0 0-1.565.289 2.49 2.49 0 0 0-.631.46c-.18.18-.326.386-.508.565a1.474 1.474 0 0 1-.677.393c-.278.07-.57.062-.856.076-.497.026-.921.213-1.304.495-.767.561-1.379 1.287-2.367 1.534-.531.134-1.085.154-1.622.258-.505.097-.935.286-1.27.646-.58.621-.896 1.535-1.846 1.779-.541.138-1.103.024-1.654.072-.258.022-.508.097-.702.26-.181.149-.31.339-.442.524-.278.384-.59.714-1.1.831-.511.119-1.042.037-1.56.108-.249.035-.488.112-.676.27-.184.155-.318.35-.467.532-.314.389-.686.645-1.214.738-.493.088-1.006.055-1.498.154a1.456 1.456 0 0 0-.645.276c-.199.164-.337.375-.497.568-.295.356-.647.563-1.116.686-.385.101-.813.136-1.172.31a.725.725 0 0 0-.355.328c-.04.085-.123.145-.23.119-.089-.021-.17-.124-.132-.209.365-.794 1.42-.675 2.148-.992.478-.21.668-.662 1.022-.99.369-.344.875-.447 1.384-.49.48-.039 1.014-.015 1.453-.222.473-.224.664-.71 1.037-1.033.394-.342.917-.404 1.437-.413.498-.01 1.08.03 1.475-.3.367-.308.535-.763.915-1.06.429-.34.981-.355 1.52-.34.52.012 1.052.025 1.47-.304.35-.275.573-.655.824-1.002.264-.364.565-.71.993-.92.482-.236 1.028-.298 1.562-.364.535-.07 1.07-.151 1.535-.414.42-.235.765-.56 1.125-.862.347-.29.713-.578 1.15-.747a2.48 2.48 0 0 1 .74-.161c.302-.021.62.005.91-.089.256-.083.44-.276.604-.464.172-.199.335-.402.545-.57a3.094 3.094 0 0 1 1.445-.637c.269-.043.54-.053.812-.028.236.024.239.364 0 .34zM93.42 50.62c-.43-.145-.942-.014-1.227.317-.157.185-.177.422-.31.616a.86.86 0 0 1-.516.344c-.45.112-.919-.02-1.374.026-.46.048-.745.37-1 .686-.27.337-.54.698-.963.89-.477.217-1.017.209-1.534.19-.521-.018-1.09-.06-1.561.185-.427.221-.708.617-1.025.946-.333.344-.72.603-1.215.715-.495.112-1.01.104-1.515.16-.484.055-.928.198-1.234.561-.301.356-.493.788-.919 1.046-.434.265-.978.239-1.476.202-.472-.032-1.024-.097-1.422.192-.361.26-.521.696-.735 1.054a2.036 2.036 0 0 1-1.02.89c-.452.18-.94.25-1.41.383a2.5 2.5 0 0 0-.637.267c-.212.13-.373.314-.522.499-.323.397-.636.775-1.181.923-.53.143-1.105.062-1.622.252-.216.08-.394.203-.497.395-.105.198-.427.026-.323-.17.222-.418.734-.6 1.211-.666.57-.076 1.2-.022 1.647-.411.372-.326.591-.769 1.009-1.056.405-.28.908-.39 1.392-.502.463-.106.958-.219 1.3-.541.333-.313.48-.75.724-1.116.258-.386.627-.665 1.13-.734.525-.072 1.046.044 1.572.024.244-.009.488-.057.69-.19.201-.129.34-.323.47-.51.275-.39.546-.76 1.034-.948.914-.358 2.072-.034 2.893-.61.397-.28.663-.683 1.013-1.004.38-.347.83-.532 1.366-.576.548-.045 1.1.044 1.646-.005.515-.048.878-.286 1.184-.652.28-.328.522-.706.917-.931.42-.236.905-.184 1.372-.164.202.008.432.021.62-.062.236-.103.267-.348.36-.547.188-.396.62-.68 1.085-.749.236-.035.476-.022.703.054.223.075.127.403-.1.327zM97.037 53.09c-.14-.076-.341-.06-.445.065-.12.144-.095.373-.132.54-.086.382-.424.547-.826.541-.359-.005-.758-.118-.99.198-.114.155-.208.32-.382.428-.186.114-.416.126-.635.137-.256.014-.464.063-.655.23-.175.155-.304.35-.427.541-.12.189-.444.018-.321-.17.23-.36.503-.74.956-.88.23-.07.472-.038.705-.082.248-.048.327-.237.46-.409.272-.35.654-.37 1.089-.342.166.01.388.043.532-.053.17-.11.15-.367.18-.537a.672.672 0 0 1 .388-.523.786.786 0 0 1 .692.023c.205.113.018.406-.189.293zM72.795 64.175c-.36-.09-.735.124-.813.453-.076.325-.051.738-.487.853-.204.053-.43-.013-.627.062-.163.063-.288.195-.402.313-.123.126-.244.253-.393.356a1.359 1.359 0 0 1-.62.214c-.397.05-1.036-.042-1.25.358-.106.197-.429.024-.325-.17.197-.367.666-.47 1.076-.493.248-.015.52-.003.75-.1.189-.078.324-.226.457-.364.127-.131.26-.264.424-.36.19-.111.393-.128.613-.128.1 0 .22.004.29-.073.058-.065.072-.165.084-.244.031-.182.039-.361.132-.529.216-.386.733-.59 1.19-.475.232.058.133.386-.099.327zM100.674 56.455c-.236-.003-.463.11-.573.303-.053.09-.063.192-.102.286a.606.606 0 0 1-.213.268c-.175.123-.41.17-.629.16-.287-.012-.558-.122-.847-.123-.464 0-.821.373-.966.744-.082.214-.15.427-.41.51-.238.077-.48-.015-.723.01-.625.07-.936.764-1.32 1.134-.167.16-.43-.082-.264-.24.39-.373.635-.885 1.164-1.123.259-.116.5-.115.779-.093.107.008.247.026.32-.063.068-.08.084-.205.125-.3.177-.399.525-.77.998-.884.281-.066.56-.014.837.041.217.044.498.099.696-.032.114-.076.119-.2.16-.313a.87.87 0 0 1 .203-.32c.192-.198.476-.308.765-.303.24.001.242.34 0 .338zM75 67.643c-.213.004-.46.007-.645.114-.206.12-.19.363-.282.547-.21.418-.699.341-1.107.43-.237.051-.318.208-.408.398-.1.207-.222.39-.447.499-.24.114-.505.131-.762.186-.207.044-.537.166-.457.414.067.21-.294.3-.361.09-.137-.425.285-.735.694-.827.223-.05.465-.056.675-.147.206-.09.274-.263.361-.44a.864.864 0 0 1 .351-.41c.162-.088.354-.111.539-.13.158-.013.363-.008.493-.1.15-.102.146-.322.213-.469.185-.42.702-.486 1.142-.493.241-.005.241.335 0 .338zM102.732 60.123a1.878 1.878 0 0 0-1.484.475c-.205.19-.313.443-.507.642-.207.213-.503.293-.803.335-.908.126-2.176.08-2.57 1.005-.103.239-.199.48-.413.655a1.42 1.42 0 0 1-.588.273c-.462.104-.941.065-1.408.123-.22.027-.444.079-.634.189-.225.132-.372.346-.565.51-.223.192-.48.29-.793.296-.309.006-.607-.03-.914.024-.562.1-1.076.364-1.454.754-.19.194-.302.446-.506.626-.22.192-.516.233-.808.258-.533.05-1.075.07-1.597.19-.248.06-.489.143-.706.273-.227.135-.379.322-.53.523-.162.217-.344.401-.622.493-.273.089-.57.062-.853.109-.522.086-.935.423-1.36.685a3.154 3.154 0 0 1-.69.332c-.282.09-.57.09-.862.09-.3 0-.585.018-.803.225-.18.17-.3.386-.487.548-.228.2-.51.263-.813.293a5.814 5.814 0 0 0-.814.123c-.487.121-.962.348-1.201.773-.129.23-.236.458-.53.543-.268.077-.566 0-.844 0-.48.002-.995.102-1.383.372-.19.132-.329.303-.422.502-.095.2-.416.028-.323-.172.2-.428.615-.714 1.084-.876.246-.084.507-.13.77-.152.268-.023.527.007.794.017.141.005.275-.006.365-.116.085-.104.129-.231.197-.342a1.7 1.7 0 0 1 .519-.515c.439-.289.987-.412 1.516-.47.306-.035.62-.032.85-.246.182-.17.302-.385.486-.55.215-.19.485-.27.78-.29.3-.02.603.02.898-.051.514-.123.92-.478 1.36-.733a2.61 2.61 0 0 1 .73-.302c.284-.062.586-.032.867-.104.29-.075.424-.308.587-.515.154-.199.338-.366.563-.499.464-.272 1.025-.36 1.565-.417.272-.03.546-.048.82-.072.304-.025.57-.055.75-.3.164-.219.311-.433.52-.618a3.1 3.1 0 0 1 1.51-.72c.316-.054.617-.035.935-.033.334.003.528-.128.742-.344.176-.176.346-.355.582-.466.432-.205.935-.205 1.41-.227.436-.021.96-.052 1.207-.434.15-.233.202-.504.376-.725.14-.176.321-.32.53-.424.45-.227.974-.292 1.477-.349.26-.03.525-.046.781-.097a.93.93 0 0 0 .391-.156c.127-.1.205-.243.292-.37a2.152 2.152 0 0 1 1.308-.867c.273-.06.548-.066.824-.032.238.03.137.358-.099.328zM47.554 74.86c2.892-2.33 5.482-5.14 6.777-8.49a12.043 12.043 0 0 0 .268-7.912c-.782-2.551-2.337-4.879-4.309-6.82a22.27 22.27 0 0 0-7.24-4.74c-3.414-1.381-7.176-1.652-10.863-1.677-.464-.003-.93-.003-1.395 0-.18 0-.19-.26-.008-.261 3.741-.017 7.569.086 11.132 1.25 2.937.96 5.643 2.584 7.862 4.58 2.106 1.891 3.819 4.18 4.792 6.728.973 2.55 1.136 5.316.364 7.93-.991 3.371-3.36 6.284-6.093 8.679-.353.309-.711.609-1.076.903-.133.106-.346-.06-.211-.17z" fill="#CEBD9B"/><path d="M34.395 44.321c.454.654 1.344.87 1.344.87s.147-.839-.308-1.492c-.456-.652-1.342-.87-1.344-.87.002 0-.149.84.308 1.492zM37.401 44.558c.542.773 1.554 1.054 1.554 1.054-.002 0 .133-.968-.408-1.74-.54-.773-1.55-1.058-1.55-1.058s-.138.971.404 1.744zM40.856 45.312c.468.81 1.45 1.169 1.45 1.169s.222-.952-.247-1.76c-.467-.809-1.448-1.171-1.448-1.171s-.225.953.245 1.762zM44.047 46.106c.156.905.955 1.54.955 1.54s.548-.831.394-1.735c-.153-.903-.951-1.54-.951-1.54s-.551.83-.398 1.735zM47.563 48.013c-.022.913.644 1.665.644 1.665s.699-.726.72-1.636c.024-.913-.639-1.665-.639-1.667 0 0-.701.725-.725 1.638zM39.11 46.25c-.914.363-1.384 1.239-1.384 1.239s1.01.282 1.924-.082c.915-.365 1.385-1.238 1.385-1.238s-1.01-.283-1.925.08zM41.941 47.467c-.847.482-1.175 1.41-1.173 1.41 0 0 1.044.142 1.89-.34.846-.484 1.175-1.409 1.175-1.407 0 0-1.046-.144-1.892.337zM45.125 48.693c-.96.246-1.552 1.05-1.552 1.05s.96.404 1.918.158c.96-.246 1.554-1.047 1.554-1.047s-.96-.405-1.92-.16zM47.543 50.245c-.987.121-1.696.84-1.696.84s.889.523 1.876.4c.986-.12 1.697-.838 1.697-.838s-.891-.52-1.877-.402zM49.77 52.145c-.993-.049-1.837.535-1.837.535s.77.665 1.763.713c.995.048 1.836-.536 1.836-.536s-.768-.66-1.762-.712zM52.002 54.418c-.914-.36-1.926-.078-1.926-.078s.472.865 1.388 1.223c.916.358 1.925.074 1.925.076 0 0-.472-.863-1.387-1.221zM53.438 57.094c-.882-.42-1.912-.209-1.914-.209 0 0 .4.894 1.284 1.313.885.42 1.914.206 1.914.206s-.4-.891-1.284-1.31zM54.368 59.726c-.708-.639-1.762-.715-1.762-.715s.093.961.803 1.599c.71.638 1.761.712 1.761.712s-.094-.959-.802-1.596zM54.725 62.805c-.497-.787-1.49-1.115-1.49-1.115s-.19.947.307 1.734c.497.788 1.49 1.113 1.49 1.113s.188-.947-.307-1.732zM53.873 66.097c-.266-.876-1.136-1.42-1.136-1.42s-.444.874-.179 1.75c.266.876 1.14 1.42 1.14 1.42s.44-.876.175-1.75zM50.487 49.848c-.336.858.036 1.763.036 1.763 0-.001.913-.486 1.248-1.342.335-.856-.032-1.76-.032-1.76s-.916.481-1.252 1.339zM52.654 52.522c-.333.856.04 1.758.04 1.758s.913-.486 1.247-1.342c.332-.855-.04-1.755-.04-1.755s-.915.483-1.247 1.339zM54.64 55.075c-.596.726-.531 1.689-.531 1.689s1.027-.219 1.623-.945c.596-.726.534-1.686.534-1.684 0 0-1.029.214-1.627.94zM55.732 58.07c-.669.67-.701 1.635-.701 1.633 0 0 1.046-.13 1.713-.8.666-.672.703-1.632.703-1.632s-1.047.127-1.715.798zM56.207 60.997c-.742.604-.886 1.557-.886 1.557s1.056-.028 1.797-.632c.74-.605.887-1.555.888-1.555 0 0-1.057.026-1.799.63zM55.822 64.59c-.802.348-1.158 1.194-1.158 1.194s.946.276 1.748-.075c.803-.35 1.16-1.191 1.16-1.191s-.947-.278-1.75.072zM54.089 68.555c-.839.272-1.29 1.079-1.29 1.079s.908.366 1.746.094 1.29-1.077 1.29-1.077-.908-.366-1.746-.096zM51.875 71.644c-.785.063-1.36.739-1.36.739s.699.568 1.486.502c.784-.067 1.36-.74 1.36-.74s-.7-.567-1.486-.501zM48.122 72.62c-.073.721.548 1.363.548 1.363 0-.002.737-.528.81-1.246.073-.72-.546-1.36-.546-1.36s-.739.525-.812 1.244zM52.175 69.393c-.112-.807-.879-1.382-.879-1.382s-.587.732-.473 1.54c.112.807.88 1.381.882 1.381 0 0 .583-.733.47-1.54zM35.748 45.672c-.563.39-.652 1.166-.652 1.166s.828.14 1.393-.25c.563-.39.651-1.164.651-1.164s-.827-.143-1.392.248zM31.283 45.766c1.029.028 1.885-.651 1.885-.651s-.808-.728-1.837-.759c-1.028-.03-1.886.652-1.886.652s.81.728 1.838.758zM31.376 42.701c-.586-.204-1.199-.403-1.832-.432a2.356 2.356 0 0 0-.875.11c-.305.107-.513.328-.79.47-.514.264-1.078.078-1.587-.09-.253-.082-.515-.172-.787-.184-.313-.015-.572.107-.832.253-.276.155-.546.313-.863.388-.316.076-.65.082-.976.05-.674-.071-1.305-.297-1.97-.41-.597-.098-1.274-.104-1.765.27-.243.184-.445.414-.726.556a1.88 1.88 0 0 1-.894.182c-.737-.02-1.419-.33-2.15-.389a3.74 3.74 0 0 0-2.167.482c-.205.117-.392-.176-.189-.293a4.12 4.12 0 0 1 1.936-.54c.681-.018 1.31.185 1.965.32.304.064.63.114.943.062.339-.057.575-.24.815-.45.233-.205.477-.377.784-.48.286-.096.6-.124.9-.114.663.02 1.283.22 1.919.36.346.074.698.133 1.055.12.351-.01.662-.11.961-.275.265-.146.525-.317.83-.391a1.85 1.85 0 0 1 .839.018c.276.063.54.168.81.247.248.074.523.143.782.081.337-.081.571-.37.883-.503.308-.131.643-.19.981-.193.725-.004 1.431.214 2.099.448.222.078.126.406-.1.327zM27.442 46.766c-.23-.337-.655-.537-1.088-.556a1.446 1.446 0 0 0-.628.105c-.238.103-.412.283-.62.424-.796.54-1.715-.022-2.517-.235-.42-.11-.823-.109-1.16.173-.36.303-.622.713-1.128.833-.467.112-.93-.059-1.35-.231-.42-.173-.882-.41-1.36-.355-.975.111-1.627 1.185-2.693.915-.232-.06-.134-.388.1-.329.426.109.817-.108 1.163-.313.387-.225.77-.49 1.228-.583.494-.102.966.049 1.413.23.401.163.864.42 1.323.353.499-.072.747-.541 1.106-.812.37-.28.808-.34 1.272-.25.446.085.857.283 1.292.405.195.055.397.099.605.09.24-.012.433-.115.613-.256.222-.175.433-.334.713-.423.237-.075.498-.097.746-.072.526.055 1.01.303 1.293.715.128.186-.195.358-.323.172zM47.017 58.93c-.896-.19-2.007-.374-2.664.363-.3.335-.509.718-.91.967-.29.182-.633.27-.98.299-.767.068-1.54-.137-2.288-.26-.69-.114-1.48-.208-2.106.146-.396.222-.638.6-.902.936-.256.327-.545.629-.942.819-.727.347-1.574.279-2.358.175-.818-.109-1.662-.3-2.494-.2-.44.055-.822.215-1.177.456-.407.274-.784.59-1.287.708-1.043.247-2.052-.305-3.045-.496-.928-.18-1.93.043-2.657.596-.18.137-.34.289-.483.458-.062.072-.199.058-.264 0-.08-.072-.062-.169 0-.24.59-.693 1.5-1.123 2.456-1.205 1.081-.093 2.016.42 3.054.577a2.046 2.046 0 0 0 1.442-.282c.405-.252.755-.566 1.216-.739.791-.299 1.674-.199 2.497-.082.798.113 1.66.306 2.465.129.4-.088.74-.28 1.012-.562.318-.33.54-.727.875-1.044 1.197-1.127 3.015-.313 4.453-.226.351.022.713.007 1.04-.114.402-.15.645-.454.885-.768.283-.372.605-.68 1.091-.822.47-.138.977-.111 1.458-.045.239.032.476.079.712.128.233.05.134.378-.1.327zM48.464 63.55a2.631 2.631 0 0 0-2.403 0c-.398.21-.666.55-1.03.794-.313.21-.693.306-1.08.308-.79.002-1.529-.312-2.3-.42-.362-.048-.748-.046-1.09.091-.346.14-.616.39-.863.646-.498.512-.964 1.076-1.732 1.25-.718.162-1.471.005-2.178-.138-.653-.132-1.389-.323-2.048-.121-.376.113-.623.37-.851.654-.264.328-.54.617-.96.78-.813.311-1.707.128-2.552.107-.63-.016-1.502.118-1.87.644a.789.789 0 0 0-.147.39c-.017.216-.39.218-.372 0 .059-.704.723-1.113 1.423-1.277.832-.194 1.664-.004 2.505-.026.425-.013.872-.087 1.214-.336.36-.262.546-.671.896-.945.568-.445 1.303-.458 2.008-.356.747.108 1.48.342 2.24.352.36.004.719-.05 1.034-.214.337-.176.599-.447.85-.713.253-.268.502-.545.812-.763.32-.226.686-.357 1.09-.386.813-.06 1.59.265 2.374.396.358.059.74.076 1.085-.048.435-.157.707-.532 1.067-.785.689-.487 1.642-.638 2.476-.412.206.055.405.135.59.234.207.111.02.405-.188.293zM47.49 69.247c-1.176-.4-2.823-.898-3.87.016-.254.222-.466.483-.75.675a1.792 1.792 0 0 1-.786.288c-.56.07-1.122-.075-1.655-.219-.532-.144-1.083-.323-1.648-.302-.597.023-1.004.361-1.352.773-.365.434-.712.906-1.3 1.102-.682.227-1.415-.016-2.08-.172-.38-.09-.773-.16-1.168-.11a2.61 2.61 0 0 0-.995.361c-.65.384-1.154.953-1.619 1.51-.142.17-.467.003-.32-.172.795-.951 1.828-2.088 3.279-2.054.746.017 1.43.347 2.173.385.344.018.675-.05.954-.241.24-.162.424-.383.601-.596.365-.44.737-.89 1.343-1.055.552-.15 1.144-.04 1.684.097.552.14 1.11.342 1.689.37.257.012.521-.013.757-.116.318-.138.537-.39.773-.62a2.54 2.54 0 0 1 .934-.597 3.082 3.082 0 0 1 1.1-.156c.811.017 1.601.25 2.356.506.222.076.125.403-.1.327zM63.547 66.37a1.852 1.852 0 0 0-1.237.221c-.364.213-.558.567-.856.842-.334.306-.772.412-1.237.383-.432-.026-.853-.15-1.286-.133-.354.012-.793.118-.905.463-.068.21-.428.122-.36-.09.112-.345.43-.558.801-.651.425-.106.846-.05 1.273.015.5.075 1.04.138 1.433-.213.333-.298.544-.673.95-.909.45-.264 1-.347 1.524-.256.236.042.135.369-.1.328zM65.744 70.746c-.641.236-1.324.038-1.985.078-.351.02-.623.148-.89.346-.268.198-.527.381-.861.478-.677.196-1.413.047-2.088-.073-.35-.062-.714-.145-1.073-.12-.288.021-.533.153-.76.309-.456.317-.911.785-1.545.719-.235-.025-.239-.365 0-.34.522.055.913-.358 1.287-.623.22-.155.453-.297.725-.362.354-.085.722-.034 1.074.022.67.107 1.382.31 2.065.19.35-.063.619-.222.89-.425.27-.199.542-.37.888-.429.718-.122 1.48.157 2.172-.097.223-.082.32.245.1.327zM44.56 73.746c-.765-.079-1.556-.15-2.322-.046a3.572 3.572 0 0 0-1.06.293c-.33.154-.578.374-.84.603-.28.244-.6.45-1.003.447-.455-.003-.861-.227-1.276-.365-.408-.135-.864-.242-1.294-.13-.36.095-.632.336-.873.585-.55.576-1.148 1.36-2.114 1.199-.236-.04-.136-.367.1-.327.804.134 1.347-.704 1.797-1.16.248-.253.534-.476.886-.593.41-.138.863-.098 1.276.005.42.105.798.308 1.217.408.191.047.391.058.58-.014.182-.07.331-.2.473-.325.26-.23.518-.449.84-.606.327-.161.685-.267 1.052-.326.846-.141 1.712-.075 2.56.013.237.023.24.363 0 .34zM45.94 54.8c-.213-.124-.502-.292-.77-.238-.135.028-.213.128-.292.225a1.34 1.34 0 0 1-.267.26c-.422.297-1.001.296-1.507.24-.545-.056-1.178-.166-1.633.191-.335.265-.6.682-1.063.775-.326.065-.598-.083-.911-.13a1.569 1.569 0 0 0-.974.181c-.206.113-.395-.18-.189-.293a1.968 1.968 0 0 1 1.313-.206c.154.028.298.092.452.117.492.085.804-.448 1.124-.695.48-.372 1.081-.365 1.676-.302.5.055 1.173.156 1.566-.211.11-.104.183-.236.303-.331a.776.776 0 0 1 .417-.165c.339-.03.668.13.944.289.202.117.014.41-.19.293zM43.397 51.542c-.413-.117-.934-.241-1.187.172-.185.297-.317.695-.767.71-.458.014-.731-.41-1.169-.466-.399-.051-.818.125-1.015.445-.118.19-.44.019-.323-.172.35-.564 1.2-.79 1.826-.476.242.12.627.514.877.214.206-.247.253-.558.554-.744.383-.236.897-.126 1.303-.01.229.065.13.393-.099.327zM23.238 54.995c-.16-.294-.592-.038-.748.117-.288.279-.506.57-.924.697-.37.112-.784.077-1.124-.094-.08-.04-.174-.119-.27-.095-.1.025-.205.12-.287.174l-.633.416c-.194.128-.382-.167-.188-.294l.706-.463c.205-.136.398-.233.65-.136.207.08.364.194.596.213.213.019.43-.02.615-.115.384-.2.55-.63.955-.803.329-.14.796-.117.976.21.107.197-.216.367-.324.172zM25.006 59.182c-.28-.146-.607.056-.822.215-.236.175-.471.371-.774.444-.28.068-.567.01-.838-.05-.228-.051-.542-.155-.74.012-.176.148-.442-.091-.265-.24.241-.204.54-.21.846-.154.302.055.634.187.943.094.33-.1.558-.38.853-.54.301-.163.666-.24.984-.075.21.109.022.402-.187.294z" fill="#CEBD9B"/><path d="M59.67 17.502c-.065-.43-.136-.857-.205-1.286-.067-.427-.137-.854-.206-1.281-.139.224-1.103 3.68-1.138 3.934.339.065 1.36.012 1.74-.093-.042-.424-.127-.849-.191-1.274zm-.769-2.65a1.807 1.807 0 0 0-.072-.015l-2.924 3.236c.067.038.114.073.17.095.256.104.516.2.771.306.187.075.368.161.553.24.115.05.226.108.374.137.125-.27.165-.544.248-.81.082-.26.145-.525.218-.788.076-.271.152-.542.23-.813.073-.262.154-.524.22-.788.067-.267.161-.53.212-.8zm-.304-.214c-.244.113-3.584 2.083-3.82 2.252.127.208.725.867.892.982.019-.006.046-.01.057-.02l2.86-3.163c.012-.012.008-.034.01-.051zm-4.37 7.475.037.008c.019-.033.047-.066.056-.1.358-1.198.715-2.395 1.07-3.593.086-.292.087-.294-.132-.544-.185-.212-.375-.42-.564-.629a2.687 2.687 0 0 1-.069.017c-.132 1.614-.264 3.227-.398 4.84zm.208.578c-.005.014.011.032.018.049.009.002.02.008.025.006.01-.002.02-.01.026-.016A3475.49 3475.49 0 0 0 57.59 19.2c.02-.021.028-.049.04-.073.003-.008.002-.017.004-.032-.021-.016-.04-.041-.066-.052-.573-.23-1.147-.457-1.722-.683-.026-.01-.062-.006-.102-.008-.02.033-.045.063-.055.096-.42 1.413-.838 2.828-1.255 4.242zm5.15-3.561c-.003-.007-.004-.019-.01-.023-.007-.005-.021-.008-.031-.008h-.066c-.352.016-.703.033-1.055.046-.132.005-.263.003-.41.005-.514.56-1.003 1.136-1.502 1.705-.49.561-.991 1.116-1.45 1.695.263-.137 4.34-3.238 4.524-3.42zm-3.246 2.836c-.676.515-1.355 1.029-2.032 1.542-.064.05-.128.101-.201.14-.126.067-.28.003-.288-.118-.004-.072.003-.144.008-.215.17-2.074.343-4.146.514-6.22.004-.055.012-.107.015-.16.002-.08.048-.138.12-.185.043-.028.086-.055.13-.081l4.392-2.592a1.06 1.06 0 0 1 .2-.094c.036-.013.085-.003.137-.004.03.04.072.074.085.114.024.069.033.141.045.212.117.741.234 1.482.353 2.222.12.759.234 1.52.371 2.275.029.158-.005.261-.152.35-.027.017-.05.037-.073.055l-3.624 2.76z" fill="#FFEBAF"/><g filter="url(#j)"><path d="M59.67 17.502c-.065-.43-.136-.857-.205-1.286-.067-.427-.137-.854-.206-1.281-.139.224-1.103 3.68-1.138 3.934.339.065 1.36.012 1.74-.093-.042-.424-.127-.849-.191-1.274zm-.769-2.65a1.807 1.807 0 0 0-.072-.015l-2.924 3.236c.067.038.114.073.17.095.256.104.516.2.771.306.187.075.368.161.553.24.115.05.226.108.374.137.125-.27.165-.544.248-.81.082-.26.145-.525.218-.788.076-.271.152-.542.23-.813.073-.262.154-.524.22-.788.067-.267.161-.53.212-.8zm-.304-.214c-.244.113-3.584 2.083-3.82 2.252.127.208.725.867.892.982.019-.006.046-.01.057-.02l2.86-3.163c.012-.012.008-.034.01-.051zm-4.37 7.475.037.008c.019-.033.047-.066.056-.1.358-1.198.715-2.395 1.07-3.593.086-.292.087-.294-.132-.544-.185-.212-.375-.42-.564-.629a2.687 2.687 0 0 1-.069.017c-.132 1.614-.264 3.227-.398 4.84zm.208.578c-.005.014.011.032.018.049.009.002.02.008.025.006.01-.002.02-.01.026-.016A3475.49 3475.49 0 0 0 57.59 19.2c.02-.021.028-.049.04-.073.003-.008.002-.017.004-.032-.021-.016-.04-.041-.066-.052-.573-.23-1.147-.457-1.722-.683-.026-.01-.062-.006-.102-.008-.02.033-.045.063-.055.096-.42 1.413-.838 2.828-1.255 4.242zm5.15-3.561c-.003-.007-.004-.019-.01-.023-.007-.005-.021-.008-.031-.008h-.066c-.352.016-.703.033-1.055.046-.132.005-.263.003-.41.005-.514.56-1.003 1.136-1.502 1.705-.49.561-.991 1.116-1.45 1.695.263-.137 4.34-3.238 4.524-3.42zm-3.246 2.836c-.676.515-1.355 1.029-2.032 1.542-.064.05-.128.101-.201.14-.126.067-.28.003-.288-.118-.004-.072.003-.144.008-.215.17-2.074.343-4.146.514-6.22.004-.055.012-.107.015-.16.002-.08.048-.138.12-.185.043-.028.086-.055.13-.081l4.392-2.592a1.06 1.06 0 0 1 .2-.094c.036-.013.085-.003.137-.004.03.04.072.074.085.114.024.069.033.141.045.212.117.741.234 1.482.353 2.222.12.759.234 1.52.371 2.275.029.158-.005.261-.152.35-.027.017-.05.037-.073.055l-3.624 2.76z" fill="#FFEBAF"/></g><path d="M38.129 7.83c.316.443.638.882.956 1.323.163.226.32.452.48.677.038.052.08.104.121.155.03-.016.06-.023.065-.036.306-.786.609-1.573.915-2.367-.847-1.019-1.67-2.04-2.521-3.044-.008-.01-.037-.01-.073-.02-.026.379-.051.755-.078 1.131-.03.44-.055.88-.098 1.318-.044.46-.055.461.233.863zm-.373-3.323c-.046-.032-.08-.004-.11.018-.708.515-1.414 1.032-2.123 1.545a.462.462 0 0 0-.187.246c-.217.706-.442 1.411-.663 2.116-.008.026-.01.052-.021.107l1.825.464c.035-.045.072-.089.104-.133.142-.192.285-.385.424-.578.158-.218.31-.436.464-.654a.695.695 0 0 0 .124-.387c.027-.521.057-1.042.091-1.564.026-.385.056-.77.085-1.157 0-.008-.01-.016-.013-.023zm-2.824 4.452c.83.804 1.661 1.609 2.494 2.412.04.04.089.073.156.126-.006-.05-.002-.078-.011-.1-.128-.326-.835-1.659-1.137-2.144l-1.512-.394c-.062.051-.014.076.01.1zm3.065 2.682c.042.099.06.21.17.288.03-.02.059-.036.078-.056l1.244-1.428c.024-.03.036-.066.05-.093-.12-.267-1.48-2.187-1.79-2.532-.035.012-.049.014-.053.02l-.807 1.082c-.017.023-.03.048-.046.071-.088.118-.088.237-.019.36.074.13.14.265.216.394.362.617.682 1.248.957 1.894zm.08-7.606c.066.058.126.122.182.19.862 1.043 1.722 2.089 2.584 3.132l.075.09a.181.181 0 0 1 .033.205l-.049.128c-.29.764-.586 1.528-.87 2.293-.087.238-.225.45-.405.644-.401.43-.79.864-1.152 1.316a1.492 1.492 0 0 1-.138.152c-.143.132-.304.134-.452.008-.039-.032-.073-.068-.108-.102l-3.284-3.175c-.049-.048-.101-.096-.143-.148-.028-.036-.04-.081-.056-.116l.03-.115c.242-.766.485-1.532.723-2.299a.633.633 0 0 1 .252-.337c.826-.595 1.646-1.195 2.468-1.794.04-.03.083-.058.128-.085.058-.032.135-.03.181.013z" fill="#FFEBAF"/><g filter="url(#k)"><path d="M38.129 7.83c.316.443.638.882.956 1.323.163.226.32.452.48.677.038.052.08.104.121.155.03-.016.06-.023.065-.036.306-.786.609-1.573.915-2.367-.847-1.019-1.67-2.04-2.521-3.044-.008-.01-.037-.01-.073-.02-.026.379-.051.755-.078 1.131-.03.44-.055.88-.098 1.318-.044.46-.055.461.233.863zm-.373-3.323c-.046-.032-.08-.004-.11.018-.708.515-1.414 1.032-2.123 1.545a.462.462 0 0 0-.187.246c-.217.706-.442 1.411-.663 2.116-.008.026-.01.052-.021.107l1.825.464c.035-.045.072-.089.104-.133.142-.192.285-.385.424-.578.158-.218.31-.436.464-.654a.695.695 0 0 0 .124-.387c.027-.521.057-1.042.091-1.564.026-.385.056-.77.085-1.157 0-.008-.01-.016-.013-.023zm-2.824 4.452c.83.804 1.661 1.609 2.494 2.412.04.04.089.073.156.126-.006-.05-.002-.078-.011-.1-.128-.326-.835-1.659-1.137-2.144l-1.512-.394c-.062.051-.014.076.01.1zm3.065 2.682c.042.099.06.21.17.288.03-.02.059-.036.078-.056l1.244-1.428c.024-.03.036-.066.05-.093-.12-.267-1.48-2.187-1.79-2.532-.035.012-.049.014-.053.02l-.807 1.082c-.017.023-.03.048-.046.071-.088.118-.088.237-.019.36.074.13.14.265.216.394.362.617.682 1.248.957 1.894zm.08-7.606c.066.058.126.122.182.19.862 1.043 1.722 2.089 2.584 3.132l.075.09a.181.181 0 0 1 .033.205l-.049.128c-.29.764-.586 1.528-.87 2.293-.087.238-.225.45-.405.644-.401.43-.79.864-1.152 1.316a1.492 1.492 0 0 1-.138.152c-.143.132-.304.134-.452.008-.039-.032-.073-.068-.108-.102l-3.284-3.175c-.049-.048-.101-.096-.143-.148-.028-.036-.04-.081-.056-.116l.03-.115c.242-.766.485-1.532.723-2.299a.633.633 0 0 1 .252-.337c.826-.595 1.646-1.195 2.468-1.794.04-.03.083-.058.128-.085.058-.032.135-.03.181.013z" fill="#FFEBAF"/></g><path d="M32.156 33.317c.164-.008.33-.026.49-.058a6.222 6.222 0 0 0 1.38-.436 8.976 8.976 0 0 0 1.058-.55c.025-.017.045-.037.08-.066-.031-.036-.056-.075-.093-.104-.31-.242-.63-.477-.933-.725a.47.47 0 0 0-.381-.115c-.044.004-.088.002-.133.004a6.612 6.612 0 0 1-2.268-.293c-.101-.032-.205-.058-.326-.093-.286.255-.495.517-.63.817-.12.263-.119.528-.021.795.027.076.054.156.158.22.199-.04.414-.059.612.054.191.11.246.269.247.444.256.092.507.117.76.106zm1.4-4.683c.51-.388.98-.802 1.353-1.285.147-.191.281-.388.36-.606a.862.862 0 0 0 .052-.452.413.413 0 0 0-.157-.284c-.42.199-.883.174-1.123-.38-.075-.004-.16-.015-.245-.013-.575.008-1.136.098-1.692.211-.18.038-.366.06-.542.158.112.338.354.633.487.964.134.332.304.654.453.967.043.015.068.033.08.028.18-.06.29-.002.378.126.145.212.3.418.463.64.05-.028.096-.047.133-.074zm1.433-3.095c-.077-.123-.257-.18-.416-.131-.155.048-.228.184-.163.303.07.132.28.2.44.143.14-.05.208-.204.139-.315zm-3 1.97c-.16-.384-.367-.752-.562-1.124-.1-.19-.21-.377-.318-.564-.018-.032-.046-.06-.066-.086-.03 0-.055-.007-.07 0-.227.102-.278.091-.375-.087a1.077 1.077 0 0 1-.036-.076c-.156-.345-.31-.692-.466-1.038-.13-.29-.207-.4-.413-.586-.038.03-.073.064-.115.09-.115.07-.235.05-.307-.05a.47.47 0 0 1-.051-.1 7.942 7.942 0 0 0-.608-1.137c-.357-.552-.774-1.069-1.35-1.489a3.561 3.561 0 0 0-.412-.27 2.26 2.26 0 0 0-.44-.182 1.507 1.507 0 0 0-.419-.051c-.402.004-.663.19-.728.515a.971.971 0 0 0-.009.321c.022.143.056.285.106.423.183.514.467.989.833 1.432.067.082.13.167.18.257.055.102-.056.205-.19.183a.809.809 0 0 1-.155-.045 3.027 3.027 0 0 1-.623-.305c-.056-.04-.117-.077-.168-.11-.079.014-.07.053-.066.087.024.28.104.55.194.82.027.08.079.147.154.203.599.44 1.194.882 1.91 1.194.273.118.543.24.813.362.058.026.116.053.169.084.047.029.07.069.051.119-.02.05-.093.089-.155.077a.683.683 0 0 1-.154-.042c-.801-.345-1.599-.693-2.265-1.203-.055-.043-.118-.08-.208-.14.005.072-.005.117.013.153.115.243.236.485.36.726.08.164.228.288.414.374.288.133.575.267.876.377a18.3 18.3 0 0 0 2.594.72c.042.01.085.011.145.018-.005-.033 0-.06-.013-.076a26.786 26.786 0 0 1-1.162-1.538 22.374 22.374 0 0 1-.96-1.508c-.122-.211-.225-.43-.332-.648a.208.208 0 0 1-.024-.13c.006-.029.044-.066.08-.076.034-.012.098-.006.12.015.054.054.099.117.135.18.165.296.319.595.488.888.28.49.608.958.94 1.424.433.608.902 1.196 1.395 1.77.143.17.295.334.477.54.001-.107.01-.167 0-.225-.042-.25-.09-.498-.136-.747-.006-.036-.018-.072-.016-.107.002-.048.034-.084.092-.1.059-.018.147.005.172.05.016.032.029.067.037.102.089.426.19.851.18 1.286a.26.26 0 0 0 .08.198c.235.238.467.478.701.716.02.02.05.035.07.048.074.022.107-.02.147-.048.208-.147.414-.296.639-.456-.082-.244-.268-.414-.396-.605-.028-.007-.05-.017-.07-.014-.237.038-.283.032-.374-.12-.13-.218-.26-.44-.354-.668zm1.587 3.402c-.244-.22-.49-.437-.73-.66a.513.513 0 0 0-.36-.164.79.79 0 0 1-.194-.027.357.357 0 0 0-.332.067c-.22.174-.46.33-.689.552a6.02 6.02 0 0 0 2.345.336c.03-.058-.012-.078-.04-.104zm-.23-1.722c-.195.068-.417.217-.691.457.132.206.918.935 1.24 1.146 0-.238-.08-.454-.15-.667-.106-.32-.203-.643-.4-.936zm-6.556-2.385c.383.348.784.683 1.213.993.067.047.136.092.194.146.129.12.073.248-.119.273-.106.014-.213.024-.315.035-.014.107.052.172.109.236a7.786 7.786 0 0 0 2.793 1.982c.088.036.18.063.286.1l.797-.625c-.11-.033-.191-.059-.273-.082-.483-.13-.95-.29-1.408-.468a.732.732 0 0 1-.166-.086c-.045-.033-.047-.08-.02-.123a.123.123 0 0 1 .137-.056c.094.023.187.052.276.086.481.182.97.344 1.48.468.072.019.148.044.222.043.044.001.1-.032.13-.064.02-.02.01-.07-.007-.098-.024-.04-.065-.072-.1-.107a29.485 29.485 0 0 1-1.47-1.594c-.05-.06-.108-.114-.168-.176-1.284-.246-2.51-.565-3.735-1.058.075.09.103.137.144.175zm3.782 6.446c.068.11.231.15.366.091.138-.059.183-.18.11-.297-.067-.107-.242-.153-.363-.097-.128.06-.18.2-.113.303zm-6.797-6.79c-.06-.13-.277-.203-.436-.146-.147.054-.227.215-.17.34.06.13.277.204.436.145.146-.055.226-.214.17-.338zm7.59 7.02a.555.555 0 0 0-.157.02c-.051.014-.095.044-.144.065-.357.158-.859-.065-.818-.47.007-.063.029-.123.041-.177-.005-.017-.007-.027-.012-.034-.018-.033-.036-.066-.056-.098-.304-.469-.277-.936.02-1.397.111-.174.256-.335.385-.502.027-.036.05-.073.08-.116a15.687 15.687 0 0 0-.128-.063c-.311-.153-.633-.294-.932-.46-.438-.244-.856-.509-1.206-.836-.196-.183-.398-.361-.585-.55-.139-.14-.26-.29-.382-.44a.58.58 0 0 1-.095-.172c-.053-.134.016-.221.193-.254.058-.01.134.017.158-.058-.258-.21-.52-.416-.77-.63-.25-.214-.489-.436-.745-.665-.72.112-1.442.241-2.172.175-.072.054-.126.099-.187.137-.323.208-.77.12-.936-.189-.048-.089-.067-.188-.09-.257-.146-.127-.278-.236-.4-.352-.25-.24-.287-.517-.195-.812.087-.27.268-.493.512-.683.33-.257.713-.45 1.134-.593.05-.017.108-.037.158-.03.046.005.097.04.121.073.014.02-.006.075-.033.095a.662.662 0 0 1-.17.08 4.598 4.598 0 0 0-.863.447 1.58 1.58 0 0 0-.447.428.824.824 0 0 0-.153.383.52.52 0 0 0 .124.41c.091.11.176.231.354.265.07-.037.132-.076.2-.104.338-.146.698-.05.86.231.041.072.072.147.105.214.554.06 1.58-.04 1.874-.177-.056-.097-.11-.195-.167-.292-.36-.6-.6-1.237-.834-1.875a2.504 2.504 0 0 1-.149-.745 1.154 1.154 0 0 1 .016-.295c.023-.122.18-.175.303-.11.054.03.102.067.152.101.102.07.201.142.305.209.025.016.066.019.133.037l-.14-.247c-.098-.162-.202-.32-.293-.485a3.52 3.52 0 0 1-.365-.922c-.05-.214-.061-.43.017-.642.123-.33.386-.535.813-.595.245-.033.487-.02.714.056.182.061.36.137.524.226.295.16.555.355.783.576.626.602 1.132 1.262 1.462 2.008.043.097.081.199.176.283.039-.025.062-.043.088-.058.12-.072.205-.072.283.01.067.07.13.145.184.223.229.35.427.711.592 1.085.037.084.07.17.114.253.042.08.051.175.134.236.302-.036.317-.03.455.171.03.046.07.087.105.133.09-.019.164-.033.237-.05.776-.183 1.56-.316 2.372-.308a.35.35 0 0 0 .23-.085.697.697 0 0 1 .673-.103c.237.079.366.232.39.433.013.105.047.19.12.274a.8.8 0 0 1 .184.694 1.564 1.564 0 0 1-.222.563c-.17.274-.375.53-.609.77-.321.332-.68.637-1.056.928-.054.042-.102.091-.16.144.377.693.603 1.412.703 2.152.434.383.93.752 1.189.88.066-.032.144-.064.213-.106.186-.113.368-.229.552-.343a7 7 0 0 1 1.593-.76c.133-.042.271-.075.41-.1.547-.091 1.072.016 1.595.129.04.009.076.034.11.057.046.03.062.107.035.149-.026.044-.111.077-.17.053-.235-.088-.49-.106-.737-.145-.593-.096-1.135.028-1.648.267-.557.259-1.062.578-1.571.893-.042.026-.073.062-.12.106.064.051.114.098.17.136.368.243.75.472 1.152.678.075.038.147.078.218.123.053.034.056.095.018.146a.126.126 0 0 1-.14.047 1.378 1.378 0 0 1-.237-.095 12.237 12.237 0 0 1-1.204-.712c-.083-.056-.172-.106-.267-.163-.153.087-.296.17-.44.25a8.093 8.093 0 0 1-2.1.835c-.464.11-.93.14-1.403.043-.042-.009-.085-.023-.129-.024z" fill="#CEBD9B"/><g filter="url(#l)"><path d="M32.156 33.317c.164-.008.33-.026.49-.058a6.222 6.222 0 0 0 1.38-.436 8.976 8.976 0 0 0 1.058-.55c.025-.017.045-.037.08-.066-.031-.036-.056-.075-.093-.104-.31-.242-.63-.477-.933-.725a.47.47 0 0 0-.381-.115c-.044.004-.088.002-.133.004a6.612 6.612 0 0 1-2.268-.293c-.101-.032-.205-.058-.326-.093-.286.255-.495.517-.63.817-.12.263-.119.528-.021.795.027.076.054.156.158.22.199-.04.414-.059.612.054.191.11.246.269.247.444.256.092.507.117.76.106zm1.4-4.683c.51-.388.98-.802 1.353-1.285.147-.191.281-.388.36-.606a.862.862 0 0 0 .052-.452.413.413 0 0 0-.157-.284c-.42.199-.883.174-1.123-.38-.075-.004-.16-.015-.245-.013-.575.008-1.136.098-1.692.211-.18.038-.366.06-.542.158.112.338.354.633.487.964.134.332.304.654.453.967.043.015.068.033.08.028.18-.06.29-.002.378.126.145.212.3.418.463.64.05-.028.096-.047.133-.074zm1.433-3.095c-.077-.123-.257-.18-.416-.131-.155.048-.228.184-.163.303.07.132.28.2.44.143.14-.05.208-.204.139-.315zm-3 1.97c-.16-.384-.367-.752-.562-1.124-.1-.19-.21-.377-.318-.564-.018-.032-.046-.06-.066-.086-.03 0-.055-.007-.07 0-.227.102-.278.091-.375-.087a1.077 1.077 0 0 1-.036-.076c-.156-.345-.31-.692-.466-1.038-.13-.29-.207-.4-.413-.586-.038.03-.073.064-.115.09-.115.07-.235.05-.307-.05a.47.47 0 0 1-.051-.1 7.942 7.942 0 0 0-.608-1.137c-.357-.552-.774-1.069-1.35-1.489a3.561 3.561 0 0 0-.412-.27 2.26 2.26 0 0 0-.44-.182 1.507 1.507 0 0 0-.419-.051c-.402.004-.663.19-.728.515a.971.971 0 0 0-.009.321c.022.143.056.285.106.423.183.514.467.989.833 1.432.067.082.13.167.18.257.055.102-.056.205-.19.183a.809.809 0 0 1-.155-.045 3.027 3.027 0 0 1-.623-.305c-.056-.04-.117-.077-.168-.11-.079.014-.07.053-.066.087.024.28.104.55.194.82.027.08.079.147.154.203.599.44 1.194.882 1.91 1.194.273.118.543.24.813.362.058.026.116.053.169.084.047.029.07.069.051.119-.02.05-.093.089-.155.077a.683.683 0 0 1-.154-.042c-.801-.345-1.599-.693-2.265-1.203-.055-.043-.118-.08-.208-.14.005.072-.005.117.013.153.115.243.236.485.36.726.08.164.228.288.414.374.288.133.575.267.876.377a18.3 18.3 0 0 0 2.594.72c.042.01.085.011.145.018-.005-.033 0-.06-.013-.076a26.786 26.786 0 0 1-1.162-1.538 22.374 22.374 0 0 1-.96-1.508c-.122-.211-.225-.43-.332-.648a.208.208 0 0 1-.024-.13c.006-.029.044-.066.08-.076.034-.012.098-.006.12.015.054.054.099.117.135.18.165.296.319.595.488.888.28.49.608.958.94 1.424.433.608.902 1.196 1.395 1.77.143.17.295.334.477.54.001-.107.01-.167 0-.225-.042-.25-.09-.498-.136-.747-.006-.036-.018-.072-.016-.107.002-.048.034-.084.092-.1.059-.018.147.005.172.05.016.032.029.067.037.102.089.426.19.851.18 1.286a.26.26 0 0 0 .08.198c.235.238.467.478.701.716.02.02.05.035.07.048.074.022.107-.02.147-.048.208-.147.414-.296.639-.456-.082-.244-.268-.414-.396-.605-.028-.007-.05-.017-.07-.014-.237.038-.283.032-.374-.12-.13-.218-.26-.44-.354-.668zm1.587 3.402c-.244-.22-.49-.437-.73-.66a.513.513 0 0 0-.36-.164.79.79 0 0 1-.194-.027.357.357 0 0 0-.332.067c-.22.174-.46.33-.689.552a6.02 6.02 0 0 0 2.345.336c.03-.058-.012-.078-.04-.104zm-.23-1.722c-.195.068-.417.217-.691.457.132.206.918.935 1.24 1.146 0-.238-.08-.454-.15-.667-.106-.32-.203-.643-.4-.936zm-6.556-2.385c.383.348.784.683 1.213.993.067.047.136.092.194.146.129.12.073.248-.119.273-.106.014-.213.024-.315.035-.014.107.052.172.109.236a7.786 7.786 0 0 0 2.793 1.982c.088.036.18.063.286.1l.797-.625c-.11-.033-.191-.059-.273-.082-.483-.13-.95-.29-1.408-.468a.732.732 0 0 1-.166-.086c-.045-.033-.047-.08-.02-.123a.123.123 0 0 1 .137-.056c.094.023.187.052.276.086.481.182.97.344 1.48.468.072.019.148.044.222.043.044.001.1-.032.13-.064.02-.02.01-.07-.007-.098-.024-.04-.065-.072-.1-.107a29.485 29.485 0 0 1-1.47-1.594c-.05-.06-.108-.114-.168-.176-1.284-.246-2.51-.565-3.735-1.058.075.09.103.137.144.175zm3.782 6.446c.068.11.231.15.366.091.138-.059.183-.18.11-.297-.067-.107-.242-.153-.363-.097-.128.06-.18.2-.113.303zm-6.797-6.79c-.06-.13-.277-.203-.436-.146-.147.054-.227.215-.17.34.06.13.277.204.436.145.146-.055.226-.214.17-.338zm7.59 7.02a.555.555 0 0 0-.157.02c-.051.014-.095.044-.144.065-.357.158-.859-.065-.818-.47.007-.063.029-.123.041-.177-.005-.017-.007-.027-.012-.034-.018-.033-.036-.066-.056-.098-.304-.469-.277-.936.02-1.397.111-.174.256-.335.385-.502.027-.036.05-.073.08-.116a15.687 15.687 0 0 0-.128-.063c-.311-.153-.633-.294-.932-.46-.438-.244-.856-.509-1.206-.836-.196-.183-.398-.361-.585-.55-.139-.14-.26-.29-.382-.44a.58.58 0 0 1-.095-.172c-.053-.134.016-.221.193-.254.058-.01.134.017.158-.058-.258-.21-.52-.416-.77-.63-.25-.214-.489-.436-.745-.665-.72.112-1.442.241-2.172.175-.072.054-.126.099-.187.137-.323.208-.77.12-.936-.189-.048-.089-.067-.188-.09-.257-.146-.127-.278-.236-.4-.352-.25-.24-.287-.517-.195-.812.087-.27.268-.493.512-.683.33-.257.713-.45 1.134-.593.05-.017.108-.037.158-.03.046.005.097.04.121.073.014.02-.006.075-.033.095a.662.662 0 0 1-.17.08 4.598 4.598 0 0 0-.863.447 1.58 1.58 0 0 0-.447.428.824.824 0 0 0-.153.383.52.52 0 0 0 .124.41c.091.11.176.231.354.265.07-.037.132-.076.2-.104.338-.146.698-.05.86.231.041.072.072.147.105.214.554.06 1.58-.04 1.874-.177-.056-.097-.11-.195-.167-.292-.36-.6-.6-1.237-.834-1.875a2.504 2.504 0 0 1-.149-.745 1.154 1.154 0 0 1 .016-.295c.023-.122.18-.175.303-.11.054.03.102.067.152.101.102.07.201.142.305.209.025.016.066.019.133.037l-.14-.247c-.098-.162-.202-.32-.293-.485a3.52 3.52 0 0 1-.365-.922c-.05-.214-.061-.43.017-.642.123-.33.386-.535.813-.595.245-.033.487-.02.714.056.182.061.36.137.524.226.295.16.555.355.783.576.626.602 1.132 1.262 1.462 2.008.043.097.081.199.176.283.039-.025.062-.043.088-.058.12-.072.205-.072.283.01.067.07.13.145.184.223.229.35.427.711.592 1.085.037.084.07.17.114.253.042.08.051.175.134.236.302-.036.317-.03.455.171.03.046.07.087.105.133.09-.019.164-.033.237-.05.776-.183 1.56-.316 2.372-.308a.35.35 0 0 0 .23-.085.697.697 0 0 1 .673-.103c.237.079.366.232.39.433.013.105.047.19.12.274a.8.8 0 0 1 .184.694 1.564 1.564 0 0 1-.222.563c-.17.274-.375.53-.609.77-.321.332-.68.637-1.056.928-.054.042-.102.091-.16.144.377.693.603 1.412.703 2.152.434.383.93.752 1.189.88.066-.032.144-.064.213-.106.186-.113.368-.229.552-.343a7 7 0 0 1 1.593-.76c.133-.042.271-.075.41-.1.547-.091 1.072.016 1.595.129.04.009.076.034.11.057.046.03.062.107.035.149-.026.044-.111.077-.17.053-.235-.088-.49-.106-.737-.145-.593-.096-1.135.028-1.648.267-.557.259-1.062.578-1.571.893-.042.026-.073.062-.12.106.064.051.114.098.17.136.368.243.75.472 1.152.678.075.038.147.078.218.123.053.034.056.095.018.146a.126.126 0 0 1-.14.047 1.378 1.378 0 0 1-.237-.095 12.237 12.237 0 0 1-1.204-.712c-.083-.056-.172-.106-.267-.163-.153.087-.296.17-.44.25a8.093 8.093 0 0 1-2.1.835c-.464.11-.93.14-1.403.043-.042-.009-.085-.023-.129-.024z" fill="#CEBD9B"/></g><defs><filter id="a" x="0" y="27.553" width="119.939" height="73.406" filterUnits="userSpaceOnUse" color-interpolation-filters="sRGB"><feFlood flood-opacity="0" result="BackgroundImageFix"/><feBlend in="SourceGraphic" in2="BackgroundImageFix" result="shape"/><feGaussianBlur stdDeviation="2" result="effect1_foregroundBlur_74_611"/></filter><filter id="j" x="49.817" y="9.976" width="14.381" height="17.699" filterUnits="userSpaceOnUse" color-interpolation-filters="sRGB"><feFlood flood-opacity="0" result="BackgroundImageFix"/><feBlend in="SourceGraphic" in2="BackgroundImageFix" result="shape"/><feGaussianBlur stdDeviation="2" result="effect1_foregroundBlur_74_611"/></filter><filter id="k" x="30.294" y="0" width="14.675" height="16.286" filterUnits="userSpaceOnUse" color-interpolation-filters="sRGB"><feFlood flood-opacity="0" result="BackgroundImageFix"/><feBlend in="SourceGraphic" in2="BackgroundImageFix" result="shape"/><feGaussianBlur stdDeviation="2" result="effect1_foregroundBlur_74_611"/></filter><filter id="l" x="18.186" y="16.506" width="25.799" height="21.11" filterUnits="userSpaceOnUse" color-interpolation-filters="sRGB"><feFlood flood-opacity="0" result="BackgroundImageFix"/><feBlend in="SourceGraphic" in2="BackgroundImageFix" result="shape"/><feGaussianBlur stdDeviation="2" result="effect1_foregroundBlur_74_611"/></filter></defs></svg>