<svg width="360" height="352" viewBox="0 0 360 352" fill="none" xmlns="http://www.w3.org/2000/svg">
<path d="M30.1885 166.307C32.5497 159.522 36.6079 153.452 41.9584 148.756C36.6079 144.06 32.5497 137.99 30.1885 131.205C27.8333 137.99 23.7752 144.06 18.4247 148.756C23.7752 153.452 27.8333 159.522 30.1885 166.307ZM15.4294 147.676C22.0722 142.238 26.9214 134.199 28.7392 125.625C28.7392 125.625 28.7452 125.62 28.7452 125.614C28.7693 125.5 28.8358 125.402 28.8901 125.293C28.9203 125.243 28.9324 125.178 28.9686 125.129C28.9928 125.096 29.0351 125.08 29.0653 125.047C29.1558 124.944 29.2464 124.845 29.3672 124.769C29.3914 124.758 29.4155 124.758 29.4397 124.747C29.5786 124.665 29.7356 124.6 29.9047 124.573C29.9047 124.573 29.9107 124.567 29.9167 124.567C30.0134 124.551 30.11 124.573 30.2066 124.573C30.2912 124.573 30.3817 124.551 30.4723 124.567C30.4723 124.567 30.4784 124.573 30.4844 124.573C30.6535 124.6 30.8105 124.665 30.9554 124.747C30.9736 124.758 30.9977 124.758 31.0158 124.769C31.1366 124.845 31.2272 124.944 31.3238 125.042C31.348 125.074 31.3902 125.096 31.4144 125.129C31.4506 125.178 31.4627 125.238 31.4929 125.287C31.5473 125.391 31.6137 125.5 31.6378 125.614C31.6378 125.62 31.6439 125.625 31.6439 125.625C33.4616 134.199 38.3108 142.238 44.9537 147.676C45.2979 147.965 45.4428 148.363 45.4126 148.756C45.4428 149.149 45.2979 149.547 44.9537 149.836C38.3108 155.274 33.4616 163.313 31.6439 171.887C31.6439 171.887 31.6378 171.892 31.6378 171.898C31.6258 171.947 31.5956 171.985 31.5774 172.034C31.5412 172.149 31.4989 172.258 31.4325 172.356C31.3963 172.4 31.348 172.432 31.3117 172.481C31.2332 172.558 31.1547 172.64 31.0641 172.7C31.0098 172.738 30.9434 172.76 30.889 172.792C30.7803 172.841 30.6776 172.885 30.5629 172.912C30.5327 172.918 30.5086 172.94 30.4723 172.945C30.3817 172.961 30.2851 172.967 30.1945 172.967C30.1885 172.967 30.1885 172.967 30.1885 172.967C30.0979 172.967 30.0073 172.961 29.9167 172.945C29.8805 172.94 29.8564 172.918 29.8201 172.912C29.7054 172.885 29.6027 172.841 29.5001 172.792C29.4397 172.76 29.3793 172.738 29.3249 172.7C29.2283 172.64 29.1498 172.558 29.0773 172.481C29.0351 172.432 28.9868 172.4 28.9566 172.356C28.8841 172.258 28.8418 172.149 28.8056 172.034C28.7875 171.985 28.7573 171.947 28.7452 171.898C28.7452 171.892 28.7392 171.887 28.7392 171.887C26.9214 163.313 22.0722 155.274 15.4294 149.836C15.0852 149.547 14.9463 149.149 14.9765 148.756C14.9463 148.363 15.0852 147.965 15.4294 147.676Z" fill="#CEBD9B"/>
<path d="M193.626 162.855L164.53 158.246L193.457 153.087L176.336 131.478L201.392 146.307L207.274 119.839L212.334 145.986L236.737 131.09L219.937 152.956L248.966 157.428L219.804 162.506L237.154 184.202L212.002 169.16L206.223 195.836L201.265 169.476L176.759 184.59L193.626 162.855Z" fill="#CEBD9B" fill-opacity="0.31"/>
<path d="M269.196 270.197C262.487 266.99 260.748 264.972 257.662 255.618C255.615 262.643 253.133 267.857 246.804 270.53C253.936 274.222 255.313 279.458 257.553 284.678C260.615 277.566 262.837 273.77 269.196 270.197Z" fill="#CEBD9B"/>
<path d="M332.346 303.064C327.424 300.947 326.144 299.611 323.891 293.432C322.388 298.073 320.564 301.52 315.92 303.282C321.15 305.72 322.164 309.183 323.807 312.63C326.053 307.929 327.678 305.425 332.346 303.064Z" fill="#CEBD9B"/>
<path d="M313.22 222.507C311.028 222.507 308.933 222.076 307.055 221.296C310.666 224.721 315.775 226.875 321.433 226.875C332.358 226.875 341.211 218.89 341.211 209.068C341.211 199.234 332.358 191.265 321.433 191.265C315.775 191.265 310.666 193.403 307.055 196.84C308.933 196.06 311.028 195.634 313.22 195.634C321.475 195.634 328.149 201.639 328.149 209.068C328.149 216.485 321.475 222.507 313.22 222.507Z" fill="#CEBD9B" fill-opacity="0.33"/>
<path d="M165.846 81.8616C161.166 74.8203 155.218 68.4663 148.297 63.1213C145.175 65.5757 141.896 67.8664 138.484 69.9935C144.396 75.3276 149.559 81.3271 153.817 87.812C157.054 86.1976 160.073 83.7542 165.846 81.8616Z" fill="#CEBD9B" fill-opacity="0.33"/>
<path d="M194.338 44.8828C188.408 42.3031 187.707 40.0887 185.666 31.7985C184.126 38.0161 182.26 42.6358 177.501 45.0028C182.864 48.2698 183.897 52.9058 185.581 57.5254C187.888 51.2314 189.555 48.0462 194.338 44.8828Z" fill="#CEBD9B"/>
<path d="M180.527 30.2877C175.841 28.6079 175.292 27.1625 173.679 21.7466C172.459 25.8099 170.986 28.826 167.224 30.3695C171.457 32.5021 172.278 35.5291 173.613 38.5452C175.431 34.4328 176.747 32.3548 180.527 30.2877Z" fill="#CEBD9B"/>
<path d="M266.582 93.048C268.49 93.048 270.609 92.2517 272.856 90.6864C276.528 88.1229 279.614 84.9541 281.89 82.4779C292.7 70.7462 300.925 57.4818 306.342 43.0394C307.513 39.9087 308.467 36.2981 306.626 33.2547C305.46 31.3294 302.827 30.1295 300.212 30.3531C298.183 30.5222 296.637 31.5694 296.058 33.1511C295.804 33.8547 296.227 34.6073 297.006 34.8364C297.785 35.0655 298.618 34.6837 298.872 33.9801C299.131 33.2711 299.892 33.0584 300.484 33.0093C301.716 32.9111 303.377 33.4511 304.029 34.5364C305.321 36.669 304.56 39.4724 303.54 42.1831C298.238 56.3092 290.188 69.2954 279.62 80.7708C277.433 83.1379 274.493 86.1649 271.044 88.5756C269.71 89.5083 267.197 90.9482 265.356 90.1191C262.988 89.0665 263.665 85.2923 264.957 82.3798C265.259 81.698 264.897 80.9181 264.136 80.6454C263.381 80.3672 262.517 80.6999 262.215 81.3871C259.812 86.7703 260.5 90.9318 264.039 92.5135C264.83 92.868 265.682 93.048 266.582 93.048Z" fill="#CEBD9B"/>
<path d="M282.954 74.5477C284.3 74.4496 285.671 75.2295 286.209 76.4076C286.456 76.9585 286.535 77.5748 286.547 78.1747C286.553 78.7583 286.504 79.3474 286.305 79.8982C285.744 81.4417 283.926 82.4835 282.223 82.2271C280.52 81.9762 279.125 80.4654 279.083 78.8347C279.065 78.0765 279.306 77.3293 279.687 76.6639C280.327 75.5404 281.619 74.6459 282.954 74.5477Z" fill="#CEBD9B"/>
<path d="M293.715 59.2653C295.056 59.1671 296.426 59.9471 296.964 61.1197C297.218 61.676 297.29 62.2923 297.302 62.8923C297.314 63.4759 297.26 64.0649 297.061 64.6158C296.499 66.1593 294.681 67.1956 292.978 66.9447C291.275 66.6938 289.88 65.183 289.838 63.5522C289.82 62.7941 290.061 62.0469 290.442 61.3815C291.082 60.2525 292.38 59.3635 293.715 59.2653Z" fill="#CEBD9B"/>
<path d="M294.439 124.824C294.934 124.551 295.466 124.355 296.015 124.311C296.692 124.262 297.374 124.436 297.954 124.764C303.485 117.908 307.719 109.705 310.793 99.8111C313.099 92.3935 314.543 84.7959 315.654 77.362C309.392 88.6574 300.279 98.6439 288.956 106.274C287.935 106.961 286.866 107.605 285.731 108.058C287.682 113.948 290.653 119.669 294.439 124.824ZM277.681 94.4224C277.977 93.7352 278.835 93.397 279.595 93.6588C280.356 93.9261 280.737 94.6951 280.441 95.3823C279.571 97.4331 278.581 99.7511 278.804 101.949C278.986 103.771 280.362 105.783 282.355 105.991C283.944 106.154 285.616 105.194 287.186 104.136C305.732 91.6408 318.202 72.6333 321.409 51.9895C321.838 49.2407 322.037 46.1537 320.298 44.0702C319.477 43.0884 317.804 42.5103 316.318 42.6903C315.648 42.7667 314.772 43.0394 314.41 43.8629C314.108 44.5501 313.25 44.8828 312.49 44.6101C311.735 44.3429 311.36 43.563 311.662 42.8757C312.345 41.3213 313.897 40.2905 315.926 40.0396C318.48 39.7287 321.186 40.6996 322.653 42.4612C325.05 45.3246 324.851 49.0716 324.338 52.3604C323.474 57.9236 321.946 63.3668 319.833 68.6136C318.522 78.9273 316.952 89.8792 313.643 100.536C310.322 111.205 305.69 119.997 299.554 127.305C299.578 127.518 299.608 127.731 299.608 127.938C299.615 128.521 299.566 129.11 299.361 129.661C299.041 130.545 298.304 131.254 297.416 131.658L297.398 136.61C298.22 136.904 298.92 137.499 299.27 138.262C299.524 138.813 299.596 139.43 299.608 140.035C299.615 140.613 299.566 141.202 299.361 141.753C299.035 142.653 298.28 143.367 297.374 143.771L297.356 149.842C297.881 149.771 298.407 149.645 298.914 149.465C301.414 148.56 303.135 146.509 304.723 144.551C305.14 147.878 303.969 151.669 300.949 153.834C297.936 155.999 292.99 155.977 290.508 153.321C289.632 152.378 289.113 151.21 288.75 150.032C288.165 148.113 287.971 146.1 288.183 144.126C288.775 146.133 290.363 147.943 292.362 148.98C293.008 149.312 293.696 149.552 294.403 149.711L294.421 143.826C293.135 143.28 292.181 142.037 292.144 140.69C292.126 139.931 292.368 139.184 292.748 138.519C293.123 137.859 293.739 137.303 294.445 136.915L294.457 131.75C293.153 131.216 292.181 129.956 292.144 128.598C292.132 128.041 292.259 127.485 292.483 126.967C288.231 121.355 284.994 115.219 282.844 108.669C282.808 108.674 282.772 108.679 282.736 108.679C282.5 108.679 282.259 108.669 282.017 108.641C278.4 108.265 276.141 105.036 275.857 102.184C275.574 99.3747 276.697 96.7459 277.681 94.4224Z" fill="#CEBD9B"/>
<path d="M289.083 66.4047C290.762 66.2902 292.477 67.2065 293.147 68.5864C293.461 69.2354 293.558 69.9553 293.57 70.6644C293.582 71.3461 293.515 72.0388 293.262 72.6878C292.567 74.4986 290.297 75.7149 288.165 75.4203C286.039 75.1258 284.294 73.3532 284.24 71.4389C284.221 70.5498 284.523 69.6717 284.994 68.8918C285.798 67.5664 287.41 66.5247 289.083 66.4047Z" fill="#CEBD9B"/>
<path d="M48.317 62.7941C48.3472 62.7941 48.3834 62.7941 48.4196 62.7941C54.1928 62.7941 59.8574 61.0979 64.7247 59.4999C75.6189 55.9329 86.2595 51.5096 96.3566 46.3718C98.0837 43.6721 100.004 41.005 101.991 38.3325C107.613 30.7513 113.447 23.181 119.377 15.7416C112.601 18.7796 105.832 21.7957 99.1466 24.7627C99.0681 24.8063 98.9956 24.8391 98.911 24.8718C94.9435 26.628 91.0001 28.3788 87.1049 30.1023C75.1781 35.3873 62.8527 40.8468 50.5393 46.3937C51.0103 48.139 50.4608 50.1461 49.2953 51.6623C47.7312 53.7076 45.2854 55.0439 42.8819 56.2601C40.7321 57.3509 38.552 58.3763 36.3418 59.3635C39.4277 61.5233 43.6791 62.7778 48.317 62.7941ZM120.44 81.0926C123.502 78.4583 126.847 76.1076 130.132 73.8223C130.996 73.2169 131.865 72.617 132.723 72.0061C137.838 68.3846 142.772 64.5449 147.518 60.5252C145.411 57.0401 144.505 53.1131 143.641 49.3061C143.092 46.8791 142.554 44.5284 141.733 42.3358C133.828 49.4261 125.416 56.1565 116.647 62.3469C118.169 68.6191 119.431 74.9077 120.44 81.0926ZM92.703 62.1069C95.9822 75.4913 99.8652 88.9138 103.422 99.1948C103.718 99.5984 103.972 99.9965 104.147 100.351C105.403 102.931 106.804 104.589 107.686 107.605C108.41 106.934 109.129 106.258 109.866 105.598C108.585 99.1348 111.188 90.7518 116.231 85.1559C116.75 84.5778 117.287 84.0215 117.843 83.4706C116.816 76.833 115.464 70.0535 113.839 63.2904C111.478 61.5942 108.555 60.5634 105.536 60.3998C104.721 60.3561 104.105 59.7235 104.153 58.9872C104.201 58.2509 104.902 57.6836 105.717 57.7327C108.863 57.9073 111.925 58.8617 114.528 60.4434C123.634 54.0294 132.373 47.0427 140.537 39.6579C140.012 38.687 139.39 37.7653 138.647 36.9035C136.908 34.891 134.577 33.3256 132.143 31.7658C131.479 31.3404 131.322 30.5059 131.793 29.9059C132.264 29.3005 133.188 29.1642 133.852 29.5896C136.37 31.1985 138.991 32.9657 140.978 35.2618C142.071 36.5272 142.911 37.9016 143.605 39.3251C143.647 39.4015 143.684 39.4724 143.714 39.5488C145.103 42.4831 145.833 45.6574 146.54 48.7716C147.337 52.295 148.104 55.6547 149.735 58.6272C155.502 53.5985 160.973 48.2971 166.082 42.7449C166.607 42.1722 167.537 42.1013 168.165 42.5703C168.793 43.0394 168.878 43.8848 168.359 44.452C158.31 55.3656 146.933 65.3466 134.547 74.1114C133.683 74.7222 132.808 75.3276 131.938 75.9385C127.197 79.2437 122.288 82.6579 118.519 86.8412C114.455 91.3518 112.16 97.8312 112.547 103.269C113.507 102.445 114.455 101.611 115.446 100.815C118.423 98.3985 122.566 95.3442 124.836 96.3314C127.982 97.7003 129.377 101.022 129.112 104.218C130.984 102.871 132.946 101.458 134.921 100.04C138.176 97.7003 141.431 95.366 144.197 93.3589C150.2 89.0174 156.408 84.5232 163.515 81.3708C172.405 77.422 182.586 75.6931 190.769 74.3077L191.542 74.1768C200.286 72.6988 209.333 71.1662 217.449 67.8555C226.695 64.0922 233.488 58.3218 236.592 51.6187C236.906 50.9369 237.776 50.6151 238.525 50.8987C239.28 51.1824 239.636 51.9677 239.322 52.6441C237.305 57.0073 233.887 60.9834 229.364 64.3485C240.035 65.5048 248.694 70.0317 255.845 74.4168C264.993 80.0291 272.929 87.1085 280.604 93.9588C290.882 103.138 301.511 112.623 312.037 121.753C318.764 122.047 331.76 116.195 342.557 105.587C349.055 99.2002 359.46 86.3067 356.513 71.4661L281.824 25.7772C274.849 21.5121 267.639 17.1052 259.51 14.8853C254.401 13.4946 248.948 12.9873 243.67 12.4965L184.47 6.99327C180.612 6.6333 176.62 6.17516 172.761 5.73338C159.173 4.18441 145.121 2.58091 132.82 4.63165C130.73 4.97526 129.595 6.79147 128.399 8.71677C127.928 9.47489 127.439 10.2603 126.889 10.942C119.214 20.3831 111.659 30.0968 104.443 39.816C99.062 47.0645 94.1222 54.2257 92.703 62.1069ZM98.434 11.5529C97.8844 12.311 97.0873 12.9546 96.1996 13.3527C94.4845 14.1272 92.534 14.2036 90.6498 14.2199C89.4481 14.2254 88.2523 14.1981 87.0506 14.1654C88.2584 15.8071 90.215 17.2088 92.6366 18.1087C95.8433 19.2868 99.4485 19.5868 102.939 19.8758C103.054 19.8868 103.15 19.9304 103.253 19.9631C109.606 17.1379 116.001 14.2799 122.402 11.4056C114.389 11.1384 106.659 11.2856 98.434 11.5529ZM66.6934 26.7207C66.6511 28.5751 65.1957 30.3641 63.3901 31.324C61.349 32.4094 58.9515 32.6602 56.6326 32.8184C54.1687 32.9929 51.6988 33.0693 49.2289 33.102C49.8992 34.5583 51.0828 35.9054 52.6348 36.909C54.5673 38.158 57.0976 38.9325 59.96 39.1888C68.6742 35.2946 77.34 31.4549 85.8066 27.7025C87.6968 26.868 89.6111 26.0172 91.5194 25.1718C83.2401 25.4554 74.9426 25.9572 66.6934 26.7207ZM13.9736 64.4194C14.1971 63.6395 14.7889 63.0014 15.3807 62.4014C22.2651 55.4965 31.6314 51.0787 40.7804 46.8082C43.0329 45.7555 45.4908 44.692 47.9848 44.6102C48.0573 44.5611 48.1177 44.4956 48.2083 44.452C50.6842 43.3394 53.1662 42.2267 55.6422 41.1195C53.8849 40.6341 52.2785 39.9633 50.9137 39.0797C48.5283 37.5417 46.8495 35.42 46.1007 33.1129C41.7466 33.0639 37.4107 32.8239 33.1049 32.3439C32.4165 32.2676 31.6495 32.1476 31.257 31.6185C30.8403 31.0622 31.0457 30.2332 31.5469 29.6987C32.0421 29.1587 32.7547 28.8533 33.4552 28.5806C41.5473 25.4281 50.4366 25.0463 59.0964 24.7082C59.5735 24.6918 60.0566 24.6754 60.5397 24.67C72.9437 23.3501 85.5107 22.5374 97.981 22.3029C98.1139 22.2429 98.2528 22.1829 98.3917 22.1229C96.0728 21.8393 93.7538 21.403 91.5194 20.5794C87.7451 19.1832 84.9309 16.827 83.6024 14.0127C79.5805 13.7782 75.5887 13.3473 71.6514 12.6601C71.0958 12.5619 70.4858 12.4256 70.196 11.9838C69.888 11.5147 70.1054 10.8602 70.5341 10.4512C70.9629 10.0421 71.5608 9.83486 72.1405 9.64942C78.8618 7.51686 86.0663 7.65322 93.0895 7.81684C94.9978 7.86047 97.045 7.9641 98.6091 8.88039C107.601 8.58587 116.013 8.43861 124.89 8.82039C125.205 8.38407 125.506 7.91502 125.827 7.40778C127.161 5.25342 128.828 2.58091 132.282 2.00277C145.036 -0.124322 159.318 1.50645 173.129 3.08814C176.976 3.52447 180.95 3.98261 184.772 4.33713L243.972 9.84031C249.389 10.3421 254.987 10.8657 260.362 12.3274C268.925 14.6617 276.329 19.1886 283.485 23.5683L358.754 69.6117C359.176 69.8681 359.376 70.2826 359.376 70.708L359.382 70.7135C362.739 86.8031 351.646 100.602 344.731 107.398C334.61 117.346 321.095 124.436 312.532 124.436C312.091 124.436 311.662 124.414 311.246 124.376L310.738 124.333L310.376 124.016C299.705 114.772 288.938 105.156 278.521 95.8623C270.942 89.0938 263.109 82.1016 254.184 76.6257C246.321 71.7988 237.48 67.2719 226.145 66.7647C226.042 66.7647 225.952 66.7265 225.861 66.7047C223.651 68.0355 221.248 69.2409 218.669 70.2935C210.226 73.7296 201.005 75.2949 192.086 76.8002L191.313 76.9311C183.311 78.2892 173.347 79.9745 164.82 83.7651C158.002 86.7921 151.927 91.1936 146.045 95.4423C143.273 97.4494 140.018 99.7893 136.763 102.129C133.502 104.474 130.241 106.82 127.463 108.827C127.445 108.838 127.427 108.843 127.415 108.854C125.482 111.799 122.366 114.079 119.256 116.119C116.696 117.793 114.063 119.397 111.351 120.875C112.245 124.6 112.698 128.718 112.535 132.481C112.487 133.703 110.995 134.183 109.721 133.114C107.867 131.565 106.037 127.136 104.998 124.016C102.873 124.954 100.705 125.811 98.4763 126.531C96.9726 127.022 95.0039 127.343 94.0074 126.214C93.2466 125.353 93.5183 124.087 93.9893 123.067C94.8167 121.267 96.1331 119.686 97.4677 118.148C98.7722 116.653 100.113 115.181 101.484 113.735C101.151 111.99 100.578 110.25 100.348 108.499C99.998 105.843 99.5572 101.431 100.022 98.2948C96.58 88.1229 92.8903 75.2513 89.756 62.4342L89.7017 62.1942L89.7379 61.9487C90.4083 58.0109 91.8817 54.2912 93.8142 50.6751C84.78 55.0493 75.3532 58.8563 65.7332 62.0142C60.6303 63.6831 54.6699 65.4666 48.4196 65.4666C48.3834 65.4666 48.3411 65.4666 48.3049 65.4666C42.4411 65.4448 37.0604 63.6559 33.3948 60.6125C28.1288 62.8268 22.7361 64.7958 17.2105 66.432C16.4254 66.6665 15.5256 66.8847 14.7949 66.5247C14.0159 66.1375 13.7562 65.1939 13.9736 64.4194Z" fill="#CEBD9B"/>
<mask id="mask0_24_105955" style="mask-type:luminance" maskUnits="userSpaceOnUse" x="0" y="176" width="232" height="164">
<path d="M231.037 176.217H-4.57764e-05V339.578H231.037V176.217Z" fill="white"/>
</mask>
<g mask="url(#mask0_24_105955)">
<path d="M224.479 335.63H5.96022L115.216 182.222L224.479 335.63ZM0.543304 338.302H229.896L115.216 177.281L0.543304 338.302Z" fill="#CEBD9B"/>
</g>
<path d="M209.556 328.91H20.882L115.216 195.667L209.556 328.91ZM15.4832 331.583H214.955L115.216 190.709L15.4832 331.583Z" fill="#CEBD9B"/>
<mask id="mask1_24_105955" style="mask-type:luminance" maskUnits="userSpaceOnUse" x="45" y="251" width="142" height="101">
<path d="M186.113 251.773H45.0257V351.987H186.113V251.773Z" fill="white"/>
</mask>
<g mask="url(#mask1_24_105955)">
<path d="M180.34 254.571L115.228 346.99L50.8111 254.522L180.34 254.571ZM115.21 351.986L185.727 251.904L45.4546 251.849L115.21 351.986Z" fill="#CEBD9B"/>
</g>
<path d="M92.546 306.816C93.1257 306.816 93.6752 306.505 93.9108 305.992C95.8009 301.88 99.4424 298.466 103.905 296.628C104.648 296.322 104.974 295.531 104.636 294.86C104.298 294.19 103.422 293.89 102.673 294.201C97.5401 296.317 93.3491 300.238 91.1812 304.967C90.8671 305.649 91.2234 306.429 91.9783 306.712C92.1655 306.783 92.3588 306.816 92.546 306.816Z" fill="#CEBD9B"/>
<path d="M98.8325 314.435C100.342 309.576 104.219 305.163 109.594 302.327C110.645 301.771 111.738 301.285 112.788 300.811C114.504 300.042 116.128 299.311 117.559 298.335C120.09 296.617 122.04 294.048 123.067 291.103C123.797 288.997 124.051 286.799 124.323 284.47C124.504 282.9 124.691 281.274 125.041 279.671C126.557 272.711 131.231 266.346 137.675 262.349C131.733 258.013 124.196 255.411 116.001 255.411C113.549 255.411 111.158 255.651 108.851 256.087C108.827 256.109 108.821 256.136 108.803 256.158C104.992 259.654 102.697 265.032 101.973 272.144C101.918 272.668 101.87 273.197 101.828 273.72C101.556 276.753 101.284 279.894 99.6901 282.725C98.6695 284.541 97.2141 286.041 95.801 287.487L95.1548 288.146C89.5386 293.977 86.8453 299.475 87.117 304.498C90.1123 308.583 94.1282 311.992 98.8325 314.435ZM150.725 286.996C150.725 286.668 150.707 286.341 150.701 286.019C149.409 287.639 147.863 289.09 146.093 290.301C145.236 290.879 144.336 291.403 143.472 291.904C142.059 292.722 140.725 293.497 139.625 294.484C136.938 296.9 135.863 300.32 134.728 303.947C133.967 306.39 133.17 308.921 131.835 311.217C130.47 313.557 128.52 315.586 126.207 317.19C140.392 313.214 150.725 301.187 150.725 286.996ZM139.994 264.192C133.852 267.77 129.359 273.682 127.946 280.189C127.62 281.672 127.439 283.238 127.264 284.754C126.992 287.11 126.708 289.543 125.887 291.899C124.685 295.373 122.36 298.417 119.341 300.473C117.686 301.596 115.868 302.414 114.105 303.2C113.048 303.674 112.052 304.127 111.086 304.634C106.17 307.225 102.703 311.294 101.532 315.701C105.626 317.413 110.137 318.422 114.89 318.559L114.878 318.351C120.808 318.04 126.436 314.752 129.214 309.974C130.41 307.923 131.159 305.534 131.884 303.222C133.073 299.426 134.299 295.499 137.542 292.592C138.865 291.403 140.392 290.514 141.872 289.657C142.729 289.161 143.545 288.686 144.312 288.163C146.86 286.428 148.877 284.116 150.188 281.476C148.871 274.74 145.211 268.741 139.994 264.192ZM84.5082 300.282C85.4684 295.837 88.2403 291.255 92.9204 286.396L93.5787 285.719C94.9254 284.334 96.1996 283.031 97.0511 281.52C98.3796 279.153 98.6212 276.415 98.8748 273.513C98.9231 272.973 98.9714 272.433 99.0258 271.899C99.6297 265.954 101.302 261.094 103.984 257.364C101.792 258.1 99.7082 259.038 97.7455 260.145C97.6851 260.232 97.6368 260.325 97.5462 260.396C95.5474 262.081 94.6415 264.879 94.6959 269.199C94.7019 269.728 94.714 270.262 94.7321 270.797C94.8167 273.933 94.9072 277.173 93.4337 280.178C92.6426 281.782 91.4832 283.134 90.366 284.438C89.9312 284.945 89.4964 285.452 89.0857 285.976C85.8549 290.083 84.2123 295.117 84.4478 300.162C84.472 300.2 84.4901 300.238 84.5082 300.282ZM81.2774 286.996C81.2774 289.346 81.5733 291.632 82.1108 293.835C82.9139 290.47 84.4539 287.252 86.6762 284.427C87.111 283.876 87.5699 283.341 88.0289 282.801C89.0857 281.569 90.0882 280.402 90.7283 279.087C91.9361 276.638 91.8576 273.835 91.773 270.862C91.761 270.317 91.7428 269.772 91.7368 269.226C91.7187 267.688 91.7972 265.828 92.2562 263.985C85.5107 269.75 81.2774 277.931 81.2774 286.996ZM116.001 252.738C136.781 252.738 153.684 268.108 153.684 286.996C153.684 305.889 136.781 321.253 116.001 321.253C95.2273 321.253 78.3244 305.889 78.3244 286.996C78.3244 268.108 95.2273 252.738 116.001 252.738Z" fill="#CEBD9B"/>
<path d="M78.3064 239.883C78.3064 236.731 75.4681 234.173 71.9655 234.173C68.4569 234.173 65.6186 236.731 65.6186 239.883C65.6186 243.036 68.4569 245.594 71.9655 245.594C75.4681 245.594 78.3064 243.036 78.3064 239.883Z" fill="#CEBD9B"/>
<path d="M108.193 181.093C108.193 178.186 110.621 175.808 113.749 175.454C113.755 171.238 113.749 167.158 113.737 163.188C112.414 163.177 111.074 163.15 109.727 163.1C110.82 161.142 112.167 159.31 113.719 157.625C113.713 156.588 113.713 155.552 113.713 154.521C113.707 154.128 113.707 153.725 113.707 153.327C112.42 152.787 111.46 151.532 111.424 150.185C111.406 149.432 111.647 148.68 112.028 148.014C112.396 147.365 112.994 146.82 113.683 146.433C113.658 137.03 113.652 127.136 113.743 115.841C113.749 115.104 114.407 114.51 115.216 114.51C115.223 114.51 115.229 114.51 115.229 114.51C116.044 114.521 116.702 115.121 116.696 115.857C116.611 127.011 116.618 136.801 116.642 146.095C117.475 146.384 118.194 146.984 118.55 147.758C118.804 148.314 118.876 148.925 118.888 149.531C118.894 150.114 118.846 150.703 118.647 151.249C118.314 152.149 117.566 152.863 116.66 153.267C116.666 153.681 116.666 154.101 116.666 154.516C116.672 155.994 116.678 157.483 116.684 158.983C117.692 160.335 118.659 161.71 119.528 163.139C118.616 163.171 117.662 163.188 116.696 163.199C116.702 167.256 116.708 171.429 116.708 175.748C119.136 176.55 120.881 178.634 120.881 181.093C120.881 183.57 119.124 185.659 116.678 186.449C116.666 188.653 116.654 190.889 116.636 193.196C116.63 193.932 115.971 194.521 115.156 194.521C115.15 194.521 115.15 194.521 115.144 194.521C114.329 194.521 113.671 193.916 113.677 193.18C113.695 190.976 113.707 188.838 113.719 186.733C110.603 186.368 108.193 183.995 108.193 181.093Z" fill="#CEBD9B"/>
<path d="M154.3 304.22C154.3 301.067 151.455 298.509 147.953 298.509C144.45 298.509 141.606 301.067 141.606 304.22C141.606 307.372 144.45 309.93 147.953 309.93C151.455 309.93 154.3 307.372 154.3 304.22Z" fill="#CEBD9B"/>
<path d="M143.376 227.115C143.376 225.075 141.54 223.423 139.269 223.423C137.005 223.423 135.163 225.075 135.163 227.115C135.163 229.161 137.005 230.813 139.269 230.813C141.54 230.813 143.376 229.161 143.376 227.115Z" fill="#CEBD9B"/>
<path d="M91.3442 336.966C91.3442 334.926 89.5084 333.274 87.2378 333.274C84.9732 333.274 83.1373 334.926 83.1373 336.966C83.1373 339.006 84.9732 340.658 87.2378 340.658C89.5084 340.658 91.3442 339.006 91.3442 336.966Z" fill="#CEBD9B"/>
</svg>
