<svg width="360" height="352" fill="none" xmlns="http://www.w3.org/2000/svg"><path d="M30.189 166.307c2.36-6.785 6.419-12.855 11.77-17.551-5.351-4.696-9.41-10.766-11.77-17.551-2.356 6.785-6.414 12.855-11.764 17.551 5.35 4.696 9.408 10.766 11.764 17.551zm-14.76-18.631c6.643-5.438 11.492-13.477 13.31-22.051 0 0 .006-.005.006-.011.024-.114.09-.212.145-.321.03-.05.042-.115.079-.164.024-.033.066-.049.096-.082.09-.103.181-.202.302-.278.024-.011.049-.011.073-.022.139-.082.296-.147.465-.174 0 0 .006-.006.012-.006.096-.016.193.006.29.006.084 0 .175-.022.265-.006 0 0 .006.006.012.006.17.027.326.092.471.174.019.011.043.011.06.022.122.076.212.175.309.273.024.032.066.054.09.087.037.049.049.109.079.158.054.104.12.213.145.327 0 .006.006.011.006.011 1.818 8.574 6.667 16.613 13.31 22.051.344.289.489.687.459 1.08.03.393-.115.791-.46 1.08-6.642 5.438-11.491 13.477-13.31 22.051 0 0-.005.005-.005.011-.012.049-.042.087-.06.136a1.21 1.21 0 0 1-.145.322c-.037.044-.085.076-.121.125-.079.077-.157.159-.248.219-.054.038-.12.06-.175.092a1.776 1.776 0 0 1-.326.12c-.03.006-.054.028-.09.033-.091.016-.188.022-.278.022h-.006c-.091 0-.182-.006-.272-.022-.037-.005-.06-.027-.097-.033a1.571 1.571 0 0 1-.32-.12c-.06-.032-.12-.054-.175-.092a1.274 1.274 0 0 1-.248-.219c-.042-.049-.09-.081-.12-.125a1.06 1.06 0 0 1-.151-.322c-.018-.049-.049-.087-.06-.136 0-.006-.007-.011-.007-.011-1.818-8.574-6.667-16.613-13.31-22.051a1.257 1.257 0 0 1-.453-1.08c-.03-.393.11-.791.453-1.08z" fill="#CEBD9B"/><path d="m193.626 162.855-29.096-4.609 28.927-5.159-17.121-21.609 25.056 14.829 5.882-26.468 5.06 26.147 24.403-14.896-16.8 21.866 29.029 4.472-29.162 5.078 17.35 21.696-25.152-15.042-5.779 26.676-4.958-26.36-24.506 15.114 16.867-21.735z" fill="#CEBD9B" fill-opacity=".31"/><path d="M269.196 270.197c-6.709-3.207-8.448-5.225-11.534-14.579-2.047 7.025-4.529 12.239-10.858 14.912 7.132 3.692 8.509 8.928 10.749 14.148 3.062-7.112 5.284-10.908 11.643-14.481zM332.346 303.064c-4.922-2.117-6.202-3.453-8.455-9.632-1.503 4.641-3.327 8.088-7.971 9.85 5.23 2.438 6.244 5.901 7.887 9.348 2.246-4.701 3.871-7.205 8.539-9.566z" fill="#CEBD9B"/><path d="M313.22 222.507c-2.192 0-4.287-.431-6.165-1.211 3.611 3.425 8.72 5.579 14.378 5.579 10.925 0 19.778-7.985 19.778-17.807 0-9.834-8.853-17.803-19.778-17.803-5.658 0-10.767 2.138-14.378 5.575a16.078 16.078 0 0 1 6.165-1.206c8.255 0 14.929 6.005 14.929 13.434 0 7.417-6.674 13.439-14.929 13.439zM165.846 81.862c-4.68-7.042-10.628-13.396-17.549-18.74a110.198 110.198 0 0 1-9.813 6.871c5.912 5.335 11.075 11.334 15.333 17.819 3.237-1.614 6.256-4.058 12.029-5.95z" fill="#CEBD9B" fill-opacity=".33"/><path d="M194.338 44.883c-5.93-2.58-6.631-4.794-8.672-13.085-1.54 6.218-3.406 10.838-8.165 13.205 5.363 3.267 6.396 7.903 8.08 12.522 2.307-6.294 3.974-9.479 8.757-12.642zM180.527 30.288c-4.686-1.68-5.235-3.125-6.848-8.541-1.22 4.063-2.693 7.079-6.455 8.622 4.233 2.133 5.054 5.16 6.389 8.176 1.818-4.112 3.134-6.19 6.914-8.257zM266.582 93.048c1.908 0 4.027-.796 6.274-2.362 3.672-2.563 6.758-5.732 9.034-8.208 10.81-11.732 19.035-24.996 24.452-39.439 1.171-3.13 2.125-6.74.284-9.784-1.166-1.926-3.799-3.126-6.414-2.902-2.029.17-3.575 1.216-4.154 2.798-.254.704.169 1.456.948 1.685.779.23 1.612-.152 1.866-.856.259-.709 1.02-.922 1.612-.97 1.232-.099 2.893.441 3.545 1.526 1.292 2.133.531 4.936-.489 7.647-5.302 14.126-13.352 27.112-23.92 38.588-2.187 2.367-5.127 5.394-8.576 7.805-1.334.932-3.847 2.372-5.688 1.543-2.368-1.052-1.691-4.827-.399-7.74.302-.681-.06-1.46-.821-1.734-.755-.278-1.619.055-1.921.742-2.403 5.383-1.715 9.545 1.824 11.126a6.163 6.163 0 0 0 2.543.535z" fill="#CEBD9B"/><path d="M282.954 74.548c1.346-.098 2.717.681 3.255 1.86.247.55.326 1.167.338 1.767.006.583-.043 1.172-.242 1.723-.561 1.544-2.379 2.586-4.082 2.33-1.703-.252-3.098-1.763-3.14-3.393-.018-.758.223-1.506.604-2.171.64-1.124 1.932-2.018 3.267-2.116zM293.715 59.265c1.341-.098 2.711.682 3.249 1.855.254.556.326 1.172.338 1.772.012.584-.042 1.173-.241 1.724-.562 1.543-2.38 2.58-4.083 2.329-1.703-.251-3.098-1.762-3.14-3.393-.018-.758.223-1.505.604-2.17.64-1.13 1.938-2.018 3.273-2.117z" fill="#CEBD9B"/><path d="M294.439 124.824c.495-.273 1.027-.469 1.576-.513a3.469 3.469 0 0 1 1.939.453c5.531-6.856 9.765-15.059 12.839-24.953 2.306-7.418 3.75-15.015 4.861-22.449-6.262 11.295-15.375 21.282-26.698 28.912-1.021.687-2.09 1.331-3.225 1.784 1.951 5.89 4.922 11.611 8.708 16.766zm-16.758-30.402c.296-.687 1.154-1.025 1.914-.763.761.267 1.142 1.036.846 1.723-.87 2.051-1.86 4.37-1.637 6.567.182 1.822 1.558 3.834 3.551 4.042 1.589.163 3.261-.797 4.831-1.855 18.546-12.495 31.016-31.503 34.223-52.146.429-2.75.628-5.836-1.111-7.92-.821-.982-2.494-1.56-3.98-1.38-.67.077-1.546.35-1.908 1.173-.302.687-1.16 1.02-1.92.747-.755-.267-1.13-1.047-.828-1.734.683-1.555 2.235-2.585 4.264-2.836 2.554-.311 5.26.66 6.727 2.421 2.397 2.864 2.198 6.61 1.685 9.9-.864 5.563-2.392 11.006-4.505 16.253-1.311 10.313-2.881 21.265-6.19 31.922-3.321 10.669-7.953 19.461-14.089 26.769.024.213.054.426.054.633.007.583-.042 1.172-.247 1.723-.32.884-1.057 1.593-1.945 1.997l-.018 4.952c.822.294 1.522.889 1.872 1.652.254.551.326 1.168.338 1.773.007.578-.042 1.167-.247 1.718-.326.9-1.081 1.614-1.987 2.018l-.018 6.071a7.794 7.794 0 0 0 1.558-.377c2.5-.905 4.221-2.956 5.809-4.914.417 3.327-.754 7.118-3.774 9.283-3.013 2.165-7.959 2.143-10.441-.513-.876-.943-1.395-2.111-1.758-3.289a14.843 14.843 0 0 1-.567-5.906c.592 2.007 2.18 3.817 4.179 4.854a8.575 8.575 0 0 0 2.041.731l.018-5.885c-1.286-.546-2.24-1.789-2.277-3.136-.018-.759.224-1.506.604-2.171.375-.66.991-1.216 1.697-1.604l.012-5.165c-1.304-.534-2.276-1.794-2.313-3.152a3.915 3.915 0 0 1 .339-1.631c-4.252-5.612-7.489-11.748-9.639-18.298a.789.789 0 0 1-.108.01c-.236 0-.477-.01-.719-.038-3.617-.376-5.876-3.605-6.16-6.457-.283-2.81.84-5.438 1.824-7.762z" fill="#CEBD9B"/><path d="M289.083 66.405c1.679-.115 3.394.802 4.064 2.181.314.65.411 1.37.423 2.078.012.682-.055 1.375-.308 2.024-.695 1.81-2.965 3.027-5.097 2.732-2.126-.294-3.871-2.067-3.925-3.981-.019-.89.283-1.767.754-2.547.804-1.326 2.416-2.367 4.089-2.487z" fill="#CEBD9B"/><path d="M48.317 62.794h.103c5.773 0 11.437-1.696 16.305-3.294a222.932 222.932 0 0 0 31.632-13.128c1.727-2.7 3.647-5.367 5.634-8.04a819.48 819.48 0 0 1 17.386-22.59 5852.027 5852.027 0 0 1-20.23 9.02 1.807 1.807 0 0 1-.236.11c-3.968 1.756-7.91 3.507-11.806 5.23-11.927 5.285-24.252 10.745-36.566 16.292.471 1.745-.078 3.752-1.244 5.268-1.564 2.046-4.01 3.382-6.413 4.598a146.21 146.21 0 0 1-6.54 3.104c3.086 2.16 7.337 3.414 11.975 3.43zm72.123 18.299c3.062-2.635 6.407-4.985 9.692-7.27.864-.606 1.733-1.206 2.591-1.817a216.259 216.259 0 0 0 14.795-11.48c-2.107-3.486-3.013-7.413-3.877-11.22-.549-2.427-1.087-4.778-1.908-6.97a276.538 276.538 0 0 1-25.086 20.01 251.22 251.22 0 0 1 3.793 18.747zM92.703 62.107c3.28 13.384 7.162 26.807 10.719 37.088.296.403.55.802.725 1.156 1.256 2.58 2.657 4.238 3.539 7.254.724-.671 1.443-1.347 2.18-2.007-1.281-6.463 1.322-14.846 6.365-20.442a39.819 39.819 0 0 1 1.612-1.685 251.075 251.075 0 0 0-4.004-20.18c-2.361-1.697-5.284-2.728-8.303-2.891-.815-.044-1.431-.676-1.383-1.413.048-.736.749-1.303 1.564-1.254 3.146.174 6.208 1.129 8.811 2.71a274.674 274.674 0 0 0 26.009-20.785 15.448 15.448 0 0 0-1.89-2.755c-1.739-2.012-4.07-3.577-6.504-5.137-.664-.426-.821-1.26-.35-1.86.471-.605 1.395-.742 2.059-.316 2.518 1.608 5.139 3.376 7.126 5.672 1.093 1.265 1.933 2.64 2.627 4.063.042.076.079.147.109.224 1.389 2.934 2.119 6.108 2.826 9.223.797 3.523 1.564 6.883 3.195 9.855a207.78 207.78 0 0 0 16.347-15.882c.525-.573 1.455-.644 2.083-.175.628.47.713 1.315.194 1.882-10.049 10.914-21.426 20.895-33.812 29.66-.864.61-1.739 1.216-2.609 1.827-4.741 3.305-9.65 6.719-13.419 10.902-4.064 4.51-6.359 10.99-5.972 16.428.96-.824 1.908-1.658 2.899-2.454 2.977-2.416 7.12-5.47 9.39-4.484 3.146 1.37 4.541 4.691 4.276 7.887 1.872-1.347 3.834-2.76 5.809-4.178 3.255-2.34 6.51-4.674 9.276-6.681 6.003-4.342 12.211-8.836 19.318-11.988 8.89-3.949 19.071-5.678 27.254-7.063l.773-.131c8.744-1.478 17.791-3.01 25.907-6.322 9.246-3.763 16.039-9.533 19.143-16.236.314-.682 1.184-1.004 1.933-.72.755.283 1.111 1.069.797 1.745-2.017 4.363-5.435 8.34-9.958 11.705 10.671 1.156 19.33 5.683 26.481 10.068 9.148 5.612 17.084 12.692 24.759 19.542 10.278 9.179 20.907 18.664 31.433 27.794 6.727.294 19.723-5.558 30.52-16.166 6.498-6.387 16.903-19.28 13.956-34.12l-74.689-45.69c-6.975-4.265-14.185-8.672-22.314-10.892-5.109-1.39-10.562-1.898-15.84-2.389l-59.2-5.503c-3.858-.36-7.85-.818-11.709-1.26-13.588-1.549-27.64-3.152-39.941-1.101-2.09.343-3.225 2.16-4.421 4.085-.471.758-.96 1.543-1.51 2.225a836.476 836.476 0 0 0-22.446 28.874c-5.381 7.248-10.32 14.41-11.74 22.29zm5.731-50.554a5.664 5.664 0 0 1-2.234 1.8c-1.716.774-3.666.85-5.55.867-1.202.005-2.398-.022-3.6-.055 1.208 1.642 3.165 3.044 5.587 3.944 3.206 1.178 6.811 1.478 10.302 1.767.115.01.211.054.314.087a5808.984 5808.984 0 0 0 19.149-8.557c-8.013-.268-15.743-.12-23.968.147zM66.694 26.72c-.043 1.854-1.498 3.643-3.304 4.603-2.041 1.085-4.438 1.336-6.757 1.494-2.464.175-4.934.251-7.404.284.67 1.456 1.854 2.803 3.406 3.807 1.932 1.249 4.463 2.023 7.325 2.28 8.714-3.894 17.38-7.734 25.847-11.486 1.89-.835 3.804-1.686 5.712-2.531a429.01 429.01 0 0 0-24.826 1.549zm-52.72 37.698c.223-.78.815-1.418 1.407-2.018 6.884-6.905 16.25-11.322 25.4-15.593 2.252-1.053 4.71-2.116 7.204-2.198.072-.049.133-.114.223-.158 2.476-1.113 4.958-2.225 7.434-3.332-1.757-.486-3.364-1.157-4.728-2.04-2.386-1.538-4.065-3.66-4.813-5.967-4.354-.05-8.69-.29-12.996-.77-.688-.075-1.455-.195-1.848-.725-.417-.556-.211-1.385.29-1.92.495-.54 1.208-.845 1.908-1.117 8.092-3.153 16.982-3.535 25.641-3.873.478-.016.96-.033 1.444-.038 12.404-1.32 24.97-2.133 37.441-2.367.133-.06.272-.12.41-.18-2.318-.284-4.637-.72-6.872-1.544-3.774-1.396-6.588-3.752-7.917-6.566-4.022-.235-8.013-.666-11.95-1.353-.556-.098-1.166-.234-1.456-.676-.308-.47-.09-1.124.338-1.533.429-.409 1.027-.616 1.606-.802 6.722-2.132 13.926-1.996 20.95-1.832 1.908.043 3.955.147 5.52 1.063 8.991-.294 17.403-.441 26.28-.06.315-.436.616-.905.937-1.412 1.334-2.155 3.001-4.827 6.455-5.405 12.754-2.127 27.036-.497 40.847 1.085 3.847.436 7.821.895 11.643 1.25l59.2 5.502c5.417.502 11.015 1.026 16.39 2.487 8.563 2.335 15.967 6.862 23.123 11.241l75.269 46.044c.422.256.622.67.622 1.096l.006.005c3.357 16.09-7.736 29.889-14.651 36.685-10.121 9.948-23.636 17.038-32.199 17.038-.441 0-.87-.022-1.286-.06l-.508-.043-.362-.317c-10.671-9.244-21.438-18.86-31.855-28.154-7.579-6.768-15.412-13.76-24.337-19.236-7.863-4.827-16.704-9.354-28.039-9.861-.103 0-.193-.038-.284-.06a52.114 52.114 0 0 1-7.192 3.588c-8.443 3.437-17.664 5.002-26.583 6.507l-.773.131c-8.002 1.358-17.966 3.044-26.493 6.834-6.818 3.027-12.893 7.429-18.775 11.677a3497.21 3497.21 0 0 1-9.282 6.687 5462.14 5462.14 0 0 0-9.3 6.698c-.018.011-.036.016-.048.027-1.933 2.945-5.049 5.225-8.159 7.265a115.225 115.225 0 0 1-7.905 4.756c.894 3.725 1.347 7.843 1.184 11.606-.048 1.222-1.54 1.702-2.814.633-1.854-1.549-3.684-5.978-4.723-9.098-2.125.938-4.293 1.795-6.522 2.515-1.503.491-3.472.812-4.469-.317-.76-.861-.489-2.127-.018-3.147.828-1.8 2.144-3.381 3.479-4.919a144.466 144.466 0 0 1 4.016-4.413c-.333-1.745-.906-3.485-1.136-5.236-.35-2.656-.79-7.068-.326-10.204-3.442-10.172-7.132-23.044-10.266-35.86l-.054-.24.036-.246c.67-3.938 2.144-7.658 4.076-11.274a227.178 227.178 0 0 1-28.08 11.34c-5.104 1.668-11.064 3.452-17.314 3.452h-.115c-5.864-.022-11.245-1.811-14.91-4.855-5.266 2.215-10.659 4.184-16.185 5.82-.785.234-1.684.453-2.415.093-.78-.388-1.039-1.331-.821-2.106z" fill="#CEBD9B"/><mask id="a" style="mask-type:luminance" maskUnits="userSpaceOnUse" x="0" y="176" width="232" height="164"><path d="M231.037 176.217H0v163.361h231.037V176.217z" fill="#fff"/></mask><g mask="url(#a)"><path d="M224.479 335.63H5.96l109.256-153.408L224.479 335.63zM.543 338.302h229.353l-114.68-161.021L.543 338.302z" fill="#CEBD9B"/></g><path d="M209.556 328.91H20.882l94.334-133.243 94.34 133.243zm-194.073 2.673h199.472l-99.739-140.874-99.733 140.874z" fill="#CEBD9B"/><mask id="b" style="mask-type:luminance" maskUnits="userSpaceOnUse" x="45" y="251" width="142" height="101"><path d="M186.113 251.773H45.026v100.214h141.087V251.773z" fill="#fff"/></mask><g mask="url(#b)"><path d="m180.34 254.571-65.112 92.419-64.417-92.468 129.529.049zm-65.13 97.415 70.517-100.082-140.272-.055 69.755 100.137z" fill="#CEBD9B"/></g><path d="M92.546 306.816c.58 0 1.13-.311 1.365-.824 1.89-4.112 5.531-7.526 9.994-9.364.743-.306 1.069-1.097.731-1.768-.338-.67-1.214-.97-1.963-.659-5.133 2.116-9.324 6.037-11.492 10.766-.314.682.042 1.462.797 1.745.188.071.38.104.568.104z" fill="#CEBD9B"/><path d="M98.832 314.435c1.51-4.859 5.387-9.272 10.762-12.108 1.051-.556 2.144-1.042 3.194-1.516 1.716-.769 3.34-1.5 4.771-2.476 2.531-1.718 4.481-4.287 5.508-7.232.73-2.106.984-4.304 1.256-6.633.181-1.57.368-3.196.718-4.799 1.516-6.96 6.19-13.325 12.634-17.322-5.942-4.336-13.479-6.938-21.674-6.938-2.452 0-4.843.24-7.15.676-.024.022-.03.049-.048.071-3.811 3.496-6.106 8.874-6.83 15.986a64.959 64.959 0 0 0-.145 1.576c-.272 3.033-.544 6.174-2.138 9.005-1.02 1.816-2.476 3.316-3.889 4.762l-.646.659c-5.616 5.831-8.31 11.329-8.038 16.352 2.995 4.085 7.011 7.494 11.715 9.937zm51.893-27.439c0-.328-.018-.655-.024-.977a21.22 21.22 0 0 1-4.608 4.282c-.857.578-1.757 1.102-2.621 1.603-1.413.818-2.747 1.593-3.847 2.58-2.687 2.416-3.762 5.836-4.897 9.463-.761 2.443-1.558 4.974-2.893 7.27-1.365 2.34-3.315 4.369-5.628 5.973 14.185-3.976 24.518-16.003 24.518-30.194zm-10.731-22.804c-6.142 3.578-10.635 9.49-12.048 15.997-.326 1.483-.507 3.049-.682 4.565-.272 2.356-.556 4.789-1.377 7.145a17.262 17.262 0 0 1-6.546 8.574c-1.655 1.123-3.473 1.941-5.236 2.727-1.057.474-2.053.927-3.019 1.434-4.916 2.591-8.383 6.66-9.554 11.067a37.372 37.372 0 0 0 13.358 2.858l-.012-.208c5.93-.311 11.558-3.599 14.336-8.377 1.196-2.051 1.945-4.44 2.67-6.752 1.189-3.796 2.415-7.723 5.658-10.63 1.323-1.189 2.85-2.078 4.33-2.935.857-.496 1.673-.971 2.44-1.494 2.548-1.735 4.565-4.047 5.876-6.687-1.317-6.736-4.977-12.735-10.194-17.284zm-55.486 36.09c.96-4.445 3.732-9.027 8.412-13.886l.659-.677c1.346-1.385 2.62-2.688 3.472-4.199 1.329-2.367 1.57-5.105 1.824-8.007.048-.54.096-1.08.15-1.614.605-5.945 2.277-10.805 4.959-14.535a36.06 36.06 0 0 0-6.238 2.781c-.06.087-.11.18-.2.251-1.999 1.685-2.905 4.483-2.85 8.803.006.529.018 1.063.036 1.598.085 3.136.175 6.376-1.298 9.381-.791 1.604-1.95 2.956-3.068 4.26-.435.507-.87 1.014-1.28 1.538-3.231 4.107-4.874 9.141-4.638 14.186a.74.74 0 0 1 .06.12zm-3.23-13.286c0 2.35.295 4.636.833 6.839a24.38 24.38 0 0 1 4.565-9.408c.435-.551.894-1.086 1.353-1.626 1.057-1.232 2.06-2.399 2.7-3.714 1.207-2.449 1.129-5.252 1.044-8.225-.012-.545-.03-1.09-.036-1.636-.018-1.538.06-3.398.52-5.241-6.746 5.765-10.98 13.946-10.98 23.011zM116 252.738c20.78 0 37.683 15.37 37.683 34.258 0 18.893-16.903 34.257-37.683 34.257-20.774 0-37.677-15.364-37.677-34.257 0-18.888 16.903-34.258 37.677-34.258zM78.306 239.883c0-3.152-2.838-5.71-6.34-5.71-3.51 0-6.347 2.558-6.347 5.71 0 3.153 2.838 5.711 6.347 5.711 3.502 0 6.34-2.558 6.34-5.711zM108.193 181.093c0-2.907 2.428-5.285 5.556-5.639.006-4.216 0-8.296-.012-12.266a139.423 139.423 0 0 1-4.01-.088 28.88 28.88 0 0 1 3.992-5.475c-.006-1.037-.006-2.073-.006-3.104-.006-.393-.006-.796-.006-1.194-1.287-.54-2.247-1.795-2.283-3.142-.018-.753.223-1.505.604-2.171.368-.649.966-1.194 1.655-1.581-.025-9.403-.031-19.297.06-30.592.006-.737.664-1.331 1.473-1.331h.013c.815.011 1.473.611 1.467 1.347a2877.918 2877.918 0 0 0-.054 30.238c.833.289 1.552.889 1.908 1.663.254.556.326 1.167.338 1.773.006.583-.042 1.172-.241 1.718-.333.9-1.081 1.614-1.987 2.018.006.414.006.834.006 1.249l.018 4.467c1.008 1.352 1.975 2.727 2.844 4.156-.912.032-1.866.049-2.832.06.006 4.057.012 8.23.012 12.549 2.428.802 4.173 2.886 4.173 5.345 0 2.477-1.757 4.566-4.203 5.356-.012 2.204-.024 4.44-.042 6.747-.006.736-.665 1.325-1.48 1.325h-.012c-.815 0-1.473-.605-1.467-1.341.018-2.204.03-4.342.042-6.447-3.116-.365-5.526-2.738-5.526-5.64z" fill="#CEBD9B"/><path d="M154.3 304.22c0-3.153-2.845-5.711-6.347-5.711-3.503 0-6.347 2.558-6.347 5.711 0 3.152 2.844 5.71 6.347 5.71 3.502 0 6.347-2.558 6.347-5.71zM143.376 227.115c0-2.04-1.836-3.692-4.107-3.692-2.264 0-4.106 1.652-4.106 3.692 0 2.046 1.842 3.698 4.106 3.698 2.271 0 4.107-1.652 4.107-3.698zM91.344 336.966c0-2.04-1.836-3.692-4.106-3.692-2.265 0-4.1 1.652-4.1 3.692s1.835 3.692 4.1 3.692c2.27 0 4.106-1.652 4.106-3.692z" fill="#CEBD9B"/></svg>