<svg width="203" height="75" viewBox="0 0 203 75" fill="none" xmlns="http://www.w3.org/2000/svg">
<path d="M30.9629 49.0706C30.9109 49.0706 30.8849 49.0186 30.8849 48.9146C30.8849 48.8106 30.9109 48.7586 30.9629 48.7586C31.5695 48.7586 32.0115 48.7152 32.2889 48.6286C32.5662 48.5419 32.7482 48.3772 32.8349 48.1346C32.9389 47.8746 32.9909 47.4846 32.9909 46.9646V34.9266C32.9909 34.4066 32.9475 34.0252 32.8609 33.7826C32.7742 33.5399 32.6009 33.3752 32.3409 33.2886C32.0809 33.1846 31.6822 33.1326 31.1449 33.1326C31.0929 33.1326 31.0669 33.0806 31.0669 32.9766C31.0669 32.8726 31.0929 32.8206 31.1449 32.8206H42.4809C42.6542 32.8206 42.7409 32.8986 42.7409 33.0546L42.7929 37.4226C42.7929 37.4746 42.7409 37.5092 42.6369 37.5266C42.5502 37.5266 42.4982 37.5006 42.4809 37.4486C42.1862 36.1139 41.6835 35.1346 40.9729 34.5106C40.2622 33.8866 39.3262 33.5746 38.1649 33.5746H37.3849C36.8649 33.5746 36.4835 33.6872 36.2409 33.9126C35.9982 34.1379 35.8769 34.4846 35.8769 34.9526V46.8606C35.8769 47.3979 35.9462 47.7966 36.0849 48.0566C36.2235 48.3166 36.4835 48.4986 36.8649 48.6026C37.2462 48.7066 37.8442 48.7586 38.6589 48.7586C38.6935 48.7586 38.7109 48.8106 38.7109 48.9146C38.7109 49.0186 38.6935 49.0706 38.6589 49.0706C37.9482 49.0706 37.3935 49.0619 36.9949 49.0446L34.3429 49.0186L32.3929 49.0446C32.0462 49.0619 31.5695 49.0706 30.9629 49.0706ZM42.3076 56.2206C42.2556 56.2206 42.2296 56.1686 42.2296 56.0646C42.2296 55.9606 42.2556 55.9086 42.3076 55.9086C42.7236 55.9086 43.0269 55.8566 43.2176 55.7526C43.4256 55.6659 43.5643 55.5012 43.6336 55.2586C43.7203 55.0159 43.7636 54.6346 43.7636 54.1146V42.0766C43.7636 41.5219 43.7029 41.1232 43.5816 40.8806C43.4603 40.6379 43.2436 40.5166 42.9316 40.5166C42.6543 40.5166 42.2556 40.6379 41.7356 40.8806H41.6836C41.6316 40.8806 41.5883 40.8372 41.5536 40.7506C41.5016 40.6639 41.4929 40.6119 41.5276 40.5946L45.2196 38.8006C45.2543 38.7832 45.2976 38.7746 45.3496 38.7746C45.5576 38.7746 45.7483 38.9999 45.9216 39.4506C46.0949 39.8839 46.1816 40.4646 46.1816 41.1926V54.1146C46.1816 54.6346 46.2336 55.0159 46.3376 55.2586C46.4589 55.5012 46.6756 55.6659 46.9876 55.7526C47.3169 55.8566 47.8196 55.9086 48.4956 55.9086C48.5476 55.9086 48.5736 55.9606 48.5736 56.0646C48.5736 56.1686 48.5476 56.2206 48.4956 56.2206C47.8543 56.2206 47.3516 56.2119 46.9876 56.1946L44.9336 56.1686L43.3996 56.1946C43.1396 56.2119 42.7756 56.2206 42.3076 56.2206ZM48.4176 49.4086C47.7936 49.4086 47.2476 49.3566 46.7796 49.2526C46.3116 49.1659 45.7136 49.0012 44.9856 48.7586L45.8956 47.1206C46.3289 47.6579 46.7623 48.0652 47.1956 48.3426C47.6463 48.6199 48.2183 48.7586 48.9116 48.7586C50.6623 48.7586 51.5376 47.2679 51.5376 44.2866C51.5376 42.9692 51.2256 41.9552 50.6016 41.2446C49.9949 40.5166 49.2323 40.1526 48.3136 40.1526C47.7069 40.1526 47.1783 40.2999 46.7276 40.5946C46.2769 40.8719 45.7916 41.3052 45.2716 41.8946L45.0116 41.5826C45.8956 40.5772 46.7363 39.8492 47.5336 39.3986C48.3483 38.9306 49.1803 38.6966 50.0296 38.6966C50.7576 38.6966 51.4336 38.8872 52.0576 39.2686C52.6989 39.6499 53.2103 40.2046 53.5916 40.9326C53.9729 41.6606 54.1636 42.5099 54.1636 43.4806C54.1636 44.8672 53.8776 46.0112 53.3056 46.9126C52.7336 47.7966 52.0056 48.4379 51.1216 48.8366C50.2549 49.2179 49.3536 49.4086 48.4176 49.4086ZM59.6937 49.4086C58.983 49.4086 58.3243 49.2352 57.7177 48.8886C57.1283 48.5246 56.6603 47.9959 56.3137 47.3026C55.967 46.6092 55.7937 45.7772 55.7937 44.8066C55.7937 43.5759 56.0797 42.5012 56.6517 41.5826C57.2237 40.6466 57.9777 39.9359 58.9137 39.4506C59.8497 38.9652 60.855 38.7226 61.9297 38.7226C63.195 38.7226 64.2783 39.1212 65.1797 39.9186L63.2817 41.5826C63.2817 40.9066 63.091 40.3519 62.7097 39.9186C62.3457 39.4852 61.8603 39.2686 61.2537 39.2686C60.387 39.2686 59.7023 39.7019 59.1997 40.5686C58.7143 41.4352 58.4717 42.5532 58.4717 43.9226C58.4717 45.2226 58.6883 46.2366 59.1217 46.9646C59.5723 47.6752 60.205 48.0306 61.0197 48.0306C61.8343 48.0306 62.7357 47.6492 63.7237 46.8866L63.9317 47.0686C63.2037 47.8139 62.519 48.3946 61.8777 48.8106C61.2537 49.2092 60.5257 49.4086 59.6937 49.4086ZM63.9837 49.4346C63.793 49.4346 63.6283 49.2092 63.4897 48.7586C63.351 48.3079 63.2817 47.7012 63.2817 46.9386V39.7366C63.8537 39.5979 64.287 39.4679 64.5817 39.3466C64.8937 39.2079 65.1883 38.9999 65.4657 38.7226C65.483 38.7052 65.509 38.6966 65.5437 38.6966C65.5783 38.6966 65.613 38.7139 65.6477 38.7486C65.6997 38.7659 65.7257 38.7919 65.7257 38.8266V46.2366C65.7257 46.7566 65.7777 47.1292 65.8817 47.3546C66.003 47.5626 66.1937 47.6666 66.4537 47.6666C66.679 47.6666 67.0343 47.5712 67.5197 47.3806H67.5717C67.6237 47.3806 67.667 47.4239 67.7017 47.5106C67.7537 47.5972 67.7537 47.6492 67.7017 47.6666L64.1137 49.4086C64.079 49.4259 64.0357 49.4346 63.9837 49.4346ZM78.6375 42.3886H86.1255L86.3075 43.1166H78.2475L78.6375 42.3886ZM92.4435 48.7586C92.5302 48.7586 92.5735 48.8106 92.5735 48.9146C92.5735 49.0186 92.5302 49.0706 92.4435 49.0706C92.0968 49.0706 91.5595 49.0532 90.8315 49.0186C90.0688 48.9839 89.5228 48.9666 89.1935 48.9666C88.7602 48.9666 88.2315 48.9839 87.6075 49.0186C87.0182 49.0532 86.5502 49.0706 86.2035 49.0706C86.1342 49.0706 86.0995 49.0186 86.0995 48.9146C86.0995 48.8106 86.1342 48.7586 86.2035 48.7586C86.6542 48.7586 86.9748 48.7152 87.1655 48.6286C87.3735 48.5246 87.4775 48.3512 87.4775 48.1086C87.4775 47.8139 87.3042 47.3199 86.9575 46.6266L81.6795 36.2006L82.9535 33.9646L77.7795 45.3786C77.5542 45.8812 77.4415 46.3492 77.4415 46.7826C77.4415 47.4066 77.6582 47.8919 78.0915 48.2386C78.5422 48.5852 79.1402 48.7586 79.8855 48.7586C79.9722 48.7586 80.0155 48.8106 80.0155 48.9146C80.0155 49.0186 79.9722 49.0706 79.8855 49.0706C79.5735 49.0706 79.1228 49.0532 78.5335 49.0186C77.8748 48.9839 77.3028 48.9666 76.8175 48.9666C76.3495 48.9666 75.7862 48.9839 75.1275 49.0186C74.5382 49.0532 74.0615 49.0706 73.6975 49.0706C73.6282 49.0706 73.5935 49.0186 73.5935 48.9146C73.5935 48.8106 73.6282 48.7586 73.6975 48.7586C74.1828 48.7586 74.5902 48.6632 74.9195 48.4726C75.2488 48.2646 75.5782 47.9092 75.9075 47.4066C76.2368 46.8866 76.6268 46.1239 77.0775 45.1186L82.7195 32.7166C82.7542 32.6646 82.8322 32.6386 82.9535 32.6386C83.0922 32.6386 83.1702 32.6646 83.1875 32.7166L89.6875 45.5086C90.2942 46.7392 90.7968 47.5886 91.1955 48.0566C91.5942 48.5246 92.0102 48.7586 92.4435 48.7586ZM93.0888 56.2206C93.0368 56.2206 93.0108 56.1686 93.0108 56.0646C93.0108 55.9606 93.0368 55.9086 93.0888 55.9086C93.5048 55.9086 93.8082 55.8566 93.9988 55.7526C94.2068 55.6659 94.3455 55.5012 94.4148 55.2586C94.5015 55.0159 94.5448 54.6346 94.5448 54.1146V42.0766C94.5448 41.5219 94.4842 41.1232 94.3628 40.8806C94.2415 40.6379 94.0248 40.5166 93.7128 40.5166C93.4355 40.5166 93.0368 40.6379 92.5168 40.8806H92.4648C92.4128 40.8806 92.3695 40.8372 92.3348 40.7506C92.2828 40.6639 92.2742 40.6119 92.3088 40.5946L96.0008 38.8006C96.0355 38.7832 96.0788 38.7746 96.1308 38.7746C96.3388 38.7746 96.5295 38.9999 96.7028 39.4506C96.8762 39.8839 96.9628 40.4646 96.9628 41.1926V54.1146C96.9628 54.6346 97.0148 55.0159 97.1188 55.2586C97.2402 55.5012 97.4568 55.6659 97.7688 55.7526C98.0982 55.8566 98.6008 55.9086 99.2768 55.9086C99.3288 55.9086 99.3548 55.9606 99.3548 56.0646C99.3548 56.1686 99.3288 56.2206 99.2768 56.2206C98.6355 56.2206 98.1328 56.2119 97.7688 56.1946L95.7148 56.1686L94.1808 56.1946C93.9208 56.2119 93.5568 56.2206 93.0888 56.2206ZM99.1988 49.4086C98.5748 49.4086 98.0288 49.3566 97.5608 49.2526C97.0928 49.1659 96.4948 49.0012 95.7668 48.7586L96.6768 47.1206C97.1102 47.6579 97.5435 48.0652 97.9768 48.3426C98.4275 48.6199 98.9995 48.7586 99.6928 48.7586C101.444 48.7586 102.319 47.2679 102.319 44.2866C102.319 42.9692 102.007 41.9552 101.383 41.2446C100.776 40.5166 100.014 40.1526 99.0948 40.1526C98.4882 40.1526 97.9595 40.2999 97.5088 40.5946C97.0582 40.8719 96.5728 41.3052 96.0528 41.8946L95.7928 41.5826C96.6768 40.5772 97.5175 39.8492 98.3148 39.3986C99.1295 38.9306 99.9615 38.6966 100.811 38.6966C101.539 38.6966 102.215 38.8872 102.839 39.2686C103.48 39.6499 103.992 40.2046 104.373 40.9326C104.754 41.6606 104.945 42.5099 104.945 43.4806C104.945 44.8672 104.659 46.0112 104.087 46.9126C103.515 47.7966 102.787 48.4379 101.903 48.8366C101.036 49.2179 100.135 49.4086 99.1988 49.4086ZM106.263 49.0706C106.211 49.0706 106.185 49.0186 106.185 48.9146C106.185 48.8106 106.211 48.7586 106.263 48.7586C106.679 48.7586 106.982 48.7152 107.173 48.6286C107.381 48.5419 107.52 48.3772 107.589 48.1346C107.658 47.8746 107.693 47.4846 107.693 46.9646V33.7566C107.693 33.1499 107.632 32.7166 107.511 32.4566C107.407 32.1966 107.216 32.0666 106.939 32.0666C106.696 32.0666 106.367 32.1619 105.951 32.3526H105.925C105.873 32.3526 105.821 32.3092 105.769 32.2226C105.734 32.1186 105.734 32.0579 105.769 32.0406L109.565 30.2466L109.695 30.2206C109.782 30.2206 109.868 30.2639 109.955 30.3506C110.059 30.4199 110.111 30.4892 110.111 30.5586V46.9646C110.111 47.4846 110.146 47.8746 110.215 48.1346C110.284 48.3772 110.414 48.5419 110.605 48.6286C110.813 48.7152 111.116 48.7586 111.515 48.7586C111.567 48.7586 111.593 48.8106 111.593 48.9146C111.593 49.0186 111.567 49.0706 111.515 49.0706C111.03 49.0706 110.657 49.0619 110.397 49.0446L108.941 49.0186L107.433 49.0446C107.156 49.0619 106.766 49.0706 106.263 49.0706ZM115.077 49.0706C115.042 49.0706 114.964 49.0706 114.843 49.0706C114.722 49.0879 114.514 48.9059 114.219 48.5246C113.924 48.1432 113.439 47.4932 112.763 46.5746L112.217 45.8206C111.836 45.2659 111.558 44.8846 111.385 44.6766C111.212 44.4686 111.03 44.3212 110.839 44.2346C110.666 44.1479 110.423 44.1046 110.111 44.1046C110.007 44.1046 109.695 44.1219 109.175 44.1566L109.149 43.6886C109.894 43.6192 110.631 43.5846 111.359 43.5846C112.052 43.5846 112.572 43.6452 112.919 43.7666C113.283 43.8879 113.595 44.0959 113.855 44.3906C114.132 44.6679 114.6 45.2226 115.259 46.0546C115.432 46.2799 115.71 46.6612 116.091 47.1986C116.472 47.7706 116.793 48.1692 117.053 48.3946C117.313 48.6199 117.686 48.7412 118.171 48.7586C118.223 48.7586 118.249 48.8106 118.249 48.9146C118.249 49.0186 118.223 49.0706 118.171 49.0706H115.077ZM111.359 43.5846C111.706 43.5846 112.096 43.1166 112.529 42.1806C113.188 40.8459 113.76 39.9446 114.245 39.4766C114.748 39.0086 115.285 38.7746 115.857 38.7746C116.36 38.7746 116.732 38.8959 116.975 39.1386C117.235 39.3639 117.365 39.6672 117.365 40.0486C117.365 40.4472 117.252 40.7679 117.027 41.0106C116.802 41.2532 116.472 41.3746 116.039 41.3746C115.779 41.3746 115.51 41.3052 115.233 41.1666C114.956 41.0279 114.704 40.9586 114.479 40.9586C114.202 40.9586 113.968 41.0539 113.777 41.2446C113.604 41.4179 113.37 41.7992 113.075 42.3886C112.52 43.5326 111.948 44.1046 111.359 44.1046V43.5846ZM122.51 49.4086C121.799 49.4086 121.141 49.2352 120.534 48.8886C119.945 48.5246 119.477 47.9959 119.13 47.3026C118.783 46.6092 118.61 45.7772 118.61 44.8066C118.61 43.5759 118.896 42.5012 119.468 41.5826C120.04 40.6466 120.794 39.9359 121.73 39.4506C122.666 38.9652 123.671 38.7226 124.746 38.7226C126.011 38.7226 127.095 39.1212 127.996 39.9186L126.098 41.5826C126.098 40.9066 125.907 40.3519 125.526 39.9186C125.162 39.4852 124.677 39.2686 124.07 39.2686C123.203 39.2686 122.519 39.7019 122.016 40.5686C121.531 41.4352 121.288 42.5532 121.288 43.9226C121.288 45.2226 121.505 46.2366 121.938 46.9646C122.389 47.6752 123.021 48.0306 123.836 48.0306C124.651 48.0306 125.552 47.6492 126.54 46.8866L126.748 47.0686C126.02 47.8139 125.335 48.3946 124.694 48.8106C124.07 49.2092 123.342 49.4086 122.51 49.4086ZM126.8 49.4346C126.609 49.4346 126.445 49.2092 126.306 48.7586C126.167 48.3079 126.098 47.7012 126.098 46.9386V39.7366C126.67 39.5979 127.103 39.4679 127.398 39.3466C127.71 39.2079 128.005 38.9999 128.282 38.7226C128.299 38.7052 128.325 38.6966 128.36 38.6966C128.395 38.6966 128.429 38.7139 128.464 38.7486C128.516 38.7659 128.542 38.7919 128.542 38.8266V46.2366C128.542 46.7566 128.594 47.1292 128.698 47.3546C128.819 47.5626 129.01 47.6666 129.27 47.6666C129.495 47.6666 129.851 47.5712 130.336 47.3806H130.388C130.44 47.3806 130.483 47.4239 130.518 47.5106C130.57 47.5972 130.57 47.6492 130.518 47.6666L126.93 49.4086C126.895 49.4259 126.852 49.4346 126.8 49.4346ZM138.35 49.0706C138.298 49.0706 138.272 49.0186 138.272 48.9146C138.272 48.8106 138.298 48.7586 138.35 48.7586C138.766 48.7586 139.07 48.7152 139.26 48.6286C139.468 48.5419 139.607 48.3772 139.676 48.1346C139.746 47.8746 139.78 47.4846 139.78 46.9646V42.3106C139.78 41.1839 139.512 40.6206 138.974 40.6206C138.784 40.6206 138.558 40.6812 138.298 40.8026H138.272C138.22 40.8026 138.177 40.7592 138.142 40.6726C138.108 40.5686 138.116 40.5079 138.168 40.4906L141.652 38.8266C141.687 38.8092 141.73 38.8006 141.782 38.8006C141.869 38.8006 141.956 38.8439 142.042 38.9306C142.146 38.9999 142.198 39.0692 142.198 39.1386V46.9646C142.198 47.4846 142.233 47.8746 142.302 48.1346C142.372 48.3772 142.502 48.5419 142.692 48.6286C142.883 48.7152 143.186 48.7586 143.602 48.7586C143.637 48.7586 143.654 48.8106 143.654 48.9146C143.654 49.0186 143.637 49.0706 143.602 49.0706C143.117 49.0706 142.744 49.0619 142.484 49.0446L141.028 49.0186L139.494 49.0446C139.217 49.0619 138.836 49.0706 138.35 49.0706ZM131.356 49.0706C131.304 49.0706 131.278 49.0186 131.278 48.9146C131.278 48.8106 131.304 48.7586 131.356 48.7586C131.772 48.7586 132.076 48.7152 132.266 48.6286C132.474 48.5419 132.613 48.3772 132.682 48.1346C132.752 47.8746 132.786 47.4846 132.786 46.9646V42.3106C132.786 41.1839 132.518 40.6206 131.98 40.6206C131.79 40.6206 131.564 40.6812 131.304 40.8026H131.278C131.226 40.8026 131.183 40.7592 131.148 40.6726C131.114 40.5686 131.122 40.5079 131.174 40.4906L134.658 38.8266C134.693 38.8092 134.736 38.8006 134.788 38.8006C134.875 38.8006 134.962 38.8439 135.048 38.9306C135.152 38.9999 135.204 39.0692 135.204 39.1386V46.9646C135.204 47.4846 135.239 47.8746 135.308 48.1346C135.378 48.3772 135.508 48.5419 135.698 48.6286C135.889 48.7152 136.192 48.7586 136.608 48.7586C136.643 48.7586 136.66 48.8106 136.66 48.9146C136.66 49.0186 136.643 49.0706 136.608 49.0706C136.123 49.0706 135.75 49.0619 135.49 49.0446L134.034 49.0186L132.526 49.0446C132.249 49.0619 131.859 49.0706 131.356 49.0706ZM133.956 43.7406H140.95V44.3646H133.956V43.7406ZM145.3 49.0706C145.248 49.0706 145.222 49.0186 145.222 48.9146C145.222 48.8106 145.248 48.7586 145.3 48.7586C145.837 48.7586 146.201 48.6372 146.392 48.3946C146.583 48.1346 146.678 47.6579 146.678 46.9646V42.3106C146.678 41.7212 146.617 41.2966 146.496 41.0366C146.375 40.7766 146.175 40.6466 145.898 40.6466C145.673 40.6466 145.352 40.7419 144.936 40.9326H144.91C144.841 40.9326 144.789 40.8892 144.754 40.8026C144.719 40.6986 144.728 40.6379 144.78 40.6206L148.706 38.8006L148.784 38.7746C148.871 38.7746 148.957 38.8179 149.044 38.9046C149.131 38.9912 149.174 39.0692 149.174 39.1386V39.7106C149.139 40.4039 149.122 41.2532 149.122 42.2586V46.9646C149.122 47.6579 149.217 48.1346 149.408 48.3946C149.616 48.6372 149.989 48.7586 150.526 48.7586C150.578 48.7586 150.604 48.8106 150.604 48.9146C150.604 49.0186 150.578 49.0706 150.526 49.0706C150.075 49.0706 149.72 49.0619 149.46 49.0446L147.9 49.0186L146.366 49.0446C146.106 49.0619 145.751 49.0706 145.3 49.0706ZM147.796 37.1106C147.293 37.1106 146.903 36.9719 146.626 36.6946C146.349 36.4172 146.21 36.0272 146.21 35.5246C146.21 35.0739 146.349 34.7186 146.626 34.4586C146.921 34.1812 147.311 34.0426 147.796 34.0426C148.281 34.0426 148.654 34.1726 148.914 34.4326C149.174 34.6926 149.304 35.0566 149.304 35.5246C149.304 36.0272 149.174 36.4172 148.914 36.6946C148.654 36.9719 148.281 37.1106 147.796 37.1106ZM158.214 39.0346C159.098 39.0346 159.921 39.2426 160.684 39.6586C161.464 40.0572 162.088 40.6466 162.556 41.4266C163.024 42.2066 163.258 43.1426 163.258 44.2346C163.258 45.8119 162.79 47.0686 161.854 48.0046C160.918 48.9406 159.531 49.4086 157.694 49.4086C156.463 49.4086 155.441 49.1746 154.626 48.7066C153.811 48.2386 153.179 47.3719 152.728 46.1066C152.277 44.8412 152.052 43.0386 152.052 40.6986C152.052 36.7986 152.589 34.0772 153.664 32.5346C154.739 30.9919 156.255 30.2206 158.214 30.2206C159.462 30.2206 160.407 30.4892 161.048 31.0266C161.689 31.5639 162.01 32.3612 162.01 33.4186C162.01 34.3199 161.785 35.2039 161.334 36.0706C160.901 36.9372 160.32 37.6912 159.592 38.3326C158.881 38.9566 158.127 39.3726 157.33 39.5806L158.214 39.0346ZM158.24 48.9406C159.003 48.9406 159.549 48.6719 159.878 48.1346C160.225 47.5799 160.398 46.6526 160.398 45.3526C160.398 43.4806 160.017 42.0852 159.254 41.1666C158.509 40.2306 157.425 39.7626 156.004 39.7626C155.415 39.7626 154.929 39.8319 154.548 39.9706V39.1386C154.929 39.1906 155.406 39.2166 155.978 39.2166C156.602 39.2166 157.174 38.9739 157.694 38.4886C158.214 38.0032 158.621 37.3532 158.916 36.5386C159.228 35.7066 159.384 34.8139 159.384 33.8606C159.384 32.8206 159.219 32.0319 158.89 31.4946C158.561 30.9399 158.119 30.6626 157.564 30.6626C156.645 30.6626 155.978 31.3819 155.562 32.8206C155.146 34.2592 154.938 36.5732 154.938 39.7626C154.938 42.2239 155.068 44.1306 155.328 45.4826C155.605 46.8172 155.978 47.7272 156.446 48.2126C156.931 48.6979 157.529 48.9406 158.24 48.9406Z" fill="#FFEBAF"/>
<mask id="mask0_131_2" style="mask-type:luminance" maskUnits="userSpaceOnUse" x="51" y="0" width="42" height="38">
<path d="M51.0787 13.2151L74.2075 0.055026L92.3729 23.9702L69.2442 37.1303L51.0787 13.2151Z" fill="white"/>
</mask>
<g mask="url(#mask0_131_2)">
<path d="M85.829 18.2486C86.2527 19.3205 86.4928 20.4473 86.4603 21.597C86.427 22.7839 86.0703 23.962 85.4469 25.0475C84.0196 27.5271 81.4345 29.3489 78.627 30.6545C77.2282 31.3035 75.7529 31.8694 74.2487 32.2975C72.9886 32.6564 71.6536 32.9166 70.3408 32.8446C68.8856 32.7673 67.6441 32.2342 66.6185 31.4038C65.5073 30.5046 64.6598 29.38 63.9964 28.204C62.6177 25.7602 62.0231 23.0299 61.1781 20.4165C60.9659 19.7641 60.7403 19.1175 60.4865 18.4779C60.4214 18.3129 60.2687 18.2382 60.1071 18.231C58.2293 16.6074 57.2581 14.2126 57.5934 11.8843C57.6753 11.3107 57.7994 10.6781 58.2634 10.214C58.7558 9.7226 59.5163 9.41102 60.1912 9.14819C61.5817 8.60856 63.0629 8.30008 64.5586 8.14865C66.0675 7.99703 67.5896 7.99212 69.0949 8.06479C70.681 8.14105 72.283 8.25597 73.8323 8.52761C75.3487 8.7941 76.7635 9.27634 78.0628 9.962C79.3216 10.6266 80.4452 11.4656 81.463 12.3739C83.3365 14.0476 84.9521 16.0279 85.829 18.2486ZM83.4325 13.0785C81.4645 11.0159 79.0295 9.14933 76.0258 8.22881C74.4356 7.74173 72.7469 7.54208 71.0549 7.40857C69.4624 7.28272 67.8545 7.20417 66.2457 7.25655C64.6486 7.30963 63.0367 7.49599 61.4888 7.90479C60.7193 8.10762 59.9726 8.37277 59.2525 8.69068C58.4772 9.03272 57.7219 9.44229 57.2636 10.096C56.8556 10.6808 56.7319 11.3756 56.659 12.0286C56.587 12.6682 56.6006 13.3087 56.6984 13.9398C56.9006 15.2076 57.4069 16.4234 58.2086 17.4878C58.6024 18.0092 59.0689 18.4912 59.5885 18.9227C59.6251 18.9533 59.6631 18.974 59.7022 18.9902C60.7162 21.6324 61.2717 24.4051 62.4019 27.0123C62.9702 28.3215 63.6852 29.5949 64.6618 30.7103C65.6173 31.8009 66.8199 32.8262 68.3644 33.2971C71.1339 34.1415 74.2031 33.2508 76.8428 32.25C80.0509 31.0342 83.1709 29.3616 85.2225 26.861C86.129 25.7576 86.8224 24.5293 87.1499 23.2246C87.4609 22.0009 87.4412 20.7561 87.187 19.5491C86.6776 17.1395 85.2086 14.9381 83.4325 13.0785Z" fill="#FFEBAF"/>
</g>
<path d="M59.2302 11.6208C59.0652 11.5594 58.8887 11.6349 58.9016 11.8061C59.0369 13.5591 59.9749 15.4703 61.447 16.9961C61.5899 17.1455 61.8088 17.1507 61.8909 17.0461C61.986 16.9255 61.9163 16.7314 61.7734 16.5838C60.5052 15.269 59.6682 13.5565 59.5524 12.0482C59.5386 11.8776 59.4163 11.6909 59.2302 11.6208Z" fill="#FFEBAF"/>
<path d="M82.8018 16.9266C82.6398 16.7632 82.3862 16.6872 82.1492 16.8209C81.9522 16.932 81.8348 17.2153 81.9978 17.3801C82.9855 18.3785 83.642 19.6128 83.8469 20.9263C84.0517 22.2246 83.897 23.6635 83.1292 24.8554C82.7038 25.5144 82.0729 26.0703 81.2044 26.2656C80.9561 26.3207 80.8165 26.5806 80.8858 26.7756C80.9622 26.9949 81.2247 27.0828 81.4746 27.0268C83.3312 26.6102 84.3379 24.9419 84.6874 23.4706C85.0369 21.9993 84.8883 20.4578 84.276 19.0853C83.9256 18.2995 83.4347 17.5664 82.8018 16.9266Z" fill="#FFEBAF"/>
<path d="M68.0658 20.3595C68.012 20.4208 67.9692 20.4848 67.9368 20.5539C67.9239 20.572 67.9103 20.5924 67.8996 20.6165C67.8991 20.6187 67.8994 20.6221 67.8963 20.6239C67.9143 20.2146 67.9801 19.8038 68.1012 19.4016C68.131 19.2996 68.1657 19.1984 68.202 19.0962C68.1242 19.5175 68.0802 19.9396 68.0658 20.3595ZM72.3106 25.5253C72.2036 25.5131 72.0957 25.4996 71.9915 25.4822C72.0273 25.4619 72.0597 25.44 72.0898 25.4122C72.1169 25.4187 72.1424 25.426 72.1701 25.4304C72.2071 25.4676 72.258 25.4969 72.3186 25.5154C72.3164 25.5184 72.3118 25.521 72.3106 25.5253ZM69.3323 17.1889C69.292 17.3241 69.2587 17.4626 69.2279 17.6015C69.1707 17.5757 69.1064 17.5612 69.0391 17.5574C69.1332 17.4317 69.2283 17.3074 69.3323 17.1889ZM78.2454 22.2798C77.1719 22.8507 76.0192 23.2959 74.8129 23.5934C74.3517 23.7066 73.8551 23.8052 73.3838 23.7517C72.8591 23.6921 72.4554 23.4335 72.0852 23.1398C70.7779 22.101 70.0554 20.5854 69.9987 19.0426C69.9677 18.1675 70.1473 17.2771 70.5634 16.4528C70.6292 16.325 70.6251 16.184 70.5517 16.0748C70.6878 15.94 70.741 15.763 70.6211 15.6039C70.504 15.4486 70.1846 15.3638 69.9905 15.5042C67.498 17.3017 66.319 20.2671 67.3222 22.8181C67.854 24.1691 68.9645 25.3388 70.5184 25.912C71.5716 26.3013 72.7754 26.4279 73.9414 26.2655L74.0135 26.2757C74.1791 26.3038 74.3123 26.2595 74.4053 26.1854C74.6104 26.1422 74.8139 26.091 75.0122 26.0299C76.8332 25.4692 78.2773 24.1993 78.9345 22.6694C79.0795 22.3283 78.5598 22.1133 78.2454 22.2798Z" fill="#FFEBAF"/>
<path d="M122.321 66.294C122.172 68.1009 121.271 69.8044 119.867 71.1428C118.463 72.4838 116.614 73.4571 114.593 73.933C112.237 74.487 109.714 74.3825 107.392 73.7567C106.253 73.4508 105.159 73.0164 104.155 72.4586C103.194 71.926 102.27 71.2612 101.599 70.4591C101.267 70.0613 101.001 69.6256 100.879 69.1446C100.759 68.6662 100.802 68.1676 100.932 67.6942C101.214 66.6693 101.843 65.7489 102.361 64.8033C102.921 63.7821 103.355 62.7094 103.643 61.6077C103.891 60.6621 104.016 59.6964 104.247 58.7495C104.467 57.8568 104.784 56.9654 105.425 56.225C106.008 55.5501 106.864 55.0805 107.791 54.8312C109.887 54.2696 112.063 54.7745 113.894 55.7214C114.905 56.2426 115.82 56.881 116.692 57.5584C117.647 58.3013 118.554 59.0882 119.411 59.9142C119.832 60.3209 120.241 60.7364 120.638 61.1607C120.647 61.1708 120.658 61.1771 120.668 61.1859C121.923 62.6527 122.472 64.4835 122.321 66.294ZM122.089 61.9741C121.844 61.5472 121.552 61.1431 121.217 60.7653C121.193 60.7389 121.167 60.7175 121.139 60.6961C119.506 58.951 117.66 57.2978 115.579 55.943C113.711 54.7292 111.456 53.8075 109.061 53.9838C107.984 54.0619 106.909 54.3389 106.017 54.8753C105.08 55.4393 104.436 56.2338 104.021 57.1429C103.602 58.0608 103.428 59.0454 103.244 60.0137C103.036 61.0965 102.773 62.1604 102.345 63.1967C101.902 64.2644 101.248 65.2427 100.727 66.2815C100.227 67.2837 99.8716 68.3804 100.215 69.4657C100.541 70.4969 101.41 71.3556 102.32 72.0506C103.246 72.7583 104.303 73.3324 105.426 73.7769C107.762 74.7023 110.391 75.1128 112.951 74.8458C115.284 74.6028 117.476 73.8096 119.279 72.509C120.971 71.2864 122.26 69.6231 122.789 67.7684C123.338 65.842 123.109 63.7557 122.089 61.9741Z" fill="#FFEBAF"/>
<path d="M120.272 67.1703C119.871 68.3827 119.227 69.5358 118.355 70.5842C117.627 71.4609 116.691 72.2679 115.525 72.7857C114.895 73.0646 114.199 73.2454 113.475 73.2789C112.949 73.3022 112.945 73.9503 113.475 73.9271C116.614 73.7851 118.833 71.5655 120.072 69.4932C120.485 68.8024 120.819 68.0819 121.064 67.342C121.198 66.9379 120.405 66.7662 120.272 67.1703Z" fill="#FFEBAF"/>
<path d="M108.604 56.0124C107.927 56.4824 107.346 57.125 106.884 57.8909C106.662 58.2576 106.474 58.6537 106.324 59.0713C106.14 59.5798 105.998 60.1253 106.131 60.6785C106.246 61.1547 106.857 60.9528 106.742 60.4736C106.646 60.0729 106.793 59.6553 106.932 59.2963C107.079 58.9218 107.255 58.5628 107.461 58.233C107.855 57.5981 108.358 57.0726 108.925 56.6812C109.278 56.4347 108.96 55.7659 108.604 56.0124Z" fill="#FFEBAF"/>
<path d="M113.899 67.0466C113.112 67.8223 112.65 68.7639 112.425 69.7433C112.384 69.9241 112.353 70.106 112.325 70.2891C112.09 69.9035 111.825 69.5305 111.528 69.1747C110.938 68.4653 110.218 67.764 109.244 67.3887C109.027 67.3063 108.802 67.2377 108.571 67.1885C110.165 66.3384 111.139 64.8578 111.494 63.351C111.518 63.2469 111.539 63.1416 111.558 63.0375C111.71 63.3647 111.88 63.6885 112.087 63.9952C112.624 64.7903 113.43 65.4894 114.484 65.8372C114.778 65.9333 115.084 65.9905 115.397 66.0249C114.823 66.2846 114.314 66.6381 113.899 67.0466ZM116.907 65.6759C116.862 65.5798 116.757 65.5031 116.591 65.5031C116.03 65.5009 115.463 65.4974 114.925 65.3578C114.497 65.2469 114.102 65.0512 113.767 64.8109C112.997 64.2595 112.52 63.5123 112.178 62.74C112.075 62.5055 111.982 62.2687 111.893 62.0295C111.848 61.906 111.802 61.7824 111.758 61.6588C111.735 61.5948 111.711 61.5307 111.69 61.4666C111.684 61.4495 111.679 61.4311 111.673 61.414C111.667 61.3968 111.684 61.3396 111.662 61.3797C111.74 61.2378 111.713 61.0707 111.534 60.9872C111.382 60.9151 111.126 60.9472 111.047 61.0902C111.016 61.1451 110.997 61.2 110.986 61.2527C110.953 61.295 110.933 61.3476 110.938 61.4117C111.067 63.1691 110.452 65.0935 108.808 66.3235C108.409 66.6233 107.943 66.8738 107.437 67.0386C107.346 67.0683 107.269 67.1175 107.222 67.1805C107.137 67.2297 107.079 67.304 107.079 67.4024C107.079 67.5431 107.242 67.7079 107.435 67.6896C108.717 67.5649 109.771 68.2468 110.514 69.0157C111.251 69.7777 111.821 70.6518 112.217 71.5648C112.217 71.566 112.217 71.566 112.217 71.5682C112.215 71.6506 112.251 71.7135 112.305 71.7593C112.472 72.0728 113.118 71.9241 112.978 71.5808C112.963 71.5454 112.948 71.5099 112.932 71.4744C112.983 69.7479 113.472 67.82 115.313 66.7468C115.77 66.4802 116.273 66.2892 116.823 66.1908C117.163 66.1313 117.136 65.7983 116.907 65.6759Z" fill="#FFEBAF"/>
<path d="M114.991 61.2061C114.951 61.1549 114.883 61.1104 114.784 61.0724C114.696 61.0311 114.589 61.0031 114.465 60.9865C114.342 60.9601 114.214 60.9486 114.079 60.9502C113.991 60.9568 113.9 60.9601 113.812 60.9651C113.645 60.9849 113.497 61.0212 113.374 61.0724C113.318 61.1005 113.266 61.1285 113.215 61.1566C113.127 61.221 113.079 61.2903 113.079 61.3646V61.533C113.075 61.5908 113.103 61.6436 113.163 61.6931C113.207 61.7443 113.274 61.7889 113.374 61.8268C113.462 61.8664 113.569 61.8945 113.693 61.9127C113.812 61.9374 113.939 61.949 114.079 61.9473C114.166 61.9424 114.254 61.9374 114.342 61.9325C114.513 61.9127 114.66 61.878 114.784 61.8268C114.836 61.7988 114.887 61.7707 114.943 61.7426C115.031 61.6782 115.078 61.6073 115.078 61.533V61.3646C115.082 61.3085 115.055 61.2556 114.991 61.2061Z" fill="#FFEBAF"/>
<path d="M116.063 62.3731C116.041 62.2955 116.003 62.2287 115.947 62.1727C115.916 62.142 115.885 62.1114 115.854 62.0807C115.813 62.0374 115.764 62.0067 115.707 61.9868C115.653 61.9597 115.595 61.9453 115.534 61.9489C115.47 61.9453 115.412 61.9597 115.358 61.9868C115.302 62.0067 115.253 62.0374 115.211 62.0807C115.188 62.1114 115.164 62.142 115.14 62.1727C115.099 62.2431 115.079 62.3189 115.079 62.4019C115.082 62.4417 115.09 62.4814 115.095 62.5211C115.115 62.5987 115.155 62.6655 115.211 62.7214L115.303 62.8135C115.345 62.8568 115.394 62.8875 115.45 62.9073C115.505 62.9344 115.563 62.9488 115.624 62.9452C115.688 62.9488 115.746 62.9344 115.8 62.9073C115.856 62.8875 115.905 62.8568 115.947 62.8135C115.97 62.7828 115.994 62.7521 116.017 62.7214C116.059 62.651 116.079 62.5752 116.079 62.4922C116.073 62.4525 116.068 62.4128 116.063 62.3731Z" fill="#FFEBAF"/>
<mask id="mask1_131_2" style="mask-type:luminance" maskUnits="userSpaceOnUse" x="167" y="7" width="36" height="39">
<path d="M167.079 7.04303H202.079V45.6046H167.079V7.04303Z" fill="white"/>
</mask>
<g mask="url(#mask1_131_2)">
<path d="M199.179 29.5621C198.636 31.3053 197.977 33.0204 197.195 34.6794C196.467 36.2285 195.658 37.7581 194.678 39.1798C192.99 41.6241 190.541 43.993 187.301 44.2756C185.34 44.4482 183.352 44.0081 181.471 43.527C179.693 43.0718 177.953 42.4742 176.327 41.65C173.37 40.1528 170.75 37.8465 169.503 34.8456C168.835 33.2448 168.634 31.5598 168.819 29.8512C169.015 28.0497 169.532 26.1534 170.481 24.572C171.386 23.0618 172.745 21.8687 174.09 20.7145C175.654 19.3769 177.221 18.0415 178.787 16.7061C179.563 16.0437 180.338 15.3814 181.113 14.7191C181.145 14.691 181.172 14.663 181.195 14.6328C181.359 14.6069 181.508 14.5249 181.578 14.3804C182.896 11.7095 185.473 9.67938 188.476 8.90703C191.453 8.14114 194.595 8.797 197.037 10.5596C198.219 11.4118 199.201 12.5121 199.881 13.7634C200.711 15.2951 200.955 17.0189 200.959 18.7232C200.964 22.3736 200.266 26.0692 199.179 29.5621ZM201.655 15.1333C201.222 13.6123 200.382 12.2143 199.27 11.045C197.083 8.74522 193.802 7.34506 190.516 7.50687C187.13 7.67514 183.92 9.34498 181.856 11.8756C181.364 12.4797 180.942 13.1269 180.6 13.8173C180.497 13.8324 180.397 13.8755 180.304 13.9554C178.655 15.362 177.004 16.7708 175.356 18.1796C173.853 19.4611 172.264 20.6973 170.932 22.1427C170.28 22.8504 169.696 23.6162 169.252 24.4533C168.789 25.3249 168.449 26.2504 168.189 27.1911C167.66 29.109 167.421 31.1132 167.783 33.0786C168.401 36.4183 170.702 39.3049 173.545 41.2768C175.107 42.362 176.858 43.1818 178.671 43.8182C180.518 44.4698 182.465 44.9617 184.417 45.2335C186.408 45.5118 188.366 45.4212 190.213 44.6186C191.745 43.952 193.059 42.8711 194.144 41.663C195.266 40.416 196.189 39.0201 196.987 37.5704C197.931 35.8595 198.75 34.0883 199.441 32.2739C200.822 28.6581 201.68 24.8654 201.994 21.0317C202.156 19.0684 202.2 17.0512 201.655 15.1333Z" fill="#FFEBAF"/>
</g>
<path d="M188.058 13.5067C187.986 13.2111 187.647 12.9356 187.363 13.0659C185.437 13.9625 183.69 15.2649 182.24 16.9455C181.736 17.5291 182.532 18.4182 183.038 17.8322C184.344 16.3194 185.92 15.0896 187.662 14.2781C187.946 14.1479 188.146 13.8623 188.058 13.5067Z" fill="#FFEBAF"/>
<path d="M191.618 39.0023C191.273 38.9429 190.964 39.0743 190.852 39.2759C189.711 41.3315 186.23 42.5602 182.857 42.1069C182.075 42.0022 181.743 42.7572 182.525 42.8635C184.563 43.137 186.74 42.9338 188.53 42.2491C190.179 41.6176 191.415 40.6281 192.051 39.4838C192.162 39.2837 191.925 39.0555 191.618 39.0023Z" fill="#FFEBAF"/>
<path d="M187.779 29.9657C187.824 29.2386 187.867 28.5115 187.912 27.7843C188.275 27.964 188.64 28.1416 188.997 28.3276C189.808 28.7497 190.608 29.1906 191.394 29.6502C190.271 30.0577 189 30.0347 187.779 29.9657ZM183.554 30.8956C184.564 30.8788 185.572 30.8956 186.581 30.9457L186.386 34.1217C185.421 33.0603 184.478 31.9842 183.554 30.8956ZM180.295 30.0201C179.701 30.0744 179.108 30.1413 178.519 30.2165C179.123 29.7129 179.731 29.2156 180.347 28.7246C180.673 29.132 181.001 29.5374 181.332 29.9407C180.985 29.9637 180.639 29.9908 180.295 30.0201ZM179.354 25.6635C178.951 25.1286 178.553 24.5895 178.156 24.0505C179.703 24.4851 181.226 24.9865 182.723 25.5444C181.989 26.0877 181.262 26.6393 180.541 27.1993C180.141 26.6895 179.744 26.1775 179.354 25.6635ZM186.646 29.901C185.33 29.8341 184.012 29.8237 182.696 29.8696C182.193 29.2658 181.697 28.6577 181.207 28.0455C182.095 27.3518 182.997 26.6727 183.91 26.0041C184.888 26.3969 185.856 26.8148 186.809 27.2578C186.755 28.1395 186.701 29.0192 186.646 29.901ZM185.702 24.7212C186.139 24.414 186.578 24.1131 187.02 23.8143C186.975 24.5812 186.927 25.348 186.88 26.1149C186.234 25.8223 185.579 25.5423 184.925 25.2728C185.183 25.0889 185.441 24.903 185.702 24.7212ZM192.805 29.2428C191.247 28.2963 189.636 27.4312 187.983 26.6372C188.057 25.4316 188.132 24.226 188.207 23.0203C188.218 23.0141 188.23 23.0057 188.239 22.9974C188.49 22.8344 188.608 22.5419 188.445 22.2807C188.3 22.0529 187.917 21.9276 187.666 22.0926C186.338 22.9681 185.033 23.8708 183.747 24.7985C182.721 24.4015 181.683 24.0317 180.634 23.6932C179.425 23.3024 178.202 22.9514 176.969 22.638C176.509 22.5231 176.047 23.0183 176.326 23.409C177.409 24.9218 178.525 26.4116 179.676 27.8763C179.373 28.1187 179.071 28.361 178.77 28.6055C177.991 29.2365 177.225 29.878 176.466 30.5299C176.183 30.5968 176.022 30.9185 176.097 31.1672C176.183 31.4597 176.494 31.5851 176.795 31.5328C178.568 31.2257 180.36 31.0293 182.161 30.9436C182.786 31.6916 183.423 32.4355 184.068 33.171C184.857 34.0674 185.656 34.9554 186.47 35.8309C186.814 36.2007 187.414 35.8789 187.441 35.459C187.532 33.9754 187.623 32.4919 187.715 31.0084C188.384 31.0439 189.052 31.0669 189.72 31.0251C190.81 30.9582 191.895 30.7263 192.805 30.1475C193.163 29.9177 193.177 29.4664 192.805 29.2428Z" fill="#FFEBAF"/>
<path d="M188.578 21.0189C187.913 21.0189 187.911 22.0163 188.578 22.0163C189.245 22.0163 189.247 21.0189 188.578 21.0189Z" fill="#FFEBAF"/>
<path d="M190.135 19.0223H190.022C188.766 19.0223 188.762 20.0198 190.022 20.0198H190.135C191.391 20.0198 191.395 19.0223 190.135 19.0223Z" fill="#FFEBAF"/>
<path d="M188.062 38.3562C188.041 38.2707 188.001 38.1991 187.945 38.1355C187.914 38.1096 187.883 38.0838 187.853 38.0579C187.782 38.0122 187.706 37.9903 187.625 37.9903H187.533C187.469 37.9864 187.412 38.0003 187.357 38.0321C187.301 38.052 187.253 38.0878 187.213 38.1355C187.168 38.1812 187.137 38.2349 187.117 38.2965C187.09 38.3562 187.077 38.4198 187.079 38.4894C187.084 38.5331 187.09 38.5769 187.095 38.6206C187.117 38.7061 187.155 38.7797 187.213 38.8413C187.242 38.8671 187.272 38.893 187.303 38.9188C187.374 38.9646 187.451 38.9864 187.533 38.9864H187.625C187.686 38.9904 187.744 38.9765 187.798 38.9447C187.856 38.9248 187.905 38.889 187.945 38.8413C187.99 38.7956 188.021 38.7419 188.039 38.6803C188.068 38.6206 188.08 38.557 188.079 38.4894C188.073 38.4437 188.068 38.3999 188.062 38.3562Z" fill="#FFEBAF"/>
<path d="M174.994 32.5575C174.95 32.4455 174.883 32.3479 174.787 32.2648C174.695 32.1781 174.588 32.1167 174.465 32.077C174.345 32.0228 174.218 31.9939 174.078 32.0011C173.991 32.0119 173.903 32.0228 173.816 32.0336C173.645 32.077 173.497 32.1528 173.374 32.2648C173.322 32.3263 173.27 32.3877 173.215 32.4491C173.127 32.59 173.079 32.7418 173.079 32.908V33.0886C173.075 33.2151 173.103 33.3307 173.167 33.4391C173.207 33.5511 173.274 33.6486 173.374 33.7317C173.465 33.822 173.569 33.8835 173.696 33.9196C173.816 33.9738 173.943 34.0027 174.078 33.9955C174.17 33.9882 174.258 33.9738 174.345 33.9666C174.516 33.9232 174.66 33.8437 174.787 33.7317C174.839 33.6703 174.891 33.6089 174.942 33.5475C175.034 33.4065 175.078 33.2548 175.078 33.0886V32.908C175.086 32.7815 175.054 32.6659 174.994 32.5575Z" fill="#FFEBAF"/>
<path d="M176.063 22.4411C176.041 22.3654 176.003 22.2987 175.945 22.2428C175.914 22.2121 175.885 22.1815 175.855 22.1508C175.813 22.1057 175.764 22.0751 175.708 22.057C175.654 22.0282 175.596 22.0156 175.533 22.0174C175.471 22.0156 175.412 22.0282 175.357 22.057C175.301 22.0751 175.252 22.1057 175.213 22.1508L175.14 22.2428C175.101 22.3131 175.079 22.3888 175.079 22.4699C175.084 22.5114 175.09 22.5511 175.095 22.5907C175.117 22.6683 175.157 22.7332 175.213 22.7909L175.303 22.8828C175.345 22.9261 175.394 22.9568 175.45 22.9766C175.504 23.0036 175.563 23.0163 175.625 23.0145C175.688 23.0163 175.746 23.0036 175.8 22.9766C175.856 22.9568 175.905 22.9261 175.945 22.8828C175.97 22.8522 175.994 22.8215 176.016 22.7909C176.059 22.7206 176.079 22.643 176.079 22.5619C176.073 22.5222 176.068 22.4826 176.063 22.4411Z" fill="#FFEBAF"/>
<mask id="mask2_131_2" style="mask-type:luminance" maskUnits="userSpaceOnUse" x="0" y="37" width="34" height="36">
<path d="M0.0788574 50.4025L20.5511 37.9897L33.8345 59.8342L13.3623 72.247L0.0788574 50.4025Z" fill="white"/>
</mask>
<g mask="url(#mask2_131_2)">
<path d="M26.6126 51.7762C26.8956 52.9561 27.101 54.1614 27.2151 55.3786C27.3232 56.5141 27.3767 57.6676 27.2929 58.8207C27.148 60.8038 26.5316 63.0142 24.7338 64.3233C23.6462 65.1165 22.3316 65.5723 21.0656 65.9669C19.8685 66.3398 18.645 66.6183 17.4102 66.728C15.1646 66.9286 12.8377 66.5513 11.0744 65.2936C10.1322 64.6237 9.43438 63.7404 8.95381 62.707C8.44796 61.6169 8.09745 60.3591 8.10753 59.1269C8.11678 57.9504 8.50069 56.7926 8.88998 55.6617C9.34413 54.3492 9.80036 53.0372 10.2566 51.7252C10.4819 51.075 10.7072 50.4249 10.9325 49.7748C10.9415 49.7476 10.9479 49.722 10.9508 49.6968C11.0379 49.6239 11.0964 49.5249 11.0879 49.4179C10.9387 47.4375 11.7465 45.3738 13.2369 43.8713C14.7149 42.3813 16.7787 41.6385 18.8143 41.771C19.7987 41.8348 20.7526 42.1096 21.581 42.5775C22.5942 43.1508 23.3307 44.0408 23.9205 45.0047C25.1806 47.0709 26.0455 49.4119 26.6126 51.7762ZM23.0906 42.7244C22.3132 42.0164 21.3409 41.5221 20.2872 41.2543C18.2159 40.727 15.8144 41.0975 13.9483 42.3544C12.0257 43.6505 10.723 45.735 10.3878 47.9004C10.3078 48.4172 10.284 48.9335 10.3218 49.4459C10.267 49.4908 10.2231 49.5508 10.196 49.6292C9.71624 51.0107 9.23593 52.3942 8.75695 53.7769C8.31949 55.0357 7.81573 56.2996 7.53478 57.5907C7.3971 58.2228 7.3195 58.8637 7.34778 59.4956C7.37728 60.1534 7.49738 60.7982 7.66937 61.4233C8.02063 62.6973 8.57101 63.9176 9.46011 64.9024C10.972 66.5751 13.3121 67.3944 15.6545 67.5031C16.9419 67.5639 18.2486 67.4073 19.5281 67.1249C20.8329 66.839 22.1413 66.4271 23.3766 65.8889C24.6368 65.3406 25.7512 64.5946 26.5551 63.485C27.2217 62.564 27.6176 61.4859 27.8362 60.4166C28.0629 59.3124 28.1222 58.1941 28.0896 57.0899C28.0524 55.7859 27.921 54.4923 27.7001 53.2194C27.2628 50.6811 26.4578 48.2285 25.3212 45.9452C24.7396 44.7757 24.07 43.6176 23.0906 42.7244Z" fill="#FFEBAF"/>
</g>
<path d="M14.2799 46.7945C14.1475 46.6669 13.8683 46.6411 13.7465 46.805C12.9212 47.9252 12.324 49.1929 12.0134 50.5538C11.9054 51.0263 12.6352 51.212 12.7436 50.7374C13.0238 49.5121 13.5456 48.3402 14.2918 47.3269C14.4136 47.163 14.4399 46.9476 14.2799 46.7945Z" fill="#FFEBAF"/>
<path d="M25.1799 59.7409C24.9503 59.8262 24.8151 60.0218 24.826 60.1916C24.9337 61.9241 23.3169 63.9643 21.1164 64.8831C20.6061 65.0965 20.6982 65.7015 21.2091 65.489C22.5386 64.9336 23.7674 64.0217 24.5784 62.9385C25.3251 61.9402 25.6854 60.86 25.626 59.8952C25.6157 59.7265 25.3849 59.6649 25.1799 59.7409Z" fill="#FFEBAF"/>
<path d="M20.0785 55.934C19.8654 55.5166 19.651 55.0999 19.4379 54.6825C19.7168 54.6504 19.9965 54.6163 20.2747 54.5894C20.9055 54.5287 21.5356 54.4824 22.1637 54.4515C21.618 55.0829 20.8408 55.5302 20.0785 55.934ZM17.8274 57.976C18.4337 57.6011 19.0498 57.2455 19.6769 56.9083L20.6094 58.7306C19.6739 58.4944 18.7472 58.2419 17.8274 57.976ZM15.5636 58.6729C15.2221 58.9177 14.8848 59.1693 14.553 59.424C14.7527 58.9273 14.9559 58.4333 15.1667 57.9395C15.499 58.0461 15.832 58.1509 16.1657 58.2536C15.9634 58.3917 15.7625 58.5321 15.5636 58.6729ZM13.5533 56.6102C13.1321 56.4611 12.7124 56.308 12.294 56.1542C13.3747 55.8339 14.4625 55.5595 15.5539 55.3253C15.2891 55.8906 15.0312 56.458 14.7801 57.0276C14.3687 56.8915 13.9592 56.7527 13.5533 56.6102ZM19.3711 56.3082C18.5519 56.7477 17.75 57.2191 16.9681 57.7208C16.4638 57.5698 15.9622 57.4139 15.4634 57.2534C15.7717 56.5493 16.0931 55.8485 16.4249 55.1492C17.1475 55.0117 17.8715 54.8921 18.5956 54.7913C18.8543 55.2973 19.1124 55.8022 19.3711 56.3082ZM17.0857 53.7931C17.2489 53.4654 17.4155 53.1404 17.5842 52.8157C17.8104 53.2551 18.0353 53.6953 18.2601 54.1355C17.7723 54.2078 17.2832 54.2903 16.7976 54.3786C16.8932 54.1837 16.9881 53.9876 17.0857 53.7931ZM22.8837 53.716C21.6267 53.758 20.3651 53.8637 19.101 54.0243C18.7475 53.3323 18.394 52.6402 18.0405 51.9482C18.0453 51.9406 18.0494 51.9319 18.0521 51.924C18.1505 51.7431 18.125 51.5391 17.9399 51.4541C17.7767 51.3809 17.5034 51.4504 17.4057 51.6324C16.8914 52.5958 16.3997 53.5659 15.9273 54.5433C15.1745 54.6957 14.4238 54.8672 13.6767 55.0601C12.8148 55.2824 11.9579 55.5315 11.1079 55.8047C10.7914 55.9077 10.6753 56.3481 10.9733 56.4628C12.1294 56.9053 13.2985 57.3228 14.48 57.7142C14.3763 57.9578 14.274 58.2005 14.1724 58.4444C13.9092 59.0745 13.6576 59.7054 13.4137 60.3397C13.2643 60.4791 13.2733 60.7147 13.4008 60.8248C13.5497 60.955 13.7792 60.9119 13.9443 60.774C14.917 59.9626 15.9372 59.2058 16.9995 58.5067C17.6256 58.693 18.2572 58.8729 18.8914 59.0449C19.6654 59.254 20.4434 59.4544 21.2255 59.643C21.5563 59.7224 21.8135 59.3276 21.691 59.0861C21.2552 58.2351 20.8194 57.384 20.3849 56.5321C20.8014 56.3098 21.2137 56.0806 21.6046 55.8157C22.2424 55.3845 22.8228 54.8638 23.1829 54.215C23.3237 53.9587 23.1826 53.7048 22.8837 53.716Z" fill="#FFEBAF"/>
<path d="M17.1423 50.5699C16.5718 50.9109 17.0844 51.7698 17.6568 51.4278C18.2291 51.0857 17.7164 50.2268 17.1423 50.5699Z" fill="#FFEBAF"/>
<path d="M17.5116 49.1857L17.4631 49.2147C16.924 49.5369 17.4367 50.3957 17.9775 50.0725L18.0261 50.0435C18.5652 49.7213 18.0524 48.8625 17.5116 49.1857Z" fill="#FFEBAF"/>
<path d="M13.2085 62.554C13.1608 62.5171 13.1066 62.4926 13.0442 62.4814C12.9826 62.4676 12.9206 62.4688 12.8574 62.4834C12.7922 62.4907 12.73 62.511 12.6721 62.5498C12.6373 62.577 12.6025 62.6041 12.5677 62.6312C12.5054 62.6937 12.4617 62.7641 12.4376 62.8439C12.4312 62.8836 12.4248 62.9232 12.4167 62.9639C12.4154 63.0469 12.434 63.1244 12.4768 63.1958L12.5234 63.2734C12.5543 63.3288 12.596 63.3713 12.6513 63.4015C12.6972 63.4394 12.7514 63.464 12.8155 63.4742C12.8781 63.4895 12.9384 63.4893 13.0024 63.4722C13.0676 63.4648 13.1297 63.4446 13.186 63.4067C13.2234 63.3801 13.2573 63.3515 13.293 63.3259C13.3553 63.2633 13.3963 63.1924 13.4222 63.1116C13.4286 63.072 13.4349 63.0323 13.4413 62.9926C13.4443 62.9086 13.424 62.8322 13.3812 62.7608L13.3347 62.6831C13.3055 62.6268 13.262 62.5853 13.2085 62.554Z" fill="#FFEBAF"/>
<path d="M10.5685 56.1572C10.5108 56.1032 10.4438 56.0653 10.3653 56.0469C10.3231 56.0364 10.2824 56.0248 10.2402 56.0142C10.1813 55.9968 10.1235 55.9955 10.0661 56.0088C10.0047 56.0118 9.94847 56.0306 9.89506 56.0646C9.84135 56.0946 9.79663 56.1361 9.76493 56.1887C9.72611 56.233 9.7 56.2844 9.68909 56.3436L9.67442 56.4598C9.67653 56.5407 9.69696 56.617 9.73881 56.6867C9.76485 56.7196 9.78997 56.751 9.81508 56.7823C9.8737 56.8378 9.94133 56.8732 10.0192 56.8941L10.1443 56.9268C10.2023 56.9427 10.26 56.944 10.3184 56.9323C10.3789 56.9277 10.4366 56.908 10.4885 56.8749C10.5438 56.8439 10.5869 56.8034 10.6195 56.7523C10.6574 56.7065 10.6836 56.6551 10.6954 56.5974C10.7013 56.5581 10.7057 56.5197 10.7085 56.4822C10.7095 56.3994 10.6866 56.3225 10.6447 56.2528C10.6196 56.2214 10.5945 56.1901 10.5685 56.1572Z" fill="#FFEBAF"/>
<path d="M194.995 31.2803C194.951 31.2243 194.883 31.1756 194.788 31.1341C194.696 31.0907 194.589 31.0583 194.465 31.0402C194.346 31.0113 194.218 30.9987 194.079 31.0023C193.991 31.0077 193.904 31.0113 193.816 31.0186C193.645 31.0384 193.497 31.0781 193.374 31.1341C193.322 31.1647 193.27 31.1954 193.215 31.2261C193.127 31.2965 193.079 31.3723 193.079 31.4535V31.5456C193.075 31.6087 193.103 31.6665 193.167 31.7206C193.207 31.7766 193.274 31.8253 193.374 31.8668C193.462 31.9101 193.569 31.9426 193.693 31.9607C193.816 31.9877 193.943 32.0022 194.079 31.9986C194.17 31.9932 194.258 31.9877 194.346 31.9823C194.517 31.9625 194.664 31.9228 194.788 31.8668C194.84 31.8361 194.891 31.8055 194.943 31.7748C195.031 31.7044 195.078 31.6286 195.078 31.5456V31.4535C195.082 31.3922 195.055 31.3344 194.995 31.2803Z" fill="#FFEBAF"/>
</svg>
