<svg width="203" height="75" fill="none" xmlns="http://www.w3.org/2000/svg"><path d="M30.963 49.07c-.052 0-.078-.051-.078-.155 0-.104.026-.156.078-.156.607 0 1.048-.044 1.326-.13.277-.087.46-.252.546-.494.104-.26.156-.65.156-1.17V34.927c0-.52-.044-.902-.13-1.144a.78.78 0 0 0-.52-.494c-.26-.104-.659-.156-1.196-.156-.052 0-.078-.052-.078-.156 0-.104.026-.156.078-.156H42.48c.173 0 .26.078.26.234l.052 4.368c0 .052-.052.086-.156.104-.087 0-.139-.026-.156-.078-.295-1.335-.797-2.314-1.508-2.938-.71-.624-1.647-.936-2.808-.936h-.78c-.52 0-.901.112-1.144.338-.243.225-.364.572-.364 1.04V46.86c0 .537.07.936.208 1.196.139.26.398.442.78.546.381.104.98.156 1.794.156.035 0 .052.052.052.156 0 .104-.017.156-.052.156-.71 0-1.265-.01-1.664-.026l-2.652-.026-1.95.026c-.347.017-.823.026-1.43.026zm11.345 7.15c-.052 0-.078-.051-.078-.155 0-.104.026-.156.078-.156.416 0 .719-.052.91-.156.208-.087.346-.252.416-.494.086-.243.13-.624.13-1.144V42.077c0-.555-.061-.954-.182-1.196-.122-.243-.338-.364-.65-.364-.278 0-.676.12-1.196.364h-.052c-.052 0-.096-.044-.13-.13-.052-.087-.061-.14-.026-.156L45.22 38.8a.289.289 0 0 1 .13-.026c.208 0 .398.225.572.676.173.433.26 1.014.26 1.742v12.922c0 .52.052.9.156 1.144.12.242.338.407.65.494.329.104.832.156 1.508.156.052 0 .078.052.078.156 0 .104-.026.156-.078.156-.642 0-1.144-.01-1.508-.026l-2.054-.026-1.534.026c-.26.017-.624.026-1.092.026zm6.11-6.811c-.624 0-1.17-.052-1.638-.156-.468-.087-1.066-.252-1.794-.494l.91-1.638c.433.537.866.944 1.3 1.222.45.277 1.022.416 1.716.416 1.75 0 2.626-1.491 2.626-4.472 0-1.318-.312-2.332-.936-3.042-.607-.728-1.37-1.092-2.288-1.092-.607 0-1.136.147-1.586.442-.451.277-.936.71-1.456 1.3l-.26-.312c.884-1.006 1.724-1.734 2.522-2.184.814-.468 1.646-.702 2.496-.702.728 0 1.404.19 2.028.572.64.38 1.152.936 1.534 1.664.38.728.572 1.577.572 2.548 0 1.386-.286 2.53-.858 3.432-.572.884-1.3 1.525-2.184 1.924a6.646 6.646 0 0 1-2.704.572zm11.276 0c-.711 0-1.37-.174-1.976-.52-.59-.364-1.058-.893-1.404-1.586-.347-.694-.52-1.526-.52-2.496 0-1.231.286-2.306.858-3.224a5.683 5.683 0 0 1 2.262-2.132 6.456 6.456 0 0 1 3.016-.728c1.265 0 2.348.398 3.25 1.196l-1.898 1.664c0-.676-.191-1.231-.572-1.664-.364-.434-.85-.65-1.456-.65-.867 0-1.552.433-2.054 1.3-.486.866-.728 1.984-.728 3.354 0 1.3.216 2.314.65 3.042.45.71 1.083 1.066 1.898 1.066.814 0 1.716-.382 2.704-1.144l.208.182c-.728.745-1.413 1.326-2.054 1.742-.624.398-1.352.598-2.184.598zm4.29.026c-.191 0-.356-.226-.494-.676-.139-.451-.208-1.058-.208-1.82v-7.202c.572-.14 1.005-.27 1.3-.39.312-.14.606-.347.884-.624.017-.018.043-.026.078-.026.034 0 .069.017.104.052.052.017.078.043.078.078v7.41c0 .52.052.892.156 1.118.121.208.312.312.572.312.225 0 .58-.096 1.066-.286h.052c.052 0 .095.043.13.13.052.086.052.138 0 .156l-3.588 1.742a.29.29 0 0 1-.13.026zm14.654-7.046h7.487l.183.728h-8.06l.39-.728zm13.805 6.37c.087 0 .13.052.13.156 0 .104-.043.156-.13.156-.346 0-.883-.018-1.611-.052a41.087 41.087 0 0 0-1.638-.052c-.434 0-.963.017-1.587.052-.589.034-1.057.052-1.403.052-.07 0-.104-.052-.104-.156 0-.104.034-.156.104-.156.45 0 .77-.044.962-.13a.538.538 0 0 0 .312-.52c0-.295-.174-.79-.52-1.482L81.68 36.2l1.273-2.236-5.174 11.414c-.225.502-.337.97-.337 1.404 0 .624.216 1.109.65 1.456.45.346 1.048.52 1.793.52.087 0 .13.052.13.156 0 .104-.043.156-.13.156-.312 0-.762-.018-1.352-.052a33.192 33.192 0 0 0-1.716-.052c-.467 0-1.03.017-1.69.052-.589.034-1.066.052-1.43.052-.069 0-.103-.052-.103-.156 0-.104.034-.156.104-.156.485 0 .892-.096 1.222-.286.329-.208.658-.564.987-1.066.33-.52.72-1.283 1.17-2.288l5.642-12.402c.035-.052.113-.078.235-.078.138 0 .216.026.234.078l6.5 12.792c.606 1.23 1.109 2.08 1.507 2.548.4.468.815.702 1.249.702zm.646 7.462c-.052 0-.078-.052-.078-.156 0-.104.026-.156.078-.156.416 0 .72-.052.91-.156.208-.087.347-.252.416-.494.086-.243.13-.624.13-1.144V42.077c0-.555-.06-.954-.182-1.196-.121-.243-.338-.364-.65-.364-.277 0-.676.12-1.196.364h-.052c-.052 0-.096-.044-.13-.13-.052-.087-.06-.14-.026-.156L96 38.8a.289.289 0 0 1 .13-.026c.208 0 .398.225.572.676.173.433.26 1.014.26 1.742v12.922c0 .52.052.9.156 1.144.121.242.338.407.65.494.33.104.832.156 1.508.156.052 0 .078.052.078.156 0 .104-.026.156-.078.156-.642 0-1.144-.01-1.508-.026l-2.054-.026-1.534.026c-.26.017-.624.026-1.092.026zm6.11-6.812c-.624 0-1.17-.052-1.638-.156-.468-.087-1.066-.252-1.794-.494l.91-1.638c.433.537.866.944 1.3 1.222.45.277 1.022.416 1.716.416 1.751 0 2.626-1.491 2.626-4.472 0-1.318-.312-2.332-.936-3.042-.607-.728-1.369-1.092-2.288-1.092-.607 0-1.135.147-1.586.442-.45.277-.936.71-1.456 1.3l-.26-.312c.884-1.006 1.724-1.734 2.522-2.184.814-.468 1.647-.702 2.496-.702.728 0 1.404.19 2.028.572.641.38 1.153.936 1.534 1.664.381.728.572 1.577.572 2.548 0 1.386-.286 2.53-.858 3.432-.572.884-1.3 1.525-2.184 1.924a6.647 6.647 0 0 1-2.704.572zm7.064-.338c-.052 0-.078-.052-.078-.156 0-.104.026-.156.078-.156.416 0 .719-.044.91-.13.208-.087.347-.252.416-.494.069-.26.104-.65.104-1.17V33.757c0-.607-.061-1.04-.182-1.3-.104-.26-.295-.39-.572-.39-.243 0-.572.095-.988.286h-.026c-.052 0-.104-.044-.156-.13-.035-.104-.035-.165 0-.182l3.796-1.794.13-.026c.087 0 .173.043.26.13.104.069.156.138.156.208v16.406c0 .52.035.91.104 1.17.069.242.199.407.39.494.208.086.511.13.91.13.052 0 .078.052.078.156 0 .104-.026.156-.078.156-.485 0-.858-.01-1.118-.026l-1.456-.026-1.508.026c-.277.017-.667.026-1.17.026zm8.814 0h-.234c-.121.017-.329-.165-.624-.546-.295-.382-.78-1.032-1.456-1.95l-.546-.754a17.838 17.838 0 0 0-.832-1.144 1.57 1.57 0 0 0-.546-.442c-.173-.087-.416-.13-.728-.13-.104 0-.416.017-.936.052l-.026-.468c.745-.07 1.482-.104 2.21-.104.693 0 1.213.06 1.56.182.364.12.676.329.936.624.277.277.745.832 1.404 1.664.173.225.451.606.832 1.144.381.572.702.97.962 1.196.26.225.633.346 1.118.364.052 0 .078.052.078.156 0 .104-.026.156-.078.156h-3.094zm-3.718-5.486c.347 0 .737-.468 1.17-1.404.659-1.335 1.231-2.236 1.716-2.704.503-.468 1.04-.702 1.612-.702.503 0 .875.12 1.118.364.26.225.39.528.39.91 0 .398-.113.719-.338.962-.225.242-.555.364-.988.364-.26 0-.529-.07-.806-.208-.277-.14-.529-.208-.754-.208a.955.955 0 0 0-.702.286c-.173.173-.407.554-.702 1.144-.555 1.144-1.127 1.716-1.716 1.716v-.52zm11.151 5.824a3.916 3.916 0 0 1-1.976-.52c-.589-.364-1.057-.893-1.404-1.586-.347-.694-.52-1.526-.52-2.496 0-1.231.286-2.306.858-3.224a5.683 5.683 0 0 1 2.262-2.132 6.455 6.455 0 0 1 3.016-.728c1.265 0 2.349.398 3.25 1.196l-1.898 1.664c0-.676-.191-1.231-.572-1.664-.364-.434-.849-.65-1.456-.65-.867 0-1.551.433-2.054 1.3-.485.866-.728 1.984-.728 3.354 0 1.3.217 2.314.65 3.042.451.71 1.083 1.066 1.898 1.066s1.716-.382 2.704-1.144l.208.182c-.728.745-1.413 1.326-2.054 1.742-.624.398-1.352.598-2.184.598zm4.29.026c-.191 0-.355-.226-.494-.676-.139-.451-.208-1.058-.208-1.82v-7.202c.572-.14 1.005-.27 1.3-.39.312-.14.607-.347.884-.624.017-.018.043-.026.078-.026s.069.017.104.052c.052.017.078.043.078.078v7.41c0 .52.052.892.156 1.118.121.208.312.312.572.312.225 0 .581-.096 1.066-.286h.052c.052 0 .095.043.13.13.052.086.052.138 0 .156l-3.588 1.742a.29.29 0 0 1-.13.026zm11.55-.364c-.052 0-.078-.052-.078-.156 0-.104.026-.156.078-.156.416 0 .72-.044.91-.13.208-.087.347-.252.416-.494.07-.26.104-.65.104-1.17V42.31c0-1.127-.268-1.69-.806-1.69-.19 0-.416.06-.676.182h-.026c-.052 0-.095-.044-.13-.13-.034-.104-.026-.165.026-.182l3.484-1.664a.29.29 0 0 1 .13-.026c.087 0 .174.043.26.13.104.069.156.138.156.208v7.826c0 .52.035.91.104 1.17.07.242.2.407.39.494.191.086.494.13.91.13.035 0 .052.052.052.156 0 .104-.017.156-.052.156-.485 0-.858-.01-1.118-.026l-1.456-.026-1.534.026c-.277.017-.658.026-1.144.026zm-6.994 0c-.052 0-.078-.052-.078-.156 0-.104.026-.156.078-.156.416 0 .72-.044.91-.13.208-.087.347-.252.416-.494.07-.26.104-.65.104-1.17V42.31c0-1.127-.268-1.69-.806-1.69-.19 0-.416.06-.676.182h-.026c-.052 0-.095-.044-.13-.13-.034-.104-.026-.165.026-.182l3.484-1.664a.29.29 0 0 1 .13-.026c.087 0 .174.043.26.13.104.069.156.138.156.208v7.826c0 .52.035.91.104 1.17.07.242.2.407.39.494.191.086.494.13.91.13.035 0 .052.052.052.156 0 .104-.017.156-.052.156-.485 0-.858-.01-1.118-.026l-1.456-.026-1.508.026c-.277.017-.667.026-1.17.026zm2.6-5.33h6.994v.624h-6.994v-.624zm11.344 5.33c-.052 0-.078-.052-.078-.156 0-.104.026-.156.078-.156.537 0 .901-.122 1.092-.364.191-.26.286-.737.286-1.43V42.31c0-.59-.061-1.014-.182-1.274s-.321-.39-.598-.39c-.225 0-.546.095-.962.286h-.026c-.069 0-.121-.044-.156-.13-.035-.104-.026-.165.026-.182l3.926-1.82.078-.026c.087 0 .173.043.26.13.087.086.13.164.13.234v.572a51.913 51.913 0 0 0-.052 2.548v4.706c0 .693.095 1.17.286 1.43.208.242.581.364 1.118.364.052 0 .078.052.078.156 0 .104-.026.156-.078.156-.451 0-.806-.01-1.066-.026l-1.56-.026-1.534.026c-.26.017-.615.026-1.066.026zm2.496-11.96c-.503 0-.893-.14-1.17-.416-.277-.278-.416-.668-.416-1.17 0-.451.139-.806.416-1.066.295-.278.685-.416 1.17-.416.485 0 .858.13 1.118.39.26.26.39.624.39 1.092 0 .502-.13.892-.39 1.17-.26.277-.633.416-1.118.416zm10.418 1.924c.884 0 1.707.208 2.47.624.78.398 1.404.988 1.872 1.768.468.78.702 1.716.702 2.808 0 1.577-.468 2.834-1.404 3.77-.936.936-2.323 1.404-4.16 1.404-1.231 0-2.253-.234-3.068-.702-.815-.468-1.447-1.335-1.898-2.6-.451-1.266-.676-3.068-.676-5.408 0-3.9.537-6.622 1.612-8.164 1.075-1.543 2.591-2.314 4.55-2.314 1.248 0 2.193.268 2.834.806.641.537.962 1.334.962 2.392 0 .9-.225 1.785-.676 2.652a7.39 7.39 0 0 1-1.742 2.262c-.711.624-1.465 1.04-2.262 1.248l.884-.546zm.026 9.906c.763 0 1.309-.27 1.638-.806.347-.555.52-1.482.52-2.782 0-1.872-.381-3.268-1.144-4.186-.745-.936-1.829-1.404-3.25-1.404-.589 0-1.075.069-1.456.208v-.832c.381.052.858.078 1.43.078.624 0 1.196-.243 1.716-.728.52-.486.927-1.136 1.222-1.95a7.565 7.565 0 0 0 .468-2.678c0-1.04-.165-1.83-.494-2.366-.329-.555-.771-.832-1.326-.832-.919 0-1.586.719-2.002 2.158-.416 1.438-.624 3.752-.624 6.942 0 2.46.13 4.368.39 5.72.277 1.334.65 2.244 1.118 2.73.485.485 1.083.728 1.794.728z" fill="#FFEBAF"/><mask id="a" style="mask-type:luminance" maskUnits="userSpaceOnUse" x="51" y="0" width="42" height="38"><path d="M51.079 13.215 74.207.055 92.373 23.97 69.244 37.13 51.08 13.215z" fill="#fff"/></mask><g mask="url(#a)"><path d="M85.829 18.249c.424 1.072.664 2.198.631 3.348-.033 1.187-.39 2.365-1.013 3.45-1.427 2.48-4.013 4.302-6.82 5.607a29.94 29.94 0 0 1-4.378 1.643c-1.26.36-2.595.62-3.908.548a6.351 6.351 0 0 1-3.722-1.441c-1.112-.9-1.96-2.024-2.623-3.2-1.378-2.444-1.973-5.174-2.818-7.788a32.485 32.485 0 0 0-.691-1.938c-.066-.165-.218-.24-.38-.247-1.878-1.624-2.849-4.018-2.514-6.347.082-.573.206-1.206.67-1.67.493-.491 1.253-.803 1.928-1.066 1.39-.54 2.872-.848 4.368-1 1.508-.151 3.03-.156 4.536-.083 1.586.076 3.188.191 4.737.463 1.517.266 2.931.748 4.23 1.434 1.26.665 2.383 1.504 3.401 2.412 1.874 1.674 3.49 3.654 4.366 5.875zm-2.396-5.17c-1.969-2.063-4.404-3.93-7.407-4.85-1.59-.487-3.28-.687-4.971-.82-1.593-.126-3.2-.205-4.81-.152-1.596.053-3.208.239-4.756.648-.77.203-1.516.468-2.236.786-.776.342-1.531.751-1.99 1.405-.407.585-.531 1.28-.604 1.933a7.2 7.2 0 0 0 .04 1.91 7.97 7.97 0 0 0 1.51 3.549c.393.521.86 1.003 1.38 1.435.036.03.074.051.113.067 1.014 2.642 1.57 5.415 2.7 8.022.568 1.31 1.283 2.583 2.26 3.698.955 1.09 2.158 2.116 3.702 2.587 2.77.845 5.84-.046 8.479-1.047 3.208-1.216 6.328-2.888 8.38-5.389.906-1.103 1.6-2.332 1.927-3.636.31-1.224.291-2.469.037-3.676-.51-2.41-1.978-4.61-3.754-6.47z" fill="#FFEBAF"/></g><path d="M59.23 11.62c-.165-.06-.341.015-.328.186.135 1.753 1.073 3.664 2.545 5.19.143.15.362.155.444.05.095-.12.025-.315-.118-.462-1.268-1.315-2.105-3.027-2.22-4.536a.519.519 0 0 0-.323-.427zM82.802 16.927c-.162-.164-.416-.24-.653-.106-.197.111-.314.394-.151.56.987.997 1.644 2.232 1.849 3.545.205 1.299.05 2.738-.718 3.93-.425.658-1.056 1.214-1.925 1.41-.248.055-.387.315-.318.51.076.219.339.307.589.25 1.856-.416 2.863-2.084 3.212-3.555a6.87 6.87 0 0 0-.411-4.386 7.275 7.275 0 0 0-1.474-2.158zM68.066 20.36a.823.823 0 0 0-.13.194.357.357 0 0 0-.036.063c0 .002 0 .005-.004.007a4.997 4.997 0 0 1 .306-1.528 8.57 8.57 0 0 0-.136 1.264zm4.245 5.165a6.253 6.253 0 0 1-.32-.043.517.517 0 0 0 .099-.07c.027.007.052.014.08.018a.354.354 0 0 0 .149.085c-.003.003-.007.006-.008.01zm-2.979-8.336a5.97 5.97 0 0 0-.104.413.533.533 0 0 0-.189-.045c.094-.125.19-.25.293-.368zm8.913 5.09a14.926 14.926 0 0 1-3.432 1.314c-.461.114-.958.212-1.43.159-.524-.06-.928-.319-1.298-.612A5.497 5.497 0 0 1 70 19.043a5.315 5.315 0 0 1 .564-2.59.367.367 0 0 0-.011-.378c.136-.135.189-.312.07-.471-.118-.155-.437-.24-.632-.1-2.492 1.798-3.671 4.763-2.668 7.314a5.428 5.428 0 0 0 3.196 3.094 7.148 7.148 0 0 0 3.423.354l.072.01a.483.483 0 0 0 .392-.09 6.88 6.88 0 0 0 .607-.156c1.821-.56 3.265-1.83 3.922-3.36.145-.342-.374-.557-.689-.39zM122.321 66.294c-.149 1.807-1.05 3.51-2.454 4.849-1.404 1.34-3.253 2.314-5.274 2.79-2.356.554-4.879.45-7.201-.176a14.326 14.326 0 0 1-3.237-1.298c-.961-.533-1.885-1.198-2.556-2-.332-.398-.598-.833-.72-1.314-.12-.479-.077-.977.053-1.45.282-1.026.911-1.946 1.429-2.892.56-1.02.994-2.094 1.282-3.195.248-.946.373-1.912.604-2.858.22-.893.537-1.785 1.178-2.525.583-.675 1.439-1.145 2.366-1.394 2.096-.561 4.272-.056 6.103.89 1.011.522 1.926 1.16 2.798 1.837a34 34 0 0 1 3.946 3.603c.009.01.02.016.03.025a6.926 6.926 0 0 1 1.653 5.108zm-.232-4.32a7.3 7.3 0 0 0-.872-1.209.568.568 0 0 0-.078-.069c-1.633-1.745-3.479-3.398-5.56-4.753-1.868-1.214-4.123-2.136-6.518-1.96-1.077.079-2.152.356-3.044.892-.937.564-1.581 1.359-1.996 2.268-.419.918-.593 1.902-.777 2.87-.208 1.084-.471 2.147-.899 3.184-.443 1.067-1.097 2.046-1.618 3.084-.5 1.003-.855 2.1-.512 3.185.326 1.03 1.195 1.89 2.105 2.585.926.707 1.983 1.281 3.106 1.726 2.336.925 4.965 1.336 7.525 1.069 2.333-.243 4.525-1.036 6.328-2.337 1.692-1.223 2.981-2.886 3.51-4.74a7.504 7.504 0 0 0-.7-5.795z" fill="#FFEBAF"/><path d="M120.272 67.17a10.497 10.497 0 0 1-1.917 3.414c-.728.877-1.664 1.684-2.83 2.202-.63.279-1.326.46-2.05.493-.526.023-.53.671 0 .648 3.139-.142 5.358-2.362 6.597-4.434.413-.69.747-1.411.992-2.151.134-.404-.659-.576-.792-.172zM108.604 56.012c-.677.47-1.258 1.113-1.72 1.879-.222.367-.41.763-.56 1.18-.184.509-.326 1.054-.193 1.608.115.476.726.274.611-.205-.096-.401.051-.819.19-1.178.147-.374.323-.733.529-1.063a5.232 5.232 0 0 1 1.464-1.552c.353-.246.035-.915-.321-.669zM113.899 67.047c-.787.775-1.249 1.717-1.474 2.696-.041.181-.072.363-.1.546a9.246 9.246 0 0 0-.797-1.114c-.59-.71-1.31-1.411-2.284-1.786a4.595 4.595 0 0 0-.673-.2c1.594-.85 2.568-2.331 2.923-3.838.024-.104.045-.21.064-.313.152.327.322.65.529.957a4.67 4.67 0 0 0 2.397 1.842c.294.096.6.153.913.188a5.195 5.195 0 0 0-1.498 1.022zm3.008-1.371c-.045-.096-.15-.173-.316-.173-.561-.002-1.128-.006-1.666-.145a3.517 3.517 0 0 1-1.158-.547c-.77-.552-1.247-1.299-1.589-2.071a13.252 13.252 0 0 1-.285-.71l-.135-.371c-.023-.064-.047-.128-.068-.192l-.017-.053c-.006-.017.011-.074-.011-.034.078-.142.051-.31-.128-.393-.152-.072-.408-.04-.487.103a.562.562 0 0 0-.061.163.223.223 0 0 0-.048.159c.129 1.757-.486 3.682-2.13 4.911-.399.3-.865.55-1.371.716a.434.434 0 0 0-.215.141c-.085.05-.143.124-.143.222 0 .141.163.306.356.288 1.282-.125 2.336.557 3.079 1.326a8.593 8.593 0 0 1 1.703 2.549v.003a.235.235 0 0 0 .088.191c.167.314.813.165.673-.178l-.046-.107c.051-1.726.54-3.654 2.381-4.727.457-.267.96-.458 1.51-.556.34-.06.313-.393.084-.515zM114.991 61.206a.47.47 0 0 0-.207-.134 1.097 1.097 0 0 0-.319-.086 1.733 1.733 0 0 0-.386-.036c-.088.007-.179.01-.267.015-.167.02-.315.056-.438.107a4.61 4.61 0 0 0-.159.085c-.088.064-.136.133-.136.208v.168c-.004.058.024.11.084.16a.505.505 0 0 0 .211.134c.088.04.195.068.319.086.119.024.246.036.386.034l.263-.015c.171-.02.318-.054.442-.105.052-.028.103-.056.159-.084.088-.065.135-.136.135-.21v-.168c.004-.056-.023-.11-.087-.159zM116.063 62.373a.452.452 0 0 0-.116-.2l-.093-.092a.363.363 0 0 0-.147-.094.338.338 0 0 0-.173-.038.342.342 0 0 0-.176.038.377.377 0 0 0-.147.094l-.071.092a.446.446 0 0 0-.061.229c.003.04.011.08.016.12.02.077.06.144.116.2l.092.091a.376.376 0 0 0 .147.094.344.344 0 0 0 .174.038.342.342 0 0 0 .176-.038.376.376 0 0 0 .147-.093l.07-.093a.437.437 0 0 0 .062-.229l-.016-.119z" fill="#FFEBAF"/><mask id="b" style="mask-type:luminance" maskUnits="userSpaceOnUse" x="167" y="7" width="36" height="39"><path d="M167.079 7.043h35v38.562h-35V7.043z" fill="#fff"/></mask><g mask="url(#b)"><path d="M199.179 29.562a39.692 39.692 0 0 1-1.984 5.117c-.728 1.55-1.537 3.08-2.517 4.5-1.688 2.445-4.137 4.814-7.377 5.097-1.961.172-3.949-.268-5.83-.749-1.778-.455-3.518-1.053-5.144-1.877-2.957-1.497-5.577-3.803-6.824-6.804-.668-1.601-.869-3.286-.684-4.995.196-1.801.713-3.698 1.662-5.279.905-1.51 2.264-2.703 3.609-3.857 1.564-1.338 3.131-2.674 4.697-4.009l2.326-1.987a.594.594 0 0 0 .082-.086c.164-.026.313-.108.383-.253 1.318-2.67 3.895-4.7 6.898-5.473 2.977-.766 6.119-.11 8.561 1.653a9.673 9.673 0 0 1 2.844 3.203c.83 1.532 1.074 3.256 1.078 4.96.005 3.65-.693 7.346-1.78 10.84zm2.476-14.429c-.433-1.52-1.273-2.919-2.385-4.088-2.187-2.3-5.468-3.7-8.754-3.538-3.386.168-6.596 1.838-8.66 4.369a10.347 10.347 0 0 0-1.256 1.941.576.576 0 0 0-.296.138c-1.649 1.407-3.3 2.816-4.948 4.225-1.503 1.281-3.092 2.517-4.424 3.963-.652.707-1.236 1.473-1.68 2.31a13.46 13.46 0 0 0-1.063 2.738c-.529 1.918-.768 3.922-.406 5.888.618 3.34 2.919 6.226 5.762 8.198 1.562 1.085 3.313 1.905 5.126 2.541a29.71 29.71 0 0 0 5.746 1.416c1.991.278 3.949.187 5.796-.615 1.532-.667 2.846-1.748 3.931-2.956 1.122-1.247 2.045-2.643 2.843-4.093a41.646 41.646 0 0 0 2.454-5.296 40.894 40.894 0 0 0 2.553-11.242c.162-1.964.206-3.98-.339-5.899z" fill="#FFEBAF"/></g><path d="M188.058 13.507c-.072-.296-.411-.571-.695-.441a15.257 15.257 0 0 0-5.123 3.88c-.504.583.292 1.472.798.886 1.306-1.513 2.882-2.742 4.624-3.554.284-.13.484-.416.396-.771zM191.618 39.002c-.345-.06-.654.072-.766.274-1.141 2.055-4.622 3.284-7.995 2.83-.782-.104-1.114.651-.332.758 2.038.273 4.215.07 6.005-.615 1.649-.631 2.885-1.62 3.521-2.765.111-.2-.126-.428-.433-.482zM187.779 29.966l.133-2.182c.363.18.728.358 1.085.544.811.422 1.611.863 2.397 1.322-1.123.408-2.394.385-3.615.316zm-4.225.93c1.01-.017 2.018 0 3.027.05l-.195 3.176a125.995 125.995 0 0 1-2.832-3.226zm-3.259-.876c-.594.054-1.187.121-1.776.197.604-.504 1.212-1.001 1.828-1.492.326.407.654.812.985 1.216-.347.023-.693.05-1.037.08zm-.941-4.357c-.403-.534-.801-1.073-1.198-1.613 1.547.435 3.07.936 4.567 1.494-.734.544-1.461 1.095-2.182 1.655-.4-.51-.797-1.022-1.187-1.536zm7.292 4.238a46.132 46.132 0 0 0-3.95-.031c-.503-.604-.999-1.212-1.489-1.825.888-.693 1.79-1.372 2.703-2.04.978.392 1.946.81 2.899 1.253l-.163 2.643zm-.944-5.18a87.47 87.47 0 0 1 1.318-.907c-.045.767-.093 1.534-.14 2.3a61.955 61.955 0 0 0-1.955-.841c.258-.184.516-.37.777-.552zm7.103 4.522a55.873 55.873 0 0 0-4.822-2.606l.224-3.617a.18.18 0 0 0 .032-.023c.251-.163.369-.455.206-.716-.145-.228-.528-.353-.779-.188a113.156 113.156 0 0 0-3.919 2.706 57.912 57.912 0 0 0-6.778-2.161c-.46-.115-.922.38-.643.771a124.842 124.842 0 0 0 3.35 4.467c-.303.243-.605.485-.906.73-.779.63-1.545 1.272-2.304 1.924a.526.526 0 0 0-.369.637c.086.293.397.418.698.366a43.575 43.575 0 0 1 5.366-.59 122.892 122.892 0 0 0 4.309 4.888c.344.37.944.048.971-.372l.274-4.45c.669.035 1.337.058 2.005.016 1.09-.067 2.175-.299 3.085-.877.358-.23.372-.682 0-.905zM188.578 21.019c-.665 0-.667.997 0 .997s.669-.997 0-.997zM190.135 19.022h-.113c-1.256 0-1.26.998 0 .998h.113c1.256 0 1.26-.998 0-.998zM188.062 38.356a.513.513 0 0 0-.117-.22l-.092-.078a.413.413 0 0 0-.228-.068h-.092a.303.303 0 0 0-.176.042.334.334 0 0 0-.144.104.401.401 0 0 0-.096.16.43.43 0 0 0-.038.193l.016.132c.022.085.06.159.118.22l.09.078a.416.416 0 0 0 .23.067h.092a.296.296 0 0 0 .173-.041.332.332 0 0 0 .147-.104.376.376 0 0 0 .094-.16.415.415 0 0 0 .04-.192l-.017-.133zM174.994 32.557a.735.735 0 0 0-.207-.292.834.834 0 0 0-.322-.188.82.82 0 0 0-.387-.076l-.262.033c-.171.043-.319.119-.442.23a8.451 8.451 0 0 1-.159.185.851.851 0 0 0-.136.459v.18a.632.632 0 0 0 .088.351c.04.112.107.21.207.293.091.09.195.151.322.188.12.054.247.083.382.075.092-.007.18-.021.267-.028.171-.044.315-.123.442-.235l.155-.184a.819.819 0 0 0 .136-.46v-.18a.629.629 0 0 0-.084-.35zM176.063 22.441a.44.44 0 0 0-.118-.198c-.031-.03-.06-.061-.09-.092a.34.34 0 0 0-.147-.094.343.343 0 0 0-.175-.04.351.351 0 0 0-.176.04.315.315 0 0 0-.144.094l-.073.092a.463.463 0 0 0-.061.227l.016.12a.464.464 0 0 0 .118.2l.09.093a.376.376 0 0 0 .147.094c.054.027.113.04.175.038a.361.361 0 0 0 .175-.038.355.355 0 0 0 .145-.094c.025-.03.049-.061.071-.092a.433.433 0 0 0 .063-.23 4.031 4.031 0 0 1-.016-.12z" fill="#FFEBAF"/><mask id="c" style="mask-type:luminance" maskUnits="userSpaceOnUse" x="0" y="37" width="34" height="36"><path d="M.079 50.403 20.55 37.99l13.284 21.844-20.473 12.413L.08 50.403z" fill="#fff"/></mask><g mask="url(#c)"><path d="M26.613 51.776c.283 1.18.488 2.385.602 3.603.108 1.135.162 2.289.078 3.442-.145 1.983-.761 4.193-2.56 5.502-1.087.794-2.401 1.25-3.667 1.644-1.197.373-2.421.651-3.656.761-2.245.2-4.572-.177-6.336-1.434-.942-.67-1.64-1.554-2.12-2.587-.506-1.09-.857-2.348-.846-3.58.009-1.177.393-2.334.782-3.465.454-1.313.91-2.625 1.367-3.937l.675-1.95a.391.391 0 0 0 .019-.078c.087-.073.145-.172.137-.28-.15-1.98.659-4.043 2.149-5.546a7.225 7.225 0 0 1 5.577-2.1 6.494 6.494 0 0 1 2.767.806c1.013.574 1.75 1.464 2.34 2.428 1.26 2.066 2.125 4.407 2.692 6.771zm-3.522-9.052c-.778-.708-1.75-1.202-2.804-1.47-2.071-.527-4.473-.157-6.339 1.1-1.922 1.297-3.225 3.381-3.56 5.546a6.81 6.81 0 0 0-.066 1.546.401.401 0 0 0-.126.183l-1.439 4.148c-.438 1.259-.941 2.523-1.222 3.814a7.425 7.425 0 0 0-.187 1.905c.03.657.15 1.302.321 1.927.352 1.274.902 2.495 1.791 3.48 1.512 1.672 3.852 2.491 6.194 2.6 1.288.06 2.595-.096 3.874-.378a20.878 20.878 0 0 0 3.849-1.236c1.26-.548 2.374-1.294 3.178-2.404.667-.921 1.063-2 1.281-3.068.227-1.105.286-2.223.254-3.327a27.17 27.17 0 0 0-.39-3.87 26.385 26.385 0 0 0-2.379-7.275c-.581-1.17-1.251-2.327-2.23-3.22z" fill="#FFEBAF"/></g><path d="M14.28 46.794c-.132-.127-.412-.153-.534.011a10.113 10.113 0 0 0-1.733 3.749c-.108.472.622.658.73.183a9.23 9.23 0 0 1 1.549-3.41c.122-.164.148-.38-.012-.532zM25.18 59.74c-.23.086-.365.282-.354.452.108 1.732-1.51 3.772-3.71 4.691-.51.214-.418.819.093.606 1.33-.555 2.558-1.467 3.37-2.55.746-.999 1.106-2.079 1.047-3.044-.01-.169-.241-.23-.446-.154zM20.078 55.934l-.64-1.252c.279-.032.559-.066.837-.093.63-.06 1.26-.107 1.889-.137-.546.63-1.323 1.078-2.086 1.482zm-2.25 2.042c.606-.375 1.222-.73 1.849-1.068l.932 1.823a84.513 84.513 0 0 1-2.782-.755zm-2.264.697c-.342.245-.68.496-1.011.751.2-.497.403-.99.614-1.484.332.106.665.21.999.314a43.15 43.15 0 0 0-.602.419zm-2.01-2.063c-.422-.149-.842-.302-1.26-.456 1.08-.32 2.168-.595 3.26-.829a81.787 81.787 0 0 0-.774 1.703c-.411-.136-.82-.275-1.227-.418zm5.817-.302c-.82.44-1.621.911-2.403 1.413a77.313 77.313 0 0 1-1.505-.468c.309-.704.63-1.404.962-2.104a44.262 44.262 0 0 1 2.17-.358c.26.506.517 1.011.776 1.517zm-2.285-2.515c.163-.328.33-.653.498-.977l.676 1.32c-.488.072-.977.154-1.462.243.095-.195.19-.391.288-.586zm5.798-.077a40.838 40.838 0 0 0-3.783.308l-1.06-2.076a.119.119 0 0 0 .011-.024c.099-.18.073-.385-.112-.47-.163-.073-.437-.004-.534.178a81.317 81.317 0 0 0-1.479 2.911 43.627 43.627 0 0 0-4.82 1.262c-.316.103-.432.543-.134.658a81.56 81.56 0 0 0 3.507 1.251l-.308.73c-.263.63-.514 1.261-.758 1.896-.15.14-.14.375-.013.485.149.13.378.087.543-.051A33.632 33.632 0 0 1 17 58.507a80.754 80.754 0 0 0 4.226 1.136c.33.08.588-.315.465-.557-.436-.85-.872-1.702-1.306-2.554a13.43 13.43 0 0 0 1.22-.716c.637-.431 1.218-.952 1.578-1.601.14-.256 0-.51-.3-.499z" fill="#FFEBAF"/><path d="M17.142 50.57c-.57.34-.058 1.2.515.858.572-.342.06-1.201-.515-.858zM17.512 49.186l-.049.029c-.539.322-.026 1.18.514.857l.05-.029c.538-.322.025-1.18-.515-.857zM13.209 62.554a.37.37 0 0 0-.165-.073.415.415 0 0 0-.187.002.408.408 0 0 0-.185.067l-.104.081a.506.506 0 0 0-.13.213 3.29 3.29 0 0 1-.021.12.428.428 0 0 0 .06.232l.046.077c.031.056.073.098.128.128.046.038.1.063.165.073a.366.366 0 0 0 .186-.002.405.405 0 0 0 .184-.065l.107-.081a.522.522 0 0 0 .13-.214l.018-.12a.411.411 0 0 0-.06-.231l-.046-.078a.318.318 0 0 0-.127-.129zM10.569 56.157a.44.44 0 0 0-.204-.11c-.042-.01-.083-.022-.125-.033a.336.336 0 0 0-.174-.005.344.344 0 0 0-.17.056.348.348 0 0 0-.131.124.32.32 0 0 0-.076.155l-.015.116c.003.08.023.157.065.227l.076.095c.059.056.126.091.204.112l.125.033a.372.372 0 0 0 .174.005.367.367 0 0 0 .17-.057.361.361 0 0 0 .132-.123.351.351 0 0 0 .075-.155c.006-.039.01-.077.014-.115a.43.43 0 0 0-.064-.23l-.076-.095zM194.995 31.28a.522.522 0 0 0-.207-.146 1.138 1.138 0 0 0-.323-.094 1.467 1.467 0 0 0-.386-.038c-.088.006-.175.01-.263.017-.171.02-.319.06-.442.115l-.159.092c-.088.07-.136.146-.136.227v.093c-.004.063.024.12.088.175.04.056.107.104.207.146.088.043.195.076.319.094.123.027.25.041.386.038l.267-.017c.171-.02.318-.06.442-.115l.155-.092c.088-.07.135-.146.135-.23v-.092c.004-.06-.023-.119-.083-.173z" fill="#FFEBAF"/></svg>